<?xml version="1.0" encoding="UTF-8" ?>
<!DOCTYPE svg PUBLIC "-//W3C//DTD SVG 1.1//EN" "http://www.w3.org/Graphics/SVG/1.1/DTD/svg11.dtd">
<svg width="404pt" height="467pt" viewBox="0 0 404 467" version="1.1" xmlns="http://www.w3.org/2000/svg">
<path fill="#457da0" stroke="#457da0" stroke-width="0.09375" opacity="1.00" d=" M 201.4 0.0 L 212.6 0.0 C 213.8 1.0 215.5 0.5 216.9 0.6 C 223.9 0.6 231.0 1.3 237.7 3.3 C 262.7 8.6 285.6 22.4 303.1 41.0 C 318.8 57.8 329.5 78.9 334.4 101.4 C 336.2 112.1 337.2 123.1 337.0 134.0 C 337.1 140.9 336.7 147.9 337.2 154.8 C 357.3 189.9 377.8 224.9 397.9 260.1 C 403.3 269.3 404.3 280.5 402.8 291.0 C 399.5 310.6 382.7 327.1 363.1 329.9 C 353.9 331.0 344.1 330.5 335.7 326.3 C 325.9 321.7 317.5 313.9 312.8 304.1 C 312.4 303.3 311.9 302.7 311.2 302.2 C 311.0 306.8 312.2 311.4 312.2 316.0 C 312.7 339.0 314.3 362.0 314.4 385.0 C 313.7 396.6 308.6 408.1 300.1 416.1 C 290.5 425.7 276.7 431.0 263.1 429.7 C 249.5 428.8 236.4 421.8 228.3 410.7 C 222.2 402.8 218.9 392.9 218.7 382.9 C 217.2 350.3 216.2 317.6 214.9 285.0 C 207.7 285.3 200.5 284.2 193.2 284.3 C 192.5 322.2 190.3 360.1 189.3 398.0 C 188.9 405.6 188.6 413.3 188.3 420.9 C 187.8 441.5 172.4 460.7 152.2 465.3 C 149.8 466.3 146.9 465.8 144.6 467.0 L 139.4 467.0 C 139.0 466.8 138.2 466.5 137.8 466.4 C 126.7 466.7 116.0 461.5 107.9 454.1 C 100.0 447.1 95.1 437.3 93.0 427.1 C 91.8 412.4 93.6 397.7 93.7 383.0 C 95.1 347.1 96.4 311.1 97.8 275.1 C 97.4 275.2 96.6 275.3 96.3 275.4 C 87.8 280.1 79.5 285.1 70.9 289.8 C 68.9 291.0 66.7 291.9 64.4 292.5 C 49.6 298.4 32.0 295.2 19.4 285.6 C 7.5 276.7 0.1 261.9 0.6 247.0 C 0.3 235.0 5.5 223.3 13.6 214.6 C 19.0 208.7 26.2 205.0 33.0 201.0 C 48.2 192.2 63.4 183.4 78.7 174.7 C 80.0 173.8 81.9 173.4 82.6 171.8 C 81.9 162.6 82.0 153.3 82.0 144.0 C 76.5 146.3 71.2 149.1 65.4 150.4 C 58.5 152.3 51.2 152.6 44.0 152.3 C 38.7 151.4 32.7 150.3 29.3 145.7 C 26.2 141.5 27.9 135.7 31.0 132.0 C 37.3 124.4 46.5 119.8 55.7 116.8 C 56.3 115.5 54.8 114.7 54.1 113.9 C 50.1 109.8 47.1 104.8 44.0 100.0 C 40.2 92.7 36.7 84.5 38.1 76.0 C 38.6 72.0 41.8 68.0 46.0 67.7 C 49.6 67.4 53.4 67.7 56.6 69.5 C 68.9 75.6 78.0 86.6 84.3 98.6 C 84.7 98.7 85.3 98.7 85.7 98.8 C 85.8 96.2 86.3 93.6 87.2 91.1 C 90.6 80.1 95.4 69.4 101.6 59.6 C 117.2 34.7 141.7 15.8 169.4 6.4 C 179.4 3.7 189.3 0.6 199.8 0.6 C 200.2 0.4 201.0 0.1 201.4 0.0 M 155.3 76.4 C 147.9 77.4 140.8 80.5 135.0 85.1 C 124.7 93.1 118.6 106.0 119.0 119.0 C 119.3 130.2 124.2 141.1 132.4 148.7 C 140.0 155.9 150.5 160.0 161.0 160.0 C 193.3 160.0 225.7 160.0 258.0 160.0 C 267.4 160.0 276.7 156.7 284.0 150.9 C 293.7 143.4 299.7 131.3 300.0 119.0 C 300.3 107.9 295.9 96.8 288.2 88.8 C 280.4 80.7 269.2 76.0 258.0 76.0 C 226.7 76.0 195.3 76.0 164.0 76.0 C 161.1 76.0 158.2 76.0 155.3 76.4 M 141.3 191.2 C 141.2 193.0 140.1 195.8 142.3 196.9 C 144.4 197.6 147.7 196.8 148.5 199.6 C 149.2 206.4 148.1 213.2 149.0 220.0 C 149.0 221.9 150.9 223.1 151.1 224.9 C 150.6 226.7 149.1 228.1 149.0 230.0 C 148.2 236.5 148.9 243.2 148.6 249.7 C 148.3 251.8 145.9 252.9 144.0 252.4 C 140.8 252.3 139.8 257.4 142.3 259.0 C 148.3 260.8 155.9 256.6 156.3 250.0 C 156.5 243.5 156.2 236.9 156.4 230.4 C 157.3 228.2 159.7 228.2 161.7 228.0 C 163.8 226.9 162.8 224.0 162.7 222.1 C 160.5 221.6 157.8 221.7 156.4 219.6 C 156.1 212.5 156.8 205.2 156.0 198.1 C 154.3 191.9 147.1 189.1 141.3 191.2 M 169.7 199.0 C 169.6 216.0 169.7 233.0 169.7 250.0 C 169.9 256.8 177.5 260.4 183.6 259.3 C 183.8 260.4 184.0 261.6 184.3 262.7 C 190.3 264.8 197.9 260.7 198.3 254.0 C 198.4 241.0 198.3 228.0 198.3 215.1 C 198.2 214.6 198.0 213.6 197.9 213.1 C 195.9 212.6 192.2 211.7 191.4 214.3 C 191.3 225.9 191.3 237.4 191.3 249.0 C 191.3 250.9 191.2 252.8 190.6 254.6 C 189.6 256.7 186.9 256.2 185.0 256.7 C 184.8 255.7 184.6 254.6 184.4 253.6 C 182.8 252.0 180.3 252.7 178.4 251.8 C 176.8 250.7 177.1 248.7 177.0 247.1 C 177.0 232.4 177.0 217.7 177.0 203.0 C 177.1 201.6 176.8 199.8 177.8 198.7 C 179.3 196.5 182.7 198.1 184.4 196.4 C 184.8 194.6 185.2 192.4 183.8 190.9 C 177.9 189.2 170.6 192.6 169.7 199.0 M 217.0 197.1 C 212.3 199.2 209.2 204.1 208.3 209.2 C 208.3 217.0 208.3 224.9 208.3 232.8 C 209.4 239.0 214.2 244.2 220.1 245.9 C 224.5 247.6 229.2 246.2 233.7 246.3 C 235.1 248.6 236.4 250.9 237.8 253.2 C 239.8 254.8 242.2 252.9 243.8 251.7 C 245.3 247.6 239.4 245.4 240.4 241.4 C 244.0 238.0 245.3 232.8 245.0 228.0 C 244.7 221.1 245.5 214.2 244.5 207.4 C 241.7 195.8 226.7 191.7 217.0 197.1 M 193.3 199.4 C 190.4 200.1 191.4 203.6 191.4 205.7 C 192.0 208.1 194.8 207.8 196.6 207.7 C 199.2 206.2 199.0 202.6 197.9 200.2 C 196.8 198.8 194.8 199.4 193.3 199.4 M 254.1 214.2 C 253.9 220.5 254.0 226.8 254.0 233.1 C 253.8 238.5 257.3 243.7 262.3 245.8 C 265.3 247.3 268.7 246.5 271.9 246.7 C 278.0 245.4 283.3 239.5 282.7 233.1 C 282.6 226.8 282.7 220.6 282.6 214.4 C 281.5 211.8 276.5 211.9 275.3 214.4 C 275.1 221.6 275.7 228.8 275.1 235.9 C 273.1 242.4 262.4 241.5 261.3 234.9 C 261.0 227.7 262.0 220.3 260.8 213.2 C 258.7 212.0 255.5 212.2 254.1 214.2 Z" />
<path fill="#a7c0d0" stroke="#a7c0d0" stroke-width="0.09375" opacity="1.00" d=" M 155.3 76.4 C 158.2 76.0 161.1 76.0 164.0 76.0 C 195.3 76.0 226.7 76.0 258.0 76.0 C 269.2 76.0 280.4 80.7 288.2 88.8 C 295.9 96.8 300.3 107.9 300.0 119.0 C 299.7 131.3 293.7 143.4 284.0 150.9 C 276.7 156.7 267.4 160.0 258.0 160.0 C 225.7 160.0 193.3 160.0 161.0 160.0 C 150.5 160.0 140.0 155.9 132.4 148.7 C 124.2 141.1 119.3 130.2 119.0 119.0 C 118.6 106.0 124.7 93.1 135.0 85.1 C 140.8 80.5 147.9 77.4 155.3 76.4 M 158.3 98.4 C 154.7 99.2 151.7 101.8 149.8 104.9 C 147.2 109.2 148.2 114.3 148.0 119.0 C 147.6 126.1 153.9 132.9 161.0 132.9 C 168.5 133.5 175.4 126.5 175.0 119.0 C 174.8 114.7 175.6 110.2 173.9 106.1 C 171.3 100.4 164.6 96.7 158.3 98.4 M 255.3 98.4 C 251.7 99.2 248.7 101.8 246.8 104.9 C 244.2 109.2 245.2 114.3 245.0 119.0 C 244.6 126.5 251.5 133.5 259.0 132.9 C 266.1 132.9 272.4 126.1 272.0 119.0 C 271.8 114.7 272.6 110.2 270.9 106.1 C 268.2 100.4 261.6 96.7 255.3 98.4 Z" />
<path fill="#457da0" stroke="#457da0" stroke-width="0.09375" opacity="1.00" d=" M 158.3 98.4 C 164.6 96.7 171.3 100.4 173.9 106.1 C 175.6 110.2 174.8 114.7 175.0 119.0 C 175.4 126.5 168.5 133.5 161.0 132.9 C 153.9 132.9 147.6 126.1 148.0 119.0 C 148.2 114.3 147.2 109.2 149.8 104.9 C 151.7 101.8 154.7 99.2 158.3 98.4 Z" />
<path fill="#457da0" stroke="#457da0" stroke-width="0.09375" opacity="1.00" d=" M 255.3 98.4 C 261.6 96.7 268.2 100.4 270.9 106.1 C 272.6 110.2 271.8 114.7 272.0 119.0 C 272.4 126.1 266.1 132.9 259.0 132.9 C 251.5 133.5 244.6 126.5 245.0 119.0 C 245.2 114.3 244.2 109.2 246.8 104.9 C 248.7 101.8 251.7 99.2 255.3 98.4 Z" />
<path fill="#afd1e5" stroke="#afd1e5" stroke-width="0.09375" opacity="1.00" d=" M 141.3 191.2 C 147.1 189.1 154.3 191.9 156.0 198.1 C 156.8 205.2 156.1 212.5 156.4 219.6 C 157.8 221.7 160.5 221.6 162.7 222.1 C 162.8 224.0 163.8 226.9 161.7 228.0 C 159.7 228.2 157.3 228.2 156.4 230.4 C 156.2 236.9 156.5 243.5 156.3 250.0 C 155.9 256.6 148.3 260.8 142.3 259.0 C 139.8 257.4 140.8 252.3 144.0 252.4 C 145.9 252.9 148.3 251.8 148.6 249.7 C 148.9 243.2 148.2 236.5 149.0 230.0 C 149.1 228.1 150.6 226.7 151.1 224.9 C 150.9 223.1 149.0 221.9 149.0 220.0 C 148.1 213.2 149.2 206.4 148.5 199.6 C 147.7 196.8 144.4 197.6 142.3 196.9 C 140.1 195.8 141.2 193.0 141.3 191.2 Z" />
<path fill="#afd1e5" stroke="#afd1e5" stroke-width="0.09375" opacity="1.00" d=" M 169.7 199.0 C 170.6 192.6 177.9 189.2 183.8 190.9 C 185.2 192.4 184.8 194.6 184.4 196.4 C 182.7 198.1 179.3 196.5 177.8 198.7 C 176.8 199.8 177.1 201.6 177.0 203.0 C 177.0 217.7 177.0 232.4 177.0 247.1 C 177.1 248.7 176.8 250.7 178.4 251.8 C 180.3 252.7 182.8 252.0 184.4 253.6 C 184.6 254.6 184.8 255.7 185.0 256.7 C 186.9 256.2 189.6 256.7 190.6 254.6 C 191.2 252.8 191.3 250.9 191.3 249.0 C 191.3 237.4 191.3 225.9 191.4 214.3 C 192.2 211.7 195.9 212.6 197.9 213.1 C 198.0 213.6 198.2 214.6 198.3 215.1 C 198.3 228.0 198.4 241.0 198.3 254.0 C 197.9 260.7 190.3 264.8 184.3 262.7 C 184.0 261.6 183.8 260.4 183.6 259.3 C 177.5 260.4 169.9 256.8 169.7 250.0 C 169.7 233.0 169.6 216.0 169.7 199.0 Z" />
<path fill="#afd1e5" stroke="#afd1e5" stroke-width="0.09375" opacity="1.00" d=" M 217.0 197.1 C 226.7 191.7 241.7 195.8 244.5 207.4 C 245.5 214.2 244.7 221.1 245.0 228.0 C 245.3 232.8 244.0 238.0 240.4 241.4 C 239.4 245.4 245.3 247.6 243.8 251.7 C 242.2 252.9 239.8 254.8 237.8 253.2 C 236.4 250.9 235.1 248.6 233.7 246.3 C 229.2 246.2 224.5 247.6 220.1 245.9 C 214.2 244.2 209.4 239.0 208.3 232.8 C 208.3 224.9 208.3 217.0 208.3 209.2 C 209.2 204.1 212.3 199.2 217.0 197.1 M 217.8 205.8 C 214.8 209.9 216.4 215.3 216.0 220.0 C 216.5 225.3 214.6 231.3 217.9 236.0 C 220.3 239.5 225.0 240.4 228.9 239.8 C 228.9 239.4 228.8 238.7 228.8 238.3 C 225.9 233.4 222.9 228.6 220.1 223.7 C 218.5 220.5 223.0 217.6 225.7 219.1 C 229.0 224.3 231.9 229.7 235.2 234.8 L 235.9 234.9 C 237.9 232.4 237.2 229.0 237.3 226.0 C 237.2 220.4 237.7 214.7 237.0 209.1 C 235.2 200.7 222.5 199.1 217.8 205.8 Z" />
<path fill="#afd1e5" stroke="#afd1e5" stroke-width="0.09375" opacity="1.00" d=" M 193.3 199.4 C 194.8 199.4 196.8 198.8 197.9 200.2 C 199.0 202.6 199.2 206.2 196.6 207.7 C 194.8 207.8 192.0 208.1 191.4 205.7 C 191.4 203.6 190.4 200.1 193.3 199.4 Z" />
<path fill="#457da0" stroke="#457da0" stroke-width="0.09375" opacity="1.00" d=" M 217.8 205.8 C 222.5 199.1 235.2 200.7 237.0 209.1 C 237.7 214.7 237.2 220.4 237.3 226.0 C 237.2 229.0 237.9 232.4 235.9 234.9 L 235.2 234.8 C 231.9 229.7 229.0 224.3 225.7 219.1 C 223.0 217.6 218.5 220.5 220.1 223.7 C 222.9 228.6 225.9 233.4 228.8 238.3 C 228.8 238.7 228.9 239.4 228.9 239.8 C 225.0 240.4 220.3 239.5 217.9 236.0 C 214.6 231.3 216.5 225.3 216.0 220.0 C 216.4 215.3 214.8 209.9 217.8 205.8 Z" />
<path fill="#afd1e5" stroke="#afd1e5" stroke-width="0.09375" opacity="1.00" d=" M 254.1 214.2 C 255.5 212.2 258.7 212.0 260.8 213.2 C 262.0 220.3 261.0 227.7 261.3 234.9 C 262.4 241.5 273.1 242.4 275.1 235.9 C 275.7 228.8 275.1 221.6 275.3 214.4 C 276.5 211.9 281.5 211.8 282.6 214.4 C 282.7 220.6 282.6 226.8 282.7 233.1 C 283.3 239.5 278.0 245.4 271.9 246.7 C 268.7 246.5 265.3 247.3 262.3 245.8 C 257.3 243.7 253.8 238.5 254.0 233.1 C 254.0 226.8 253.9 220.5 254.1 214.2 Z" />
</svg>
