<?xml version="1.0" encoding="UTF-8" ?>
<!DOCTYPE svg PUBLIC "-//W3C//DTD SVG 1.1//EN" "http://www.w3.org/Graphics/SVG/1.1/DTD/svg11.dtd">
<svg width="404pt" height="467pt" viewBox="0 0 404 467" version="1.1" xmlns="http://www.w3.org/2000/svg">
<path fill="#457da0" stroke="#457da0" stroke-width="0.09375" opacity="1.00" d=" M 201.5 0.0 L 212.6 0.0 C 215.2 1.0 218.1 0.4 220.9 0.6 C 227.4 1.0 233.9 2.0 240.0 3.9 C 254.1 6.8 267.1 13.3 279.2 20.8 C 294.2 30.8 307.4 43.7 317.0 59.0 C 326.8 74.5 333.7 92.0 335.7 110.3 C 337.9 125.0 336.4 140.0 337.3 154.7 C 355.5 186.8 374.1 218.6 392.5 250.6 C 396.4 257.5 401.1 264.3 402.5 272.4 C 403.8 279.8 403.8 287.6 401.9 295.0 C 397.3 312.6 381.9 326.7 364.0 329.8 C 355.8 330.9 347.1 330.7 339.3 327.7 C 328.2 323.6 318.4 315.4 313.1 304.8 C 312.6 303.8 312.0 302.9 311.3 302.1 C 311.0 306.4 312.0 310.7 312.2 315.0 C 312.7 336.7 314.0 358.3 314.4 380.0 C 315.1 393.8 309.4 407.9 299.1 417.1 C 288.8 426.9 274.0 431.6 260.0 429.3 C 240.8 427.1 224.0 411.8 219.9 392.9 C 218.4 387.1 218.7 381.0 218.3 375.1 C 217.1 345.0 216.1 315.0 214.9 284.9 C 207.7 285.4 200.5 284.2 193.2 284.2 C 193.6 292.2 192.6 300.1 192.6 308.1 C 191.0 346.4 189.8 384.7 188.2 423.0 C 186.8 442.8 171.7 460.9 152.2 465.3 C 149.7 466.0 147.0 466.1 144.5 467.0 L 139.5 467.0 C 139.0 466.9 138.2 466.6 137.8 466.5 C 113.5 466.5 92.3 444.0 92.6 420.0 C 92.5 410.6 93.1 401.3 93.4 392.0 C 94.8 353.0 96.3 314.0 97.8 275.0 C 96.8 275.2 95.9 275.6 95.0 276.0 C 87.0 280.7 79.0 285.4 70.9 289.9 C 56.1 297.9 37.2 297.2 23.0 288.1 C 8.7 279.4 -0.2 262.7 0.6 246.0 C 0.6 234.1 5.9 222.6 14.1 214.1 C 19.1 208.8 25.5 205.3 31.7 201.8 C 48.2 192.2 64.7 182.7 81.2 173.2 C 83.1 172.6 82.5 170.5 82.5 169.0 C 81.8 160.7 82.1 152.3 82.0 143.9 C 69.8 150.2 55.9 153.8 42.1 151.9 C 37.0 151.1 31.1 149.4 28.5 144.4 C 26.2 139.8 28.7 134.4 31.9 130.9 C 38.3 123.9 47.0 119.6 56.0 116.8 C 55.3 114.2 52.7 112.8 51.2 110.7 C 44.2 101.2 37.3 90.2 37.8 77.9 C 37.8 72.9 41.5 67.5 47.0 67.6 C 53.4 66.9 59.0 70.4 64.0 74.0 C 72.3 80.1 78.8 88.4 83.7 97.4 C 84.0 98.3 84.6 98.8 85.6 98.9 C 85.8 97.0 86.0 95.2 86.5 93.4 C 90.3 80.4 96.0 67.8 103.6 56.6 C 112.9 42.5 125.3 30.7 139.2 21.2 C 151.4 13.4 164.7 6.9 179.0 3.9 C 186.2 1.3 194.0 1.4 201.5 0.0 M 155.3 76.4 C 141.0 78.3 128.0 88.1 122.4 101.4 C 117.4 113.0 118.0 126.9 124.1 138.0 C 130.1 149.4 141.9 157.6 154.6 159.5 C 158.7 160.2 162.9 160.0 167.0 160.0 C 197.3 160.0 227.7 160.0 258.0 160.0 C 269.2 160.0 280.4 155.3 288.2 147.2 C 297.0 138.1 301.4 124.9 299.6 112.3 C 298.3 102.9 293.7 93.8 286.6 87.3 C 279.0 80.1 268.5 76.0 258.0 76.0 C 226.7 76.0 195.3 76.0 164.0 76.0 C 161.1 76.0 158.2 76.0 155.3 76.4 Z" />
<path fill="#a7c0d0" stroke="#a7c0d0" stroke-width="0.09375" opacity="1.00" d=" M 155.3 76.4 C 158.2 76.0 161.1 76.0 164.0 76.0 C 195.3 76.0 226.7 76.0 258.0 76.0 C 268.5 76.0 279.0 80.1 286.6 87.3 C 293.7 93.8 298.3 102.9 299.6 112.3 C 301.4 124.9 297.0 138.1 288.2 147.2 C 280.4 155.3 269.2 160.0 258.0 160.0 C 227.7 160.0 197.3 160.0 167.0 160.0 C 162.9 160.0 158.7 160.2 154.6 159.5 C 141.9 157.6 130.1 149.4 124.1 138.0 C 118.0 126.9 117.4 113.0 122.4 101.4 C 128.0 88.1 141.0 78.3 155.3 76.4 M 158.3 98.4 C 152.3 99.8 147.8 105.8 148.0 112.0 C 148.0 114.7 147.9 117.4 148.0 120.1 C 148.2 127.2 154.9 133.5 162.0 132.9 C 169.1 132.9 175.4 126.1 175.0 119.0 C 174.9 113.5 176.0 106.8 171.4 102.6 C 168.3 98.7 163.0 97.3 158.3 98.4 M 255.3 98.4 C 249.3 99.8 244.8 105.8 245.0 112.0 C 245.1 116.5 244.3 121.4 246.4 125.6 C 248.8 129.7 253.1 133.0 258.0 132.9 C 265.5 133.5 272.4 126.5 272.0 119.0 C 271.9 113.5 273.0 106.8 268.4 102.6 C 265.3 98.7 260.0 97.3 255.3 98.4 Z" />
<path fill="#457da0" stroke="#457da0" stroke-width="0.09375" opacity="1.00" d=" M 158.3 98.4 C 163.0 97.3 168.3 98.7 171.4 102.6 C 176.0 106.8 174.9 113.5 175.0 119.0 C 175.4 126.1 169.1 132.9 162.0 132.9 C 154.9 133.5 148.2 127.2 148.0 120.1 C 147.9 117.4 148.0 114.7 148.0 112.0 C 147.8 105.8 152.3 99.8 158.3 98.4 Z" />
<path fill="#457da0" stroke="#457da0" stroke-width="0.09375" opacity="1.00" d=" M 255.3 98.4 C 260.0 97.3 265.3 98.7 268.4 102.6 C 273.0 106.8 271.9 113.5 272.0 119.0 C 272.4 126.5 265.5 133.5 258.0 132.9 C 253.1 133.0 248.8 129.7 246.4 125.6 C 244.3 121.4 245.1 116.5 245.0 112.0 C 244.8 105.8 249.3 99.8 255.3 98.4 Z" />
</svg>
