<?xml version="1.0" encoding="UTF-8" ?>
<!DOCTYPE svg PUBLIC "-//W3C//DTD SVG 1.1//EN" "http://www.w3.org/Graphics/SVG/1.1/DTD/svg11.dtd">
<svg width="76pt" height="39pt" viewBox="0 0 76 39" version="1.1" xmlns="http://www.w3.org/2000/svg">
<path fill="#95a5a6" stroke="#95a5a6" stroke-width="0.09375" opacity="1.00" d=" M 16.4 0.0 L 22.5 0.0 C 29.0 1.7 33.9 6.4 38.0 11.5 C 41.9 6.4 46.9 1.7 53.4 0.0 L 58.6 0.0 C 62.2 0.5 65.9 1.7 68.8 4.2 C 77.5 11.2 77.9 26.1 69.7 33.7 C 64.3 38.9 55.7 40.1 49.0 37.0 C 44.4 34.9 41.1 30.9 37.9 27.2 C 35.0 30.5 32.2 34.1 28.2 36.3 C 22.4 39.6 14.8 39.4 9.0 35.9 C 1.5 31.3 -1.3 21.4 1.1 13.2 C 3.1 6.2 9.4 1.2 16.4 0.0 M 15.3 9.3 C 8.8 11.6 7.3 20.7 10.9 26.0 C 14.3 30.9 22.1 31.4 26.3 27.3 C 28.7 24.9 31.4 22.3 32.6 19.1 C 29.2 13.2 22.9 6.1 15.3 9.3 M 52.4 9.5 C 48.4 11.6 45.5 15.3 43.2 19.2 C 46.1 24.9 51.7 31.4 58.9 29.9 C 64.7 29.0 67.8 22.5 66.7 17.2 C 66.1 10.6 58.2 6.4 52.4 9.5 Z" />
</svg>
