<svg xmlns="http://www.w3.org/2000/svg" viewBox="0 0 198.81 375.79"><defs><style>.cls-1{fill:#432957;}.cls-2{fill:#cfc8d4;}.cls-3{fill:#725f80;}.cls-4{fill:#705c7f;}.cls-5{fill:#422956;}.cls-6{fill:#412854;}.cls-7{fill:#3e2651;}.cls-8{fill:#402753;}.cls-9{fill:#3f2652;}.cls-10{fill:#9f93a9;}.cls-11{fill:#a094aa;}.cls-12{fill:#675178;}.cls-13{fill:#998ca2;}.cls-14{fill:#3d254f;}.cls-15{fill:#3b254e;}.cls-16{fill:#3b244d;}.cls-17{fill:#3d2650;}.cls-18{fill:#908499;}.cls-19{fill:#9b8fa5;}.cls-20{fill:#978ba0;}.cls-21{fill:#998da3;}.cls-22{fill:#543f64;}.cls-23{fill:#39244c;}.cls-24{fill:#382249;}.cls-25{fill:#362247;}.cls-26{fill:#39234a;}.cls-27{fill:#362146;}.cls-28{fill:#362147;}.cls-29{fill:#3a234b;}.cls-30{fill:#342045;}.cls-31{fill:#3d264f;}.cls-32{fill:#908599;}.cls-33{fill:#8c8196;}.cls-34{fill:#94889d;}.cls-35{font-size:12.24px;font-family:Lato-Medium, Lato;font-weight:500;}.cls-35,.cls-51,.cls-57{fill:#afa4b7;}.cls-36{letter-spacing:-0.02em;}.cls-37{letter-spacing:0em;}.cls-38{letter-spacing:-0.02em;}.cls-39{letter-spacing:0em;}.cls-40{letter-spacing:-0.02em;}.cls-41{letter-spacing:-0.01em;}.cls-42{letter-spacing:-0.02em;}.cls-43{letter-spacing:-0.02em;}.cls-44{letter-spacing:-0.01em;}.cls-45{letter-spacing:-0.02em;}.cls-46{letter-spacing:0em;}.cls-47{letter-spacing:-0.02em;}.cls-48{letter-spacing:-0.01em;}.cls-49{font-size:34.56px;fill:#978ba1;letter-spacing:-0.01em;}.cls-49,.cls-51,.cls-58{font-family:Lato-Black, Lato;font-weight:800;}.cls-50{letter-spacing:0em;}.cls-51{font-size:10.32px;}.cls-52{letter-spacing:-0.01em;}.cls-53{letter-spacing:-0.01em;}.cls-54{letter-spacing:-0.01em;}.cls-55{letter-spacing:-0.01em;}.cls-56{letter-spacing:0em;}.cls-57{font-size:17.28px;}.cls-57,.cls-63{font-family:FontAwesome5Free-Solid, "Font Awesome 5 Free";}.cls-58{font-size:19.92px;}.cls-58,.cls-63{fill:#de5787;}.cls-59{letter-spacing:-0.01em;}.cls-60{letter-spacing:-0.02em;}.cls-61{letter-spacing:-0.01em;}.cls-62{letter-spacing:-0.02em;}.cls-63{font-size:33.12px;}</style></defs><g id="v"><path class="cls-1" d="M35,0h131.1a22.23,22.23,0,0,0,2.83.28,28.79,28.79,0,0,1,13,4.8A35.94,35.94,0,0,1,198.28,28a35.51,35.51,0,0,1,.54,7.51V340.34a30.94,30.94,0,0,1-3.15,15.07A37.11,37.11,0,0,1,172,375.06a31,31,0,0,1-5.69.64c-.23,0-.48-.07-.68.12h-1.44a2.47,2.47,0,0,0-1.29-.12H35.83a2.51,2.51,0,0,0-1.3.12H33.1a15.89,15.89,0,0,0-2.84-.28,29.68,29.68,0,0,1-13.13-4.78A36.77,36.77,0,0,1,1.71,351.52a24.84,24.84,0,0,1-1.45-8C0,333.65.21,323.74.15,313.83c.68-.8,1.24-.07,1.74.23a16.82,16.82,0,0,0,7.66,2.47,20.66,20.66,0,0,0,10-2,40.81,40.81,0,0,0,10.32-7.08c2.3-2,4.51-4.18,6.66-6.38a190.76,190.76,0,0,0,16.33-19.54A145.78,145.78,0,0,0,67.21,257.1,156.73,156.73,0,0,0,77,231c1-3.46,1.72-7,2.54-10.46a3,3,0,0,0-.52-2.9,28.75,28.75,0,0,1-1.91-3.44c-.58-1.19-.85-2.51-1.47-3.69a7.35,7.35,0,0,0-.78-2.71c-.59-2.36-.66-4.81-1.19-7.18a16,16,0,0,0-.5-5.16,6.17,6.17,0,0,0-.06-1,8.85,8.85,0,0,0-.06-2.62v-1.24a11.47,11.47,0,0,0-.21-3.09c0-.42,0-.84,0-1.27a16.1,16.1,0,0,0-.22-3.86c.12-3-.17-5.95-.31-8.92a92.54,92.54,0,0,0-.89-9.69c.4-2.84-.12-5.63-.49-8.42a31.7,31.7,0,0,0-.15-5.68,13.22,13.22,0,0,1,0-1.78c0-.75.57-1.35.59-2.1a7.75,7.75,0,0,1,1.46-3.16,30.58,30.58,0,0,1,2.12-2.42c.67-.64.3-1.35.08-2-1.42-4.24-3-8.44-4.68-12.56a150,150,0,0,0-14.77-27.5A178.4,178.4,0,0,0,42.39,81.15c-3-3.4-6.15-6.71-9.44-9.85-4.07-3.9-8.27-7.64-13.5-10a29.24,29.24,0,0,0-5.22-1.71c-.5-.12-1.05-.14-1.22-.79.29-3.58.1-7.17.12-10.76,0-.51,0-1.15-.74-1.15s-.77.61-.78,1.14c-.07,2.83,0,5.67,0,8.5a4,4,0,0,1-.24,2c-.86,1-2.12.79-3.21.95a17.39,17.39,0,0,0-6.51,2.46c-.45.27-.88.59-1.42.22a5.36,5.36,0,0,1,0-1.2q0-13.05,0-26.11A30.9,30.9,0,0,1,2.4,22.47,37,37,0,0,1,19.63,3.62,27.58,27.58,0,0,1,32.53.14.58.58,0,0,0,32.86,0h.71A1.89,1.89,0,0,0,35,0Z" transform="translate(-0.13 -0.02)"/><path class="cls-2" d="M198.73,35.05h.21V340.78h-.21c0-.56,0-1.12,0-1.68V36.36C198.7,35.93,198.72,35.49,198.73,35.05Z" transform="translate(-0.13 -0.02)"/><path class="cls-3" d="M34.53,375.82c.37-.36.83-.24,1.26-.24H162.94c.42,0,.88-.12,1.25.24Z" transform="translate(-0.13 -0.02)"/><path class="cls-4" d="M35,0a1.11,1.11,0,0,1-1.44,0Z" transform="translate(-0.13 -0.02)"/><path class="cls-5" d="M.3,313.67q0-3.12,0-6.23a.66.66,0,0,1,.48-.24,1.57,1.57,0,0,1,1.06.71,13,13,0,0,0,10.36,4.37,15.57,15.57,0,0,0,6.07-1.63,40.12,40.12,0,0,0,9.91-6.82c1.89-1.67,3.65-3.45,5.44-5.23a152,152,0,0,0,15.8-18.74,149.23,149.23,0,0,0,13.13-21.27,161.92,161.92,0,0,0,13.2-37.77c.37-1.71.63-3.45,1-5.17.11-.57.12-1.21.71-1.57,1,1.42,1.63,3,2.71,4.36.27.34.13.76,0,1.16a162.2,162.2,0,0,1-10.45,33.19,147.66,147.66,0,0,1-14.1,25.69,179.25,179.25,0,0,1-11.6,15c-3.48,4-7,7.86-10.84,11.48-4.06,3.85-8.22,7.58-13.4,9.92-5.7,2.56-11.41,3.15-17.14.16C1.84,314.67,1.09,314.14.3,313.67Z" transform="translate(-0.13 -0.02)"/><path class="cls-5" d="M.29,68.17v-6c3.2-2.43,6.92-3.31,10.82-3.62a3.42,3.42,0,0,1,2.09.51,14.9,14.9,0,0,1,5.65,1.42,42.85,42.85,0,0,1,12,8.18q3.9,3.56,7.53,7.37a182.06,182.06,0,0,1,15,18.17A132.2,132.2,0,0,1,62.22,108,167.49,167.49,0,0,1,71,125.83c1.67,4,3.13,8.13,4.57,12.24.41,1.18.41,2.1-.68,2.93a15.56,15.56,0,0,0-1.72,1.81c-.68-.31-.76-1-.94-1.59a155.7,155.7,0,0,0-10.89-26.43,103.85,103.85,0,0,0-6.17-10.68,203.69,203.69,0,0,0-15.5-20.47C36.38,80,33,76.47,29.47,73.13s-7-6.22-11.37-8c-3.81-1.57-7.67-2.1-11.63-.49a15,15,0,0,0-5.36,4.1C.61,68.87.47,68.5.29,68.17Z" transform="translate(-0.13 -0.02)"/><path class="cls-6" d="M1,68.67c.28-1.44,1.46-2.16,2.48-2.92,4.7-3.44,9.73-3.25,14.87-1.12,3.81,1.58,7,4.15,10,6.82,2.7,2.33,5.14,4.9,7.62,7.44A147.18,147.18,0,0,1,46.47,91.13c2.77,3.57,5.24,7.33,7.84,11a128.23,128.23,0,0,1,12,22,148.93,148.93,0,0,1,6.56,17.61c.1.34.15.7.23,1.05a15.5,15.5,0,0,0-1.44,2.88c-.52-.24-.53-.78-.66-1.22a147.68,147.68,0,0,0-15.65-35.94c-1.71-2.82-3.58-5.55-5.44-8.28a1.78,1.78,0,0,1-.45-1.66c.13-.27.4-.59-.21-.62s-1.33,0-2,0a2,2,0,0,1-1.45-.33,2.71,2.71,0,0,0-.72-2.28c-3.47-4.58-7.17-9-11-13.19A84.6,84.6,0,0,0,23,71.83a21.06,21.06,0,0,0-7.95-4,3,3,0,0,0-1.53-.11,15.81,15.81,0,0,1-1.82-.19,10.37,10.37,0,0,0-6.49,2.58A5,5,0,0,1,3.9,71,3.33,3.33,0,0,1,1,68.67Z" transform="translate(-0.13 -0.02)"/><path class="cls-6" d="M77.43,214.08a97.61,97.61,0,0,1-2.26,11.49A154.75,154.75,0,0,1,65,254.69a126.2,126.2,0,0,1-9.08,16.73A197.53,197.53,0,0,1,42.8,289.25a160.31,160.31,0,0,1-12.32,13.2c-3.59,3.41-7.34,6.67-12,8.66-5.19,2.24-10.27,2.4-15.11-1a26.27,26.27,0,0,1-2.7-2.68c-.06-.15-.11-.33,0-.45.93-1.09,1.86-2.2,3.47-2.26a11,11,0,0,0,6.06,3.42,1.77,1.77,0,0,1,1,.41c.45.54.31,1.2.38,1.81s.13,1,.77,1,.76-.5.79-1c0-.78.06-1.57.1-2.36a8,8,0,0,1,0-2,16.36,16.36,0,0,1,0-3.05c0-.95-.33-1.94.3-2.83.22-.2.41-.1.58.07a1.77,1.77,0,0,1,.26,1.25,6.31,6.31,0,0,1,0,1.44c0,.27,0,.54,0,.81a5.63,5.63,0,0,1,0,1.42,6.65,6.65,0,0,1,0,1.41,7.64,7.64,0,0,1,0,2c-.08.87.4.88,1.05.72a19.48,19.48,0,0,0,5.67-2.51c4.77-3,8.75-6.94,12.61-11a172.75,172.75,0,0,0,20-25.86,146.82,146.82,0,0,0,14.38-29.52A137.88,137.88,0,0,0,74.59,216c.24-1.45.55-2.89.73-4.35a1.36,1.36,0,0,1,.67-1.2A13.36,13.36,0,0,1,77.43,214.08Z" transform="translate(-0.13 -0.02)"/><path class="cls-7" d="M13.93,305v-1.44c.64-.66,1.55-.54,2.33-.78a21,21,0,0,0,7.29-4.23,61.82,61.82,0,0,0,6.4-5.92c3.75-4,7.36-8.16,10.74-12.51a174.15,174.15,0,0,0,11.64-17.37A133.78,133.78,0,0,0,64,237.64c1.56-4.51,3-9.07,4.08-13.71q1.6-6.72,2.59-13.55c.52-3.58.87-7.16,1.22-10.75a139.8,139.8,0,0,0,.36-18.3,132.12,132.12,0,0,0-1.55-15.73,152.16,152.16,0,0,0-5.43-23.66,149.62,149.62,0,0,0-6.71-17.24c-.41-.87-.75-1.77-1.18-2.62-2.54-5-5.47-9.81-8.41-14.6a140.44,140.44,0,0,0-11-15.32c-1.79-2.18-3.67-4.3-5.57-6.4-1.67-1.84-3.34-3.66-5.16-5.34A37.16,37.16,0,0,0,18.64,74a15.91,15.91,0,0,0-3.84-1.28c-.38-.08-.82,0-1.08-.42a1.9,1.9,0,0,1-.05-1.35c.42-.61,1-.5,1.62-.39a17.82,17.82,0,0,1,7.08,3.36c5,3.62,9.11,8.09,13.18,12.65A154.34,154.34,0,0,1,49.6,105c1.84,2.8,3.49,5.72,5.21,8.6A134,134,0,0,1,68.15,145a92.16,92.16,0,0,1,3.09,13c.26,1.88.5,3.76.68,5.65.31,4.57.65,9.13.92,13.69.1,1.67,0,3.35,0,5,.35,1.26-.11,2.58.24,3.84v1.2c.34,1-.1,2.1.24,3.12v1.2c.33.86-.09,1.78.24,2.64v1a54.81,54.81,0,0,1,0,7.25,150.87,150.87,0,0,1-2.37,16,148.44,148.44,0,0,1-9.28,29.67,112.29,112.29,0,0,1-6.07,12.36,185.91,185.91,0,0,1-12.69,19.45c-3.2,4.14-6.54,8.15-10.1,12A79.66,79.66,0,0,1,22.35,302,18.52,18.52,0,0,1,16,305.16C15.29,305.34,14.57,305.68,13.93,305Z" transform="translate(-0.13 -0.02)"/><path class="cls-8" d="M13.93,308.62v-2.16a2.14,2.14,0,0,1,1.1-.69c3.94-.91,7.1-3.22,10-5.83a139.83,139.83,0,0,0,21.39-24.31c2.63-3.73,4.93-7.66,7.36-11.51C59.54,255,63.56,245.18,67,235.05a142.35,142.35,0,0,0,5.92-26.12,52,52,0,0,0,.72-7.26,1,1,0,0,1,.48-1l1.2,7.2c.53,2,0,3.94-.3,5.88A149.4,149.4,0,0,1,68.91,238a140.07,140.07,0,0,1-13,28.23A168.5,168.5,0,0,1,41.77,286.4,151.19,151.19,0,0,1,30.34,299c-3.49,3.33-7,6.68-11.47,8.73a15.43,15.43,0,0,1-3.5,1.21A1.34,1.34,0,0,1,13.93,308.62Z" transform="translate(-0.13 -0.02)"/><path class="cls-9" d="M74.08,200.64c.07,5.5-1,10.86-2,16.23a135.3,135.3,0,0,1-5.51,20.94,155.36,155.36,0,0,1-6.39,15.61,94.09,94.09,0,0,1-4.74,9.14A191.93,191.93,0,0,1,40.87,284a151.09,151.09,0,0,1-13.63,14.75c-3.55,3.33-7.27,6.51-12.25,7.59-.34.07-.7.1-1.06.15V305a18.14,18.14,0,0,0,9-4.13A93,93,0,0,0,35.08,289a150.61,150.61,0,0,0,14.05-18.45c1.82-2.81,3.43-5.76,5.22-8.59a106.47,106.47,0,0,0,8.47-17.29,143.66,143.66,0,0,0,8.18-28c.72-3.93,1.33-7.86,1.81-11.82.28-2.29.37-4.6.55-6.91.07-.87.16-1.74.24-2.61A31.13,31.13,0,0,1,74.08,200.64Z" transform="translate(-0.13 -0.02)"/><path class="cls-6" d="M13.93,308.62a18.87,18.87,0,0,0,9.28-4.16,98.76,98.76,0,0,0,13.6-13.06,178.85,178.85,0,0,0,15-19.65,143.14,143.14,0,0,0,15.73-31.5,147.94,147.94,0,0,0,6.15-22.38c.63-3.32,1.23-6.66,1.56-10a5.66,5.66,0,0,1,.71,2.64,140.33,140.33,0,0,1-3.5,17.59,143.74,143.74,0,0,1-5.61,17.07,155.3,155.3,0,0,1-8.56,18.07,178.39,178.39,0,0,1-12.51,19c-3,4.06-6.32,7.9-9.74,11.65-2.1,2.3-4.26,4.55-6.52,6.67-3.67,3.45-7.43,6.81-12.26,8.6-.67.25-1.37.43-2,.65C14.2,310.07,13.72,309.75,13.93,308.62Z" transform="translate(-0.13 -0.02)"/><path class="cls-9" d="M71.92,163.68c-.48-2.45-.93-4.92-1.45-7.37a150.31,150.31,0,0,0-8.37-27,115.91,115.91,0,0,0-5.26-11.16,178.84,178.84,0,0,0-11.9-19.08A161,161,0,0,0,32.76,84.22a74.38,74.38,0,0,0-10.87-10,16.11,16.11,0,0,0-8-3.35c-.47-.34-.36-.82-.29-1.28.42-.72,1.07-.56,1.7-.43a18.79,18.79,0,0,1,7.57,3.69,90.43,90.43,0,0,1,12.2,11.6q5,5.53,9.53,11.52c.43.57.75,1.21,1.13,1.81a2.62,2.62,0,0,1,.67.81c3,3.78,5.38,8,8,12.09,6.11,9.61,10.33,20.07,13.88,30.83a61,61,0,0,1,3,12.3c.06.51-.11,1.05.17,1.52C71.62,158.08,71.94,160.87,71.92,163.68Z" transform="translate(-0.13 -0.02)"/><path class="cls-8" d="M71.44,155.28c-.67-2.7-1.31-5.42-2-8.11a145,145,0,0,0-7.51-21.09,101.41,101.41,0,0,0-6.56-13c-3-4.83-5.89-9.78-9.3-14.36.53-.75,1.27-.5,2-.44a4.71,4.71,0,0,1,1.58,1.59c1.59,2.39,3.11,4.82,4.69,7.21,5.89,8.91,10.18,18.58,13.83,28.56,1.11,3,2,6.12,3,9.21a5.57,5.57,0,0,1,.11,2.81A75.49,75.49,0,0,0,71.44,155.28Z" transform="translate(-0.13 -0.02)"/><path class="cls-6" d="M71.2,147.61a36.92,36.92,0,0,0-1.92-7,153.27,153.27,0,0,0-10.65-25.33A188.73,188.73,0,0,0,48.19,98.69a.85.85,0,0,1,1.44,0c1.66,2.81,3.49,5.51,5.33,8.19,1.35,2,2.5,4.08,3.65,6.17A152.09,152.09,0,0,1,70.1,139.7c.63,2,1.51,3.87,1.58,6A5.89,5.89,0,0,1,71.2,147.61Z" transform="translate(-0.13 -0.02)"/><path class="cls-10" d="M116.84,363.49h-4.9c-.9,0-1.62-.31-1.64-1.31s.68-1.38,1.58-1.38c3.35,0,6.69,0,10,0,.85,0,1.5.36,1.51,1.32s-.67,1.37-1.58,1.38Z" transform="translate(-0.13 -0.02)"/><path class="cls-10" d="M137.93,363.49c-1.59,0-3.18,0-4.77,0-1.26,0-1.87-.47-1.82-1.37.06-1.11.84-1.33,1.75-1.34h9.55c1,0,1.85.22,1.82,1.39s-.9,1.34-1.87,1.33C141,363.48,139.49,363.49,137.93,363.49Z" transform="translate(-0.13 -0.02)"/><path class="cls-10" d="M53.83,363.49H48.94c-.93,0-1.72-.25-1.71-1.36s.81-1.34,1.73-1.34c3.22,0,6.45,0,9.67,0,.93,0,1.73.28,1.72,1.36s-.79,1.36-1.74,1.35C57,363.48,55.42,363.49,53.83,363.49Z" transform="translate(-0.13 -0.02)"/><path class="cls-10" d="M95.77,363.49c-1.56,0-3.11,0-4.67,0-1.26,0-1.94-.51-1.86-1.37.09-1.07.86-1.34,1.79-1.34h9.71c.88,0,1.62.26,1.63,1.32s-.75,1.38-1.69,1.38Z" transform="translate(-0.13 -0.02)"/><path class="cls-10" d="M74.83,360.78h4.79c.93,0,1.74.26,1.74,1.35s-.79,1.36-1.73,1.36h-9.7c-.89,0-1.66-.28-1.69-1.28s.73-1.42,1.68-1.42Z" transform="translate(-0.13 -0.02)"/><path class="cls-11" d="M155.14,363.49h-.84c-1.33,0-2-.49-2-1.38.1-1.15,1-1.32,1.9-1.33a32.46,32.46,0,0,0,4.29-.23,30.93,30.93,0,0,0,4.77-1c.92-.28,1.73-.16,2,.88s-.39,1.45-1.25,1.71A32.11,32.11,0,0,1,155.14,363.49Z" transform="translate(-0.13 -0.02)"/><path class="cls-11" d="M188,329.76a37.63,37.63,0,0,1-1.45,9c-.26.91-.72,1.58-1.76,1.31s-1.07-1.18-.82-2.05a34.66,34.66,0,0,0,1.37-9.55c0-.89.42-1.49,1.35-1.47s1.32.6,1.31,1.5C187.94,329,188,329.49,188,329.76Z" transform="translate(-0.13 -0.02)"/><path class="cls-11" d="M187.82,44a1.27,1.27,0,0,1-1.2,1.39,1.24,1.24,0,0,1-1.47-1.23,37,37,0,0,0-2.41-9.83,1.19,1.19,0,0,1,.77-1.64,1.26,1.26,0,0,1,1.75.79A36,36,0,0,1,187.82,44Z" transform="translate(-0.13 -0.02)"/><path class="cls-11" d="M34.85,13.75a1.32,1.32,0,0,1,1.33,1.05,1.26,1.26,0,0,1-.91,1.59A33,33,0,0,0,31,18.19a31.48,31.48,0,0,0-4.25,2.65c-.72.53-1.48.75-2.11-.05s-.23-1.57.52-2.13a31.49,31.49,0,0,1,9.18-4.77Z" transform="translate(-0.13 -0.02)"/><path class="cls-11" d="M20.35,352.12a1.43,1.43,0,0,1-1.14-.62,34.39,34.39,0,0,1-5.35-8.89c-.33-.8-.28-1.56.56-1.95s1.54,0,1.9.9a33.37,33.37,0,0,0,5,8.26,1.42,1.42,0,0,1,.25,1.57A1.26,1.26,0,0,1,20.35,352.12Z" transform="translate(-0.13 -0.02)"/><path class="cls-11" d="M181.88,348.2a1.88,1.88,0,0,1-.41,1.09,34.2,34.2,0,0,1-7,7.42c-.7.55-1.47.8-2.11,0s-.34-1.54.44-2.14a31.49,31.49,0,0,0,6.48-6.81,1.47,1.47,0,0,1,1.73-.72A1.25,1.25,0,0,1,181.88,348.2Z" transform="translate(-0.13 -0.02)"/><path class="cls-11" d="M19.72,27.68a1.75,1.75,0,0,1-.4,1,33.35,33.35,0,0,0-4,8.38c-.28.87-.76,1.58-1.81,1.22s-1.05-1.17-.75-2.06A35.56,35.56,0,0,1,17.2,27a1.36,1.36,0,0,1,1.62-.68A1.26,1.26,0,0,1,19.72,27.68Z" transform="translate(-0.13 -0.02)"/><path class="cls-11" d="M178.51,26.2a1.48,1.48,0,0,1-1.2-.67,32.08,32.08,0,0,0-7.16-6.14c-.79-.47-1.18-1.14-.63-2s1.33-.73,2.1-.27a34.32,34.32,0,0,1,7.78,6.69,1.47,1.47,0,0,1,.31,1.76A1.15,1.15,0,0,1,178.51,26.2Z" transform="translate(-0.13 -0.02)"/><path class="cls-11" d="M154,12.3a29.47,29.47,0,0,1,6.14.44,7.5,7.5,0,0,1,1.16.26,1.22,1.22,0,0,1,.92,1.47,1.23,1.23,0,0,1-1.47,1.1,54.24,54.24,0,0,0-10.34-.65,1.16,1.16,0,0,1-1.27-1.27,1.21,1.21,0,0,1,1.24-1.33C151.5,12.26,152.66,12.3,154,12.3Z" transform="translate(-0.13 -0.02)"/><path class="cls-11" d="M39.34,361.21c0,1.13-.63,1.79-1.54,1.61a30.13,30.13,0,0,1-10.15-4,1.27,1.27,0,0,1-.42-1.87,1.22,1.22,0,0,1,1.78-.4,31.86,31.86,0,0,0,9.39,3.71A1.1,1.1,0,0,1,39.34,361.21Z" transform="translate(-0.13 -0.02)"/><path class="cls-11" d="M11.05,326.43c0-1.87,0-3.43,0-5,0-.92.33-1.62,1.33-1.62s1.33.67,1.35,1.59c.07,3.35-.15,6.69.15,10a1.27,1.27,0,0,1-1.21,1.5,1.26,1.26,0,0,1-1.46-1.23A42.18,42.18,0,0,1,11.05,326.43Z" transform="translate(-0.13 -0.02)"/><path class="cls-11" d="M188,81c0,1.63,0,3.27,0,4.9,0,.94-.38,1.59-1.38,1.56s-1.29-.67-1.29-1.54v-10c0-.94.4-1.58,1.39-1.56S188,75,188,75.88C187.94,77.59,188,79.31,188,81Z" transform="translate(-0.13 -0.02)"/><path class="cls-11" d="M188,249.36c0,1.67,0,3.35,0,5,0,1-.39,1.59-1.38,1.56s-1.29-.68-1.29-1.55v-10c0-.93.4-1.58,1.4-1.55s1.28.65,1.27,1.54C187.94,246,188,247.69,188,249.36Z" transform="translate(-0.13 -0.02)"/><path class="cls-11" d="M113.63,14.94c-1.64,0-3.28,0-4.92,0-.91,0-1.64-.23-1.65-1.27s.73-1.38,1.69-1.38c3.28,0,6.55,0,9.83,0,.93,0,1.61.36,1.6,1.36s-.71,1.31-1.64,1.29C116.9,14.91,115.26,14.94,113.63,14.94Z" transform="translate(-0.13 -0.02)"/><path class="cls-11" d="M188,165.25c0,1.63,0,3.26,0,4.9,0,.94-.38,1.58-1.38,1.56s-1.29-.68-1.29-1.54v-10c0-.94.39-1.58,1.39-1.56s1.29.65,1.28,1.53C187.94,161.82,188,163.53,188,165.25Z" transform="translate(-0.13 -0.02)"/><path class="cls-11" d="M188,102c0,1.63,0,3.26,0,4.9,0,.91-.28,1.59-1.33,1.58s-1.34-.7-1.34-1.6c0-3.31,0-6.62,0-9.92,0-.94.38-1.62,1.35-1.61S188,96.07,188,97C187.93,98.68,188,100.36,188,102Z" transform="translate(-0.13 -0.02)"/><path class="cls-11" d="M185.28,270.46c0-1.67,0-3.35,0-5,0-.95.41-1.61,1.38-1.59s1.3.64,1.29,1.54c0,3.36,0,6.72,0,10.08,0,.89-.33,1.5-1.3,1.51s-1.37-.67-1.37-1.59Z" transform="translate(-0.13 -0.02)"/><path class="cls-11" d="M188,228.27c0,1.67,0,3.35,0,5,0,.92-.35,1.62-1.35,1.6s-1.33-.72-1.32-1.64v-9.92c0-.93.37-1.58,1.37-1.58s1.31.71,1.3,1.62C187.94,225,188,226.64,188,228.27Z" transform="translate(-0.13 -0.02)"/><path class="cls-11" d="M188,144c0,1.67,0,3.34,0,5,0,.92-.34,1.61-1.34,1.6s-1.34-.71-1.33-1.63c0-3.31,0-6.62,0-9.92,0-.93.37-1.59,1.37-1.59s1.31.71,1.3,1.62C187.94,140.77,188,142.4,188,144Z" transform="translate(-0.13 -0.02)"/><path class="cls-11" d="M188,186.21c0,1.64,0,3.28,0,4.92,0,.91-.25,1.61-1.31,1.61s-1.36-.68-1.36-1.6v-10c0-.94.42-1.6,1.39-1.57s1.29.67,1.28,1.56C187.94,182.85,188,184.53,188,186.21Z" transform="translate(-0.13 -0.02)"/><path class="cls-11" d="M188,59.9c0,1.64,0,3.27,0,4.9,0,.92-.31,1.63-1.32,1.63s-1.35-.68-1.35-1.61V54.9c0-.92.35-1.59,1.34-1.61S188,54,188,54.88C187.94,56.56,188,58.23,188,59.9Z" transform="translate(-0.13 -0.02)"/><path class="cls-11" d="M188,312.58c0,1.64,0,3.28,0,4.92,0,.95-.38,1.61-1.35,1.6s-1.33-.71-1.32-1.64c0-3.28,0-6.55,0-9.83,0-.92.3-1.62,1.31-1.65s1.37.73,1.36,1.69C187.94,309.31,188,310.94,188,312.58Z" transform="translate(-0.13 -0.02)"/><path class="cls-11" d="M50.51,14.94c-1.67,0-3.35,0-5,0-.89,0-1.52-.36-1.53-1.29s.61-1.35,1.49-1.35c3.39,0,6.79,0,10.18,0,.89,0,1.47.44,1.45,1.38s-.65,1.27-1.53,1.26Z" transform="translate(-0.13 -0.02)"/><path class="cls-11" d="M71.48,14.94c-1.63,0-3.27,0-4.91,0C65.7,15,65,14.68,65,13.72s.63-1.41,1.54-1.42c3.36,0,6.71,0,10.07,0,.87,0,1.52.38,1.52,1.31s-.67,1.34-1.61,1.33C74.84,14.92,73.16,14.94,71.48,14.94Z" transform="translate(-0.13 -0.02)"/><path class="cls-11" d="M185.28,123c0-1.64,0-3.27,0-4.9,0-.92.3-1.64,1.28-1.67s1.4.71,1.39,1.67c0,3.27,0,6.54,0,9.8,0,.9-.24,1.64-1.27,1.66s-1.41-.7-1.4-1.66Z" transform="translate(-0.13 -0.02)"/><path class="cls-11" d="M134.65,14.94c-1.67,0-3.35,0-5,0-.89,0-1.53-.34-1.55-1.26s.65-1.39,1.59-1.38h9.94c.92,0,1.59.35,1.59,1.36s-.71,1.3-1.63,1.29C137.93,14.92,136.29,14.94,134.65,14.94Z" transform="translate(-0.13 -0.02)"/><path class="cls-11" d="M188,207.22c0,1.6,0,3.19,0,4.78,0,1.27-.46,1.89-1.36,1.82-1.09-.07-1.32-.83-1.31-1.77q0-4.83,0-9.68c0-1,.31-1.71,1.37-1.7s1.31.74,1.3,1.65C187.94,204,188,205.59,188,207.22Z" transform="translate(-0.13 -0.02)"/><path class="cls-11" d="M188,291.46c0,1.68,0,3.36,0,5,0,.88-.34,1.52-1.29,1.54s-1.38-.64-1.38-1.57v-10c0-.93.37-1.62,1.36-1.61s1.32.72,1.31,1.64C187.94,288.18,188,289.82,188,291.46Z" transform="translate(-0.13 -0.02)"/><path class="cls-11" d="M92.68,14.94H87.53c-.89,0-1.5-.33-1.49-1.3s.62-1.34,1.49-1.34c3.36,0,6.71,0,10.06,0,.94,0,1.61.41,1.57,1.39s-.67,1.27-1.57,1.25C96,14.91,94.31,14.94,92.68,14.94Z" transform="translate(-0.13 -0.02)"/><path class="cls-11" d="M13.21,59.06a1.62,1.62,0,0,1-2.09-.51c0-3.68,0-7.35-.07-11a1.27,1.27,0,0,1,1.29-1.43c.93,0,1.37.57,1.37,1.46,0,3.4,0,6.8,0,10.2A2.09,2.09,0,0,1,13.21,59.06Z" transform="translate(-0.13 -0.02)"/><path class="cls-11" d="M92,97.42h3.48c.38,0,.77.07.79.53s-.35.69-.8.69q-3.58,0-7.19,0c-.44,0-.81-.15-.77-.68s.39-.54.78-.54Z" transform="translate(-0.13 -0.02)"/><path class="cls-11" d="M107,98.65h-3.23c-.5,0-1,0-1.05-.67s.55-.56,1-.57h6.81c.45,0,1,0,.93.63s-.53.61-1,.61Z" transform="translate(-0.13 -0.02)"/><path class="cls-11" d="M76.86,97.41h3.46c.37,0,.78,0,.81.5s-.29.72-.75.73c-2.43,0-4.85,0-7.28,0-.42,0-.69-.2-.68-.66s.35-.56.74-.56Z" transform="translate(-0.13 -0.02)"/><path class="cls-11" d="M137.36,98.65H133.9c-.42,0-.84-.08-.84-.62s.4-.61.83-.61h7c.42,0,.87,0,.85.58s-.4.65-.84.65Z" transform="translate(-0.13 -0.02)"/><path class="cls-11" d="M122.13,98.65h-3.22c-.44,0-.94,0-1-.6s.47-.63.91-.64h6.8c.45,0,1,0,.92.63s-.53.61-1,.61Z" transform="translate(-0.13 -0.02)"/><path class="cls-11" d="M61.61,97.41h3.47c.41,0,.84,0,.85.57s-.38.65-.81.65q-3.53,0-7.05,0c-.44,0-.79-.13-.78-.67s.46-.55.86-.55Z" transform="translate(-0.13 -0.02)"/><path class="cls-11" d="M150.75,98.64c-.64,0-1.27,0-1.9,0-.4,0-.7-.21-.67-.66a.58.58,0,0,1,.66-.55h3.92a.55.55,0,0,1,.6.59.56.56,0,0,1-.59.6c-.68,0-1.35,0-2,0Z" transform="translate(-0.13 -0.02)"/><path class="cls-7" d="M73.12,186.24c-.5-1.25-.12-2.56-.24-3.84C73.38,183.65,73,185,73.12,186.24Z" transform="translate(-0.13 -0.02)"/><path class="cls-7" d="M73.36,190.56c-.49-1-.13-2.08-.24-3.12C73.6,188.45,73.25,189.52,73.36,190.56Z" transform="translate(-0.13 -0.02)"/><path class="cls-7" d="M73.6,194.4c-.47-.85-.14-1.76-.24-2.64C73.82,192.6,73.5,193.52,73.6,194.4Z" transform="translate(-0.13 -0.02)"/><path class="cls-12" d="M4.09,304.77a25.37,25.37,0,0,0-3.38,2.64l-.4,0c0-.4,0-.8,0-1.2v-237c0-.36,0-.72,0-1.08l.69.5,2.88,2.14c1-.11,1.45.69,2.11,1.16a27.4,27.4,0,0,1,2.17,1.69c1,.89,2,1.75,3.09,2.6a5.47,5.47,0,0,1,1,1c.47.49,1.1.79,1.53,1.33a1.15,1.15,0,0,1,.23.21c.19.26.5.4.68.67.42.49,1,.79,1.44,1.29A21.72,21.72,0,0,1,19,83.54c1.06,1.27,2.54,2.15,3.38,3.62C24.11,89.12,26,91,27.7,93c1.51,2.25,3.31,4.28,4.92,6.46a145.08,145.08,0,0,1,15.11,24.73,116,116,0,0,1,6.15,15.17,161.11,161.11,0,0,1,6,23.07c.75,4.28,1.4,8.58,1.73,12.91a145.5,145.5,0,0,1,.34,19.48,167.66,167.66,0,0,1-1.75,16.75,152,152,0,0,1-6.07,24.14,96.89,96.89,0,0,1-5,13,136.54,136.54,0,0,1-13.63,23.68c-2,2.79-4.14,5.45-6.08,8.26s-4.51,5.16-6.77,7.74c-1.19,1.45-2.64,2.65-3.8,4.12-.73,1-1.88,1.45-2.67,2.35a6.93,6.93,0,0,1-1.23,1.25,13.09,13.09,0,0,0-1.24,1.23,15.12,15.12,0,0,0-2,1.79,1,1,0,0,1-.27.19c-1,.83-1.9,1.79-3,2.56-.8.65-1.55,1.36-2.41,1.93C5.36,304.23,5,305,4.09,304.77Z" transform="translate(-0.13 -0.02)"/><path class="cls-8" d="M45.55,97.93c-2.91-3.89-5.92-7.69-9.1-11.35-1.7-2-3.57-3.75-5.34-5.64a55.68,55.68,0,0,0-10.52-9.1,15.13,15.13,0,0,0-6.65-2.46c-.41-.22-.48-.65-.63-1a1,1,0,0,1,.12-.85,1.77,1.77,0,0,1,1.71-.16c3.87.92,7.07,3.09,10.06,5.57A78.83,78.83,0,0,1,31.79,79,178,178,0,0,1,46.46,96.29c.85,1.15-.37.81-.67,1.14C46,97.72,45.77,97.84,45.55,97.93Z" transform="translate(-0.13 -0.02)"/><path class="cls-8" d="M5.77,72.27a8.8,8.8,0,0,1-1.91-1.46A10.66,10.66,0,0,1,11.33,67c.13,0,.29.11.43.16a4.49,4.49,0,0,1-.51,2.28,2.92,2.92,0,0,1-1.21.69,9.17,9.17,0,0,0-3.22,1.67A1.5,1.5,0,0,1,5.77,72.27Z" transform="translate(-0.13 -0.02)"/><path class="cls-13" d="M11,69.38c.05-.81,0-1.66.75-2.2a2.07,2.07,0,0,1,1.67.32c.09.22.19.45.28.68a5.13,5.13,0,0,1,0,2.24,2.3,2.3,0,0,1-2.67.06A.83.83,0,0,1,11,69.38Z" transform="translate(-0.13 -0.02)"/><path class="cls-11" d="M45.55,97.93l.24-.5c1.26,0,2.52,0,3.79,0,.48,0,1.17-.15,1.2.58s-.67.61-1.15.69H48.19l-2.15,0A1.11,1.11,0,0,1,45.55,97.93Z" transform="translate(-0.13 -0.02)"/><path class="cls-14" d="M13.94,302.86v-1.44a1.38,1.38,0,0,1,.8-.48c3.84-.61,6.83-2.82,9.61-5.31a114.81,114.81,0,0,0,11-11.5A154,154,0,0,0,49.06,265c1.7-2.79,3.18-5.72,4.81-8.55a119.2,119.2,0,0,0,9.4-21.85,140.42,140.42,0,0,0,5.81-25A170.49,170.49,0,0,0,70.62,192,139.3,139.3,0,0,0,70,174.4a146.82,146.82,0,0,0-4.74-26.57,133.42,133.42,0,0,0-7.94-21.69A164.61,164.61,0,0,0,41.49,99.46c-2.3-3.15-4.75-6.18-7.32-9.12A98.61,98.61,0,0,0,23.46,79.42c-2.59-2.17-5.36-4-8.83-4.53a1.27,1.27,0,0,1-.92-.49,1.74,1.74,0,0,1,0-1.36c.34-.47.79-.4,1.29-.31a17.6,17.6,0,0,1,8.38,4.34c10.84,9.28,19.42,20.44,26.92,32.5,1.43,2.31,2.63,4.75,4,7.06C59,124.24,62.11,132.52,65,140.91a139.94,139.94,0,0,1,6.16,27.52c.68,5.43,1.06,10.87,1.2,16.34a144.11,144.11,0,0,1-1,21.49,146.27,146.27,0,0,1-5.82,27.12A142.69,142.69,0,0,1,58,252.19,169.43,169.43,0,0,1,45.21,274a146.52,146.52,0,0,1-11.47,14.56c-3.91,4.37-7.92,8.66-12.83,12A14.73,14.73,0,0,1,15,303.06C14.61,303.13,14.26,303.2,13.94,302.86Z" transform="translate(-0.13 -0.02)"/><path class="cls-15" d="M13.93,74.41c3.29-.07,5.89,1.6,8.34,3.48A79.46,79.46,0,0,1,32.72,88a147.07,147.07,0,0,1,14.76,19.41c2.49,3.86,4.63,7.93,6.91,11.91a123.8,123.8,0,0,1,9.73,23,134,134,0,0,1,5.43,23.91c.76,5.69,1.2,11.4,1.5,17.14a128.63,128.63,0,0,1-.16,13,145.46,145.46,0,0,1-2.43,19.8,144.71,144.71,0,0,1-8.61,28.88,95.3,95.3,0,0,1-4.4,9.58,186.37,186.37,0,0,1-15.77,24.84,134.37,134.37,0,0,1-14.82,16.26c-2.6,2.4-5.41,4.63-9,5.44a8.06,8.06,0,0,1-1.89.17c0-.4,0-.8,0-1.19a1.14,1.14,0,0,1,.91-.51c3.41-.53,6.1-2.46,8.68-4.57a53.33,53.33,0,0,0,4.11-3.84,141.27,141.27,0,0,0,13.69-16.23,176.2,176.2,0,0,0,11.23-18A135.09,135.09,0,0,0,66,221.67a149.12,149.12,0,0,0,3.35-21.86,146.92,146.92,0,0,0,.42-16.52,154.07,154.07,0,0,0-2.62-23.64A150.41,150.41,0,0,0,59,132.12a145.6,145.6,0,0,0-8.26-16.59c-2.26-4.09-4.73-8-7.37-11.87S37.82,96,34.78,92.39a120,120,0,0,0-9.29-10A24.45,24.45,0,0,0,17,76.69a13.91,13.91,0,0,0-2.2-.56,1.53,1.53,0,0,1-1.14-.57A1,1,0,0,1,13.93,74.41Z" transform="translate(-0.13 -0.02)"/><path class="cls-16" d="M13.93,75.61c3.28,0,5.9,1.58,8.35,3.48a77.08,77.08,0,0,1,9.27,9,136.81,136.81,0,0,1,9.28,11.25,162.73,162.73,0,0,1,11.49,18.07,131.59,131.59,0,0,1,8.34,17.75,144.33,144.33,0,0,1,7.21,26.31c.79,4.56,1.43,9.14,1.84,13.74a130.49,130.49,0,0,1,.5,17.46A156.69,156.69,0,0,1,65,227.36a137.43,137.43,0,0,1-7.07,20,163.56,163.56,0,0,1-13.38,23.89,143.52,143.52,0,0,1-11,14.31,107.23,107.23,0,0,1-7.91,8.32c-2.63,2.44-5.32,4.85-8.87,5.94a7.79,7.79,0,0,1-2.83.43l-.19-.25c-.64-.2-1-.56-.77-1.29a.85.85,0,0,1,.65-.25c3,.16,5.4-1.18,7.68-2.86a58.39,58.39,0,0,0,8.55-8c2.5-2.74,4.94-5.55,7.24-8.46a146,146,0,0,0,11.69-17.22,142.52,142.52,0,0,0,13.42-30,149.56,149.56,0,0,0,4.94-21.81c.71-4.82,1.19-9.65,1.47-14.52a137.17,137.17,0,0,0,.1-13.9,148.15,148.15,0,0,0-4.94-32.34,128.89,128.89,0,0,0-9-24.35A163.6,163.6,0,0,0,39.5,99.84c-2.84-3.77-5.86-7.37-9-10.87A66.19,66.19,0,0,0,22,80.73a15.55,15.55,0,0,0-7.29-3.42,1.3,1.3,0,0,1-1-.55A.94.94,0,0,1,13.93,75.61Z" transform="translate(-0.13 -0.02)"/><path class="cls-17" d="M13.94,302.86c3.67-.44,6.66-2.28,9.45-4.56a101.71,101.71,0,0,0,12.39-12.6,154.15,154.15,0,0,0,15.44-21.59c1.14-1.92,2-4,3.23-5.87,3.21-4.92,5.3-10.36,7.44-15.76a138.63,138.63,0,0,0,7.69-27.28c.91-5.19,1.55-10.4,2.07-15.63.19-1.9.25-3.82.25-5.73s.29-3.59.23-5.38c-.22-6.72-.46-13.45-1.34-20.14a150.78,150.78,0,0,0-7.05-30,122.18,122.18,0,0,0-8.39-19.45A171.28,171.28,0,0,0,37.89,92.57,129.5,129.5,0,0,0,26.38,80.09c-2.74-2.56-5.61-5-9.2-6.34A19.22,19.22,0,0,0,13.93,73a.48.48,0,0,1,0-.72,12.81,12.81,0,0,1,6.38,2.19A38.23,38.23,0,0,1,27,79.79,141,141,0,0,1,40.21,94.46a150.11,150.11,0,0,1,11.36,16.59c1,1.68,1.8,3.48,2.88,5.11,3.25,4.93,5.4,10.4,7.6,15.82a139.42,139.42,0,0,1,8.46,30.28,169.91,169.91,0,0,1,1.94,17.45c.29,4.91.32,9.83.13,14.73a151.05,151.05,0,0,1-2.64,22.41,150.78,150.78,0,0,1-4.89,18.88,150.29,150.29,0,0,1-6.31,15.8,162.94,162.94,0,0,1-12,20.83,132.45,132.45,0,0,1-10.66,14c-2.63,3.05-5.27,6.09-8.19,8.87a42.9,42.9,0,0,1-8.22,6.54,12.2,12.2,0,0,1-5.75,1.84C13.94,303.34,13.94,303.1,13.94,302.86Z" transform="translate(-0.13 -0.02)"/><path class="cls-8" d="M4.09,304.77a6.7,6.7,0,0,1,1.67-1.22c.12,0,.26,0,.35.05A26.13,26.13,0,0,0,11,306.18a.86.86,0,0,1,.33.35,2,2,0,0,1,0,1.61.63.63,0,0,1-.37.48c-2.57,0-4.58-1.24-6.47-2.8A1.27,1.27,0,0,1,4.09,304.77Z" transform="translate(-0.13 -0.02)"/><path class="cls-18" d="M13,298.79a2.06,2.06,0,0,1,.78,1.19c0,1-.05,1.93-.07,2.89a2.23,2.23,0,0,1-2.89-.42c-.35-1.22-.56-2.42.52-3.42h0C11.81,298.71,12.29,298.11,13,298.79Z" transform="translate(-0.13 -0.02)"/><path class="cls-19" d="M11,308.62l.08-.47a1.87,1.87,0,0,1,2.58,0c0,.79.07,1.59,0,2.39A1.38,1.38,0,0,1,12.13,312c-1,0-1-.77-1.07-1.42S11,309.26,11,308.62Z" transform="translate(-0.13 -0.02)"/><path class="cls-20" d="M11.09,302.39a11.86,11.86,0,0,0,2.58.48V306a2.17,2.17,0,0,1-2.69.14c-.72-.83-.41-1.8-.37-2.73C10.69,303,10.67,302.6,11.09,302.39Z" transform="translate(-0.13 -0.02)"/><path class="cls-21" d="M11.09,306h2.58v2.16H11.09c0-.56-.06-1.13-.08-1.69A.32.32,0,0,1,11.09,306Z" transform="translate(-0.13 -0.02)"/><path class="cls-22" d="M13.93,72.25v4.56a1.46,1.46,0,0,1,.3,1.81.52.52,0,0,1-.49.35l-.1,0a3,3,0,0,1-.41-1.9,13.59,13.59,0,0,1,0-2.63,13.59,13.59,0,0,1,0-2.63,1.55,1.55,0,0,1,.42-1.46l.06-2.15c.29.36.19.79.23,1.2s0,1,0,1.44Z" transform="translate(-0.13 -0.02)"/><path class="cls-23" d="M13.93,78.73V76.81c3.27,0,5.89,1.58,8.35,3.48A77.71,77.71,0,0,1,32.69,90.64a147.89,147.89,0,0,1,12.84,17c2.64,4,4.95,8.29,7.29,12.52a128.14,128.14,0,0,1,10.12,24.4,135.85,135.85,0,0,1,4.69,21c.7,4.86,1.2,9.72,1.48,14.62s.3,9.51.11,14.25A148.9,148.9,0,0,1,66.48,217a135,135,0,0,1-10.86,33.15,152.63,152.63,0,0,1-11.77,20.55A152.43,152.43,0,0,1,32.58,285.3c-2.21,2.52-4.44,5-6.89,7.31a28.34,28.34,0,0,1-7.18,5.31,8,8,0,0,1-5.55.87,3.45,3.45,0,0,0-1.68.25,6,6,0,0,1,2.12-2c.81-.63,1.78-.27,2.67-.42,2.76-.46,4.9-2.06,6.94-3.79A101,101,0,0,0,35.25,279.8a141.49,141.49,0,0,0,15.43-23.25,136.75,136.75,0,0,0,10.56-24.94,144.82,144.82,0,0,0,4.38-18.43c.64-3.79,1.14-7.6,1.57-11.42.2-1.68.21-3.42.35-5.11.37-4.79.16-9.58.15-14.37,0-3-.35-6-.63-9A161.92,161.92,0,0,0,64.35,156c-.62-3.12-1.43-6.2-2.35-9.25-1.45-4.81-3.08-9.55-5-14.21-1.75-4.34-3.86-8.5-6-12.63a134.24,134.24,0,0,0-7.89-13.26c-2-2.93-4-5.89-6.17-8.65-2-2.55-4.22-5-6.35-7.45-1.93-2.24-4-4.32-6.16-6.36a24.19,24.19,0,0,0-5.89-4.24,8.35,8.35,0,0,0-3.33-.87C14.8,79.05,14.26,79.24,13.93,78.73Z" transform="translate(-0.13 -0.02)"/><path class="cls-24" d="M18.7,83.8l-2.84-2.7c.31-.92,1-.55,1.57-.42A13.74,13.74,0,0,1,23,83.88a85.82,85.82,0,0,1,9.14,9.44,144.21,144.21,0,0,1,13.4,18.43C48.76,117,51.47,122.5,54.21,128a107.33,107.33,0,0,1,5.36,13.18,130.93,130.93,0,0,1,5.18,20.29c.58,3.42,1.09,6.85,1.5,10.3.47,3.88.72,7.78.85,11.68a139.75,139.75,0,0,1-.48,17.12c-.47,5.37-1.29,10.69-2.28,16a127.18,127.18,0,0,1-8.68,28.22,166.84,166.84,0,0,1-8.33,16.31,148.21,148.21,0,0,1-12.12,17.75,93.85,93.85,0,0,1-12,12.94,15,15,0,0,1-5.52,3.28c-.58.17-1.37.67-1.8-.33a18,18,0,0,1,2.57-2.44,54.72,54.72,0,0,0,9.45-8.22c3.2-3.57,6.27-7.24,9.17-11a128.81,128.81,0,0,0,11.5-18.34c3-5.67,5.42-11.56,7.82-17.48,1.37-3.37,2.25-6.87,3.31-10.32.62-2,1.12-4,1.59-6.08.76-3.19,1.35-6.42,1.89-9.65.34-2,.66-4.08.86-6.11s.4-4.26.58-6.37.13-4.21.33-6.31a58.44,58.44,0,0,0,0-10.16c-.15-1.93-.25-3.87-.28-5.81a28.06,28.06,0,0,0-.34-3.43c-.23-1.64-.38-3.29-.63-4.93q-.6-4-1.3-7.95c-.79-4.41-2-8.72-3.17-13a83,83,0,0,0-2.86-8.58c-2-5.12-4.1-10.21-6.58-15.13a127.54,127.54,0,0,0-13.19-21.23A119.72,119.72,0,0,0,25,88.73,35.2,35.2,0,0,0,18.7,83.8Z" transform="translate(-0.13 -0.02)"/><path class="cls-25" d="M18.7,83.8c.43-.37.74,0,1.06.19a39.5,39.5,0,0,1,8.74,7.73c3.12,3.42,6,7,8.87,10.65A126.35,126.35,0,0,1,48.7,120.25a142.5,142.5,0,0,1,10.13,24.17A138.71,138.71,0,0,1,64,167.64c.6,4.51.95,9,1.23,13.56a115,115,0,0,1,.13,11.74,145,145,0,0,1-6,36.62,147.22,147.22,0,0,1-8.06,20.75,128.4,128.4,0,0,1-14.75,24.18c-2.63,3.34-5.32,6.65-8.21,9.78A51.91,51.91,0,0,1,21.1,291a7.07,7.07,0,0,1-2.67,1.3,42.62,42.62,0,0,1,3.87-4.08,12.81,12.81,0,0,0,3-2.73,129.6,129.6,0,0,0,16-20.3,150.88,150.88,0,0,0,13-25.55,62.66,62.66,0,0,0,2.78-6.73c1-3.63,2.06-7.25,3-10.9s1.47-7.59,2.21-11.37c.39-2,.55-4,.88-5.93.18-1.07.19-2.3.37-3.36.26-1.56-.19-3.16.45-4.69.29-.68-.18-1.5-.06-2.25a46,46,0,0,0,.31-8.93q-.13-3-.28-6.05c-.1-2-.17-4-.45-6-.72-4.93-1.42-9.86-2.39-14.76-.77-3.94-1.85-7.79-2.84-11.67a91.5,91.5,0,0,0-4.52-12.26A147.37,147.37,0,0,0,39,107.31,129.57,129.57,0,0,0,29.5,94.93c-2.09-2.36-4.22-4.67-6.49-6.85-.28-.27-.5-.63-.94-.71Z" transform="translate(-0.13 -0.02)"/><path class="cls-26" d="M15.86,294.73a4,4,0,0,0,2.71-.56,19.42,19.42,0,0,0,5.75-4,132.41,132.41,0,0,0,21.89-28c3.09-5.13,5.59-10.58,8.21-16a122.62,122.62,0,0,0,8.19-23.7,148.21,148.21,0,0,0,3.12-17.9A140.91,140.91,0,0,0,66.6,182a148.62,148.62,0,0,0-2.67-22.53,132.67,132.67,0,0,0-7.42-25.24,163.82,163.82,0,0,0-7.44-15.39c-1.93-3.59-4-7.09-6.24-10.5a149,149,0,0,0-9.41-12.82,101.35,101.35,0,0,0-9.2-9.9,16.92,16.92,0,0,0-7.11-4.47c-.42-.11-.83-.36-1.25,0a5.75,5.75,0,0,1-1.47-1.4c.3-1.09,1.17-.61,1.75-.53a11.74,11.74,0,0,1,5.16,2.38,51.22,51.22,0,0,1,8.14,7.57c2.81,3.11,5.59,6.24,8.11,9.59A145.92,145.92,0,0,1,51.21,120.2,146.93,146.93,0,0,1,57.76,134a139.15,139.15,0,0,1,7.12,24.07,154.39,154.39,0,0,1,2.75,21.45,147.76,147.76,0,0,1-.78,25.93,145.34,145.34,0,0,1-5.07,24.58A124.55,124.55,0,0,1,56,245.92a163.6,163.6,0,0,1-11.68,21.55,126.61,126.61,0,0,1-8.07,11.3c-4.19,5.07-8.34,10.2-13.47,14.38-2,1.65-4.14,3.16-6.82,3.53-.57.08-1.45.42-1.32-.79A4,4,0,0,1,15.86,294.73Z" transform="translate(-0.13 -0.02)"/><path class="cls-27" d="M53.46,139.21c-1.4-3.43-2.65-6.92-4.14-10.32A146.8,146.8,0,0,0,31.51,98.62c-1.4-1.83-2.82-3.66-4.23-5.48.85-.32,1.14.45,1.51.87a146.3,146.3,0,0,1,12.45,16.57,140.57,140.57,0,0,1,12.65,24.65c.66,1.67,1.5,3.25,2.16,4.91a35.53,35.53,0,0,1,1.43,4.18c1,3.64,2.13,7.24,2.92,10.93.7,3.25,1.3,6.51,1.84,9.79.33,2,.68,4,.89,5.94.11,1.12.2,2.3.37,3.39.24,1.56-.14,3.16.44,4.68.28.72-.09,1.5,0,2.26.11,2.38.4,4.75.41,7.15,0,2-.6,4-.37,6.06a27.67,27.67,0,0,1-.28,5.32c-.18,2.48-.53,5-.87,7.46-.6,4.43-1.46,8.8-2.31,13.18a53.14,53.14,0,0,1-1.59,6c-.77,2.47-1.22,5-2.17,7.44-2,5-4.08,10-6.35,14.84a140,140,0,0,1-13,22.25c-2.26,3.17-4.66,6.24-7.15,9.23-.57.69-.65.68-1.18.31,1.84-2.5,3.71-5,5.52-7.51a146.39,146.39,0,0,0,9.42-15.13,147.47,147.47,0,0,0,9.53-21.56,2.06,2.06,0,0,1,.23-.41,51.87,51.87,0,0,0,2.94-8.45,144.26,144.26,0,0,0,3.73-17.22c.76-5.05,1.26-10.12,1.53-15.22q.27-5,.17-10.06a143,143,0,0,0-1.83-20.24A136.47,136.47,0,0,0,55,143,16.27,16.27,0,0,0,53.46,139.21Z" transform="translate(-0.13 -0.02)"/><path class="cls-28" d="M29,280.52c1.25-.23,1.62-1.43,2.27-2.23a140.37,140.37,0,0,0,13.28-19.16,171.3,171.3,0,0,0,9.75-20.42,117.7,117.7,0,0,0,5.35-16.61,131.38,131.38,0,0,0,3.19-18.49c.34-3.42.55-6.83.75-10.25a83.8,83.8,0,0,0,.15-8.38A170.17,170.17,0,0,0,62,165.47a135,135,0,0,0-5.55-22.89c-1.34-3.92-3-7.72-4.65-11.53a138.41,138.41,0,0,0-13.29-24,151.38,151.38,0,0,0-10.11-13,2.93,2.93,0,0,0-1.09-.91l-5.21-5.77c.52-.36.71.15,1,.39,5.08,4.37,9.15,9.64,13.16,15A138.83,138.83,0,0,1,51,127.48c1.15,2.46,2.06,5,3.25,7.47a39.08,39.08,0,0,1,2.35,5.28c.5,1.62,1.47,3.09,1.57,4.91a22.21,22.21,0,0,0,1.19,4.54,125,125,0,0,1,2.87,12.68c.38,2.3.87,4.6,1.18,6.88.24,1.73.3,3.57.57,5.26s-.42,3.18.48,4.64c.18.29.06.79,0,1.18a8.27,8.27,0,0,0,.18,3.76,10.27,10.27,0,0,1,.13,3.33c-.08,1.77.25,3.56-.4,5.33a4.9,4.9,0,0,0,.07,2.73,2.13,2.13,0,0,1-.16,1.74,1.2,1.2,0,0,0-.2,1c.55,1.38-.05,2.76-.18,4.06-.16,1.62-.45,3.3-.66,4.92-.28,2.16-.73,4.28-1.06,6.42-.27,1.78-.84,3.52-1,5.29-.14,2.24-1.14,4.24-1.53,6.42a15.71,15.71,0,0,1-1.27,4.24c-.57,1.14-.38,2.47-.83,3.69-1.19,3.18-2.83,6.14-4.07,9.29a123.14,123.14,0,0,1-5.8,12.37,140.79,140.79,0,0,1-14.25,21.82,118.69,118.69,0,0,1-8,9.19c-.75.77-1.59,1.44-2.39,2.16-.22.2-.44.38-.72.1Z" transform="translate(-0.13 -0.02)"/><path class="cls-29" d="M14.63,295.89c.23.66.72.45,1.19.39a13.24,13.24,0,0,0,6.49-3.16c5.14-4.17,9.36-9.22,13.48-14.35a138.46,138.46,0,0,0,12.77-18.95c2.15-3.83,3.95-7.85,6-11.74a104.31,104.31,0,0,0,6.31-16A133.37,133.37,0,0,0,66,209.55c.74-5.09,1.2-10.2,1.47-15.34.18-3.56.27-7.12.13-10.66-.21-5.12-.59-10.25-1.31-15.35a152.78,152.78,0,0,0-4.63-22,113,113,0,0,0-6.24-17,169.17,169.17,0,0,0-13-23.18A155.34,155.34,0,0,0,31.14,91.5,61.13,61.13,0,0,0,21.39,82,11.94,11.94,0,0,0,16,79.55a2,2,0,0,0-1.61.15,1.18,1.18,0,0,1-.65-.73l.19-.24c2.73-.41,5,.73,7.11,2.23a63.7,63.7,0,0,1,11,10.74c2,2.33,4.15,4.54,5.94,7,3.32,4.58,6.59,9.2,9.48,14.09s5.33,9.64,7.74,14.6a110.12,110.12,0,0,1,4.5,11.1,134.77,134.77,0,0,1,5.34,19.14c1,5.05,1.75,10.12,2.34,15.24a152.64,152.64,0,0,1,.62,22,137.81,137.81,0,0,1-2.62,21.57,138.91,138.91,0,0,1-9,29.26,146.78,146.78,0,0,1-11.5,21.39c-1.94,3-4,5.85-6.07,8.76A128.43,128.43,0,0,1,30,286.45a53.59,53.59,0,0,1-9.06,8.49,10.53,10.53,0,0,1-7.52,2.15A5,5,0,0,1,14.63,295.89Z" transform="translate(-0.13 -0.02)"/><path class="cls-30" d="M53.46,139.21c.44-.49.39.12.43.24a113.07,113.07,0,0,1,6.33,22.78c.8,4.35,1.33,8.73,1.83,13.12.13,1.15.15,2.31.25,3.46a110.9,110.9,0,0,1,.24,13.64,147.53,147.53,0,0,1-6,36.6c-.7,2.34-1.65,4.57-2.48,6.85,0,.07-.08.17-.14.19s-.18-.07-.22-.18c.94-3.18,1.95-6.34,2.82-9.54a143.68,143.68,0,0,0,4.17-22,146.72,146.72,0,0,0,.89-20.21,152.43,152.43,0,0,0-1.75-19.3A162.12,162.12,0,0,0,53.46,139.21Z" transform="translate(-0.13 -0.02)"/><path class="cls-7" d="M11.09,306l-.08.47a8.51,8.51,0,0,1-5.25-2.91,10.78,10.78,0,0,1,2.39-1.92A5.17,5.17,0,0,1,11,303.34Z" transform="translate(-0.13 -0.02)"/><path class="cls-7" d="M11,69.38l.08,1a1.53,1.53,0,0,1,.33,1.59.93.93,0,0,1-.15.59A12.65,12.65,0,0,1,9,73.92a1,1,0,0,1-1.11,0,9.57,9.57,0,0,1-2.12-1.68C7.07,70.5,9,69.86,11,69.38Z" transform="translate(-0.13 -0.02)"/><path class="cls-31" d="M11,303.34a4.64,4.64,0,0,1-2.86-1.71A12.93,12.93,0,0,1,11.3,299a8.85,8.85,0,0,0-.21,3.36Z" transform="translate(-0.13 -0.02)"/><path class="cls-14" d="M7.89,74C9,73.56,9.77,72.55,11,72.5c.9.62.39,1.57.53,2.37,0,.61.15,1.27-.51,1.69A14.54,14.54,0,0,1,7.89,74Z" transform="translate(-0.13 -0.02)"/><path class="cls-32" d="M11,76.56l.06-1.68c.79-1.1,1.44-1.23,2.55-.47v2.64a1.29,1.29,0,0,1-1.64.49A2.84,2.84,0,0,1,11,76.56Z" transform="translate(-0.13 -0.02)"/><path class="cls-33" d="M12,77.54a2.92,2.92,0,0,1,1.64-.49V79A7.37,7.37,0,0,1,12,77.54Z" transform="translate(-0.13 -0.02)"/><path class="cls-20" d="M11.09,72V70.33h2.56v1.44A2.11,2.11,0,0,1,11.09,72Z" transform="translate(-0.13 -0.02)"/><path class="cls-34" d="M11.09,72a6.69,6.69,0,0,1,2.56-.23c0,.88,0,1.76,0,2.64a4.77,4.77,0,0,0-2.55.47c0-.79-.06-1.59-.08-2.38Z" transform="translate(-0.13 -0.02)"/></g><g id="Call_or_send_an_email_with_your_questions_.._or_use_the_secure" data-name="Call or send an email with your questions .. or use the secure"><text id="Call_or_send_an_email_with_your_questions_.._or_use_the_secure-2" data-name="Call or send an email with your questions .. or use the secure" class="cls-35" transform="translate(72.74 154.01)">Call o<tspan class="cls-36" x="30.18" y="0">r</tspan><tspan class="cls-37" x="34.41" y="0" xml:space="preserve"> send an</tspan><tspan x="0" y="14.69">email</tspan><tspan class="cls-38" x="28.62" y="14.69"> </tspan><tspan class="cls-39" x="31.46" y="14.69">with</tspan><tspan class="cls-40" x="55.38" y="14.69"> </tspan><tspan class="cls-41" x="58.16" y="14.69">y</tspan><tspan x="64.33" y="14.69">ou</tspan><tspan class="cls-42" x="78.14" y="14.69">r</tspan><tspan x="0" y="29.38">questions .. o</tspan><tspan class="cls-42" x="71.19" y="29.38">r</tspan><tspan x="75.42" y="29.38" xml:space="preserve"> use</tspan><tspan x="0" y="44.06">the secu</tspan><tspan class="cls-43" x="45.35" y="44.06">r</tspan><tspan x="49.6" y="44.06">e link</tspan><tspan x="0" y="58.75">bel</tspan><tspan class="cls-44" x="16.29" y="58.75">o</tspan><tspan class="cls-45" x="23.16" y="58.75">w</tspan><tspan x="32.57" y="58.75"> </tspan><tspan class="cls-46" x="35.66" y="58.75">t</tspan><tspan x="40.06" y="58.75">o pu</tspan><tspan class="cls-47" x="63.84" y="58.75">r</tspan><tspan x="68.09" y="58.75">chase</tspan><tspan x="0" y="73.44">this amazing</tspan><tspan x="0" y="88.13">packa</tspan><tspan class="cls-48" x="31.27" y="88.13">g</tspan><tspan x="37.56" y="88.13">e.</tspan></text></g><g id="Connect"><text class="cls-49" transform="translate(35.06 257.42) rotate(-90)">C<tspan class="cls-50" x="22.27" y="0">onnect</tspan></text></g><g id="pionezero_protonmail.ch" data-name="pionezero@protonmail.ch"><text class="cls-51" transform="translate(52.1 67.85)">pione<tspan class="cls-52" x="26.13" y="0">z</tspan><tspan x="30.85" y="0">e</tspan><tspan class="cls-53" x="36.41" y="0">r</tspan><tspan x="40.26" y="0">o@p</tspan><tspan class="cls-53" x="60.95" y="0">r</tspan><tspan class="cls-54" x="64.8" y="0">o</tspan><tspan class="cls-55" x="70.69" y="0">t</tspan><tspan class="cls-56" x="74.6" y="0">onmail.ch</tspan></text></g><g id="_" data-name=""><text class="cls-57" transform="translate(28 72.48)"></text></g><g id="_262-421-5780" data-name="262-421-5780"><text class="cls-51" transform="translate(72.98 48.17)">262-421-5780</text></g><g id="_2" data-name=""><text class="cls-57" transform="translate(48.56 51.39)"></text></g><g id="Buy_now" data-name="Buy now"><text class="cls-58" transform="translate(59.85 340.05)"><tspan class="cls-59">B</tspan><tspan x="13.18" y="0">u</tspan><tspan class="cls-60" x="24.53" y="0">y</tspan><tspan x="34.75" y="0" xml:space="preserve"> n</tspan><tspan class="cls-61" x="50.71" y="0">o</tspan><tspan class="cls-62" x="62.09" y="0">w</tspan></text></g><g id="_3" data-name=""><text class="cls-63" transform="translate(80.67 313.23)"></text></g></svg>