<?xml version="1.0" encoding="UTF-8" ?>
<!DOCTYPE svg PUBLIC "-//W3C//DTD SVG 1.1//EN" "http://www.w3.org/Graphics/SVG/1.1/DTD/svg11.dtd">
<svg width="335pt" height="512pt" viewBox="0 0 335 512" version="1.1" xmlns="http://www.w3.org/2000/svg">
<path fill="#a7c0d0" stroke="#a7c0d0" stroke-width="0.09375" opacity="1.00" d=" M 58.4 0.0 L 280.5 0.0 C 281.1 0.2 282.4 0.5 283.0 0.7 C 308.4 3.4 330.3 24.8 334.1 50.0 C 334.4 52.2 334.2 54.4 335.0 56.4 L 335.0 455.5 L 334.7 456.5 C 333.5 482.6 312.5 506.0 287.0 510.8 C 284.8 511.1 282.6 511.1 280.5 512.0 L 54.5 512.0 C 51.6 510.9 48.5 511.1 45.6 510.3 C 27.2 505.8 11.5 492.1 4.4 474.6 C 1.5 468.6 1.0 462.0 0.0 455.6 L 0.0 56.4 C 0.9 48.5 2.6 40.5 6.3 33.3 C 13.4 18.9 26.5 7.6 41.8 2.9 C 47.1 0.6 52.9 1.0 58.4 0.0 M 164.3 15.4 C 155.7 16.9 151.9 28.8 158.1 34.9 C 163.7 41.9 176.3 39.1 178.4 30.5 C 181.4 22.1 172.8 12.9 164.3 15.4 M 46.3 59.4 C 41.8 60.8 38.5 65.2 39.0 70.0 C 39.0 181.3 39.0 292.7 39.0 404.1 C 38.4 410.1 44.0 415.5 50.0 415.0 C 128.0 415.0 206.0 415.0 284.0 415.0 C 290.0 415.5 295.6 410.1 295.0 404.0 C 295.0 292.7 295.0 181.3 295.0 70.0 C 295.6 63.9 290.0 58.5 284.1 59.0 C 206.4 59.0 128.7 59.0 51.0 59.0 C 49.4 59.0 47.8 59.0 46.3 59.4 M 151.3 435.4 C 147.3 436.7 143.8 440.5 144.1 444.9 C 144.0 455.0 144.0 465.0 144.1 475.1 C 143.9 480.8 149.4 485.4 155.0 485.0 C 164.7 485.0 174.4 485.1 184.1 485.0 C 189.3 484.9 194.1 480.4 193.9 475.1 C 194.1 465.4 194.0 455.7 194.0 446.0 C 194.1 442.6 192.9 439.0 189.9 437.1 C 186.0 433.9 180.6 435.3 176.0 435.0 C 167.8 435.2 159.5 434.5 151.3 435.4 M 52.3 446.4 C 48.9 447.6 45.7 450.3 45.2 454.1 C 44.8 458.4 45.1 462.7 45.0 467.0 C 44.9 470.6 46.3 474.6 49.6 476.3 C 53.0 478.6 57.2 477.9 61.0 478.0 C 64.8 477.9 69.0 478.7 72.4 476.3 C 75.3 474.8 76.9 471.3 76.9 468.1 C 77.0 463.7 77.1 459.3 76.9 454.9 C 76.5 449.6 71.2 445.7 66.0 446.0 C 61.5 446.1 56.8 445.6 52.3 446.4 M 264.3 446.4 C 260.6 447.7 257.3 450.8 257.1 454.9 C 256.9 459.6 256.9 464.4 257.1 469.1 C 257.4 474.0 262.1 477.9 266.9 477.9 C 271.0 478.0 275.0 478.0 279.1 478.0 C 284.0 477.9 288.6 474.0 288.9 469.1 C 289.1 464.4 289.1 459.6 288.9 454.9 C 288.5 449.6 283.2 445.7 278.0 446.0 C 273.5 446.1 268.8 445.6 264.3 446.4 Z" />
<path fill="#162e46" stroke="#162e46" stroke-width="0.09375" opacity="1.00" d=" M 164.3 15.4 C 172.8 12.9 181.4 22.1 178.4 30.5 C 176.3 39.1 163.7 41.9 158.1 34.9 C 151.9 28.8 155.7 16.9 164.3 15.4 Z" />
<path fill="#162e46" stroke="#162e46" stroke-width="0.09375" opacity="1.00" d=" M 46.3 59.4 C 47.8 59.0 49.4 59.0 51.0 59.0 C 128.7 59.0 206.4 59.0 284.1 59.0 C 290.0 58.5 295.6 63.9 295.0 70.0 C 295.0 181.3 295.0 292.7 295.0 404.0 C 295.6 410.1 290.0 415.5 284.0 415.0 C 206.0 415.0 128.0 415.0 50.0 415.0 C 44.0 415.5 38.4 410.1 39.0 404.1 C 39.0 292.7 39.0 181.3 39.0 70.0 C 38.5 65.2 41.8 60.8 46.3 59.4 Z" />
<path fill="#162e46" stroke="#162e46" stroke-width="0.09375" opacity="1.00" d=" M 151.3 435.4 C 159.5 434.5 167.8 435.2 176.0 435.0 C 180.6 435.3 186.0 433.9 189.9 437.1 C 192.9 439.0 194.1 442.6 194.0 446.0 C 194.0 455.7 194.1 465.4 193.9 475.1 C 194.1 480.4 189.3 484.9 184.1 485.0 C 174.4 485.1 164.7 485.0 155.0 485.0 C 149.4 485.4 143.9 480.8 144.1 475.1 C 144.0 465.0 144.0 455.0 144.1 444.9 C 143.8 440.5 147.3 436.7 151.3 435.4 Z" />
<path fill="#162e46" stroke="#162e46" stroke-width="0.09375" opacity="1.00" d=" M 52.3 446.4 C 56.8 445.6 61.5 446.1 66.0 446.0 C 71.2 445.7 76.5 449.6 76.9 454.9 C 77.1 459.3 77.0 463.7 76.9 468.1 C 76.9 471.3 75.3 474.8 72.4 476.3 C 69.0 478.7 64.8 477.9 61.0 478.0 C 57.2 477.9 53.0 478.6 49.6 476.3 C 46.3 474.6 44.9 470.6 45.0 467.0 C 45.1 462.7 44.8 458.4 45.2 454.1 C 45.7 450.3 48.9 447.6 52.3 446.4 Z" />
<path fill="#162e46" stroke="#162e46" stroke-width="0.09375" opacity="1.00" d=" M 264.3 446.4 C 268.8 445.6 273.5 446.1 278.0 446.0 C 283.2 445.7 288.5 449.6 288.9 454.9 C 289.1 459.6 289.1 464.4 288.9 469.1 C 288.6 474.0 284.0 477.9 279.1 478.0 C 275.0 478.0 271.0 478.0 266.9 477.9 C 262.1 477.9 257.4 474.0 257.1 469.1 C 256.9 464.4 256.9 459.6 257.1 454.9 C 257.3 450.8 260.6 447.7 264.3 446.4 Z" />
</svg>
