<?xml version="1.0" encoding="UTF-8" ?>
<!DOCTYPE svg PUBLIC "-//W3C//DTD SVG 1.1//EN" "http://www.w3.org/Graphics/SVG/1.1/DTD/svg11.dtd">
<svg width="500pt" height="500pt" viewBox="0 0 500 500" version="1.1" xmlns="http://www.w3.org/2000/svg">
<path fill="#2b2a26" stroke="#2b2a26" stroke-width="0.09375" opacity="1.00" d=" M 0.0 0.0 L 213.5 0.0 C 214.5 4.2 218.3 5.4 222.0 6.2 C 223.1 9.6 218.9 9.8 216.4 9.8 C 215.4 8.1 214.9 5.2 212.2 6.1 C 208.9 8.5 213.7 10.2 215.4 11.6 C 213.3 15.7 220.5 22.2 222.4 16.6 C 223.1 13.3 226.3 13.9 229.1 14.0 C 229.5 16.9 226.0 17.7 225.2 19.9 C 227.0 21.6 236.8 28.0 235.9 21.2 C 233.4 19.1 232.3 16.4 232.9 13.0 C 238.1 17.7 246.0 15.0 252.1 16.9 C 253.9 20.5 257.1 17.6 259.9 17.0 C 263.5 19.3 267.5 21.6 269.3 25.7 C 269.9 27.5 271.5 26.0 272.7 25.8 C 277.3 23.9 285.1 34.4 278.2 33.9 C 277.2 32.0 276.8 29.9 275.8 28.0 C 273.1 27.2 270.7 30.8 268.2 28.9 C 265.8 27.1 261.5 30.5 260.5 26.6 C 260.2 16.1 256.8 26.1 253.2 26.3 C 249.2 28.3 244.9 21.6 245.5 30.4 C 241.7 30.1 237.8 37.3 235.6 32.3 C 231.2 33.1 221.7 39.4 220.8 31.4 C 214.3 33.8 213.4 31.4 214.8 26.3 C 210.5 24.9 209.5 18.8 205.2 18.0 C 204.6 22.6 203.2 34.9 196.2 28.9 C 188.7 26.7 201.0 24.5 198.1 19.0 C 195.2 20.6 192.1 20.9 188.9 20.1 C 190.1 24.3 191.1 28.6 190.4 33.1 C 189.9 31.2 182.4 35.3 183.4 31.5 C 186.5 27.2 180.0 22.5 177.1 26.2 C 177.8 28.6 179.2 30.8 179.9 33.3 C 177.1 32.7 177.4 27.8 174.3 28.1 C 173.3 31.3 171.9 34.4 172.0 37.7 C 174.4 38.7 176.5 39.9 176.1 42.8 C 175.0 43.1 173.9 43.5 172.7 43.8 C 162.8 44.1 152.9 44.4 143.0 43.0 C 139.7 42.1 138.7 47.6 141.3 48.7 C 145.0 50.1 149.1 49.7 153.0 50.2 C 153.6 57.2 151.9 64.4 148.2 70.3 C 143.7 67.8 139.7 71.9 135.1 70.1 C 138.0 78.3 122.6 75.2 121.0 69.9 C 120.5 65.5 127.5 66.3 126.5 70.6 C 130.4 77.5 132.9 66.2 131.3 62.7 C 128.0 57.5 121.9 60.2 117.2 61.2 C 117.0 67.9 116.2 74.5 113.6 80.7 C 106.5 83.4 118.6 67.6 108.6 72.3 C 107.6 78.1 100.5 71.9 97.3 72.8 C 97.6 70.9 98.4 67.8 95.4 68.0 C 95.9 75.2 87.2 74.0 82.9 71.6 C 85.4 68.2 88.7 69.3 91.1 72.1 C 94.1 59.6 84.0 70.7 79.5 64.5 C 73.3 61.9 75.1 69.6 78.0 72.1 C 75.4 74.9 67.8 75.8 71.3 80.7 C 72.4 84.4 61.9 83.6 66.0 79.0 C 70.4 69.1 48.5 75.8 58.0 82.1 C 51.1 82.1 47.8 73.4 42.1 71.0 C 39.5 73.0 35.3 80.4 32.4 74.5 C 31.2 70.3 28.0 80.9 28.5 75.4 C 30.7 69.2 18.3 74.4 22.6 78.6 C 23.6 81.9 19.8 83.7 17.0 83.0 C 17.2 80.3 17.8 77.6 18.0 74.9 C 14.3 76.9 8.7 80.1 5.8 75.3 C 12.8 78.5 18.9 62.9 9.5 64.4 C 4.3 63.6 6.2 57.2 8.3 54.2 C 10.5 54.1 14.2 57.9 13.9 53.2 C 10.6 47.7 5.1 50.6 0.0 50.1 L 0.0 0.0 Z" />
<path fill="#302f2c" stroke="#302f2c" stroke-width="0.09375" opacity="1.00" d=" M 213.5 0.0 L 305.7 0.0 C 307.1 2.5 307.2 5.5 308.0 8.1 C 312.6 12.9 320.7 18.4 316.0 25.8 C 321.1 26.3 325.0 33.2 321.4 37.4 C 319.9 39.3 319.4 41.7 319.0 44.0 C 317.3 44.5 315.5 45.2 313.8 45.7 C 311.4 45.9 309.1 46.7 306.9 47.8 C 305.6 44.7 307.1 41.1 305.9 38.0 C 302.9 37.8 298.0 42.4 297.6 37.3 C 293.9 36.6 300.1 48.8 291.2 45.3 C 289.0 49.5 280.9 52.1 286.0 57.9 C 282.3 56.9 278.5 59.2 274.9 57.4 C 269.1 57.6 269.2 70.0 263.0 63.9 C 266.2 61.6 265.1 57.5 268.2 55.0 C 262.9 53.5 261.2 61.4 255.9 60.0 C 260.2 54.2 255.4 47.8 259.0 42.2 C 255.6 43.6 252.4 41.8 249.3 40.3 C 248.6 44.5 245.8 48.2 241.3 46.2 C 239.7 51.4 234.8 50.9 230.2 51.2 C 225.1 55.5 237.5 52.9 235.7 57.5 C 229.1 58.3 222.4 69.6 216.1 63.5 C 209.2 61.8 203.5 63.4 201.3 70.9 C 207.4 73.3 204.8 79.8 206.8 84.8 C 204.4 87.9 204.7 82.9 203.7 81.3 C 201.3 77.2 196.6 84.4 193.7 80.3 C 188.3 73.4 202.4 75.1 198.0 67.9 C 196.1 64.2 195.4 72.7 192.2 70.9 C 189.4 68.9 186.4 67.1 182.9 66.9 C 180.9 61.5 178.8 55.9 178.0 50.2 C 183.7 47.9 190.3 50.5 195.9 47.8 C 197.6 39.1 185.8 43.1 181.3 43.4 C 179.6 43.2 177.9 43.0 176.1 42.8 C 176.5 39.9 174.4 38.7 172.0 37.7 C 171.9 34.4 173.3 31.3 174.3 28.1 C 177.4 27.8 177.1 32.7 179.9 33.3 C 179.2 30.8 177.8 28.6 177.1 26.2 C 180.0 22.5 186.5 27.2 183.4 31.5 C 182.4 35.3 189.9 31.2 190.4 33.1 C 191.1 28.6 190.1 24.3 188.9 20.1 C 192.1 20.9 195.2 20.6 198.1 19.0 C 201.0 24.5 188.7 26.7 196.2 28.9 C 203.2 34.9 204.6 22.6 205.2 18.0 C 209.5 18.8 210.5 24.9 214.8 26.3 C 213.4 31.4 214.3 33.8 220.8 31.4 C 221.7 39.4 231.2 33.1 235.6 32.3 C 237.8 37.3 241.7 30.1 245.5 30.4 C 244.9 21.6 249.2 28.3 253.2 26.3 C 256.8 26.1 260.2 16.1 260.5 26.6 C 261.5 30.5 265.8 27.1 268.2 28.9 C 270.7 30.8 273.1 27.2 275.8 28.0 C 276.8 29.9 277.2 32.0 278.2 33.9 C 285.1 34.4 277.3 23.9 272.7 25.8 C 271.5 26.0 269.9 27.5 269.3 25.7 C 267.5 21.6 263.5 19.3 259.9 17.0 C 257.1 17.6 253.9 20.5 252.1 16.9 C 246.0 15.0 238.1 17.7 232.9 13.0 C 232.3 16.4 233.4 19.1 235.9 21.2 C 236.8 28.0 227.0 21.6 225.2 19.9 C 226.0 17.7 229.5 16.9 229.1 14.0 C 226.3 13.9 223.1 13.3 222.4 16.6 C 220.5 22.2 213.3 15.7 215.4 11.6 C 213.7 10.2 208.9 8.5 212.2 6.1 C 214.9 5.2 215.4 8.1 216.4 9.8 C 218.9 9.8 223.1 9.6 222.0 6.2 C 218.3 5.4 214.5 4.2 213.5 0.0 Z" />
<path fill="#32322f" stroke="#32322f" stroke-width="0.09375" opacity="1.00" d=" M 305.7 0.0 L 500.0 0.0 L 500.0 97.9 C 495.1 98.2 496.2 102.0 498.0 105.2 C 494.8 103.9 492.0 101.6 488.9 100.1 C 486.0 99.3 485.3 106.0 482.9 102.2 C 480.7 103.0 480.0 106.9 477.3 106.5 C 473.8 105.1 470.2 103.8 466.3 104.7 C 463.8 99.3 458.7 92.9 464.1 88.1 C 470.7 87.0 462.3 92.6 464.0 95.9 C 467.8 97.1 472.2 99.3 475.3 95.6 C 478.5 98.6 484.2 95.1 480.7 91.3 C 477.8 91.4 474.9 90.9 472.3 89.6 C 472.2 87.3 472.8 85.0 473.7 82.8 C 470.7 82.6 470.4 88.5 467.4 84.6 C 464.1 79.6 459.1 82.6 459.6 88.0 C 453.0 87.5 456.6 83.0 458.1 79.1 C 454.4 79.7 449.6 75.2 446.9 78.0 C 432.1 49.9 396.2 46.6 368.0 44.7 C 365.5 43.1 363.2 43.0 361.0 44.3 C 358.4 44.1 355.8 44.0 353.2 43.8 C 345.1 42.7 336.9 42.7 328.8 43.2 C 325.5 43.4 322.3 43.7 319.0 44.0 C 319.4 41.7 319.9 39.3 321.4 37.4 C 325.0 33.2 321.1 26.3 316.0 25.8 C 320.7 18.4 312.6 12.9 308.0 8.1 C 307.2 5.5 307.1 2.5 305.7 0.0 Z" />
<path fill="#8e8a87" stroke="#8e8a87" stroke-width="0.09375" opacity="1.00" d=" M 55.2 4.2 C 58.3 2.9 56.6 7.4 57.0 9.1 C 54.1 9.7 52.8 5.5 55.2 4.2 Z" />
<path fill="#353433" stroke="#353433" stroke-width="0.09375" opacity="1.00" d=" M 291.2 45.3 C 300.1 48.8 293.9 36.6 297.6 37.3 C 298.0 42.4 302.9 37.8 305.9 38.0 C 307.1 41.1 305.6 44.7 306.9 47.8 C 309.1 46.7 311.4 45.9 313.8 45.7 C 312.7 48.3 312.5 51.4 315.3 52.9 C 323.0 53.6 329.8 46.1 337.3 48.6 C 338.4 62.8 338.0 77.6 339.1 92.0 C 339.0 94.0 339.0 95.9 338.9 97.8 C 337.0 101.1 333.8 102.7 330.2 103.3 C 330.4 106.2 333.1 106.7 334.6 104.3 C 335.3 106.0 337.4 108.8 336.2 110.2 C 331.1 110.7 332.5 119.5 326.5 116.0 C 329.2 109.9 321.5 108.2 317.0 107.9 C 316.6 111.3 318.1 116.2 323.1 114.4 C 322.5 117.1 316.8 124.0 317.7 117.3 C 309.6 114.6 312.9 123.5 311.5 128.7 C 312.6 131.1 314.3 133.6 312.3 136.1 C 318.3 140.4 314.9 128.3 319.9 129.0 C 322.6 131.2 329.1 134.6 323.6 137.6 C 319.1 141.6 327.7 140.2 327.3 136.1 C 332.3 135.1 331.6 141.7 331.8 144.9 C 326.3 142.8 318.7 143.1 314.9 148.0 C 312.4 145.5 309.1 142.0 314.9 141.6 C 312.8 139.8 311.6 137.0 309.1 135.9 C 308.2 139.6 308.0 143.6 305.0 146.3 C 303.5 145.2 301.9 139.6 300.8 143.8 C 299.9 146.7 297.5 154.8 293.8 150.4 C 299.5 150.7 294.7 146.0 295.7 142.9 C 296.7 140.0 291.7 138.1 289.7 140.1 C 290.6 141.9 291.9 143.5 293.0 145.2 C 289.2 145.7 288.5 141.4 287.2 138.8 C 285.7 135.1 290.7 136.1 292.9 134.9 C 296.9 134.0 298.0 129.6 298.8 126.2 C 295.8 127.4 293.9 124.6 292.3 122.5 C 294.3 121.0 296.4 119.6 298.2 117.9 C 296.8 115.0 293.2 115.0 290.4 114.6 C 288.6 112.7 287.2 110.3 285.0 108.8 C 280.9 110.0 285.7 114.6 282.4 116.4 C 279.0 119.0 277.0 123.0 274.3 126.2 C 271.7 129.8 274.4 121.0 270.7 121.3 C 263.9 119.0 273.5 128.6 267.4 128.5 C 260.2 128.5 266.7 139.7 257.1 137.3 C 251.3 137.5 249.6 145.7 242.9 144.0 C 241.8 140.0 248.7 141.3 246.8 137.3 C 243.5 131.5 234.3 139.3 231.5 132.6 C 233.1 123.6 226.6 129.8 226.0 133.0 C 227.2 134.8 228.8 136.3 230.2 138.1 C 226.2 138.5 222.5 138.1 218.9 136.9 C 220.3 133.0 226.6 132.9 225.0 127.9 C 221.3 129.4 217.8 131.5 213.8 132.5 C 218.3 131.5 218.6 141.1 212.7 136.5 C 210.5 134.1 206.7 132.2 208.1 128.1 C 208.4 125.8 213.5 125.4 211.6 122.5 C 210.0 120.9 209.0 117.4 206.3 118.1 C 203.2 121.7 201.8 129.9 197.1 123.7 C 190.8 105.2 187.9 85.8 182.9 66.9 C 186.4 67.1 189.4 68.9 192.2 70.9 C 195.4 72.7 196.1 64.2 198.0 67.9 C 202.4 75.1 188.3 73.4 193.7 80.3 C 196.6 84.4 201.3 77.2 203.7 81.3 C 204.7 82.9 204.4 87.9 206.8 84.8 C 204.8 79.8 207.4 73.3 201.3 70.9 C 203.5 63.4 209.2 61.8 216.1 63.5 C 222.4 69.6 229.1 58.3 235.7 57.5 C 237.5 52.9 225.1 55.5 230.2 51.2 C 234.8 50.9 239.7 51.4 241.3 46.2 C 245.8 48.2 248.6 44.5 249.3 40.3 C 252.4 41.8 255.6 43.6 259.0 42.2 C 255.4 47.8 260.2 54.2 255.9 60.0 C 261.2 61.4 262.9 53.5 268.2 55.0 C 265.1 57.5 266.2 61.6 263.0 63.9 C 269.2 70.0 269.1 57.6 274.9 57.4 C 278.5 59.2 282.3 56.9 286.0 57.9 C 280.9 52.1 289.0 49.5 291.2 45.3 Z" />
<path fill="#adacaa" stroke="#adacaa" stroke-width="0.09375" opacity="1.00" d=" M 181.3 43.4 C 185.8 43.1 197.6 39.1 195.9 47.8 C 190.3 50.5 183.7 47.9 178.0 50.2 C 178.8 55.9 180.9 61.5 182.9 66.9 C 187.9 85.8 190.8 105.2 197.1 123.7 C 207.3 154.0 215.8 184.8 223.0 215.9 C 227.1 235.9 233.3 255.5 238.7 275.2 C 239.2 281.8 240.1 291.2 249.8 287.8 C 253.2 287.8 256.6 288.0 260.0 288.0 C 261.6 297.5 247.4 291.4 242.2 292.8 C 236.1 292.3 229.7 290.9 223.7 292.7 C 220.4 294.1 213.1 294.4 216.0 288.1 C 221.7 287.9 227.4 288.2 233.0 287.9 C 229.8 270.4 224.7 253.2 220.1 235.9 C 218.7 230.9 217.4 225.9 216.4 220.8 C 214.2 211.4 212.9 201.7 209.3 192.7 C 190.6 191.1 171.6 192.2 152.8 192.3 C 140.9 192.4 127.9 187.8 117.2 194.2 C 112.3 202.7 110.3 212.7 106.6 221.8 C 102.3 233.7 98.0 245.7 93.9 257.8 C 91.6 266.5 87.9 274.9 87.0 283.9 C 93.7 284.0 100.4 284.0 107.1 284.0 C 101.6 296.5 84.4 286.5 74.3 289.2 C 70.8 289.2 67.2 289.1 63.7 289.2 C 56.8 288.7 61.6 280.8 66.4 282.5 C 70.5 281.9 77.2 286.8 79.6 281.7 C 86.3 264.7 92.6 247.5 98.3 230.1 C 100.2 226.7 101.3 222.9 102.3 219.1 C 109.9 195.3 117.7 171.5 125.0 147.5 C 131.0 130.9 137.8 114.4 141.2 97.0 C 142.4 87.8 144.3 78.7 148.2 70.3 C 151.9 64.4 153.6 57.2 153.0 50.2 C 149.1 49.7 145.0 50.1 141.3 48.7 C 138.7 47.6 139.7 42.1 143.0 43.0 C 152.9 44.4 162.8 44.1 172.7 43.8 C 175.6 43.7 178.5 43.8 181.3 43.4 Z" />
<path fill="#6d6c67" stroke="#6d6c67" stroke-width="0.09375" opacity="1.00" d=" M 172.7 43.8 C 173.9 43.5 175.0 43.1 176.1 42.8 C 177.9 43.0 179.6 43.2 181.3 43.4 C 178.5 43.8 175.6 43.7 172.7 43.8 Z" />
<path fill="#aba9a7" stroke="#aba9a7" stroke-width="0.09375" opacity="1.00" d=" M 319.0 44.0 C 322.3 43.7 325.5 43.4 328.8 43.2 C 336.9 44.3 345.1 44.2 353.2 43.8 C 355.8 44.0 358.4 44.1 361.0 44.3 C 363.5 45.9 365.8 46.0 368.0 44.7 C 396.2 46.6 432.1 49.9 446.9 78.0 C 450.9 85.4 452.9 93.5 454.4 101.7 C 454.3 103.5 454.1 107.0 454.0 108.8 C 452.3 109.1 450.7 109.4 449.0 109.9 C 448.8 105.5 449.5 101.0 448.4 96.7 C 443.2 73.9 422.1 59.3 400.3 54.8 C 395.1 51.3 388.7 52.1 382.8 52.1 C 379.3 51.5 375.8 51.1 372.2 50.8 C 369.1 50.4 365.9 50.1 362.8 50.1 C 357.2 49.0 349.7 47.6 347.0 54.1 C 345.5 58.8 346.1 63.8 346.1 68.7 C 346.0 73.1 346.0 77.5 345.8 81.9 C 338.9 79.2 340.5 87.6 340.1 91.9 L 339.1 92.0 C 338.0 77.6 338.4 62.8 337.3 48.6 C 329.8 46.1 323.0 53.6 315.3 52.9 C 312.5 51.4 312.7 48.3 313.8 45.7 C 315.5 45.2 317.3 44.5 319.0 44.0 Z" />
<path fill="#858483" stroke="#858483" stroke-width="0.09375" opacity="1.00" d=" M 328.8 43.2 C 336.9 42.7 345.1 42.7 353.2 43.8 C 345.1 44.2 336.9 44.3 328.8 43.2 Z" />
<path fill="#72716f" stroke="#72716f" stroke-width="0.09375" opacity="1.00" d=" M 361.0 44.3 C 363.2 43.0 365.5 43.1 368.0 44.7 C 365.8 46.0 363.5 45.9 361.0 44.3 Z" />
<path fill="#2f2e2c" stroke="#2f2e2c" stroke-width="0.09375" opacity="1.00" d=" M 0.0 50.1 C 5.1 50.6 10.6 47.7 13.9 53.2 C 14.2 57.9 10.5 54.1 8.3 54.2 C 6.2 57.2 4.3 63.6 9.5 64.4 C 18.9 62.9 12.8 78.5 5.8 75.3 C 8.7 80.1 14.3 76.9 18.0 74.9 C 17.8 77.6 17.2 80.3 17.0 83.0 C 19.8 83.7 23.6 81.9 22.6 78.6 C 18.3 74.4 30.7 69.2 28.5 75.4 C 28.0 80.9 31.2 70.3 32.4 74.5 C 35.3 80.4 39.5 73.0 42.1 71.0 C 47.8 73.4 51.1 82.1 58.0 82.1 C 48.5 75.8 70.4 69.1 66.0 79.0 C 61.9 83.6 72.4 84.4 71.3 80.7 C 67.8 75.8 75.4 74.9 78.0 72.1 C 75.1 69.6 73.3 61.9 79.5 64.5 C 84.0 70.7 94.1 59.6 91.1 72.1 C 88.7 69.3 85.4 68.2 82.9 71.6 C 87.2 74.0 95.9 75.2 95.4 68.0 C 98.4 67.8 97.6 70.9 97.3 72.8 C 100.5 71.9 107.6 78.1 108.6 72.3 C 118.6 67.6 106.5 83.4 113.6 80.7 C 116.2 74.5 117.0 67.9 117.2 61.2 C 121.9 60.2 128.0 57.5 131.3 62.7 C 132.9 66.2 130.4 77.5 126.5 70.6 C 127.5 66.3 120.5 65.5 121.0 69.9 C 122.6 75.2 138.0 78.3 135.1 70.1 C 139.7 71.9 143.7 67.8 148.2 70.3 C 144.3 78.7 142.4 87.8 141.2 97.0 C 139.4 99.5 134.2 107.1 132.9 101.0 C 130.9 98.2 134.9 96.0 135.0 93.2 C 130.9 91.8 125.6 90.0 126.6 84.2 C 123.2 85.5 119.7 84.3 121.0 80.0 C 125.2 78.5 126.6 85.6 128.6 79.7 C 127.0 76.7 120.1 76.9 116.1 76.0 C 118.6 80.4 113.5 83.9 115.5 88.1 C 113.3 92.7 116.7 99.5 110.9 102.0 C 105.5 103.9 109.0 95.7 105.1 94.8 C 103.5 94.2 100.3 91.7 100.2 94.9 C 101.5 96.8 103.4 101.4 99.3 100.9 C 97.5 97.9 94.9 95.3 95.5 91.6 C 93.4 90.8 90.5 86.0 89.1 89.8 C 90.5 91.6 94.1 95.6 89.6 95.5 C 85.2 93.5 81.1 97.2 77.1 95.8 C 77.2 93.2 77.5 89.0 81.0 89.0 C 84.5 89.6 82.9 83.8 80.0 85.2 C 75.6 85.8 65.2 84.4 67.6 91.4 C 69.1 96.1 61.2 99.5 57.8 96.3 C 49.2 96.0 54.8 108.4 47.9 111.2 C 46.7 106.0 56.8 96.1 48.2 96.1 C 43.1 102.9 29.7 92.9 29.7 104.0 C 28.1 102.2 26.9 100.2 25.0 98.7 C 21.8 102.4 19.1 106.6 16.5 110.7 C 12.2 110.5 14.4 103.5 10.6 103.4 C 6.0 105.8 4.3 98.7 0.0 101.8 L 0.0 50.1 Z" />
<path fill="#373535" stroke="#373535" stroke-width="0.09375" opacity="1.00" d=" M 164.9 49.1 C 167.8 49.2 171.3 50.3 171.5 53.6 C 179.3 84.0 190.4 113.4 196.9 144.1 C 202.5 157.1 204.6 171.3 208.0 185.0 C 179.8 184.9 151.5 185.2 123.3 184.8 C 118.1 181.3 122.1 174.2 124.0 170.0 C 134.9 135.0 148.5 100.7 155.5 64.6 C 154.7 57.9 157.6 50.6 164.9 49.1 Z" />
<path fill="#343331" stroke="#343331" stroke-width="0.09375" opacity="1.00" d=" M 347.0 54.1 C 349.7 47.6 357.2 49.0 362.8 50.1 C 365.9 50.7 369.1 51.0 372.2 50.8 C 375.8 51.1 379.3 51.5 382.8 52.1 C 388.5 53.8 394.3 55.0 400.3 54.8 C 422.1 59.3 443.2 73.9 448.4 96.7 C 448.3 98.6 448.0 102.3 447.9 104.2 C 444.9 103.0 438.2 97.4 437.6 102.9 C 431.1 103.8 431.5 96.6 430.0 92.2 C 432.2 90.3 434.1 84.9 431.3 84.3 C 430.4 90.0 423.5 92.3 422.1 98.2 C 417.0 106.2 403.9 95.7 402.5 106.7 C 399.3 116.5 395.8 103.7 390.2 104.5 C 387.0 104.5 389.3 100.9 389.0 98.9 C 387.2 99.3 385.5 99.9 383.8 100.2 C 376.8 96.7 367.3 107.1 371.9 114.0 C 372.9 116.1 377.1 115.0 376.9 117.8 C 373.6 119.3 362.8 117.2 369.3 122.5 C 376.5 122.9 369.3 125.9 367.7 128.8 C 365.3 126.9 362.0 122.6 360.8 127.9 C 357.1 135.3 356.4 117.3 349.8 123.6 C 344.7 121.4 353.0 120.1 353.1 117.1 C 353.8 109.8 366.6 119.4 366.0 111.2 C 361.7 112.9 356.3 107.7 353.9 113.1 C 351.6 111.9 350.3 109.7 351.1 107.1 C 356.9 106.6 363.8 102.9 367.9 109.0 C 370.5 104.9 364.6 101.5 366.9 97.1 C 361.6 90.6 351.7 102.2 347.2 94.6 C 347.1 87.1 347.1 79.5 348.5 72.1 C 348.0 70.8 347.0 69.8 346.1 68.7 C 346.1 63.8 345.5 58.8 347.0 54.1 Z" />
<path fill="#6c6b69" stroke="#6c6b69" stroke-width="0.09375" opacity="1.00" d=" M 362.8 50.1 C 365.9 50.1 369.1 50.4 372.2 50.8 C 369.1 51.0 365.9 50.7 362.8 50.1 Z" />
<path fill="#6a6a68" stroke="#6a6a68" stroke-width="0.09375" opacity="1.00" d=" M 382.8 52.1 C 388.7 52.1 395.1 51.3 400.3 54.8 C 394.3 55.0 388.5 53.8 382.8 52.1 Z" />
<path fill="#383736" stroke="#383736" stroke-width="0.09375" opacity="1.00" d=" M 346.1 68.7 C 347.0 69.8 348.0 70.8 348.5 72.1 C 347.1 79.5 347.1 87.1 347.2 94.6 C 351.7 102.2 361.6 90.6 366.9 97.1 C 364.6 101.5 370.5 104.9 367.9 109.0 C 363.8 102.9 356.9 106.6 351.1 107.1 C 350.3 109.7 351.6 111.9 353.9 113.1 C 356.3 107.7 361.7 112.9 366.0 111.2 C 366.6 119.4 353.8 109.8 353.1 117.1 C 353.0 120.1 344.7 121.4 349.8 123.6 C 356.4 117.3 357.1 135.3 360.8 127.9 C 362.0 122.6 365.3 126.9 367.7 128.8 C 369.3 125.9 376.5 122.9 369.3 122.5 C 362.8 117.2 373.6 119.3 376.9 117.8 C 377.1 115.0 372.9 116.1 371.9 114.0 C 367.3 107.1 376.8 96.7 383.8 100.2 C 385.5 99.9 387.2 99.3 389.0 98.9 C 389.3 100.9 387.0 104.5 390.2 104.5 C 395.8 103.7 399.3 116.5 402.5 106.7 C 403.9 95.7 417.0 106.2 422.1 98.2 C 423.5 92.3 430.4 90.0 431.3 84.3 C 434.1 84.9 432.2 90.3 430.0 92.2 C 431.5 96.6 431.1 103.8 437.6 102.9 C 438.2 97.4 444.9 103.0 447.9 104.2 C 448.0 108.9 448.1 113.6 448.2 118.2 C 446.5 134.6 440.2 150.6 428.2 162.2 C 424.4 163.0 418.3 161.8 417.7 166.8 C 415.7 170.7 410.6 169.9 406.8 170.7 C 404.3 171.0 399.7 171.0 401.0 167.1 C 402.4 163.8 411.3 160.9 406.4 157.1 C 405.5 158.6 404.6 160.2 403.7 161.8 C 400.3 161.2 399.8 157.6 400.7 154.8 C 401.9 149.9 394.3 140.3 391.5 148.6 C 387.6 157.3 373.9 143.8 370.7 152.9 C 362.9 155.1 368.3 142.7 373.3 143.6 C 376.9 145.0 377.0 140.3 377.0 137.9 C 374.7 138.7 372.5 142.4 370.1 140.0 C 368.3 138.7 369.3 134.5 366.2 134.9 C 365.6 140.3 367.0 146.4 363.7 151.0 C 359.6 149.8 361.8 140.9 357.1 143.9 C 355.3 144.7 356.8 148.3 354.1 148.1 C 354.5 146.0 355.8 142.9 352.4 144.1 C 353.5 148.4 348.9 150.8 345.1 150.1 C 345.0 145.3 344.9 140.5 344.8 135.8 C 344.9 131.9 345.1 128.1 345.2 124.2 C 346.2 118.0 345.5 111.6 346.2 105.4 C 348.4 104.7 355.2 101.2 349.4 102.5 C 343.8 105.0 346.6 97.4 346.0 94.0 C 346.0 90.3 346.0 86.5 345.8 82.8 L 345.8 81.9 C 346.0 77.5 346.0 73.1 346.1 68.7 Z" />
<path fill="#333230" stroke="#333230" stroke-width="0.09375" opacity="1.00" d=" M 116.1 76.0 C 120.1 76.9 127.0 76.7 128.6 79.7 C 126.6 85.6 125.2 78.5 121.0 80.0 C 119.7 84.3 123.2 85.5 126.6 84.2 C 125.6 90.0 130.9 91.8 135.0 93.2 C 134.9 96.0 130.9 98.2 132.9 101.0 C 134.2 107.1 139.4 99.5 141.2 97.0 C 137.8 114.4 131.0 130.9 125.0 147.5 C 121.6 146.3 122.4 142.8 122.9 140.0 C 118.8 140.4 118.4 149.0 111.9 147.0 C 111.5 142.6 119.2 142.3 117.1 137.9 C 114.8 133.5 118.1 129.3 119.1 125.0 C 116.6 125.7 113.4 128.6 111.4 125.6 C 108.7 122.2 102.8 120.1 103.6 115.0 C 101.8 116.0 93.7 112.9 96.6 117.6 C 99.8 121.9 92.9 125.5 94.7 129.3 C 97.0 132.0 95.5 125.8 97.8 127.2 C 96.7 131.3 99.7 134.3 101.0 137.8 C 97.2 140.8 95.4 145.4 93.6 149.7 C 89.7 149.9 92.1 143.8 93.7 141.9 C 87.0 143.0 81.0 139.0 74.5 141.4 C 70.3 146.1 67.0 135.9 64.5 141.3 C 59.2 141.6 54.0 142.3 49.3 145.0 C 50.2 146.9 51.1 148.8 51.1 151.0 C 48.0 149.6 43.3 147.5 42.2 152.1 C 41.2 157.6 35.5 152.5 32.4 155.2 C 34.3 161.3 23.9 161.9 26.1 168.3 C 29.4 161.1 38.9 165.9 44.9 167.3 C 44.9 171.0 42.0 175.3 38.3 176.3 C 38.6 173.6 40.3 170.7 38.8 168.1 C 31.7 163.7 29.8 176.2 36.0 176.9 C 31.7 177.7 27.2 178.4 22.9 179.3 C 24.3 181.8 28.5 181.9 28.9 184.8 C 27.3 186.3 21.7 188.9 23.6 184.6 C 25.9 179.6 16.7 184.3 17.7 179.1 C 15.6 183.5 11.9 181.3 8.9 179.0 C 6.4 182.0 3.5 184.4 0.0 186.1 L 0.0 101.8 C 4.3 98.7 6.0 105.8 10.6 103.4 C 14.4 103.5 12.2 110.5 16.5 110.7 C 19.1 106.6 21.8 102.4 25.0 98.7 C 26.9 100.2 28.1 102.2 29.7 104.0 C 29.7 92.9 43.1 102.9 48.2 96.1 C 56.8 96.1 46.7 106.0 47.9 111.2 C 54.8 108.4 49.2 96.0 57.8 96.3 C 61.2 99.5 69.1 96.1 67.6 91.4 C 65.2 84.4 75.6 85.8 80.0 85.2 C 82.9 83.8 84.5 89.6 81.0 89.0 C 77.5 89.0 77.2 93.2 77.1 95.8 C 81.1 97.2 85.2 93.5 89.6 95.5 C 94.1 95.6 90.5 91.6 89.1 89.8 C 90.5 86.0 93.4 90.8 95.5 91.6 C 94.9 95.3 97.5 97.9 99.3 100.9 C 103.4 101.4 101.5 96.8 100.2 94.9 C 100.3 91.7 103.5 94.2 105.1 94.8 C 109.0 95.7 105.5 103.9 110.9 102.0 C 116.7 99.5 113.3 92.7 115.5 88.1 C 113.5 83.9 118.6 80.4 116.1 76.0 Z" />
<path fill="#363434" stroke="#363434" stroke-width="0.09375" opacity="1.00" d=" M 446.9 78.0 C 449.6 75.2 454.4 79.7 458.1 79.1 C 456.6 83.0 453.0 87.5 459.6 88.0 C 459.1 82.6 464.1 79.6 467.4 84.6 C 470.4 88.5 470.7 82.6 473.7 82.8 C 472.8 85.0 472.2 87.3 472.3 89.6 C 474.9 90.9 477.8 91.4 480.7 91.3 C 484.2 95.1 478.5 98.6 475.3 95.6 C 472.2 99.3 467.8 97.1 464.0 95.9 C 462.3 92.6 470.7 87.0 464.1 88.1 C 458.7 92.9 463.8 99.3 466.3 104.7 C 470.2 103.8 473.8 105.1 477.3 106.5 C 480.0 106.9 480.7 103.0 482.9 102.2 C 485.3 106.0 486.0 99.3 488.9 100.1 C 492.0 101.6 494.8 103.9 498.0 105.2 C 496.2 102.0 495.1 98.2 500.0 97.9 L 500.0 158.6 C 496.2 166.8 484.1 161.1 481.7 154.4 C 477.6 147.5 484.0 150.9 486.7 150.7 C 488.1 149.3 489.3 147.8 490.3 146.1 C 479.5 141.7 478.2 156.5 468.9 157.6 C 472.9 159.7 478.8 157.2 481.2 162.0 C 479.0 163.8 476.6 165.5 477.7 168.8 C 470.7 171.3 465.9 163.5 459.8 161.1 C 456.2 160.0 445.9 164.0 450.3 157.1 C 455.4 157.5 463.5 161.1 466.1 154.0 C 462.9 152.3 459.2 153.7 455.9 153.8 C 455.6 149.9 458.8 148.0 461.9 146.8 C 460.3 142.7 453.5 146.3 452.1 141.9 C 450.7 138.4 458.9 139.6 455.8 136.2 C 453.6 131.5 459.2 127.9 462.0 125.0 C 459.1 124.5 455.8 125.1 454.6 121.4 C 454.7 114.9 455.8 108.2 454.4 101.7 C 452.9 93.5 450.9 85.4 446.9 78.0 Z" />
<path fill="#b2b1b0" stroke="#b2b1b0" stroke-width="0.09375" opacity="1.00" d=" M 340.1 91.9 C 340.5 87.6 338.9 79.2 345.8 81.9 L 345.8 82.8 C 344.3 86.3 344.2 90.2 345.0 94.0 C 345.1 104.1 344.8 114.2 345.2 124.2 C 345.1 128.1 344.9 131.9 344.8 135.8 C 344.2 140.9 343.9 146.0 344.0 151.2 C 344.0 161.5 343.8 171.7 344.1 182.0 C 344.3 185.2 345.9 188.8 349.1 190.0 C 352.1 189.9 354.8 188.4 357.7 187.7 C 363.6 187.8 369.5 188.4 375.3 187.3 C 394.7 184.2 415.1 177.6 428.2 162.2 C 440.2 150.6 446.5 134.6 448.2 118.2 C 448.5 115.5 448.9 112.7 449.0 109.9 C 450.7 109.4 452.3 109.1 454.0 108.8 C 454.0 112.8 454.0 116.8 454.1 120.8 C 453.6 130.0 450.9 139.0 447.5 147.6 C 442.0 158.2 432.6 166.0 424.7 174.7 C 407.0 184.9 387.9 193.9 367.3 195.4 C 360.5 195.4 353.4 194.0 346.7 195.6 C 345.2 195.9 343.6 196.4 342.7 197.8 C 341.5 207.2 340.7 216.7 341.2 226.3 C 341.2 227.9 341.2 231.1 341.2 232.8 C 341.2 236.6 341.4 240.4 341.8 244.2 C 342.0 250.4 341.9 256.6 342.3 262.7 C 342.1 268.9 341.6 275.2 342.6 281.3 C 342.8 283.8 342.4 288.0 345.8 288.2 C 350.9 289.3 356.1 289.0 361.3 288.8 C 363.2 289.7 361.3 293.0 360.3 294.3 C 357.4 294.3 354.6 294.3 351.8 294.2 C 350.1 294.1 346.9 293.9 345.2 293.8 C 337.5 293.2 329.4 291.9 321.7 293.7 C 317.8 297.1 311.5 290.8 317.0 289.0 C 321.8 283.4 329.9 292.8 333.7 286.6 C 335.9 260.7 334.9 234.7 334.8 208.8 C 335.4 200.3 335.9 191.7 336.2 183.2 C 337.2 177.1 337.1 170.9 336.8 164.8 C 336.8 155.9 337.4 147.1 338.2 138.2 C 338.6 134.4 338.8 130.6 338.8 126.8 C 338.9 123.9 339.0 121.1 339.2 118.2 C 340.4 109.5 339.9 100.7 340.1 91.9 Z" />
<path fill="#9e9d9b" stroke="#9e9d9b" stroke-width="0.09375" opacity="1.00" d=" M 345.0 94.0 C 344.2 90.2 344.3 86.3 345.8 82.8 C 346.0 86.5 346.0 90.3 346.0 94.0 L 345.0 94.0 Z" />
<path fill="#6e6c6c" stroke="#6e6c6c" stroke-width="0.09375" opacity="1.00" d=" M 339.1 92.0 L 340.1 91.9 C 339.9 100.7 340.4 109.5 339.2 118.2 C 339.1 111.4 339.0 104.6 338.9 97.8 C 339.0 95.9 339.0 94.0 339.1 92.0 Z" />
<path fill="#64635f" stroke="#64635f" stroke-width="0.09375" opacity="1.00" d=" M 345.0 94.0 L 346.0 94.0 C 346.6 97.4 343.8 105.0 349.4 102.5 C 355.2 101.2 348.4 104.7 346.2 105.4 C 345.5 111.6 346.2 118.0 345.2 124.2 C 344.8 114.2 345.1 104.1 345.0 94.0 Z" />
<path fill="#636260" stroke="#636260" stroke-width="0.09375" opacity="1.00" d=" M 448.4 96.7 C 449.5 101.0 448.8 105.5 449.0 109.9 C 448.9 112.7 448.5 115.5 448.2 118.2 C 448.1 113.6 448.0 108.9 447.9 104.2 C 448.0 102.3 448.3 98.6 448.4 96.7 Z" />
<path fill="#383737" stroke="#383737" stroke-width="0.09375" opacity="1.00" d=" M 330.2 103.3 C 333.8 102.7 337.0 101.1 338.9 97.8 C 339.0 104.6 339.1 111.4 339.2 118.2 C 339.0 121.1 338.9 123.9 338.8 126.8 C 338.4 130.6 338.2 134.4 338.2 138.2 C 337.4 147.1 336.8 155.9 336.8 164.8 C 335.9 170.9 336.0 177.1 336.2 183.2 C 335.9 191.7 335.4 200.3 334.8 208.8 C 334.5 212.5 334.1 216.2 333.8 219.9 C 319.9 219.7 307.1 227.9 292.6 222.4 C 288.3 219.8 289.3 227.7 285.2 226.0 C 281.7 220.4 275.5 226.5 270.4 223.6 C 266.1 221.7 262.3 226.7 258.6 226.4 C 252.3 217.0 240.8 228.6 233.0 224.0 C 233.1 217.1 225.1 221.2 223.0 215.9 C 215.8 184.8 207.3 154.0 197.1 123.7 C 201.8 129.9 203.2 121.7 206.3 118.1 C 209.0 117.4 210.0 120.9 211.6 122.5 C 213.5 125.4 208.4 125.8 208.1 128.1 C 206.7 132.2 210.5 134.1 212.7 136.5 C 218.6 141.1 218.3 131.5 213.8 132.5 C 217.8 131.5 221.3 129.4 225.0 127.9 C 226.6 132.9 220.3 133.0 218.9 136.9 C 222.5 138.1 226.2 138.5 230.2 138.1 C 228.8 136.3 227.2 134.8 226.0 133.0 C 226.6 129.8 233.1 123.6 231.5 132.6 C 234.3 139.3 243.5 131.5 246.8 137.3 C 248.7 141.3 241.8 140.0 242.9 144.0 C 249.6 145.7 251.3 137.5 257.1 137.3 C 266.7 139.7 260.2 128.5 267.4 128.5 C 273.5 128.6 263.9 119.0 270.7 121.3 C 274.4 121.0 271.7 129.8 274.3 126.2 C 277.0 123.0 279.0 119.0 282.4 116.4 C 285.7 114.6 280.9 110.0 285.0 108.8 C 287.2 110.3 288.6 112.7 290.4 114.6 C 293.2 115.0 296.8 115.0 298.2 117.9 C 296.4 119.6 294.3 121.0 292.3 122.5 C 293.9 124.6 295.8 127.4 298.8 126.2 C 298.0 129.6 296.9 134.0 292.9 134.9 C 290.7 136.1 285.7 135.1 287.2 138.8 C 288.5 141.4 289.2 145.7 293.0 145.2 C 291.9 143.5 290.6 141.9 289.7 140.1 C 291.7 138.1 296.7 140.0 295.7 142.9 C 294.7 146.0 299.5 150.7 293.8 150.4 C 297.5 154.8 299.9 146.7 300.8 143.8 C 301.9 139.6 303.5 145.2 305.0 146.3 C 308.0 143.6 308.2 139.6 309.1 135.9 C 311.6 137.0 312.8 139.8 314.9 141.6 C 309.1 142.0 312.4 145.5 314.9 148.0 C 318.7 143.1 326.3 142.8 331.8 144.9 C 331.6 141.7 332.3 135.1 327.3 136.1 C 327.7 140.2 319.1 141.6 323.6 137.6 C 329.1 134.6 322.6 131.2 319.9 129.0 C 314.9 128.3 318.3 140.4 312.3 136.1 C 314.3 133.6 312.6 131.1 311.5 128.7 C 312.9 123.5 309.6 114.6 317.7 117.3 C 316.8 124.0 322.5 117.1 323.1 114.4 C 318.1 116.2 316.6 111.3 317.0 107.9 C 321.5 108.2 329.2 109.9 326.5 116.0 C 332.5 119.5 331.1 110.7 336.2 110.2 C 337.4 108.8 335.3 106.0 334.6 104.3 C 333.1 106.7 330.4 106.2 330.2 103.3 Z" />
<path fill="#767573" stroke="#767573" stroke-width="0.09375" opacity="1.00" d=" M 454.4 101.7 C 455.8 108.2 454.7 114.9 454.6 121.4 L 454.1 120.8 C 454.0 116.8 454.0 112.8 454.0 108.8 C 454.1 107.0 454.3 103.5 454.4 101.7 Z" />
<path fill="#373535" stroke="#373535" stroke-width="0.09375" opacity="1.00" d=" M 96.6 117.6 C 93.7 112.9 101.8 116.0 103.6 115.0 C 102.8 120.1 108.7 122.2 111.4 125.6 C 113.4 128.6 116.6 125.7 119.1 125.0 C 118.1 129.3 114.8 133.5 117.1 137.9 C 119.2 142.3 111.5 142.6 111.9 147.0 C 118.4 149.0 118.8 140.4 122.9 140.0 C 122.4 142.8 121.6 146.3 125.0 147.5 C 117.7 171.5 109.9 195.3 102.3 219.1 C 100.2 219.3 98.1 219.6 96.1 220.2 C 95.0 222.4 98.3 224.9 97.3 226.4 C 89.3 232.0 87.7 212.9 81.8 221.9 C 77.9 218.8 69.0 224.5 70.5 216.7 C 68.8 218.6 64.8 221.0 67.1 223.8 C 68.5 225.7 65.2 226.9 64.1 228.1 C 62.2 226.0 65.2 222.8 62.8 221.1 C 57.6 219.9 57.7 231.8 52.3 227.7 C 49.8 226.7 52.5 224.0 52.6 222.2 C 49.0 220.2 44.4 215.8 40.5 219.5 C 37.2 221.0 37.5 225.1 35.8 227.9 C 31.2 229.6 33.4 223.8 32.8 220.9 C 27.5 221.5 29.5 227.3 30.9 230.8 C 25.9 235.6 20.7 226.0 25.4 223.5 C 30.3 222.1 27.1 210.6 24.2 214.9 C 27.5 221.4 18.5 222.2 15.3 218.2 C 14.0 220.4 11.7 223.7 9.1 220.9 C 9.6 218.2 11.6 216.2 13.3 214.1 C 7.2 210.4 8.4 215.4 7.8 218.0 C 5.5 215.9 3.3 213.6 0.0 213.7 L 0.0 186.1 C 3.5 184.4 6.4 182.0 8.9 179.0 C 11.9 181.3 15.6 183.5 17.7 179.1 C 16.7 184.3 25.9 179.6 23.6 184.6 C 21.7 188.9 27.3 186.3 28.9 184.8 C 28.5 181.9 24.3 181.8 22.9 179.3 C 27.2 178.4 31.7 177.7 36.0 176.9 C 29.8 176.2 31.7 163.7 38.8 168.1 C 40.3 170.7 38.6 173.6 38.3 176.3 C 42.0 175.3 44.9 171.0 44.9 167.3 C 38.9 165.9 29.4 161.1 26.1 168.3 C 23.9 161.9 34.3 161.3 32.4 155.2 C 35.5 152.5 41.2 157.6 42.2 152.1 C 43.3 147.5 48.0 149.6 51.1 151.0 C 51.1 148.8 50.2 146.9 49.3 145.0 C 54.0 142.3 59.2 141.6 64.5 141.3 C 67.0 135.9 70.3 146.1 74.5 141.4 C 81.0 139.0 87.0 143.0 93.7 141.9 C 92.1 143.8 89.7 149.9 93.6 149.7 C 95.4 145.4 97.2 140.8 101.0 137.8 C 99.7 134.3 96.7 131.3 97.8 127.2 C 95.5 125.8 97.0 132.0 94.7 129.3 C 92.9 125.5 99.8 121.9 96.6 117.6 Z" />
<path fill="#3b3938" stroke="#3b3938" stroke-width="0.09375" opacity="1.00" d=" M 454.1 120.8 L 454.6 121.4 C 455.8 125.1 459.1 124.5 462.0 125.0 C 459.2 127.9 453.6 131.5 455.8 136.2 C 458.9 139.6 450.7 138.4 452.1 141.9 C 453.5 146.3 460.3 142.7 461.9 146.8 C 458.8 148.0 455.6 149.9 455.9 153.8 C 459.2 153.7 462.9 152.3 466.1 154.0 C 463.5 161.1 455.4 157.5 450.3 157.1 C 445.9 164.0 456.2 160.0 459.8 161.1 C 465.9 163.5 470.7 171.3 477.7 168.8 C 476.6 165.5 479.0 163.8 481.2 162.0 C 478.8 157.2 472.9 159.7 468.9 157.6 C 478.2 156.5 479.5 141.7 490.3 146.1 C 489.3 147.8 488.1 149.3 486.7 150.7 C 484.0 150.9 477.6 147.5 481.7 154.4 C 484.1 161.1 496.2 166.8 500.0 158.6 L 500.0 292.0 C 498.6 291.9 495.4 289.8 496.3 292.7 C 494.9 294.8 487.9 293.8 491.8 297.1 C 496.2 301.6 486.9 305.4 483.3 302.7 C 478.9 302.2 482.4 293.6 477.5 295.3 C 476.4 299.0 473.3 302.5 469.4 302.9 C 467.1 298.9 469.3 291.1 463.0 291.6 C 465.7 287.6 463.9 280.4 457.9 282.0 C 459.6 290.1 461.0 297.9 467.0 304.1 C 466.7 311.1 459.8 305.9 459.5 301.3 C 455.6 302.2 451.5 305.3 447.9 302.2 C 442.6 303.7 445.4 311.6 440.2 313.0 C 440.2 304.2 436.3 314.5 437.0 318.1 C 440.8 319.1 443.4 311.0 446.6 315.4 C 451.1 323.3 451.5 304.7 458.1 312.0 C 454.0 319.3 448.2 324.6 439.4 323.2 C 439.7 328.5 432.5 333.1 429.2 327.7 C 427.5 323.4 435.6 325.7 433.9 321.2 C 424.2 317.8 414.3 323.3 410.3 332.3 C 405.0 337.7 406.8 327.3 405.1 324.0 C 399.7 329.7 391.7 326.4 385.2 328.8 C 382.3 325.4 386.7 322.9 388.6 320.5 C 380.9 317.0 390.6 307.3 395.5 310.1 C 393.6 314.6 397.9 316.7 401.7 316.9 C 404.9 312.8 404.2 304.5 397.0 305.6 C 396.0 302.8 399.0 302.3 401.0 301.5 C 397.5 297.3 391.6 299.0 387.0 297.9 C 387.3 294.1 393.8 295.7 391.1 290.3 C 397.7 290.9 396.0 281.1 389.9 285.0 C 391.5 282.0 392.4 276.2 396.8 277.1 C 399.4 278.8 396.6 280.6 395.5 282.3 C 396.1 285.8 400.2 290.4 395.9 292.9 C 393.9 293.8 395.6 298.6 397.3 296.3 C 400.0 293.1 404.9 291.6 406.1 287.3 C 400.4 287.8 407.8 282.8 407.3 279.3 C 410.5 273.1 416.3 283.8 418.4 277.4 C 419.0 274.0 417.9 270.4 421.0 267.8 C 422.3 259.0 410.2 270.6 411.0 262.2 C 418.1 257.9 408.1 255.4 405.1 259.8 C 403.4 257.9 402.1 255.7 401.6 253.2 C 397.9 253.2 399.2 259.9 397.5 261.8 C 393.0 263.8 388.7 261.3 384.2 261.7 C 384.2 257.9 381.7 253.4 377.4 255.3 C 375.1 257.6 375.0 260.8 375.8 263.9 C 374.0 263.3 372.3 262.7 370.4 262.7 C 372.5 259.1 371.5 255.3 368.2 252.8 C 370.4 245.2 363.4 251.8 364.3 256.2 C 363.8 263.8 356.4 251.9 353.6 256.1 C 354.9 260.0 352.6 264.0 348.1 263.2 C 349.3 260.9 351.2 258.7 351.1 255.9 C 347.6 256.9 340.5 260.7 343.3 252.5 C 348.7 249.8 348.2 242.1 353.0 239.9 C 360.4 236.9 354.4 247.9 357.2 250.8 C 361.1 254.8 361.3 246.5 364.3 245.3 C 367.8 241.2 367.0 235.1 368.1 230.0 C 370.9 229.3 371.2 232.2 372.3 234.0 C 376.0 235.2 379.1 227.5 381.5 232.7 C 383.8 233.4 390.6 223.1 384.0 225.6 C 384.4 223.4 384.9 221.2 385.0 218.9 C 381.0 219.0 378.7 223.9 374.0 221.9 C 364.8 219.0 355.2 222.6 345.9 220.1 C 341.9 216.1 346.5 208.9 343.2 204.7 C 343.1 203.0 342.8 199.5 342.7 197.8 C 343.6 196.4 345.2 195.9 346.7 195.6 C 353.5 195.6 360.5 196.9 367.3 195.4 C 387.9 193.9 407.0 184.9 424.7 174.7 C 432.6 166.0 442.0 158.2 447.5 147.6 C 450.9 139.0 453.6 130.0 454.1 120.8 Z" />
<path fill="#777475" stroke="#777475" stroke-width="0.09375" opacity="1.00" d=" M 338.2 138.2 C 338.2 134.4 338.4 130.6 338.8 126.8 C 338.8 130.6 338.6 134.4 338.2 138.2 Z" />
<path fill="#3c3a3a" stroke="#3c3a3a" stroke-width="0.09375" opacity="1.00" d=" M 366.2 134.9 C 369.3 134.5 368.3 138.7 370.1 140.0 C 372.5 142.4 374.7 138.7 377.0 137.9 C 377.0 140.3 376.9 145.0 373.3 143.6 C 368.3 142.7 362.9 155.1 370.7 152.9 C 373.9 143.8 387.6 157.3 391.5 148.6 C 394.3 140.3 401.9 149.9 400.7 154.8 C 399.8 157.6 400.3 161.2 403.7 161.8 C 404.6 160.2 405.5 158.6 406.4 157.1 C 411.3 160.9 402.4 163.8 401.0 167.1 C 399.7 171.0 404.3 171.0 406.8 170.7 C 410.6 169.9 415.7 170.7 417.7 166.8 C 418.3 161.8 424.4 163.0 428.2 162.2 C 415.1 177.6 394.7 184.2 375.3 187.3 C 369.5 187.3 363.5 186.3 357.7 187.7 C 354.8 188.4 352.1 189.9 349.1 190.0 C 345.9 188.8 344.3 185.2 344.1 182.0 C 343.8 171.7 344.0 161.5 344.0 151.2 C 344.3 150.9 344.9 150.4 345.1 150.1 C 348.9 150.8 353.5 148.4 352.4 144.1 C 355.8 142.9 354.5 146.0 354.1 148.1 C 356.8 148.3 355.3 144.7 357.1 143.9 C 361.8 140.9 359.6 149.8 363.7 151.0 C 367.0 146.4 365.6 140.3 366.2 134.9 Z" />
<path fill="#767475" stroke="#767475" stroke-width="0.09375" opacity="1.00" d=" M 344.0 151.2 C 343.9 146.0 344.2 140.9 344.8 135.8 C 344.9 140.5 345.0 145.3 345.1 150.1 C 344.9 150.4 344.3 150.9 344.0 151.2 Z" />
<path fill="#646262" stroke="#646262" stroke-width="0.09375" opacity="1.00" d=" M 336.2 183.2 C 336.0 177.1 335.9 170.9 336.8 164.8 C 337.1 170.9 337.2 177.1 336.2 183.2 Z" />
<path fill="#82817f" stroke="#82817f" stroke-width="0.09375" opacity="1.00" d=" M 357.7 187.7 C 363.5 186.3 369.5 187.3 375.3 187.3 C 369.5 188.4 363.6 187.8 357.7 187.7 Z" />
<path fill="#383737" stroke="#383737" stroke-width="0.09375" opacity="1.00" d=" M 117.2 194.2 C 127.9 187.8 140.9 192.4 152.8 192.3 C 171.5 193.7 190.4 192.9 209.3 192.7 C 212.9 201.7 214.2 211.4 216.4 220.8 C 216.4 226.1 208.8 224.6 205.8 226.9 C 199.2 231.0 192.0 225.9 185.3 224.2 C 185.9 229.1 179.7 232.6 176.4 228.7 C 167.2 229.3 178.3 221.8 173.9 218.1 C 172.1 211.8 159.7 223.8 168.2 221.3 C 170.0 222.4 167.9 228.0 166.8 230.9 C 162.5 231.6 157.9 228.5 153.9 230.8 C 151.6 229.4 147.7 224.3 146.2 229.1 C 145.0 234.6 135.6 232.7 134.0 228.4 C 139.5 228.5 133.3 223.0 137.3 220.2 C 131.3 223.8 123.8 218.3 118.6 223.5 C 115.0 225.4 108.1 226.6 106.6 221.8 C 110.3 212.7 112.3 202.7 117.2 194.2 Z" />
<path fill="#5c5b5c" stroke="#5c5b5c" stroke-width="0.09375" opacity="1.00" d=" M 152.8 192.3 C 171.6 192.2 190.6 191.1 209.3 192.7 C 190.4 192.9 171.5 193.7 152.8 192.3 Z" />
<path fill="#605f5e" stroke="#605f5e" stroke-width="0.09375" opacity="1.00" d=" M 346.7 195.6 C 353.4 194.0 360.5 195.4 367.3 195.4 C 360.5 196.9 353.5 195.6 346.7 195.6 Z" />
<path fill="#7d7d7b" stroke="#7d7d7b" stroke-width="0.09375" opacity="1.00" d=" M 341.2 226.3 C 340.7 216.7 341.5 207.2 342.7 197.8 C 342.8 199.5 343.1 203.0 343.2 204.7 C 342.7 211.9 344.1 219.5 341.2 226.3 Z" />
<path fill="#403f3f" stroke="#403f3f" stroke-width="0.09375" opacity="1.00" d=" M 343.2 204.7 C 346.5 208.9 341.9 216.1 345.9 220.1 C 355.2 222.6 364.8 219.0 374.0 221.9 C 378.7 223.9 381.0 219.0 385.0 218.9 C 384.9 221.2 384.4 223.4 384.0 225.6 C 390.6 223.1 383.8 233.4 381.5 232.7 C 379.1 227.5 376.0 235.2 372.3 234.0 C 371.2 232.2 370.9 229.3 368.1 230.0 C 367.0 235.1 367.8 241.2 364.3 245.3 C 361.3 246.5 361.1 254.8 357.2 250.8 C 354.4 247.9 360.4 236.9 353.0 239.9 C 348.2 242.1 348.7 249.8 343.3 252.5 C 340.5 260.7 347.6 256.9 351.1 255.9 C 351.2 258.7 349.3 260.9 348.1 263.2 C 352.6 264.0 354.9 260.0 353.6 256.1 C 356.4 251.9 363.8 263.8 364.3 256.2 C 363.4 251.8 370.4 245.2 368.2 252.8 C 371.5 255.3 372.5 259.1 370.4 262.7 C 372.3 262.7 374.0 263.3 375.8 263.9 C 375.0 260.8 375.1 257.6 377.4 255.3 C 381.7 253.4 384.2 257.9 384.2 261.7 C 388.7 261.3 393.0 263.8 397.5 261.8 C 399.2 259.9 397.9 253.2 401.6 253.2 C 402.1 255.7 403.4 257.9 405.1 259.8 C 408.1 255.4 418.1 257.9 411.0 262.2 C 410.2 270.6 422.3 259.0 421.0 267.8 C 417.9 270.4 419.0 274.0 418.4 277.4 C 416.3 283.8 410.5 273.1 407.3 279.3 C 407.8 282.8 400.4 287.8 406.1 287.3 C 404.9 291.6 400.0 293.1 397.3 296.3 C 395.6 298.6 393.9 293.8 395.9 292.9 C 400.2 290.4 396.1 285.8 395.5 282.3 C 396.6 280.6 399.4 278.8 396.8 277.1 C 392.4 276.2 391.5 282.0 389.9 285.0 C 396.0 281.1 397.7 290.9 391.1 290.3 C 393.8 295.7 387.3 294.1 387.0 297.9 C 391.6 299.0 397.5 297.3 401.0 301.5 C 399.0 302.3 396.0 302.8 397.0 305.6 C 404.2 304.5 404.9 312.8 401.7 316.9 C 397.9 316.7 393.6 314.6 395.5 310.1 C 390.6 307.3 380.9 317.0 388.6 320.5 C 386.7 322.9 382.3 325.4 385.2 328.8 C 391.7 326.4 399.7 329.7 405.1 324.0 C 406.8 327.3 405.0 337.7 410.3 332.3 C 414.3 323.3 424.2 317.8 433.9 321.2 C 435.6 325.7 427.5 323.4 429.2 327.7 C 432.5 333.1 439.7 328.5 439.4 323.2 C 448.2 324.6 454.0 319.3 458.1 312.0 C 451.5 304.7 451.1 323.3 446.6 315.4 C 443.4 311.0 440.8 319.1 437.0 318.1 C 436.3 314.5 440.2 304.2 440.2 313.0 C 445.4 311.6 442.6 303.7 447.9 302.2 C 451.5 305.3 455.6 302.2 459.5 301.3 C 459.8 305.9 466.7 311.1 467.0 304.1 C 461.0 297.9 459.6 290.1 457.9 282.0 C 463.9 280.4 465.7 287.6 463.0 291.6 C 469.3 291.1 467.1 298.9 469.4 302.9 C 473.3 302.5 476.4 299.0 477.5 295.3 C 482.4 293.6 478.9 302.2 483.3 302.7 C 486.9 305.4 496.2 301.6 491.8 297.1 C 487.9 293.8 494.9 294.8 496.3 292.7 C 495.6 300.0 490.1 305.8 487.3 312.3 C 485.2 316.8 480.5 314.5 476.9 316.1 C 478.7 318.8 481.4 321.0 485.0 320.3 C 480.6 325.5 487.0 330.0 490.0 333.9 C 487.9 336.3 484.1 337.2 481.0 338.1 C 480.8 335.4 483.8 329.7 479.0 330.0 C 469.7 332.0 463.6 343.3 468.2 352.0 C 463.9 355.4 455.3 342.5 458.0 354.0 C 458.8 357.3 455.7 355.5 454.0 355.0 C 452.6 353.0 451.4 350.9 449.8 349.0 C 446.4 351.1 444.5 354.5 442.7 357.9 C 438.7 359.1 438.8 353.6 437.3 351.1 C 440.8 350.7 446.1 344.4 440.6 343.4 C 433.7 340.1 435.7 347.7 436.0 351.0 C 431.5 352.1 423.7 348.4 425.8 342.9 C 420.8 345.4 415.2 352.1 409.2 347.0 C 410.7 344.6 412.0 342.5 408.1 343.8 C 407.4 340.9 408.7 337.1 404.9 336.2 C 401.4 335.5 401.0 327.3 397.1 331.2 C 400.0 335.2 395.6 339.1 392.5 341.5 C 390.3 342.8 391.5 347.0 388.4 347.1 C 389.4 341.7 384.7 339.4 381.0 337.2 C 380.6 340.3 379.9 343.4 379.3 346.5 C 381.6 347.5 384.8 348.7 384.1 351.9 C 381.4 351.9 377.1 350.6 375.9 354.0 C 376.8 356.3 380.0 356.6 382.0 357.7 C 369.7 365.6 369.0 384.3 355.0 390.0 C 347.3 394.1 354.2 383.9 355.0 381.0 C 359.4 375.3 360.7 365.4 353.4 361.6 C 349.3 360.0 345.2 363.4 341.2 364.0 C 341.1 361.1 343.7 355.7 339.2 356.0 C 333.0 371.9 325.4 389.1 309.7 397.7 C 305.9 398.1 300.3 402.2 297.1 398.7 C 295.3 386.8 300.0 375.2 305.9 365.1 C 300.3 363.8 291.5 363.0 293.5 354.5 C 296.7 347.9 287.7 347.1 287.4 352.4 C 288.6 365.8 280.3 377.4 272.1 387.1 C 268.1 390.6 264.1 396.5 258.0 396.1 C 255.6 382.2 267.3 371.7 268.7 358.7 C 261.0 366.9 258.3 380.2 248.8 387.8 C 245.8 390.4 240.5 397.3 236.1 393.8 C 236.1 381.4 246.8 372.6 249.1 360.9 C 246.2 360.7 245.4 364.1 243.8 365.9 C 237.4 375.7 230.2 387.3 218.0 390.1 C 224.4 381.6 233.4 367.5 222.1 358.9 C 217.7 355.1 211.1 364.3 208.5 358.2 C 202.0 366.0 199.7 376.9 191.8 383.8 C 184.7 390.6 173.8 395.8 163.9 392.0 C 158.1 390.1 156.8 382.3 150.9 380.9 C 152.4 387.0 156.3 392.3 162.3 394.7 C 170.8 399.9 178.9 392.9 187.1 391.0 C 181.3 402.7 174.0 413.9 170.6 426.7 C 169.6 431.8 164.3 441.0 171.0 444.0 C 172.4 443.4 173.8 442.6 175.2 441.8 C 179.4 444.7 178.6 452.2 176.0 454.8 C 173.8 451.0 170.5 448.3 166.0 447.2 C 169.3 453.5 161.3 448.1 159.4 453.0 C 154.7 458.5 147.8 453.2 143.8 449.3 C 141.0 446.8 149.7 447.4 147.3 444.7 C 146.4 443.2 145.5 441.8 144.5 440.4 C 141.5 439.8 141.5 448.3 138.2 444.8 C 133.4 438.6 126.0 446.0 119.9 443.9 C 120.5 441.2 124.8 438.8 121.7 436.3 C 118.8 434.4 120.8 430.2 124.0 430.5 C 128.4 431.0 136.8 426.8 129.7 423.3 C 127.3 423.7 125.2 428.0 122.9 423.4 C 131.2 422.0 119.4 419.6 122.9 416.2 C 128.1 420.5 132.9 411.7 134.2 407.2 C 135.7 403.9 137.8 406.3 139.7 407.8 C 140.6 405.3 143.7 401.5 139.4 400.7 C 135.1 401.9 126.6 401.8 127.6 394.9 C 123.6 395.9 119.8 397.9 116.4 400.4 C 117.1 403.7 114.3 406.9 116.7 409.8 C 109.7 409.1 112.4 416.5 113.7 420.6 C 110.3 422.5 107.1 424.7 104.3 427.4 C 107.9 432.1 115.2 429.5 118.2 434.9 C 116.1 436.8 112.9 437.8 113.4 441.4 C 109.2 443.0 105.7 445.5 102.9 449.0 C 98.9 449.6 99.1 442.3 95.2 443.1 C 91.2 445.8 101.0 450.6 94.4 451.9 C 94.5 447.3 89.7 449.9 87.0 450.0 C 90.4 446.6 87.3 443.8 84.6 441.3 C 81.1 439.8 81.4 445.2 79.8 447.1 C 76.9 444.0 74.3 439.0 70.9 444.1 C 66.4 441.8 66.0 436.1 70.0 433.0 C 67.3 430.6 66.3 427.2 64.8 424.0 C 58.3 425.4 60.6 436.4 55.1 437.9 C 55.2 432.7 53.2 428.2 47.8 426.2 C 44.7 425.0 42.0 422.4 44.2 419.0 C 48.4 421.5 53.3 422.1 57.7 419.6 C 56.1 415.5 59.9 414.9 63.1 415.7 C 63.2 411.9 58.0 406.0 66.6 408.5 C 70.7 409.0 68.0 404.1 66.9 402.1 C 64.2 402.1 61.8 405.7 59.3 404.1 C 60.0 402.4 61.0 400.8 60.2 398.9 C 63.3 397.5 66.2 395.2 69.7 395.0 C 72.1 399.8 76.0 404.2 81.7 404.3 C 85.5 404.9 89.5 405.3 93.3 404.3 C 110.3 398.2 130.2 389.3 138.1 371.8 C 130.5 383.5 117.9 389.4 106.2 396.2 C 97.7 400.5 87.1 403.4 78.2 398.8 C 75.4 396.4 72.4 391.7 75.4 388.4 C 85.5 372.9 99.8 355.9 96.8 336.2 C 94.1 334.7 90.1 334.4 87.8 336.8 C 76.3 353.1 74.9 373.6 67.7 391.7 C 62.0 397.3 53.7 399.3 46.1 400.9 C 38.9 399.3 36.0 388.6 42.0 384.0 C 51.8 369.6 60.9 353.5 64.0 336.2 C 72.6 339.6 63.5 326.6 61.3 324.7 C 58.4 319.2 54.1 329.5 51.8 324.0 C 54.4 317.5 61.5 321.6 65.1 317.2 C 67.8 317.1 64.6 323.0 67.6 323.4 C 70.7 325.1 72.0 316.1 74.7 320.3 C 76.5 325.8 82.9 325.4 87.6 326.6 C 92.2 318.7 100.8 328.1 106.8 323.0 C 108.4 330.0 114.0 332.9 120.9 332.0 C 120.4 329.3 119.8 326.4 122.7 324.8 C 122.3 329.5 124.8 334.6 130.0 334.4 C 129.7 338.2 126.5 342.1 129.3 345.7 C 133.2 343.5 136.7 348.3 140.1 345.2 C 141.6 347.9 141.3 351.1 141.2 354.1 C 143.4 353.8 145.2 352.2 147.5 352.2 C 147.8 355.3 154.1 357.6 154.8 353.9 C 155.9 347.4 164.2 358.4 165.8 351.8 C 167.6 347.0 170.0 354.4 171.2 356.0 C 173.6 355.7 173.8 352.7 175.3 351.3 C 177.3 347.9 181.7 349.5 185.0 348.8 C 185.8 345.5 184.2 342.8 183.2 340.0 C 186.0 337.1 186.9 341.5 187.5 343.7 C 190.7 344.4 195.6 347.9 197.6 343.6 C 198.8 340.4 203.6 339.6 205.4 342.6 C 207.8 345.9 211.3 341.8 213.3 340.0 C 210.6 336.9 204.8 336.2 204.0 332.2 C 211.9 332.7 209.8 322.8 214.6 320.0 C 213.9 325.6 221.8 326.0 216.1 330.1 C 218.3 332.3 219.5 334.5 218.3 338.7 C 222.1 342.8 217.4 343.5 213.9 344.2 C 216.0 347.3 225.5 352.3 224.8 345.4 C 216.2 343.8 228.7 336.8 232.0 337.7 C 232.0 332.3 224.1 337.0 225.1 331.2 C 230.5 327.0 236.2 335.3 239.9 337.5 C 244.7 334.9 238.7 333.0 237.7 330.1 C 241.2 331.7 246.3 332.7 244.4 337.6 C 250.2 343.2 251.0 334.5 255.7 332.6 C 254.3 335.5 254.7 338.7 254.4 341.8 C 252.5 343.9 248.0 345.9 250.6 349.2 C 254.7 350.0 259.6 345.2 263.7 348.2 C 266.1 352.5 257.8 347.4 256.8 350.8 C 254.2 354.7 250.6 355.1 246.9 353.0 C 246.6 357.5 249.4 359.0 253.0 356.4 C 257.7 359.0 263.5 356.5 267.8 354.7 C 268.2 351.9 270.4 346.7 266.0 346.6 C 267.4 343.8 271.0 343.1 273.0 340.9 C 271.8 337.1 267.1 336.9 264.2 334.9 C 265.8 329.0 260.5 322.5 254.3 323.7 C 249.4 320.0 255.3 315.8 259.0 314.9 C 264.6 313.1 262.7 304.5 268.8 303.7 C 273.6 301.7 274.2 295.6 278.9 293.7 C 278.9 289.9 275.1 286.4 271.4 285.7 C 274.3 280.2 271.7 274.6 268.0 270.4 C 274.5 268.1 281.5 268.1 288.0 265.8 C 286.5 268.1 284.8 270.3 284.0 272.9 C 288.0 273.0 292.7 278.0 296.2 274.2 C 298.4 271.8 297.5 268.6 296.3 265.9 C 298.0 261.5 305.8 256.6 297.3 255.8 C 298.8 246.2 295.0 262.0 291.3 254.6 C 282.3 248.7 291.1 261.5 285.5 258.7 C 284.8 256.7 284.5 253.4 282.0 253.1 C 278.8 252.6 280.2 257.7 277.6 258.5 C 273.3 260.0 269.9 264.3 265.3 264.0 C 264.0 256.6 255.4 261.9 252.6 264.8 C 253.3 268.7 249.9 267.9 247.8 266.1 C 244.4 268.7 241.4 271.9 238.7 275.2 C 233.3 255.5 227.1 235.9 223.0 215.9 C 225.1 221.2 233.1 217.1 233.0 224.0 C 240.8 228.6 252.3 217.0 258.6 226.4 C 262.3 226.7 266.1 221.7 270.4 223.6 C 275.5 226.5 281.7 220.4 285.2 226.0 C 289.3 227.7 288.3 219.8 292.6 222.4 C 307.1 227.9 319.9 219.7 333.8 219.9 C 334.1 216.2 334.5 212.5 334.8 208.8 C 334.9 234.7 335.9 260.7 333.7 286.6 C 329.9 292.8 321.8 283.4 317.0 289.0 C 311.5 290.8 317.8 297.1 321.7 293.7 C 329.5 294.1 337.4 294.0 345.2 293.8 C 346.9 293.9 350.1 294.1 351.8 294.2 C 354.5 294.3 357.7 295.9 360.3 294.3 C 361.3 293.0 363.2 289.7 361.3 288.8 C 356.2 287.5 350.9 288.0 345.8 288.2 C 342.4 288.0 342.8 283.8 342.6 281.3 C 342.7 275.1 343.8 268.8 342.3 262.7 C 341.9 256.6 342.0 250.4 341.8 244.2 C 341.8 240.4 341.6 236.6 341.2 232.8 C 341.2 231.1 341.2 227.9 341.2 226.3 C 344.1 219.5 342.7 211.9 343.2 204.7 Z" />
<path fill="#666464" stroke="#666464" stroke-width="0.09375" opacity="1.00" d=" M 175.3 210.1 C 190.7 206.6 169.2 216.9 175.3 210.1 Z" />
<path fill="#3d3b3c" stroke="#3d3b3c" stroke-width="0.09375" opacity="1.00" d=" M 0.0 213.7 C 3.3 213.6 5.5 215.9 7.8 218.0 C 8.4 215.4 7.2 210.4 13.3 214.1 C 11.6 216.2 9.6 218.2 9.1 220.9 C 11.7 223.7 14.0 220.4 15.3 218.2 C 18.5 222.2 27.5 221.4 24.2 214.9 C 27.1 210.6 30.3 222.1 25.4 223.5 C 20.7 226.0 25.9 235.6 30.9 230.8 C 29.5 227.3 27.5 221.5 32.8 220.9 C 33.4 223.8 31.2 229.6 35.8 227.9 C 37.5 225.1 37.2 221.0 40.5 219.5 C 44.4 215.8 49.0 220.2 52.6 222.2 C 52.5 224.0 49.8 226.7 52.3 227.7 C 57.7 231.8 57.6 219.9 62.8 221.1 C 65.2 222.8 62.2 226.0 64.1 228.1 C 65.2 226.9 68.5 225.7 67.1 223.8 C 64.8 221.0 68.8 218.6 70.5 216.7 C 69.0 224.5 77.9 218.8 81.8 221.9 C 87.7 212.9 89.3 232.0 97.3 226.4 C 98.3 224.9 95.0 222.4 96.1 220.2 C 98.1 219.6 100.2 219.3 102.3 219.1 C 101.3 222.9 100.2 226.7 98.3 230.1 C 96.2 230.3 94.1 230.7 92.0 231.3 C 86.5 233.4 80.5 230.0 75.0 234.0 C 55.3 237.9 36.6 247.5 16.0 247.5 C 12.7 247.5 10.3 253.2 7.3 249.7 C 4.2 246.0 2.9 252.7 0.0 253.6 L 0.0 213.7 Z" />
<path fill="#424141" stroke="#424141" stroke-width="0.09375" opacity="1.00" d=" M 168.2 221.3 C 159.7 223.8 172.1 211.8 173.9 218.1 C 178.3 221.8 167.2 229.3 176.4 228.7 C 179.7 232.6 185.9 229.1 185.3 224.2 C 192.0 225.9 199.2 231.0 205.8 226.9 C 208.8 224.6 216.4 226.1 216.4 220.8 C 217.4 225.9 218.7 230.9 220.1 235.9 C 216.0 236.9 210.7 235.7 207.9 239.6 C 213.0 239.2 211.4 249.7 208.1 250.6 C 204.6 249.3 202.2 252.9 200.9 255.7 C 203.1 255.9 206.1 255.7 204.9 258.8 C 198.5 262.2 196.8 252.8 192.7 250.3 C 191.1 249.4 181.9 251.4 187.0 248.0 C 189.5 242.9 199.8 246.6 199.0 240.2 C 195.8 240.4 192.6 239.9 189.4 239.2 C 187.8 236.0 185.5 230.5 181.4 234.3 C 180.4 238.6 177.5 241.7 173.9 244.0 C 170.5 243.2 164.8 237.6 163.0 242.9 C 158.3 244.0 146.1 237.6 143.0 245.0 C 141.4 250.1 152.4 244.0 149.8 249.7 C 142.2 255.2 132.1 243.3 124.7 249.3 C 121.5 248.7 118.3 248.7 115.0 248.7 C 115.2 246.8 117.7 244.6 115.9 243.0 C 112.2 244.5 111.6 247.9 114.0 250.8 C 106.5 252.4 101.6 258.5 93.9 257.8 C 98.0 245.7 102.3 233.7 106.6 221.8 C 108.1 226.6 115.0 225.4 118.6 223.5 C 123.8 218.3 131.3 223.8 137.3 220.2 C 133.3 223.0 139.5 228.5 134.0 228.4 C 135.6 232.7 145.0 234.6 146.2 229.1 C 147.7 224.3 151.6 229.4 153.9 230.8 C 157.9 228.5 162.5 231.6 166.8 230.9 C 167.9 228.0 170.0 222.4 168.2 221.3 Z" />
<path fill="#424142" stroke="#424142" stroke-width="0.09375" opacity="1.00" d=" M 92.0 231.3 C 94.1 230.7 96.2 230.3 98.3 230.1 C 92.6 247.5 86.3 264.7 79.6 281.7 C 77.2 286.8 70.5 281.9 66.4 282.5 C 61.6 280.8 56.8 288.7 63.7 289.2 C 64.0 289.4 64.6 289.8 64.9 290.0 C 64.5 295.1 67.8 301.6 63.1 306.0 C 65.3 307.9 70.7 307.7 70.0 311.6 C 66.1 309.5 59.1 320.7 60.3 310.5 C 60.4 306.2 56.8 302.2 52.3 303.1 C 50.9 308.2 45.2 308.3 42.7 312.7 C 39.8 316.5 35.2 314.5 31.5 316.5 C 28.5 318.7 28.2 322.3 28.6 325.7 C 34.3 325.0 43.4 335.5 34.0 336.0 C 31.2 335.7 37.0 327.0 31.4 329.2 C 31.3 334.4 24.6 331.1 25.6 327.2 C 23.4 327.7 20.0 327.5 18.9 329.9 C 23.4 332.8 22.6 339.5 27.7 341.3 C 27.9 343.8 23.7 345.7 25.0 348.9 C 28.0 349.6 31.1 349.3 34.1 349.4 C 35.7 354.8 23.8 352.0 28.5 356.5 C 31.2 362.1 37.6 358.3 42.0 357.0 C 37.3 368.6 38.2 382.5 30.8 392.8 C 25.5 396.9 16.3 402.2 10.1 396.8 C 6.9 389.6 8.8 381.7 9.2 374.1 C 10.0 370.7 13.9 368.1 12.9 364.2 C 9.3 361.1 4.4 361.1 0.0 361.9 L 0.0 309.8 C 3.5 312.1 7.8 319.3 10.7 313.2 C 11.1 319.2 16.1 316.5 17.8 312.8 C 21.3 307.0 25.9 319.8 29.4 314.4 C 31.0 311.5 33.8 310.2 36.7 312.3 C 41.5 314.8 39.5 305.9 43.2 305.3 C 48.9 304.1 55.0 294.5 47.9 291.2 C 47.5 283.7 32.8 283.6 34.7 292.0 C 31.0 286.1 21.3 291.1 15.2 292.1 C 10.4 294.6 5.0 291.5 0.0 294.2 L 0.0 290.1 C 2.4 289.1 8.7 290.2 5.7 286.3 C 5.0 281.2 11.9 276.5 16.9 278.9 C 19.8 275.8 23.7 275.6 27.1 278.1 C 25.2 283.8 16.4 278.6 15.9 285.1 C 19.6 285.1 23.3 281.8 26.1 285.8 C 28.8 283.4 32.7 282.5 35.3 280.0 C 33.7 278.7 31.8 277.6 30.1 276.5 C 33.5 274.6 36.6 271.9 38.0 268.2 C 36.2 267.3 33.9 266.5 32.4 268.4 C 29.8 271.2 25.8 270.1 22.6 271.5 C 18.1 273.1 13.8 267.5 9.3 270.2 C 6.0 272.4 -1.9 268.8 5.9 268.7 C 2.3 262.0 13.6 264.0 12.7 258.3 C 14.9 257.2 21.9 253.4 20.6 258.3 C 20.9 261.7 25.3 259.3 26.6 257.6 C 30.5 252.9 38.0 261.4 41.4 255.4 C 45.3 252.8 57.5 254.9 56.0 247.0 C 50.1 245.1 48.4 254.5 43.1 248.6 C 47.3 243.0 55.3 241.6 61.9 242.7 C 68.9 240.2 78.5 234.4 84.8 240.9 C 86.1 236.9 89.2 234.3 93.1 233.1 C 95.1 232.4 92.8 231.8 92.0 231.3 Z" />
<path fill="#474546" stroke="#474546" stroke-width="0.09375" opacity="1.00" d=" M 75.0 234.0 C 80.5 230.0 86.5 233.4 92.0 231.3 C 92.8 231.8 95.1 232.4 93.1 233.1 C 89.2 234.3 86.1 236.9 84.8 240.9 C 78.5 234.4 68.9 240.2 61.9 242.7 C 55.3 241.6 47.3 243.0 43.1 248.6 C 48.4 254.5 50.1 245.1 56.0 247.0 C 57.5 254.9 45.3 252.8 41.4 255.4 C 38.0 261.4 30.5 252.9 26.6 257.6 C 25.3 259.3 20.9 261.7 20.6 258.3 C 21.9 253.4 14.9 257.2 12.7 258.3 C 13.6 264.0 2.3 262.0 5.9 268.7 C -1.9 268.8 6.0 272.4 9.3 270.2 C 13.8 267.5 18.1 273.1 22.6 271.5 C 25.8 270.1 29.8 271.2 32.4 268.4 C 33.9 266.5 36.2 267.3 38.0 268.2 C 36.6 271.9 33.5 274.6 30.1 276.5 C 31.8 277.6 33.7 278.7 35.3 280.0 C 32.7 282.5 28.8 283.4 26.1 285.8 C 23.3 281.8 19.6 285.1 15.9 285.1 C 16.4 278.6 25.2 283.8 27.1 278.1 C 23.7 275.6 19.8 275.8 16.9 278.9 C 11.9 276.5 5.0 281.2 5.7 286.3 C 8.7 290.2 2.4 289.1 0.0 290.1 L 0.0 253.6 C 2.9 252.7 4.2 246.0 7.3 249.7 C 10.3 253.2 12.7 247.5 16.0 247.5 C 36.6 247.5 55.3 237.9 75.0 234.0 Z" />
<path fill="#3b3a3a" stroke="#3b3a3a" stroke-width="0.09375" opacity="1.00" d=" M 181.4 234.3 C 185.5 230.5 187.8 236.0 189.4 239.2 C 192.6 239.9 195.8 240.4 199.0 240.2 C 199.8 246.6 189.5 242.9 187.0 248.0 C 181.9 251.4 191.1 249.4 192.7 250.3 C 196.8 252.8 198.5 262.2 204.9 258.8 C 206.1 255.7 203.1 255.9 200.9 255.7 C 202.2 252.9 204.6 249.3 208.1 250.6 C 211.4 249.7 213.0 239.2 207.9 239.6 C 210.7 235.7 216.0 236.9 220.1 235.9 C 224.7 253.2 229.8 270.4 233.0 287.9 C 227.4 288.2 221.7 287.9 216.0 288.1 C 213.1 294.4 220.4 294.1 223.7 292.7 C 229.9 292.9 236.0 292.9 242.2 292.8 C 247.4 291.4 261.6 297.5 260.0 288.0 C 257.4 286.8 254.0 286.7 249.8 287.8 C 240.1 291.2 239.2 281.8 238.7 275.2 C 241.4 271.9 244.4 268.7 247.8 266.1 C 249.9 267.9 253.3 268.7 252.6 264.8 C 255.4 261.9 264.0 256.6 265.3 264.0 C 269.9 264.3 273.3 260.0 277.6 258.5 C 280.2 257.7 278.8 252.6 282.0 253.1 C 284.5 253.4 284.8 256.7 285.5 258.7 C 291.1 261.5 282.3 248.7 291.3 254.6 C 295.0 262.0 298.8 246.2 297.3 255.8 C 305.8 256.6 298.0 261.5 296.3 265.9 C 297.5 268.6 298.4 271.8 296.2 274.2 C 292.7 278.0 288.0 273.0 284.0 272.9 C 284.8 270.3 286.5 268.1 288.0 265.8 C 281.5 268.1 274.5 268.1 268.0 270.4 C 271.7 274.6 274.3 280.2 271.4 285.7 C 275.1 286.4 278.9 289.9 278.9 293.7 C 274.2 295.6 273.6 301.7 268.8 303.7 C 262.7 304.5 264.6 313.1 259.0 314.9 C 255.3 315.8 249.4 320.0 254.3 323.7 C 260.5 322.5 265.8 329.0 264.2 334.9 C 267.1 336.9 271.8 337.1 273.0 340.9 C 271.0 343.1 267.4 343.8 266.0 346.6 C 270.4 346.7 268.2 351.9 267.8 354.7 C 263.5 356.5 257.7 359.0 253.0 356.4 C 249.4 359.0 246.6 357.5 246.9 353.0 C 250.6 355.1 254.2 354.7 256.8 350.8 C 257.8 347.4 266.1 352.5 263.7 348.2 C 259.6 345.2 254.7 350.0 250.6 349.2 C 248.0 345.9 252.5 343.9 254.4 341.8 C 254.7 338.7 254.3 335.5 255.7 332.6 C 251.0 334.5 250.2 343.2 244.4 337.6 C 246.3 332.7 241.2 331.7 237.7 330.1 C 238.7 333.0 244.7 334.9 239.9 337.5 C 236.2 335.3 230.5 327.0 225.1 331.2 C 224.1 337.0 232.0 332.3 232.0 337.7 C 228.7 336.8 216.2 343.8 224.8 345.4 C 225.5 352.3 216.0 347.3 213.9 344.2 C 217.4 343.5 222.1 342.8 218.3 338.7 C 219.5 334.5 218.3 332.3 216.1 330.1 C 221.8 326.0 213.9 325.6 214.6 320.0 C 209.8 322.8 211.9 332.7 204.0 332.2 C 204.8 336.2 210.6 336.9 213.3 340.0 C 211.3 341.8 207.8 345.9 205.4 342.6 C 203.6 339.6 198.8 340.4 197.6 343.6 C 195.6 347.9 190.7 344.4 187.5 343.7 C 186.9 341.5 186.0 337.1 183.2 340.0 C 184.2 342.8 185.8 345.5 185.0 348.8 C 181.7 349.5 177.3 347.9 175.3 351.3 C 173.8 352.7 173.6 355.7 171.2 356.0 C 170.0 354.4 167.6 347.0 165.8 351.8 C 164.2 358.4 155.9 347.4 154.8 353.9 C 154.1 357.6 147.8 355.3 147.5 352.2 C 145.2 352.2 143.4 353.8 141.2 354.1 C 141.3 351.1 141.6 347.9 140.1 345.2 C 136.7 348.3 133.2 343.5 129.3 345.7 C 126.5 342.1 129.7 338.2 130.0 334.4 C 124.8 334.6 122.3 329.5 122.7 324.8 C 119.8 326.4 120.4 329.3 120.9 332.0 C 114.0 332.9 108.4 330.0 106.8 323.0 C 100.8 328.1 92.2 318.7 87.6 326.6 C 82.9 325.4 76.5 325.8 74.7 320.3 C 72.0 316.1 70.7 325.1 67.6 323.4 C 64.6 323.0 67.8 317.1 65.1 317.2 C 61.5 321.6 54.4 317.5 51.8 324.0 C 54.1 329.5 58.4 319.2 61.3 324.7 C 63.5 326.6 72.6 339.6 64.0 336.2 C 62.4 333.3 58.4 330.4 55.3 333.3 C 49.5 340.3 44.6 348.3 42.0 357.0 C 37.6 358.3 31.2 362.1 28.5 356.5 C 23.8 352.0 35.7 354.8 34.1 349.4 C 31.1 349.3 28.0 349.6 25.0 348.9 C 23.7 345.7 27.9 343.8 27.7 341.3 C 22.6 339.5 23.4 332.8 18.9 329.9 C 20.0 327.5 23.4 327.7 25.6 327.2 C 24.6 331.1 31.3 334.4 31.4 329.2 C 37.0 327.0 31.2 335.7 34.0 336.0 C 43.4 335.5 34.3 325.0 28.6 325.7 C 28.2 322.3 28.5 318.7 31.5 316.5 C 35.2 314.5 39.8 316.5 42.7 312.7 C 45.2 308.3 50.9 308.2 52.3 303.1 C 56.8 302.2 60.4 306.2 60.3 310.5 C 59.1 320.7 66.1 309.5 70.0 311.6 C 70.7 307.7 65.3 307.9 63.1 306.0 C 67.8 301.6 64.5 295.1 64.9 290.0 C 68.1 290.0 71.3 290.2 74.3 289.2 C 84.4 286.5 101.6 296.5 107.1 284.0 C 100.4 284.0 93.7 284.0 87.0 283.9 C 87.9 274.9 91.6 266.5 93.9 257.8 C 101.6 258.5 106.5 252.4 114.0 250.8 C 111.6 247.9 112.2 244.5 115.9 243.0 C 117.7 244.6 115.2 246.8 115.0 248.7 C 118.3 248.7 121.5 248.7 124.7 249.3 C 132.1 243.3 142.2 255.2 149.8 249.7 C 152.4 244.0 141.4 250.1 143.0 245.0 C 146.1 237.6 158.3 244.0 163.0 242.9 C 164.8 237.6 170.5 243.2 173.9 244.0 C 177.5 241.7 180.4 238.6 181.4 234.3 Z" />
<path fill="#807e7f" stroke="#807e7f" stroke-width="0.09375" opacity="1.00" d=" M 341.2 232.8 C 341.6 236.6 341.8 240.4 341.8 244.2 C 341.4 240.4 341.2 236.6 341.2 232.8 Z" />
<path fill="#6c6b68" stroke="#6c6b68" stroke-width="0.09375" opacity="1.00" d=" M 342.3 262.7 C 343.8 268.8 342.7 275.1 342.6 281.3 C 341.6 275.2 342.1 268.9 342.3 262.7 Z" />
<path fill="#3b3a38" stroke="#3b3a38" stroke-width="0.09375" opacity="1.00" d=" M 312.3 283.3 C 314.0 282.4 312.9 286.7 311.2 286.4 C 312.6 292.1 315.2 296.1 320.0 300.0 C 319.3 301.4 316.5 303.8 319.3 304.6 C 323.3 304.9 324.9 309.0 328.2 310.7 C 324.5 308.4 317.2 318.9 316.8 311.1 C 314.3 312.2 311.9 311.8 309.9 310.0 C 306.4 310.6 296.4 315.7 303.7 317.9 C 303.4 313.3 308.5 312.9 310.0 316.8 C 305.6 317.3 304.0 319.5 305.7 324.1 C 300.3 327.9 301.3 319.5 297.2 321.1 C 293.8 323.8 299.1 326.6 301.8 326.3 C 304.3 329.6 305.3 333.8 305.0 338.0 C 300.8 339.2 301.5 331.8 296.3 334.7 C 295.5 332.1 297.0 322.8 291.4 325.3 C 290.6 328.2 287.4 328.9 285.7 326.3 C 282.4 321.4 275.3 334.0 284.6 330.6 C 287.3 331.7 290.8 326.8 292.1 331.0 C 294.9 334.3 291.1 337.4 287.7 335.5 C 285.9 335.5 282.8 341.1 282.1 338.1 C 284.6 333.1 276.3 332.8 276.7 337.9 C 271.6 337.8 271.8 330.0 277.0 329.8 C 274.2 326.0 274.9 319.8 269.2 318.6 C 267.1 311.8 274.6 309.8 277.5 305.4 C 280.1 303.1 281.9 298.4 286.1 299.0 C 284.4 301.8 281.9 310.2 286.2 309.3 C 289.8 303.0 298.8 309.0 303.8 305.8 C 308.6 302.6 303.4 297.2 304.0 292.9 C 306.0 294.6 308.0 296.8 311.0 296.0 C 313.0 291.4 305.5 293.3 307.2 289.3 C 310.6 288.4 309.0 284.0 312.3 283.3 Z" />
<path fill="#484647" stroke="#484647" stroke-width="0.09375" opacity="1.00" d=" M 34.7 292.0 C 32.8 283.6 47.5 283.7 47.9 291.2 C 55.0 294.5 48.9 304.1 43.2 305.3 C 39.5 305.9 41.5 314.8 36.7 312.3 C 33.8 310.2 31.0 311.5 29.4 314.4 C 25.9 319.8 21.3 307.0 17.8 312.8 C 16.1 316.5 11.1 319.2 10.7 313.2 C 7.8 319.3 3.5 312.1 0.0 309.8 L 0.0 294.2 C 5.0 291.5 10.4 294.6 15.2 292.1 C 21.3 291.1 31.0 286.1 34.7 292.0 Z" />
<path fill="#777675" stroke="#777675" stroke-width="0.09375" opacity="1.00" d=" M 249.8 287.8 C 254.0 286.7 257.4 286.8 260.0 288.0 C 256.6 288.0 253.2 287.8 249.8 287.8 Z" />
<path fill="#8a8986" stroke="#8a8986" stroke-width="0.09375" opacity="1.00" d=" M 345.8 288.2 C 350.9 288.0 356.2 287.5 361.3 288.8 C 356.1 289.0 350.9 289.3 345.8 288.2 Z" />
<path fill="#737172" stroke="#737172" stroke-width="0.09375" opacity="1.00" d=" M 63.7 289.2 C 67.2 289.1 70.8 289.2 74.3 289.2 C 71.3 290.2 68.1 290.0 64.9 290.0 C 64.6 289.8 64.0 289.4 63.7 289.2 Z" />
<path fill="#454445" stroke="#454445" stroke-width="0.09375" opacity="1.00" d=" M 496.3 292.7 C 495.4 289.8 498.6 291.9 500.0 292.0 L 500.0 393.8 C 488.2 398.1 471.3 404.0 461.0 393.7 C 465.7 387.2 473.3 383.4 477.9 376.9 C 481.2 369.3 480.6 354.2 468.3 358.3 C 460.5 364.0 455.1 373.3 452.8 382.8 C 452.3 385.8 452.1 388.9 451.9 392.0 C 444.5 395.6 436.0 396.6 427.8 396.0 C 434.1 384.4 440.8 372.3 442.1 358.9 C 444.5 359.3 446.5 360.6 448.9 361.1 C 447.1 357.4 449.8 353.0 454.0 355.0 C 455.7 355.5 458.8 357.3 458.0 354.0 C 455.3 342.5 463.9 355.4 468.2 352.0 C 463.6 343.3 469.7 332.0 479.0 330.0 C 483.8 329.7 480.8 335.4 481.0 338.1 C 484.1 337.2 487.9 336.3 490.0 333.9 C 487.0 330.0 480.6 325.5 485.0 320.3 C 481.4 321.0 478.7 318.8 476.9 316.1 C 480.5 314.5 485.2 316.8 487.3 312.3 C 490.1 305.8 495.6 300.0 496.3 292.7 Z" />
<path fill="#888784" stroke="#888784" stroke-width="0.09375" opacity="1.00" d=" M 223.7 292.7 C 229.7 290.9 236.1 292.3 242.2 292.8 C 236.0 292.9 229.9 292.9 223.7 292.7 Z" />
<path fill="#6f6d6d" stroke="#6f6d6d" stroke-width="0.09375" opacity="1.00" d=" M 321.7 293.7 C 329.4 291.9 337.5 293.2 345.2 293.8 C 337.4 294.0 329.5 294.1 321.7 293.7 Z" />
<path fill="#7a7977" stroke="#7a7977" stroke-width="0.09375" opacity="1.00" d=" M 351.8 294.2 C 354.6 294.3 357.4 294.3 360.3 294.3 C 357.7 295.9 354.5 294.3 351.8 294.2 Z" />
<path fill="#414141" stroke="#414141" stroke-width="0.09375" opacity="1.00" d=" M 397.1 331.2 C 401.0 327.3 401.4 335.5 404.9 336.2 C 408.7 337.1 407.4 340.9 408.1 343.8 C 412.0 342.5 410.7 344.6 409.2 347.0 C 415.2 352.1 420.8 345.4 425.8 342.9 C 423.7 348.4 431.5 352.1 436.0 351.0 C 435.7 347.7 433.7 340.1 440.6 343.4 C 446.1 344.4 440.8 350.7 437.3 351.1 C 438.8 353.6 438.7 359.1 442.7 357.9 C 444.5 354.5 446.4 351.1 449.8 349.0 C 451.4 350.9 452.6 353.0 454.0 355.0 C 449.8 353.0 447.1 357.4 448.9 361.1 C 446.5 360.6 444.5 359.3 442.1 358.9 C 434.5 358.5 430.2 366.8 424.2 370.1 C 413.8 377.4 405.2 387.6 393.0 392.1 C 391.3 393.3 387.6 393.2 387.9 396.0 C 394.4 395.7 400.2 392.8 406.0 390.1 C 411.0 395.3 417.6 398.2 424.7 399.3 C 425.8 399.6 426.8 399.9 427.9 400.1 C 428.3 401.3 428.7 402.4 429.1 403.6 C 425.2 402.4 422.3 405.6 419.3 407.4 C 417.9 413.7 416.5 419.5 419.7 425.6 C 412.8 430.1 422.2 431.6 426.7 432.2 C 425.2 435.9 429.2 441.7 433.2 439.2 C 435.9 438.0 441.3 433.3 441.4 438.9 C 444.8 438.9 442.8 433.9 444.6 431.9 C 445.2 429.7 438.0 430.9 441.3 428.3 C 443.7 426.7 441.4 423.3 443.8 421.9 C 445.0 425.4 448.8 433.1 451.2 426.0 C 457.1 423.8 465.1 424.4 469.7 430.2 C 477.5 426.9 476.5 441.9 483.2 437.3 C 487.2 435.6 484.6 444.7 489.1 441.1 C 494.0 436.9 495.6 443.5 500.0 443.4 L 500.0 498.0 C 496.5 497.5 492.9 497.7 489.4 497.5 C 487.4 495.5 485.6 493.3 483.1 492.0 C 478.7 499.8 469.3 495.4 462.7 493.3 C 458.3 492.6 466.0 491.0 462.6 489.4 C 457.9 485.9 465.5 484.2 468.2 483.1 C 472.0 482.0 474.8 485.8 476.5 488.6 C 481.3 488.5 481.1 483.0 484.6 481.7 C 482.4 479.1 480.7 476.1 478.9 473.2 C 477.2 474.2 475.8 475.6 474.0 476.2 C 473.9 471.7 481.2 470.7 480.0 465.2 C 475.7 459.1 463.3 466.5 473.0 469.5 C 469.0 471.0 467.0 475.3 463.2 476.8 C 461.4 475.7 460.4 473.6 459.0 471.9 C 460.3 469.7 462.6 467.8 462.0 464.9 C 455.3 464.8 453.4 472.5 447.8 474.9 C 446.5 478.3 447.6 483.0 447.1 486.9 C 449.6 487.1 453.1 484.7 454.9 487.3 C 456.3 493.1 448.5 494.9 444.1 495.1 C 446.9 488.2 438.4 483.1 441.9 476.0 C 438.3 477.6 431.7 478.6 433.1 483.8 C 436.5 484.4 441.6 484.5 440.7 489.5 C 436.5 489.7 437.9 495.1 434.1 496.0 C 432.5 494.5 432.6 491.2 430.1 491.0 C 429.2 493.0 428.8 495.1 427.8 497.0 C 423.5 496.5 419.6 493.1 415.0 494.7 C 410.9 493.7 410.1 487.9 412.5 484.6 C 412.6 480.6 422.4 478.2 414.3 477.7 C 414.2 470.9 414.8 464.0 416.3 457.4 C 425.4 461.0 427.0 444.4 418.0 447.8 C 417.0 442.9 421.1 439.9 423.2 436.2 C 414.8 435.5 408.8 445.6 412.9 452.9 C 411.0 453.6 408.2 452.9 407.7 455.6 C 406.1 458.2 413.5 457.6 411.6 460.6 C 408.0 465.2 410.3 471.4 408.1 476.0 C 406.4 481.2 401.1 476.4 397.9 479.1 C 399.7 482.7 405.0 481.7 406.8 485.3 C 406.0 487.7 408.5 492.0 405.8 493.9 C 401.7 494.0 398.9 490.0 395.0 489.3 C 384.7 492.8 372.4 490.0 364.5 482.6 C 358.1 482.4 350.5 479.8 347.8 487.1 C 339.2 487.6 343.1 476.5 344.8 472.2 C 342.2 467.7 338.0 472.3 335.5 474.5 C 332.5 478.1 327.8 470.0 325.8 475.9 C 328.5 477.6 331.5 478.5 334.7 478.5 C 336.5 480.5 337.1 483.9 341.3 482.5 C 337.4 485.6 331.6 482.1 327.2 484.4 C 321.5 485.7 317.1 480.0 311.2 480.4 C 305.6 477.9 299.0 483.3 293.9 479.1 C 291.4 476.3 296.1 475.4 297.0 473.1 C 294.7 470.5 292.4 473.2 290.8 475.0 C 285.2 475.2 284.9 467.1 279.9 466.9 C 280.3 471.8 285.8 473.6 288.3 477.0 C 281.0 477.5 276.1 469.8 273.1 463.9 C 272.0 458.9 280.8 463.9 279.1 458.2 C 274.5 457.6 265.7 460.1 267.2 452.0 C 270.0 443.1 253.1 439.5 253.5 448.5 C 258.4 454.5 247.1 458.3 242.8 455.3 C 237.8 452.3 238.9 465.7 235.2 458.9 C 232.9 449.1 217.9 458.3 219.7 447.2 C 216.9 445.8 213.5 447.2 210.7 445.6 C 208.3 444.3 209.1 448.9 207.0 449.1 C 204.7 446.8 202.2 444.6 200.0 442.2 C 202.7 439.9 208.8 439.0 205.9 434.3 C 202.0 435.7 197.9 439.4 194.0 436.0 C 188.3 432.7 190.7 441.8 190.9 444.6 C 183.1 446.3 175.0 453.9 180.0 462.2 C 177.1 460.4 175.0 457.7 171.8 460.9 C 168.8 455.6 165.5 452.4 159.4 453.0 C 161.3 448.1 169.3 453.5 166.0 447.2 C 170.5 448.3 173.8 451.0 176.0 454.8 C 178.6 452.2 179.4 444.7 175.2 441.8 C 183.4 426.4 189.9 410.0 195.0 393.4 C 196.9 388.4 201.6 393.9 204.9 394.2 C 215.6 397.5 225.4 390.2 233.9 384.8 C 232.9 389.1 231.5 393.4 232.1 397.8 C 241.0 402.0 247.9 393.1 253.9 387.8 C 252.9 394.4 253.6 400.8 261.9 399.0 C 276.2 392.3 283.1 377.2 290.2 364.1 C 293.7 363.8 297.8 365.7 300.0 368.1 C 298.5 378.3 289.3 391.1 297.3 400.7 C 307.8 406.4 315.6 395.1 323.9 390.7 C 315.4 406.4 306.4 422.2 301.4 439.4 C 298.2 443.4 302.8 451.1 306.7 446.7 C 316.8 430.5 320.6 411.4 328.2 394.1 C 338.7 397.7 350.7 396.6 359.6 389.6 C 366.3 382.3 367.8 396.9 375.1 396.9 C 388.0 394.6 395.9 382.3 399.6 370.6 C 399.9 367.7 402.9 366.9 405.0 365.4 C 396.5 364.6 390.8 352.4 382.0 357.7 C 380.0 356.6 376.8 356.3 375.9 354.0 C 377.1 350.6 381.4 351.9 384.1 351.9 C 384.8 348.7 381.6 347.5 379.3 346.5 C 379.9 343.4 380.6 340.3 381.0 337.2 C 384.7 339.4 389.4 341.7 388.4 347.1 C 391.5 347.0 390.3 342.8 392.5 341.5 C 395.6 339.1 400.0 335.2 397.1 331.2 Z" />
<path fill="#b1afaf" stroke="#b1afaf" stroke-width="0.09375" opacity="1.00" d=" M 55.3 333.3 C 58.4 330.4 62.4 333.3 64.0 336.2 C 60.9 353.5 51.8 369.6 42.0 384.0 C 36.0 388.6 38.9 399.3 46.1 400.9 C 53.7 399.3 62.0 397.3 67.7 391.7 C 74.9 373.6 76.3 353.1 87.8 336.8 C 90.1 334.4 94.1 334.7 96.8 336.2 C 99.8 355.9 85.5 372.9 75.4 388.4 C 72.4 391.7 75.4 396.4 78.2 398.8 C 87.1 403.4 97.7 400.5 106.2 396.2 C 117.9 389.4 130.5 383.5 138.1 371.8 C 130.2 389.3 110.3 398.2 93.3 404.3 C 89.4 404.1 85.6 404.0 81.7 404.3 C 76.0 404.2 72.1 399.8 69.7 395.0 C 66.2 395.2 63.3 397.5 60.2 398.9 C 55.0 401.4 49.2 404.2 43.3 402.7 C 38.8 401.3 37.8 396.1 35.0 392.8 C 28.8 396.7 23.3 402.7 15.4 402.4 C 10.2 403.2 8.0 397.6 5.7 394.1 C 3.3 394.2 1.8 396.9 0.0 398.3 L 0.0 396.5 C 7.9 388.8 5.1 376.6 8.7 366.8 C 10.9 361.1 2.7 365.2 0.0 366.2 L 0.0 361.9 C 4.4 361.1 9.3 361.1 12.9 364.2 C 13.9 368.1 10.0 370.7 9.2 374.1 C 8.8 381.7 6.9 389.6 10.1 396.8 C 16.3 402.2 25.5 396.9 30.8 392.8 C 38.2 382.5 37.3 368.6 42.0 357.0 C 44.6 348.3 49.5 340.3 55.3 333.3 Z" />
<path fill="#424040" stroke="#424040" stroke-width="0.09375" opacity="1.00" d=" M 57.2 335.2 C 59.7 335.0 64.6 333.7 60.6 339.6 C 59.5 348.8 54.3 356.6 50.9 365.0 C 48.0 371.1 45.5 377.9 40.0 382.1 C 41.7 365.5 46.4 348.2 57.2 335.2 Z" />
<path fill="#434142" stroke="#434142" stroke-width="0.09375" opacity="1.00" d=" M 91.3 338.2 C 94.3 336.9 97.2 340.9 94.9 344.0 C 93.4 358.9 84.6 372.2 75.1 383.2 C 75.6 367.3 81.9 351.0 91.3 338.2 Z" />
<path fill="#afadae" stroke="#afadae" stroke-width="0.09375" opacity="1.00" d=" M 287.4 352.4 C 287.7 347.1 296.7 347.9 293.5 354.5 C 291.5 363.0 300.3 363.8 305.9 365.1 C 300.0 375.2 295.3 386.8 297.1 398.7 C 300.3 402.2 305.9 398.1 309.7 397.7 C 325.4 389.1 333.0 371.9 339.2 356.0 C 343.7 355.7 341.1 361.1 341.2 364.0 C 345.2 363.4 349.3 360.0 353.4 361.6 C 360.7 365.4 359.4 375.3 355.0 381.0 C 354.2 383.9 347.3 394.1 355.0 390.0 C 369.0 384.3 369.7 365.6 382.0 357.7 C 390.8 352.4 396.5 364.6 405.0 365.4 C 402.9 366.9 399.9 367.7 399.6 370.6 C 395.9 382.3 388.0 394.6 375.1 396.9 C 367.8 396.9 366.3 382.3 359.6 389.6 C 350.7 396.6 338.7 397.7 328.2 394.1 C 320.6 411.4 316.8 430.5 306.7 446.7 C 302.8 451.1 298.2 443.4 301.4 439.4 C 306.4 422.2 315.4 406.4 323.9 390.7 C 315.6 395.1 307.8 406.4 297.3 400.7 C 289.3 391.1 298.5 378.3 300.0 368.1 C 297.8 365.7 293.7 363.8 290.2 364.1 C 283.1 377.2 276.2 392.3 261.9 399.0 C 253.6 400.8 252.9 394.4 253.9 387.8 C 247.9 393.1 241.0 402.0 232.1 397.8 C 231.5 393.4 232.9 389.1 233.9 384.8 C 225.4 390.2 215.6 397.5 204.9 394.2 C 201.6 393.9 196.9 388.4 195.0 393.4 C 194.7 392.7 194.1 391.4 193.8 390.7 C 194.1 389.0 193.6 388.6 192.3 389.4 C 182.8 400.7 178.2 415.0 172.0 428.2 C 171.6 427.8 170.9 427.1 170.6 426.7 C 174.0 413.9 181.3 402.7 187.1 391.0 C 178.9 392.9 170.8 399.9 162.3 394.7 C 156.3 392.3 152.4 387.0 150.9 380.9 C 156.8 382.3 158.1 390.1 163.9 392.0 C 173.8 395.8 184.7 390.6 191.8 383.8 C 199.7 376.9 202.0 366.0 208.5 358.2 C 211.1 364.3 217.7 355.1 222.1 358.9 C 233.4 367.5 224.4 381.6 218.0 390.1 C 230.2 387.3 237.4 375.7 243.8 365.9 C 245.4 364.1 246.2 360.7 249.1 360.9 C 246.8 372.6 236.1 381.4 236.1 393.8 C 240.5 397.3 245.8 390.4 248.8 387.8 C 258.3 380.2 261.0 366.9 268.7 358.7 C 267.3 371.7 255.6 382.2 258.0 396.1 C 264.1 396.5 268.1 390.6 272.1 387.1 C 280.3 377.4 288.6 365.8 287.4 352.4 Z" />
<path fill="#b8b7b7" stroke="#b8b7b7" stroke-width="0.09375" opacity="1.00" d=" M 468.3 358.3 C 480.6 354.2 481.2 369.3 477.9 376.9 C 473.3 383.4 465.7 387.2 461.0 393.7 C 471.3 404.0 488.2 398.1 500.0 393.8 L 500.0 398.1 C 486.6 400.9 470.6 406.4 458.4 397.5 C 454.4 394.2 449.7 398.9 445.3 399.3 C 438.4 399.1 431.6 398.8 424.7 399.3 C 417.6 398.2 411.0 395.3 406.0 390.1 C 400.2 392.8 394.4 395.7 387.9 396.0 C 387.6 393.2 391.3 393.3 393.0 392.1 C 405.2 387.6 413.8 377.4 424.2 370.1 C 430.2 366.8 434.5 358.5 442.1 358.9 C 440.8 372.3 434.1 384.4 427.8 396.0 C 436.0 396.6 444.5 395.6 451.9 392.0 C 454.5 390.3 452.2 385.6 452.8 382.8 C 455.1 373.3 460.5 364.0 468.3 358.3 Z" />
<path fill="#4e4d4e" stroke="#4e4d4e" stroke-width="0.09375" opacity="1.00" d=" M 388.2 364.3 C 383.7 360.6 392.6 357.9 393.5 363.3 C 392.8 365.9 390.0 364.3 388.2 364.3 Z" />
<path fill="#424141" stroke="#424141" stroke-width="0.09375" opacity="1.00" d=" M 216.4 361.4 C 228.8 360.2 225.4 380.1 218.0 385.0 C 212.9 391.2 197.2 391.6 199.0 381.1 C 203.6 373.8 207.6 364.3 216.4 361.4 Z" />
<path fill="#484748" stroke="#484748" stroke-width="0.09375" opacity="1.00" d=" M 471.2 362.3 C 477.0 370.6 468.0 385.9 457.1 387.1 C 460.2 378.3 464.0 368.2 471.2 362.3 Z" />
<path fill="#878787" stroke="#878787" stroke-width="0.09375" opacity="1.00" d=" M 393.5 363.3 C 395.1 362.6 393.6 367.1 391.7 367.1 C 389.7 366.7 387.7 366.1 385.8 365.3 C 386.4 365.0 387.6 364.5 388.2 364.3 C 390.0 364.3 392.8 365.9 393.5 363.3 Z" />
<path fill="#4a4949" stroke="#4a4949" stroke-width="0.09375" opacity="1.00" d=" M 0.0 366.2 C 2.7 365.2 10.9 361.1 8.7 366.8 C 5.1 376.6 7.9 388.8 0.0 396.5 L 0.0 366.2 Z" />
<path fill="#444243" stroke="#444243" stroke-width="0.09375" opacity="1.00" d=" M 380.8 364.7 C 382.2 363.1 384.2 364.8 385.8 365.3 C 387.7 366.1 389.7 366.7 391.7 367.1 C 398.7 367.7 395.2 375.3 393.0 379.0 C 389.6 387.5 379.8 395.2 370.7 392.3 C 367.3 382.2 372.7 371.2 380.8 364.7 Z" />
<path fill="#444343" stroke="#444343" stroke-width="0.09375" opacity="1.00" d=" M 345.3 365.2 C 355.1 361.3 357.0 372.8 353.0 379.0 C 350.4 386.6 341.6 395.4 333.3 391.7 C 326.5 387.5 333.0 380.3 335.9 375.9 C 338.7 372.1 341.7 368.3 345.3 365.2 Z" />
<path fill="#484747" stroke="#484747" stroke-width="0.09375" opacity="1.00" d=" M 432.4 369.4 C 432.8 369.3 433.6 369.0 434.0 368.8 C 433.9 378.3 430.3 390.0 420.9 394.0 C 416.5 393.6 409.5 391.1 409.1 386.2 C 417.1 380.9 424.4 374.7 432.4 369.4 Z" />
<path fill="#817f80" stroke="#817f80" stroke-width="0.09375" opacity="1.00" d=" M 451.9 392.0 C 452.1 388.9 452.3 385.8 452.8 382.8 C 452.2 385.6 454.5 390.3 451.9 392.0 Z" />
<path fill="#464646" stroke="#464646" stroke-width="0.09375" opacity="1.00" d=" M 192.3 389.4 C 193.6 388.6 194.1 389.0 193.8 390.7 C 187.0 406.7 182.8 424.4 172.9 438.8 C 167.2 443.4 170.4 431.1 172.0 428.2 C 178.2 415.0 182.8 400.7 192.3 389.4 Z" />
<path fill="#a2a1a2" stroke="#a2a1a2" stroke-width="0.09375" opacity="1.00" d=" M 172.9 438.8 C 182.8 424.4 187.0 406.7 193.8 390.7 C 194.1 391.4 194.7 392.7 195.0 393.4 C 189.9 410.0 183.4 426.4 175.2 441.8 C 173.8 442.6 172.4 443.4 171.0 444.0 C 164.3 441.0 169.6 431.8 170.6 426.7 C 170.9 427.1 171.6 427.8 172.0 428.2 C 170.4 431.1 167.2 443.4 172.9 438.8 Z" />
<path fill="#474546" stroke="#474546" stroke-width="0.09375" opacity="1.00" d=" M 15.4 402.4 C 23.3 402.7 28.8 396.7 35.0 392.8 C 37.8 396.1 38.8 401.3 43.3 402.7 C 49.2 404.2 55.0 401.4 60.2 398.9 C 61.0 400.8 60.0 402.4 59.3 404.1 C 61.8 405.7 64.2 402.1 66.9 402.1 C 68.0 404.1 70.7 409.0 66.6 408.5 C 58.0 406.0 63.2 411.9 63.1 415.7 C 59.9 414.9 56.1 415.5 57.7 419.6 C 53.3 422.1 48.4 421.5 44.2 419.0 C 42.0 422.4 44.7 425.0 47.8 426.2 C 53.2 428.2 55.2 432.7 55.1 437.9 C 60.6 436.4 58.3 425.4 64.8 424.0 C 66.3 427.2 67.3 430.6 70.0 433.0 C 66.0 436.1 66.4 441.8 70.9 444.1 C 74.3 439.0 76.9 444.0 79.8 447.1 C 81.4 445.2 81.1 439.8 84.6 441.3 C 87.3 443.8 90.4 446.6 87.0 450.0 C 89.7 449.9 94.5 447.3 94.4 451.9 C 101.0 450.6 91.2 445.8 95.2 443.1 C 99.1 442.3 98.9 449.6 102.9 449.0 C 105.7 445.5 109.2 443.0 113.4 441.4 C 112.9 437.8 116.1 436.8 118.2 434.9 C 115.2 429.5 107.9 432.1 104.3 427.4 C 107.1 424.7 110.3 422.5 113.7 420.6 C 112.4 416.5 109.7 409.1 116.7 409.8 C 114.3 406.9 117.1 403.7 116.4 400.4 C 119.8 397.9 123.6 395.9 127.6 394.9 C 126.6 401.8 135.1 401.9 139.4 400.7 C 143.7 401.5 140.6 405.3 139.7 407.8 C 137.8 406.3 135.7 403.9 134.2 407.2 C 132.9 411.7 128.1 420.5 122.9 416.2 C 119.4 419.6 131.2 422.0 122.9 423.4 C 125.2 428.0 127.3 423.7 129.7 423.3 C 136.8 426.8 128.4 431.0 124.0 430.5 C 120.8 430.2 118.8 434.4 121.7 436.3 C 124.8 438.8 120.5 441.2 119.9 443.9 C 126.0 446.0 133.4 438.6 138.2 444.8 C 141.5 448.3 141.5 439.8 144.5 440.4 C 145.5 441.8 146.4 443.2 147.3 444.7 C 149.7 447.4 141.0 446.8 143.8 449.3 C 147.8 453.2 154.7 458.5 159.4 453.0 C 165.5 452.4 168.8 455.6 171.8 460.9 C 175.0 457.7 177.1 460.4 180.0 462.2 C 175.0 453.9 183.1 446.3 190.9 444.6 C 190.7 441.8 188.3 432.7 194.0 436.0 C 197.9 439.4 202.0 435.7 205.9 434.3 C 208.8 439.0 202.7 439.9 200.0 442.2 C 202.2 444.6 204.7 446.8 207.0 449.1 C 209.1 448.9 208.3 444.3 210.7 445.6 C 213.5 447.2 216.9 445.8 219.7 447.2 C 217.9 458.3 232.9 449.1 235.2 458.9 C 238.9 465.7 237.8 452.3 242.8 455.3 C 247.1 458.3 258.4 454.5 253.5 448.5 C 253.1 439.5 270.0 443.1 267.2 452.0 C 265.7 460.1 274.5 457.6 279.1 458.2 C 280.8 463.9 272.0 458.9 273.1 463.9 C 276.1 469.8 281.0 477.5 288.3 477.0 C 285.8 473.6 280.3 471.8 279.9 466.9 C 284.9 467.1 285.2 475.2 290.8 475.0 C 292.4 473.2 294.7 470.5 297.0 473.1 C 296.1 475.4 291.4 476.3 293.9 479.1 C 299.0 483.3 305.6 477.9 311.2 480.4 C 317.1 480.0 321.5 485.7 327.2 484.4 C 331.6 482.1 337.4 485.6 341.3 482.5 C 337.1 483.9 336.5 480.5 334.7 478.5 C 331.5 478.5 328.5 477.6 325.8 475.9 C 327.8 470.0 332.5 478.1 335.5 474.5 C 338.0 472.3 342.2 467.7 344.8 472.2 C 343.1 476.5 339.2 487.6 347.8 487.1 C 350.5 479.8 358.1 482.4 364.5 482.6 C 372.4 490.0 384.7 492.8 395.0 489.3 C 398.9 490.0 401.7 494.0 405.8 493.9 C 408.5 492.0 406.0 487.7 406.8 485.3 C 405.0 481.7 399.7 482.7 397.9 479.1 C 401.1 476.4 406.4 481.2 408.1 476.0 C 410.3 471.4 408.0 465.2 411.6 460.6 C 413.5 457.6 406.1 458.2 407.7 455.6 C 408.2 452.9 411.0 453.6 412.9 452.9 C 408.8 445.6 414.8 435.5 423.2 436.2 C 421.1 439.9 417.0 442.9 418.0 447.8 C 427.0 444.4 425.4 461.0 416.3 457.4 C 414.8 464.0 414.2 470.9 414.3 477.7 C 422.4 478.2 412.6 480.6 412.5 484.6 C 410.1 487.9 410.9 493.7 415.0 494.7 C 419.6 493.1 423.5 496.5 427.8 497.0 C 428.8 495.1 429.2 493.0 430.1 491.0 C 432.6 491.2 432.5 494.5 434.1 496.0 C 437.9 495.1 436.5 489.7 440.7 489.5 C 441.6 484.5 436.5 484.4 433.1 483.8 C 431.7 478.6 438.3 477.6 441.9 476.0 C 438.4 483.1 446.9 488.2 444.1 495.1 C 448.5 494.9 456.3 493.1 454.9 487.3 C 453.1 484.7 449.6 487.1 447.1 486.9 C 447.6 483.0 446.5 478.3 447.8 474.9 C 453.4 472.5 455.3 464.8 462.0 464.9 C 462.6 467.8 460.3 469.7 459.0 471.9 C 460.4 473.6 461.4 475.7 463.2 476.8 C 467.0 475.3 469.0 471.0 473.0 469.5 C 463.3 466.5 475.7 459.1 480.0 465.2 C 481.2 470.7 473.9 471.7 474.0 476.2 C 475.8 475.6 477.2 474.2 478.9 473.2 C 480.7 476.1 482.4 479.1 484.6 481.7 C 481.1 483.0 481.3 488.5 476.5 488.6 C 474.8 485.8 472.0 482.0 468.2 483.1 C 465.5 484.2 457.9 485.9 462.6 489.4 C 466.0 491.0 458.3 492.6 462.7 493.3 C 469.3 495.4 478.7 499.8 483.1 492.0 C 485.6 493.3 487.4 495.5 489.4 497.5 C 492.9 497.7 496.5 497.5 500.0 498.0 L 500.0 500.0 L 384.4 500.0 C 381.0 495.7 375.0 494.9 371.3 490.6 C 362.0 489.1 352.3 487.9 342.8 488.7 C 335.6 488.1 328.5 485.3 321.2 486.7 C 312.1 481.5 301.5 484.5 291.8 481.4 C 286.7 482.3 282.7 477.5 277.6 478.4 C 273.2 480.5 269.9 476.0 268.0 473.0 C 269.0 470.4 270.9 467.7 268.8 465.1 C 262.0 465.5 255.6 468.8 248.8 469.8 C 245.4 470.8 242.9 465.6 239.7 468.3 C 234.1 467.7 228.2 466.4 222.9 464.0 C 220.1 463.6 217.2 466.7 220.2 468.7 C 222.3 468.3 225.1 467.8 225.1 470.9 C 221.4 469.3 215.6 472.8 213.3 468.9 C 213.7 464.7 204.8 465.4 209.2 461.1 C 212.0 462.2 215.7 463.9 215.1 459.1 C 208.8 460.4 198.8 455.5 202.8 447.8 C 199.7 448.4 197.6 450.7 195.7 452.9 C 191.4 454.8 195.3 447.1 190.3 449.1 C 188.3 453.5 189.1 457.1 193.0 459.9 C 189.7 462.0 185.5 463.4 184.4 467.7 C 178.7 468.2 174.4 463.7 169.4 462.0 C 169.6 467.0 165.9 468.8 162.0 465.9 C 164.2 469.1 166.2 472.4 168.4 475.6 C 173.4 475.0 177.2 478.7 182.0 479.1 C 177.2 470.3 194.7 474.2 191.5 481.4 C 190.1 485.1 196.4 485.8 194.3 490.0 C 199.1 488.5 203.1 489.3 205.5 493.6 C 212.0 493.6 218.9 497.5 225.2 494.2 C 230.1 494.4 234.6 496.9 238.5 500.0 L 29.0 500.0 C 30.0 496.3 29.5 492.7 28.1 489.3 C 32.3 491.3 36.8 485.6 32.2 483.7 C 27.4 482.6 25.8 475.6 20.7 476.5 C 24.5 469.8 31.3 481.7 35.6 476.6 C 37.2 473.9 39.9 476.8 42.0 477.0 C 43.2 473.1 38.6 468.4 36.5 473.6 C 33.7 471.6 29.0 470.7 28.0 467.2 C 31.6 464.1 36.8 470.7 38.7 465.7 C 39.6 462.4 46.2 462.7 44.3 458.8 C 44.6 451.6 37.5 449.6 34.2 444.2 C 27.1 447.2 19.4 444.2 12.1 447.0 C 7.2 443.4 9.2 437.1 12.9 433.1 C 10.1 428.7 8.0 434.5 4.4 434.4 C 5.9 437.9 2.9 439.4 0.0 440.4 L 0.0 398.3 C 1.8 396.9 3.3 394.2 5.7 394.1 C 8.0 397.6 10.2 403.2 15.4 402.4 Z" />
<path fill="#474748" stroke="#474748" stroke-width="0.09375" opacity="1.00" d=" M 445.3 399.3 C 449.7 398.9 454.4 394.2 458.4 397.5 C 470.6 406.4 486.6 400.9 500.0 398.1 L 500.0 443.4 C 495.6 443.5 494.0 436.9 489.1 441.1 C 484.6 444.7 487.2 435.6 483.2 437.3 C 476.5 441.9 477.5 426.9 469.7 430.2 C 465.1 424.4 457.1 423.8 451.2 426.0 C 448.8 433.1 445.0 425.4 443.8 421.9 C 441.4 423.3 443.7 426.7 441.3 428.3 C 438.0 430.9 445.2 429.7 444.6 431.9 C 442.8 433.9 444.8 438.9 441.4 438.9 C 441.3 433.3 435.9 438.0 433.2 439.2 C 429.2 441.7 425.2 435.9 426.7 432.2 C 422.2 431.6 412.8 430.1 419.7 425.6 C 416.5 419.5 417.9 413.7 419.3 407.4 C 422.3 405.6 425.2 402.4 429.1 403.6 C 428.7 402.4 428.3 401.3 427.9 400.1 C 433.7 399.9 439.6 400.4 445.3 399.3 Z" />
<path fill="#949293" stroke="#949293" stroke-width="0.09375" opacity="1.00" d=" M 424.7 399.3 C 431.6 398.8 438.4 399.1 445.3 399.3 C 439.6 400.4 433.7 399.9 427.9 400.1 C 426.8 399.9 425.8 399.6 424.7 399.3 Z" />
<path fill="#747273" stroke="#747273" stroke-width="0.09375" opacity="1.00" d=" M 81.7 404.3 C 85.6 404.0 89.4 404.1 93.3 404.3 C 89.5 405.3 85.5 404.9 81.7 404.3 Z" />
<path fill="#514f50" stroke="#514f50" stroke-width="0.09375" opacity="1.00" d=" M 319.3 406.4 L 320.1 405.9 C 315.7 417.3 313.4 430.9 305.0 440.2 C 305.1 432.2 311.1 425.8 313.5 418.4 C 315.6 414.5 315.5 409.1 319.3 406.4 Z" />
<path fill="#8b8b8b" stroke="#8b8b8b" stroke-width="0.09375" opacity="1.00" d=" M 477.2 409.1 C 481.3 407.3 479.1 417.1 476.0 416.0 C 476.2 413.7 476.8 411.4 477.2 409.1 Z" />
<path fill="#4e4e50" stroke="#4e4e50" stroke-width="0.09375" opacity="1.00" d=" M 4.4 434.4 C 8.0 434.5 10.1 428.7 12.9 433.1 C 9.2 437.1 7.2 443.4 12.1 447.0 C 19.4 444.2 27.1 447.2 34.2 444.2 C 37.5 449.6 44.6 451.6 44.3 458.8 C 46.2 462.7 39.6 462.4 38.7 465.7 C 36.8 470.7 31.6 464.1 28.0 467.2 C 29.0 470.7 33.7 471.6 36.5 473.6 C 38.6 468.4 43.2 473.1 42.0 477.0 C 39.9 476.8 37.2 473.9 35.6 476.6 C 31.3 481.7 24.5 469.8 20.7 476.5 C 25.8 475.6 27.4 482.6 32.2 483.7 C 36.8 485.6 32.3 491.3 28.1 489.3 C 29.5 492.7 30.0 496.3 29.0 500.0 L 0.0 500.0 L 0.0 440.4 C 2.9 439.4 5.9 437.9 4.4 434.4 Z" />
<path fill="#4c4c4e" stroke="#4c4c4e" stroke-width="0.09375" opacity="1.00" d=" M 195.7 452.9 C 197.6 450.7 199.7 448.4 202.8 447.8 C 198.8 455.5 208.8 460.4 215.1 459.1 C 215.7 463.9 212.0 462.2 209.2 461.1 C 204.8 465.4 213.7 464.7 213.3 468.9 C 215.6 472.8 221.4 469.3 225.1 470.9 C 225.1 467.8 222.3 468.3 220.2 468.7 C 217.2 466.7 220.1 463.6 222.9 464.0 C 228.2 466.4 234.1 467.7 239.7 468.3 C 242.9 465.6 245.4 470.8 248.8 469.8 C 255.6 468.8 262.0 465.5 268.8 465.1 C 270.9 467.7 269.0 470.4 268.0 473.0 C 269.9 476.0 273.2 480.5 277.6 478.4 C 282.7 477.5 286.7 482.3 291.8 481.4 C 301.5 484.5 312.1 481.5 321.2 486.7 C 328.5 485.3 335.6 488.1 342.8 488.7 C 352.3 487.9 362.0 489.1 371.3 490.6 C 375.0 494.9 381.0 495.7 384.4 500.0 L 332.6 500.0 C 331.0 498.1 328.1 497.6 327.0 495.4 C 331.1 495.7 330.4 491.4 327.1 490.8 C 320.1 489.2 313.8 484.9 306.4 486.6 C 301.6 488.0 297.9 483.0 293.0 484.1 C 279.9 483.5 268.1 477.8 256.3 472.7 C 252.9 470.2 250.9 476.9 247.4 474.6 C 241.5 469.4 232.1 470.1 226.0 474.7 C 222.1 472.8 217.5 472.7 213.5 474.6 C 207.8 478.7 211.6 464.7 204.3 466.6 C 208.0 456.4 191.2 460.7 192.3 467.8 C 183.4 472.6 197.1 481.6 203.1 478.1 C 207.3 477.4 201.5 481.3 200.9 483.0 C 202.5 485.3 204.7 487.1 206.8 488.8 C 210.7 485.1 205.5 477.9 212.1 477.0 C 216.9 477.0 220.1 483.5 218.3 487.8 C 220.7 490.9 224.0 489.5 226.9 488.1 C 232.5 490.7 237.1 497.2 243.9 495.2 C 246.2 496.5 247.9 498.7 250.3 500.0 L 238.5 500.0 C 234.6 496.9 230.1 494.4 225.2 494.2 C 218.9 497.5 212.0 493.6 205.5 493.6 C 203.1 489.3 199.1 488.5 194.3 490.0 C 196.4 485.8 190.1 485.1 191.5 481.4 C 194.7 474.2 177.2 470.3 182.0 479.1 C 177.2 478.7 173.4 475.0 168.4 475.6 C 166.2 472.4 164.2 469.1 162.0 465.9 C 165.9 468.8 169.6 467.0 169.4 462.0 C 174.4 463.7 178.7 468.2 184.4 467.7 C 185.5 463.4 189.7 462.0 193.0 459.9 C 189.1 457.1 188.3 453.5 190.3 449.1 C 195.3 447.1 191.4 454.8 195.7 452.9 Z" />
<path fill="#4e4e4f" stroke="#4e4e4f" stroke-width="0.09375" opacity="1.00" d=" M 125.4 454.3 C 132.6 454.4 141.5 452.4 145.4 460.2 C 144.2 464.8 154.1 462.8 151.2 467.2 C 149.6 469.6 151.3 476.3 146.7 474.4 C 142.4 473.7 142.1 479.8 144.9 482.0 C 139.4 486.2 133.5 480.9 127.4 481.7 C 125.9 476.4 123.0 481.5 120.2 481.9 C 118.0 478.3 113.1 475.7 113.0 471.2 C 120.1 470.9 124.5 461.4 123.1 455.2 C 123.6 455.0 124.8 454.5 125.4 454.3 Z" />
<path fill="#535355" stroke="#535355" stroke-width="0.09375" opacity="1.00" d=" M 192.3 467.8 C 191.2 460.7 208.0 456.4 204.3 466.6 C 211.6 464.7 207.8 478.7 213.5 474.6 C 217.5 472.7 222.1 472.8 226.0 474.7 C 232.1 470.1 241.5 469.4 247.4 474.6 C 250.9 476.9 252.9 470.2 256.3 472.7 C 268.1 477.8 279.9 483.5 293.0 484.1 C 297.9 483.0 301.6 488.0 306.4 486.6 C 313.8 484.9 320.1 489.2 327.1 490.8 C 330.4 491.4 331.1 495.7 327.0 495.4 C 328.1 497.6 331.0 498.1 332.6 500.0 L 250.3 500.0 C 247.9 498.7 246.2 496.5 243.9 495.2 C 237.1 497.2 232.5 490.7 226.9 488.1 C 224.0 489.5 220.7 490.9 218.3 487.8 C 220.1 483.5 216.9 477.0 212.1 477.0 C 205.5 477.9 210.7 485.1 206.8 488.8 C 204.7 487.1 202.5 485.3 200.9 483.0 C 201.5 481.3 207.3 477.4 203.1 478.1 C 197.1 481.6 183.4 472.6 192.3 467.8 Z" />
<path fill="#71716e" stroke="#71716e" stroke-width="0.09375" opacity="1.00" d=" M 354.2 460.3 C 354.2 462.2 358.9 462.8 358.0 466.1 C 355.2 466.3 351.2 462.4 354.2 460.3 Z" />
<path fill="#5b5b5d" stroke="#5b5b5d" stroke-width="0.09375" opacity="1.00" d=" M 238.3 474.3 C 242.9 473.4 246.8 478.6 251.9 476.7 C 263.9 473.9 274.1 485.8 285.2 484.7 C 288.4 490.2 297.8 486.3 300.1 492.0 C 296.6 490.2 294.4 491.7 292.4 494.4 C 290.7 496.5 283.1 493.3 288.1 492.7 C 283.0 490.8 277.5 485.3 272.1 488.2 C 271.0 491.8 278.1 490.2 277.0 494.0 C 267.2 493.5 257.1 495.6 247.1 493.8 C 244.6 492.1 242.2 489.8 239.0 491.0 C 238.2 487.8 244.2 489.6 242.9 486.2 C 238.3 483.6 231.5 482.8 228.1 479.1 C 232.4 478.7 234.7 475.9 238.3 474.3 Z" />
</svg>
