<?xml version="1.0" encoding="UTF-8" ?>
<!DOCTYPE svg PUBLIC "-//W3C//DTD SVG 1.1//EN" "http://www.w3.org/Graphics/SVG/1.1/DTD/svg11.dtd">
<svg width="500pt" height="500pt" viewBox="0 0 500 500" version="1.1" xmlns="http://www.w3.org/2000/svg">
<path fill="#111111" stroke="#111111" stroke-width="0.09375" opacity="1.00" d=" M 0.0 0.0 L 500.0 0.0 L 500.0 83.3 C 493.1 78.9 484.7 79.5 476.9 80.0 C 470.7 80.9 466.0 85.5 461.5 89.5 C 454.2 96.4 447.1 104.0 437.3 107.4 C 432.0 109.4 426.1 109.4 420.5 108.3 C 417.0 106.9 413.7 105.1 410.2 103.8 C 404.0 99.4 398.2 94.5 392.3 89.7 C 389.0 86.9 384.2 86.1 380.4 88.3 C 375.8 91.2 373.0 96.1 370.7 100.8 C 368.1 104.7 366.3 109.0 364.1 113.1 C 360.5 121.1 355.5 129.2 347.5 133.5 C 344.3 135.4 340.5 134.9 337.0 134.1 C 331.6 133.1 327.5 129.0 324.2 124.8 C 319.6 119.2 316.5 112.6 312.3 106.6 C 310.2 103.5 307.1 100.5 303.0 100.6 C 296.8 100.1 291.8 104.2 286.4 106.4 C 282.0 108.8 277.0 109.6 272.1 110.3 C 259.3 110.7 247.3 104.3 237.8 96.2 C 233.7 92.5 229.2 89.2 224.9 85.9 C 219.8 80.8 211.4 81.5 205.8 85.4 C 202.0 89.4 199.7 94.5 197.3 99.3 C 196.0 101.8 195.8 104.7 194.4 107.1 C 190.4 115.6 188.7 125.0 184.6 133.5 C 181.7 140.0 178.1 146.8 171.8 150.7 C 168.0 153.2 162.8 153.4 158.9 151.0 C 148.4 145.7 145.3 133.4 140.2 123.8 C 139.4 116.6 136.0 110.1 133.5 103.5 C 131.8 98.6 129.1 94.1 126.2 89.9 C 123.1 84.9 118.1 80.6 112.0 80.0 C 108.1 79.6 104.1 79.8 100.1 79.9 C 91.7 79.5 84.6 84.4 78.0 89.0 C 74.4 91.8 70.5 94.1 67.0 96.9 C 62.2 99.3 57.4 101.6 52.2 103.1 C 45.2 104.5 37.8 103.7 31.2 100.9 C 20.0 95.6 11.1 86.5 0.0 80.9 L 0.0 0.0 Z" />
<path fill="#d2ccb0" stroke="#d2ccb0" stroke-width="0.09375" opacity="1.00" d=" M 78.0 89.0 C 84.6 84.4 91.7 79.5 100.1 79.9 C 100.0 80.5 99.7 81.8 99.6 82.5 C 96.3 83.2 95.5 86.4 93.8 88.8 C 92.5 89.6 91.1 90.2 89.8 90.8 C 89.3 92.0 88.9 93.2 88.4 94.4 C 82.3 97.4 80.0 104.2 76.7 109.7 C 72.3 114.6 67.0 119.5 66.4 126.4 C 62.9 130.3 58.5 133.6 56.5 138.5 C 55.6 141.1 52.0 141.5 51.4 144.3 C 50.2 149.4 46.7 153.5 42.7 156.7 C 38.8 164.0 35.1 171.5 30.2 178.2 C 29.2 179.9 29.0 182.1 27.5 183.6 C 25.6 185.3 26.9 188.3 25.2 190.2 C 24.1 190.8 22.9 191.3 21.7 191.7 C 21.6 195.9 18.5 198.5 17.1 202.1 C 13.2 206.9 10.0 212.2 6.9 217.5 C 8.2 217.4 9.5 217.2 10.7 217.0 C 10.5 219.1 9.5 220.9 7.5 221.5 C 4.0 223.0 6.4 228.3 3.3 229.9 C 1.7 223.6 2.4 217.2 1.2 210.9 C 0.5 207.1 1.9 203.0 0.0 199.5 L 0.0 132.5 C 0.5 133.9 1.1 135.4 1.0 137.0 C 0.9 146.6 1.0 156.3 1.0 166.0 C 0.9 170.0 2.2 174.0 2.0 178.0 C 2.0 182.6 1.6 187.3 3.2 191.8 C 5.3 189.0 6.9 185.6 6.8 181.9 C 8.0 181.4 9.1 180.8 10.3 180.2 C 10.8 177.7 11.9 175.5 13.9 173.9 C 16.3 172.0 15.1 168.4 17.2 166.2 C 19.4 163.3 22.5 160.9 22.9 156.9 C 24.2 156.2 25.7 155.7 26.7 154.6 C 26.9 152.5 25.7 150.2 27.3 148.4 C 29.1 148.1 30.8 147.7 32.5 147.4 C 32.7 146.0 32.4 144.5 32.2 143.1 C 32.4 140.9 34.9 140.4 36.5 139.5 C 35.7 134.9 39.9 131.4 43.6 129.6 C 45.8 128.6 44.5 125.8 44.4 124.0 C 45.4 123.7 46.4 123.5 47.3 123.1 C 48.6 116.2 55.5 111.8 56.3 104.8 C 59.6 103.9 61.9 101.4 64.7 99.7 C 65.8 99.1 66.7 98.2 67.0 96.9 C 70.5 94.1 74.4 91.8 78.0 89.0 Z" />
<path fill="#d7d1b7" stroke="#d7d1b7" stroke-width="0.09375" opacity="1.00" d=" M 100.1 79.9 C 104.1 79.8 108.1 79.6 112.0 80.0 C 118.1 80.6 123.1 84.9 126.2 89.9 C 124.0 89.6 121.9 88.8 120.2 87.5 C 118.2 89.1 115.7 90.3 114.9 92.9 C 114.1 95.8 111.1 97.4 110.3 100.3 C 108.7 105.4 104.8 109.4 101.2 113.2 C 99.1 116.4 97.3 119.8 93.9 121.9 C 92.1 127.3 87.4 130.7 84.3 135.3 C 80.7 139.4 77.7 144.0 74.1 148.1 C 72.6 150.9 71.5 153.9 68.9 155.9 C 66.6 161.2 62.2 165.2 59.2 170.2 C 58.3 172.3 57.9 174.7 56.6 176.6 C 52.3 181.5 48.0 186.6 45.7 192.7 C 44.5 195.9 40.8 197.6 40.0 201.0 C 39.0 203.5 38.3 206.4 36.0 208.0 C 31.8 210.7 31.1 216.4 32.1 220.9 C 31.3 221.5 30.4 222.1 29.6 222.6 C 29.5 223.4 29.4 224.1 29.4 224.9 C 24.9 227.3 23.4 232.4 19.6 235.5 C 18.0 239.2 14.9 241.9 13.7 245.8 C 12.7 248.6 10.5 250.7 9.6 253.6 C 8.2 257.4 8.6 261.8 6.4 265.4 C 5.0 267.7 5.5 271.3 3.1 272.8 C 1.9 269.3 2.6 265.6 1.9 262.0 C 0.3 253.7 1.1 245.3 0.9 237.0 C 1.0 235.4 0.5 233.9 0.0 232.5 L 0.0 199.5 C 1.9 203.0 0.5 207.1 1.2 210.9 C 2.4 217.2 1.7 223.6 3.3 229.9 C 6.4 228.3 4.0 223.0 7.5 221.5 C 9.5 220.9 10.5 219.1 10.7 217.0 C 9.5 217.2 8.2 217.4 6.9 217.5 C 10.0 212.2 13.2 206.9 17.1 202.1 C 18.5 198.5 21.6 195.9 21.7 191.7 C 22.9 191.3 24.1 190.8 25.2 190.2 C 26.9 188.3 25.6 185.3 27.5 183.6 C 29.0 182.1 29.2 179.9 30.2 178.2 C 35.1 171.5 38.8 164.0 42.7 156.7 C 46.7 153.5 50.2 149.4 51.4 144.3 C 52.0 141.5 55.6 141.1 56.5 138.5 C 58.5 133.6 62.9 130.3 66.4 126.4 C 67.0 119.5 72.3 114.6 76.7 109.7 C 80.0 104.2 82.3 97.4 88.4 94.4 C 88.9 93.2 89.3 92.0 89.8 90.8 C 91.1 90.2 92.5 89.6 93.8 88.8 C 95.5 86.4 96.3 83.2 99.6 82.5 C 99.7 81.8 100.0 80.5 100.1 79.9 Z" />
<path fill="#f7f5e8" stroke="#f7f5e8" stroke-width="0.09375" opacity="1.00" d=" M 461.5 89.5 C 466.0 85.5 470.7 80.9 476.9 80.0 C 484.7 79.5 493.1 78.9 500.0 83.3 L 500.0 174.8 C 496.4 178.1 492.7 181.3 489.3 184.8 C 485.0 183.1 480.4 184.3 476.0 184.0 C 466.7 183.3 457.4 184.8 448.1 183.5 C 445.4 185.8 443.0 188.4 440.7 191.2 C 438.0 187.2 434.6 183.2 429.7 182.2 C 421.3 179.8 412.9 184.4 406.9 189.9 C 399.9 196.8 393.8 204.7 387.1 211.9 C 387.9 206.9 390.0 202.1 391.3 197.2 C 394.2 186.5 397.3 175.8 398.9 164.8 C 402.4 146.4 402.6 126.0 392.8 109.5 C 394.9 107.5 397.0 105.5 399.1 103.5 C 402.8 104.2 406.5 104.2 410.2 103.8 C 413.7 105.1 417.0 106.9 420.5 108.3 C 426.1 109.4 432.0 109.4 437.3 107.4 C 447.1 104.0 454.2 96.4 461.5 89.5 Z" />
<path fill="#c6be9f" stroke="#c6be9f" stroke-width="0.09375" opacity="1.00" d=" M 0.0 80.9 C 11.1 86.5 20.0 95.6 31.2 100.9 C 29.3 101.7 27.2 101.6 25.2 101.7 C 23.3 102.1 22.7 104.2 22.3 105.8 C 21.9 107.7 20.5 109.0 19.3 110.3 C 15.8 113.9 13.7 118.6 10.1 122.1 C 8.2 123.8 8.1 126.4 8.5 128.8 C 7.4 128.7 6.4 128.4 5.3 128.3 C 4.7 130.5 4.2 132.6 3.8 134.8 C 0.5 129.0 2.8 121.8 1.5 115.4 C -0.1 106.5 2.3 97.2 0.0 88.5 L 0.0 80.9 Z" />
<path fill="#e6e0cd" stroke="#e6e0cd" stroke-width="0.09375" opacity="1.00" d=" M 205.8 85.4 C 211.4 81.5 219.8 80.8 224.9 85.9 C 218.6 84.7 212.1 86.4 205.8 85.4 Z" />
<path fill="#332816" stroke="#332816" stroke-width="0.09375" opacity="1.00" d=" M 197.3 99.3 C 199.7 94.5 202.0 89.4 205.8 85.4 C 212.1 86.4 218.6 84.7 224.9 85.9 C 229.2 89.2 233.7 92.5 237.8 96.2 C 247.3 104.3 259.3 110.7 272.1 110.3 C 280.5 121.3 285.4 134.6 288.1 148.1 C 293.1 171.5 290.4 196.7 279.2 218.1 C 271.8 234.3 258.6 248.3 241.9 255.0 C 236.6 257.5 230.9 258.6 225.2 260.0 C 221.0 259.7 216.8 260.1 212.6 259.3 C 205.2 257.6 197.5 254.5 192.8 248.2 C 188.8 242.6 185.8 236.0 186.3 229.0 C 186.0 223.7 188.1 218.8 189.5 213.9 C 194.6 217.3 199.6 221.5 206.0 221.4 C 218.1 221.5 227.8 212.1 232.8 201.7 C 243.3 180.1 244.4 153.9 235.2 131.5 C 231.0 120.8 223.1 110.8 211.9 107.1 C 206.2 105.1 200.1 105.6 194.4 107.1 C 195.8 104.7 196.0 101.8 197.3 99.3 Z" />
<path fill="#ddd7c0" stroke="#ddd7c0" stroke-width="0.09375" opacity="1.00" d=" M 120.2 87.5 C 121.9 88.8 124.0 89.6 126.2 89.9 C 129.1 94.1 131.8 98.6 133.5 103.5 C 136.0 110.1 139.4 116.6 140.2 123.8 C 130.3 132.9 123.0 144.3 115.2 155.1 C 113.8 155.3 111.8 154.5 110.9 155.8 C 109.0 159.3 106.6 162.6 105.5 166.4 C 104.2 170.8 99.5 172.8 98.0 177.0 C 97.1 179.9 93.8 181.0 92.9 183.9 C 92.3 185.5 91.5 187.0 90.0 188.0 C 87.7 189.6 87.2 192.6 85.9 194.9 C 84.6 197.5 81.9 199.0 80.6 201.6 C 79.8 203.8 80.3 206.3 79.6 208.6 C 77.6 211.2 74.7 213.7 74.3 217.2 C 73.9 218.9 74.1 220.7 73.3 222.2 C 71.7 223.0 69.9 223.5 68.4 224.4 C 67.0 226.1 67.3 228.5 66.4 230.4 C 64.6 232.3 62.2 233.6 61.0 236.0 C 59.7 238.1 59.4 240.8 57.7 242.6 C 54.2 245.5 53.4 250.2 50.3 253.3 C 47.3 256.2 47.9 260.7 46.2 264.3 C 44.9 267.0 45.0 270.0 44.9 273.0 C 45.2 274.9 43.0 275.7 42.3 277.3 C 41.3 279.8 40.8 282.7 38.6 284.6 C 36.6 286.0 37.2 288.5 36.5 290.5 C 34.0 294.5 31.5 298.5 29.9 303.0 C 27.5 305.8 26.7 309.5 24.6 312.5 C 21.7 318.5 20.4 325.1 16.5 330.6 C 14.0 337.3 11.8 344.2 8.7 350.7 C 5.9 354.9 5.1 359.9 3.0 364.4 C 1.8 363.3 2.1 361.5 2.0 360.0 C 2.2 353.8 1.9 347.4 0.0 341.5 L 0.0 232.5 C 0.5 233.9 1.0 235.4 0.9 237.0 C 1.1 245.3 0.3 253.7 1.9 262.0 C 2.6 265.6 1.9 269.3 3.1 272.8 C 5.5 271.3 5.0 267.7 6.4 265.4 C 8.6 261.8 8.2 257.4 9.6 253.6 C 10.5 250.7 12.7 248.6 13.7 245.8 C 14.9 241.9 18.0 239.2 19.6 235.5 C 23.4 232.4 24.9 227.3 29.4 224.9 C 29.4 224.1 29.5 223.4 29.6 222.6 C 30.4 222.1 31.3 221.5 32.1 220.9 C 31.1 216.4 31.8 210.7 36.0 208.0 C 38.3 206.4 39.0 203.5 40.0 201.0 C 40.8 197.6 44.5 195.9 45.7 192.7 C 48.0 186.6 52.3 181.5 56.6 176.6 C 57.9 174.7 58.3 172.3 59.2 170.2 C 62.2 165.2 66.6 161.2 68.9 155.9 C 71.5 153.9 72.6 150.9 74.1 148.1 C 77.7 144.0 80.7 139.4 84.3 135.3 C 87.4 130.7 92.1 127.3 93.9 121.9 C 97.3 119.8 99.1 116.4 101.2 113.2 C 104.8 109.4 108.7 105.4 110.3 100.3 C 111.1 97.4 114.1 95.8 114.9 92.9 C 115.7 90.3 118.2 89.1 120.2 87.5 Z" />
<path fill="#f2efe0" stroke="#f2efe0" stroke-width="0.09375" opacity="1.00" d=" M 380.4 88.3 C 384.2 86.1 389.0 86.9 392.3 89.7 C 398.2 94.5 404.0 99.4 410.2 103.8 C 406.5 104.2 402.8 104.2 399.1 103.5 C 397.0 105.5 394.9 107.5 392.8 109.5 C 389.5 106.0 386.1 99.9 380.4 101.5 C 374.6 104.7 369.9 109.8 364.1 113.1 C 366.3 109.0 368.1 104.7 370.7 100.8 C 373.0 96.1 375.8 91.2 380.4 88.3 Z" />
<path fill="#cdc6a9" stroke="#cdc6a9" stroke-width="0.09375" opacity="1.00" d=" M 0.0 88.5 C 2.3 97.2 -0.1 106.5 1.5 115.4 C 2.8 121.8 0.5 129.0 3.8 134.8 C 4.2 132.6 4.7 130.5 5.3 128.3 C 6.4 128.4 7.4 128.7 8.5 128.8 C 8.1 126.4 8.2 123.8 10.1 122.1 C 13.7 118.6 15.8 113.9 19.3 110.3 C 20.5 109.0 21.9 107.7 22.3 105.8 C 22.7 104.2 23.3 102.1 25.2 101.7 C 27.2 101.6 29.3 101.7 31.2 100.9 C 37.8 103.7 45.2 104.5 52.2 103.1 C 57.4 101.6 62.2 99.3 67.0 96.9 C 66.7 98.2 65.8 99.1 64.7 99.7 C 61.9 101.4 59.6 103.9 56.3 104.8 C 55.5 111.8 48.6 116.2 47.3 123.1 C 46.4 123.5 45.4 123.7 44.4 124.0 C 44.5 125.8 45.8 128.6 43.6 129.6 C 39.9 131.4 35.7 134.9 36.5 139.5 C 34.9 140.4 32.4 140.9 32.2 143.1 C 32.4 144.5 32.7 146.0 32.5 147.4 C 30.8 147.7 29.1 148.1 27.3 148.4 C 25.7 150.2 26.9 152.5 26.7 154.6 C 25.7 155.7 24.2 156.2 22.9 156.9 C 22.5 160.9 19.4 163.3 17.2 166.2 C 15.1 168.4 16.3 172.0 13.9 173.9 C 11.9 175.5 10.8 177.7 10.3 180.2 C 9.1 180.8 8.0 181.4 6.8 181.9 C 6.9 185.6 5.3 189.0 3.2 191.8 C 1.6 187.3 2.0 182.6 2.0 178.0 C 2.2 174.0 0.9 170.0 1.0 166.0 C 1.0 156.3 0.9 146.6 1.0 137.0 C 1.1 135.4 0.5 133.9 0.0 132.5 L 0.0 88.5 Z" />
<path fill="#f1eedd" stroke="#f1eedd" stroke-width="0.09375" opacity="1.00" d=" M 286.4 106.4 C 291.8 104.2 296.8 100.1 303.0 100.6 C 307.1 100.5 310.2 103.5 312.3 106.6 C 316.5 112.6 319.6 119.2 324.2 124.8 C 327.5 129.0 331.6 133.1 337.0 134.1 C 338.6 135.1 337.4 136.4 336.4 137.1 C 332.6 137.6 331.4 142.0 328.1 143.6 C 329.4 143.5 330.7 143.5 331.9 144.0 C 330.4 147.4 327.1 149.1 323.6 149.6 C 320.2 154.1 314.5 155.7 310.7 159.7 C 309.1 161.5 306.5 160.9 304.3 161.3 C 302.0 164.0 300.1 167.4 296.9 169.0 C 296.3 168.9 295.2 168.6 294.7 168.5 C 293.8 161.2 292.5 153.9 290.2 146.9 C 289.7 147.2 288.6 147.8 288.1 148.1 C 285.4 134.6 280.5 121.3 272.1 110.3 C 277.0 109.6 282.0 108.8 286.4 106.4 Z" />
<path fill="#342916" stroke="#342916" stroke-width="0.09375" opacity="1.00" d=" M 380.4 101.5 C 386.1 99.9 389.5 106.0 392.8 109.5 C 402.6 126.0 402.4 146.4 398.9 164.8 C 397.3 175.8 394.2 186.5 391.3 197.2 C 390.0 202.1 387.9 206.9 387.1 211.9 C 393.8 204.7 399.9 196.8 406.9 189.9 C 412.9 184.4 421.3 179.8 429.7 182.2 C 434.6 183.2 438.0 187.2 440.7 191.2 C 444.5 198.7 445.7 207.1 446.5 215.5 C 447.5 235.2 445.6 255.1 447.5 274.8 C 447.6 279.3 450.4 284.1 455.1 285.1 C 458.9 285.6 461.6 282.3 463.8 279.8 C 468.1 274.4 471.5 268.3 474.2 261.9 C 474.2 258.3 471.6 255.2 471.2 251.6 C 469.3 244.9 469.6 237.9 469.6 231.0 C 470.4 213.9 477.7 197.4 489.3 184.8 C 492.7 181.3 496.4 178.1 500.0 174.8 L 500.0 279.3 C 495.0 278.7 490.2 276.8 486.0 274.1 C 484.9 273.5 483.6 272.2 482.5 273.4 C 475.9 287.0 467.7 300.2 456.3 310.3 C 450.4 315.4 443.0 319.6 435.0 319.3 C 426.4 319.5 418.6 313.8 414.5 306.6 C 408.1 294.4 408.0 280.3 407.7 267.0 C 407.5 253.7 409.3 240.5 408.6 227.2 C 408.2 224.0 407.5 220.3 404.6 218.4 C 402.2 218.0 399.7 218.3 397.7 219.7 C 392.8 223.0 389.1 227.9 385.8 232.8 C 379.6 241.8 374.2 251.6 370.7 262.0 C 370.7 272.1 374.2 281.9 376.4 291.8 C 377.4 296.7 379.0 301.5 380.5 306.2 C 382.2 314.0 386.0 321.1 387.4 329.0 C 378.7 335.2 369.4 340.6 360.4 346.5 C 359.3 347.0 358.0 348.4 356.9 347.2 C 355.1 343.0 353.8 338.6 351.0 334.9 C 343.8 347.3 335.7 359.4 325.9 369.9 C 309.2 388.3 288.3 402.8 265.4 412.4 C 258.7 415.6 251.4 417.3 244.5 420.0 C 235.7 421.9 227.0 424.6 218.0 425.0 C 211.3 426.0 204.5 425.4 197.8 425.8 C 197.5 450.5 197.6 475.3 197.8 500.0 L 150.9 500.0 C 150.9 471.7 150.9 443.3 150.9 415.0 C 150.9 413.8 150.8 412.6 150.6 411.4 L 149.8 411.0 C 148.6 410.3 147.3 409.7 145.9 409.1 C 145.3 423.7 145.9 438.4 145.7 453.0 C 145.7 455.5 144.0 457.6 142.4 459.4 C 137.8 464.5 128.4 464.2 124.4 458.6 C 122.3 456.3 121.6 453.1 121.7 450.0 C 121.6 430.1 121.8 410.1 121.6 390.2 C 120.0 386.5 116.3 383.9 114.0 380.6 C 108.6 372.9 103.9 364.9 99.4 356.7 C 98.3 352.4 96.2 348.5 94.9 344.3 C 89.0 328.1 85.7 311.1 83.5 294.0 C 83.0 283.0 82.4 271.9 83.0 260.9 C 85.1 223.7 96.0 187.0 115.2 155.1 C 123.0 144.3 130.3 132.9 140.2 123.8 C 145.3 133.4 148.4 145.7 158.9 151.0 C 158.5 151.1 157.8 151.4 157.5 151.5 C 149.2 171.9 145.0 193.9 143.7 215.8 C 142.4 228.2 142.3 240.6 143.2 253.0 C 143.5 256.8 143.1 260.6 144.5 264.2 C 144.8 268.4 145.1 272.6 146.1 276.7 C 147.8 284.1 149.2 291.6 151.3 298.8 C 154.6 308.1 157.7 317.5 162.7 326.0 C 166.4 332.8 170.4 339.5 175.8 345.2 C 183.5 355.2 193.7 363.0 204.6 369.4 C 222.3 379.5 243.8 383.5 263.9 378.9 C 277.9 376.6 291.1 370.7 302.8 362.8 C 320.3 350.7 332.1 332.1 341.3 313.3 C 343.1 310.8 341.2 308.1 340.6 305.6 C 335.6 290.0 331.9 274.0 329.5 257.8 C 328.2 248.7 327.8 239.4 327.1 230.3 C 327.3 214.6 327.2 198.9 329.3 183.3 C 330.3 174.7 331.4 166.0 332.7 157.4 C 334.3 150.7 335.5 144.0 336.4 137.1 C 337.4 136.4 338.6 135.1 337.0 134.1 C 340.5 134.9 344.3 135.4 347.5 133.5 C 355.5 129.2 360.5 121.1 364.1 113.1 C 369.9 109.8 374.6 104.7 380.4 101.5 Z" />
<path fill="#eae4d2" stroke="#eae4d2" stroke-width="0.09375" opacity="1.00" d=" M 194.4 107.1 C 200.1 105.6 206.2 105.1 211.9 107.1 C 223.1 110.8 231.0 120.8 235.2 131.5 C 234.7 131.5 233.7 131.5 233.1 131.5 C 214.6 149.8 196.2 168.3 177.7 186.8 C 173.0 191.7 167.6 196.1 164.1 202.1 C 162.2 205.4 159.7 208.4 157.5 211.6 C 155.7 214.4 152.2 215.6 150.6 218.6 C 150.0 221.0 150.0 223.6 148.9 225.8 C 147.7 227.9 148.5 230.6 146.9 232.4 C 146.8 232.0 146.4 231.3 146.3 230.9 C 146.6 226.4 146.0 221.9 145.8 217.4 C 145.2 217.0 144.2 216.2 143.7 215.8 C 145.0 193.9 149.2 171.9 157.5 151.5 C 157.8 151.4 158.5 151.1 158.9 151.0 C 162.8 153.4 168.0 153.2 171.8 150.7 C 178.1 146.8 181.7 140.0 184.6 133.5 C 188.7 125.0 190.4 115.6 194.4 107.1 Z" />
<path fill="#f7f5e8" stroke="#f7f5e8" stroke-width="0.09375" opacity="1.00" d=" M 373.6 127.5 C 375.2 124.6 377.9 121.2 381.6 122.4 C 386.8 126.4 387.1 133.3 388.5 139.2 C 388.7 146.5 389.1 154.0 387.5 161.2 C 386.4 173.6 382.6 185.6 379.4 197.6 C 375.9 210.2 371.1 222.3 366.6 234.6 C 366.3 234.6 365.6 234.8 365.3 234.8 C 365.4 232.0 365.3 229.2 364.7 226.5 C 363.3 203.9 362.7 181.1 365.8 158.7 C 367.9 148.2 368.8 137.3 373.6 127.5 Z" />
<path fill="#efead8" stroke="#efead8" stroke-width="0.09375" opacity="1.00" d=" M 233.1 131.5 C 233.7 131.5 234.7 131.5 235.2 131.5 C 244.4 153.9 243.3 180.1 232.8 201.7 C 227.8 212.1 218.1 221.5 206.0 221.4 C 199.6 221.5 194.6 217.3 189.5 213.9 C 189.2 213.7 188.4 213.4 188.0 213.2 C 186.5 215.1 186.5 217.6 185.8 219.8 C 183.3 226.2 183.5 233.5 185.5 240.0 C 185.2 242.8 184.9 245.6 185.5 248.4 C 186.0 249.8 184.4 250.7 183.7 251.7 C 181.6 253.5 181.3 256.5 179.6 258.6 C 178.3 259.9 175.4 260.1 175.5 262.4 C 175.6 265.3 173.1 267.2 171.7 269.5 C 171.1 273.6 167.1 275.8 165.2 279.1 C 163.4 282.3 161.9 285.7 159.1 288.1 C 156.8 289.9 157.7 294.3 154.2 294.8 C 152.7 290.8 151.4 286.7 150.5 282.6 C 150.3 280.7 147.9 280.0 148.1 277.9 C 147.8 273.3 146.7 268.8 146.4 264.2 C 146.2 263.1 146.2 261.8 145.3 261.0 C 145.1 261.8 144.7 263.4 144.5 264.2 C 143.1 260.6 143.5 256.8 143.2 253.0 C 142.3 240.6 142.4 228.2 143.7 215.8 C 144.2 216.2 145.2 217.0 145.8 217.4 C 146.0 221.9 146.6 226.4 146.3 230.9 C 146.4 231.3 146.8 232.0 146.9 232.4 C 148.5 230.6 147.7 227.9 148.9 225.8 C 150.0 223.6 150.0 221.0 150.6 218.6 C 152.2 215.6 155.7 214.4 157.5 211.6 C 159.7 208.4 162.2 205.4 164.1 202.1 C 167.6 196.1 173.0 191.7 177.7 186.8 C 196.2 168.3 214.6 149.8 233.1 131.5 Z" />
<path fill="#f7f4e6" stroke="#f7f4e6" stroke-width="0.09375" opacity="1.00" d=" M 328.1 143.6 C 331.4 142.0 332.6 137.6 336.4 137.1 C 335.5 144.0 334.3 150.7 332.7 157.4 C 331.4 166.0 330.3 174.7 329.3 183.3 C 327.2 198.9 327.3 214.6 327.1 230.3 C 322.9 226.9 324.8 220.9 323.9 216.2 L 323.1 216.3 C 322.8 219.1 323.7 222.4 321.7 224.8 C 320.1 227.1 319.2 230.2 316.4 231.4 C 310.4 234.4 304.6 238.1 300.6 243.6 C 295.0 245.2 292.0 250.2 287.4 253.4 C 285.6 254.8 285.2 257.2 284.2 259.2 C 282.4 260.0 280.7 260.9 279.5 262.5 C 277.9 264.7 275.0 265.3 273.6 267.5 C 270.5 272.1 265.0 274.5 262.5 279.5 C 260.6 281.2 258.7 282.9 258.6 285.6 C 256.9 285.9 255.2 286.3 253.5 286.6 C 253.4 288.0 253.5 289.4 253.7 290.7 C 247.8 293.1 246.4 300.4 240.5 302.6 C 239.6 304.9 239.5 307.8 237.5 309.5 C 236.0 310.8 234.1 311.6 232.4 312.5 C 232.4 316.8 230.3 320.4 227.7 323.7 C 224.4 325.9 220.6 328.3 219.4 332.4 C 218.4 335.2 216.1 337.2 214.8 339.8 C 211.9 341.7 211.0 345.3 208.9 347.9 C 207.7 349.7 206.1 351.1 204.6 352.6 C 203.8 355.3 203.3 358.0 201.5 360.3 C 202.0 361.5 202.5 362.6 203.0 363.8 C 196.4 360.8 189.9 357.4 185.1 351.9 C 181.8 349.9 179.8 345.8 175.8 345.2 C 170.4 339.5 166.4 332.8 162.7 326.0 C 163.1 325.8 163.8 325.2 164.1 325.0 C 167.3 328.9 168.6 334.4 173.0 337.2 C 175.7 335.7 176.2 330.2 179.7 331.3 C 180.8 333.6 177.8 334.9 176.8 336.7 C 181.1 336.8 182.9 332.8 184.8 329.7 C 185.0 328.7 185.1 327.7 185.0 326.6 C 184.5 326.6 183.5 326.4 183.0 326.4 C 183.0 321.4 184.9 316.6 188.1 312.9 C 187.5 311.5 186.8 310.2 186.2 308.9 C 186.3 307.1 188.1 306.0 188.3 304.2 C 188.4 302.6 188.2 300.9 188.2 299.2 C 189.0 297.0 190.6 295.3 192.1 293.6 C 194.8 293.7 199.8 292.8 198.8 289.2 C 197.5 289.2 196.2 289.4 194.9 289.5 C 195.1 289.0 195.5 288.1 195.6 287.6 C 198.5 287.2 201.4 286.6 203.2 284.1 C 205.0 284.0 206.8 284.0 208.6 283.9 C 208.3 281.5 207.8 279.0 207.4 276.6 C 207.0 275.5 207.7 274.4 208.8 274.1 C 209.5 275.4 210.2 276.8 211.0 278.1 C 211.4 278.2 212.2 278.5 212.7 278.7 C 213.0 276.7 213.8 274.8 215.6 273.7 C 213.3 270.0 212.4 265.5 213.2 261.2 C 217.2 260.5 221.6 262.0 225.2 260.0 C 230.9 258.6 236.6 257.5 241.9 255.0 C 258.6 248.3 271.8 234.3 279.2 218.1 C 290.4 196.7 293.1 171.5 288.1 148.1 C 288.6 147.8 289.7 147.2 290.2 146.9 C 292.5 153.9 293.8 161.2 294.7 168.5 C 295.2 168.6 296.3 168.9 296.9 169.0 C 300.1 167.4 302.0 164.0 304.3 161.3 C 306.5 160.9 309.1 161.5 310.7 159.7 C 314.5 155.7 320.2 154.1 323.6 149.6 C 327.1 149.1 330.4 147.4 331.9 144.0 C 330.7 143.5 329.4 143.5 328.1 143.6 Z" />
<path fill="#e5dec8" stroke="#e5dec8" stroke-width="0.09375" opacity="1.00" d=" M 110.9 155.8 C 111.8 154.5 113.8 155.3 115.2 155.1 C 96.0 187.0 85.1 223.7 83.0 260.9 C 79.1 264.1 80.4 269.5 78.9 273.8 C 77.9 276.7 76.7 279.4 76.4 282.5 C 76.0 282.8 75.0 283.3 74.6 283.6 C 73.1 288.0 70.6 292.1 67.5 295.5 C 66.7 297.5 66.5 299.7 66.1 301.9 C 67.1 302.9 68.0 303.8 68.9 304.9 C 66.6 305.2 63.8 304.5 61.8 305.8 C 60.2 308.7 58.8 311.7 57.9 314.9 C 59.2 315.8 60.5 316.5 61.9 317.2 C 60.7 320.3 57.0 321.4 54.2 322.8 C 54.2 325.1 53.8 327.4 52.1 329.2 C 50.1 331.2 52.4 334.0 51.4 336.4 C 50.4 339.9 49.4 343.6 50.8 347.1 C 49.9 347.8 48.8 348.3 47.8 348.8 C 46.7 352.7 44.6 356.1 42.4 359.4 C 41.2 360.9 41.4 362.9 41.6 364.6 C 39.5 366.8 38.2 369.5 37.5 372.5 C 36.4 373.1 35.1 373.4 34.3 374.4 C 34.1 376.1 34.7 377.9 35.0 379.6 C 34.0 379.2 32.9 378.8 31.9 378.4 C 32.3 380.1 33.5 381.5 34.1 383.1 C 34.2 385.0 32.4 386.3 32.1 388.1 C 31.5 391.9 30.4 395.8 31.5 399.6 C 32.0 401.3 31.5 402.9 30.7 404.3 C 32.7 408.5 28.3 412.1 26.9 415.8 C 24.7 421.7 23.8 428.4 19.2 433.1 C 20.5 436.8 17.8 440.2 18.0 444.0 C 17.8 446.7 19.2 450.9 15.4 451.5 C 15.1 454.1 14.6 456.5 14.4 459.1 C 14.8 460.4 15.9 461.5 16.7 462.7 C 13.6 464.5 12.8 468.1 11.7 471.3 C 11.8 472.2 12.2 473.0 12.5 473.8 C 11.7 474.5 10.8 475.2 10.2 476.2 C 9.7 482.1 10.3 488.1 10.0 494.0 C 9.9 496.3 8.2 498.2 6.9 500.0 L 0.0 500.0 L 0.0 341.5 C 1.9 347.4 2.2 353.8 2.0 360.0 C 2.1 361.5 1.8 363.3 3.0 364.4 C 5.1 359.9 5.9 354.9 8.7 350.7 C 11.8 344.2 14.0 337.3 16.5 330.6 C 20.4 325.1 21.7 318.5 24.6 312.5 C 26.7 309.5 27.5 305.8 29.9 303.0 C 31.5 298.5 34.0 294.5 36.5 290.5 C 37.2 288.5 36.6 286.0 38.6 284.6 C 40.8 282.7 41.3 279.8 42.3 277.3 C 43.0 275.7 45.2 274.9 44.9 273.0 C 45.0 270.0 44.9 267.0 46.2 264.3 C 47.9 260.7 47.3 256.2 50.3 253.3 C 53.4 250.2 54.2 245.5 57.7 242.6 C 59.4 240.8 59.7 238.1 61.0 236.0 C 62.2 233.6 64.6 232.3 66.4 230.4 C 67.3 228.5 67.0 226.1 68.4 224.4 C 69.9 223.5 71.7 223.0 73.3 222.2 C 74.1 220.7 73.9 218.9 74.3 217.2 C 74.7 213.7 77.6 211.2 79.6 208.6 C 80.3 206.3 79.8 203.8 80.6 201.6 C 81.9 199.0 84.6 197.5 85.9 194.9 C 87.2 192.6 87.7 189.6 90.0 188.0 C 91.5 187.0 92.3 185.5 92.9 183.9 C 93.8 181.0 97.1 179.9 98.0 177.0 C 99.5 172.8 104.2 170.8 105.5 166.4 C 106.6 162.6 109.0 159.3 110.9 155.8 Z" />
<path fill="#fbf9ed" stroke="#fbf9ed" stroke-width="0.09375" opacity="1.00" d=" M 448.1 183.5 C 457.4 184.8 466.7 183.3 476.0 184.0 C 480.4 184.3 485.0 183.1 489.3 184.8 C 477.7 197.4 470.4 213.9 469.6 231.0 C 469.6 237.9 469.3 244.9 471.2 251.6 C 471.6 255.2 474.2 258.3 474.2 261.9 C 471.5 268.3 468.1 274.4 463.8 279.8 C 461.6 282.3 458.9 285.6 455.1 285.1 C 450.4 284.1 447.6 279.3 447.5 274.8 C 445.6 255.1 447.5 235.2 446.5 215.5 C 445.7 207.1 444.5 198.7 440.7 191.2 C 443.0 188.4 445.4 185.8 448.1 183.5 Z" />
<path fill="#f4f0df" stroke="#f4f0df" stroke-width="0.09375" opacity="1.00" d=" M 188.0 213.2 C 188.4 213.4 189.2 213.7 189.5 213.9 C 188.1 218.8 186.0 223.7 186.3 229.0 C 185.8 236.0 188.8 242.6 192.8 248.2 C 197.5 254.5 205.2 257.6 212.6 259.3 C 216.8 260.1 221.0 259.7 225.2 260.0 C 221.6 262.0 217.2 260.5 213.2 261.2 C 212.4 265.5 213.3 270.0 215.6 273.7 C 213.8 274.8 213.0 276.7 212.7 278.7 C 212.2 278.5 211.4 278.2 211.0 278.1 C 210.2 276.8 209.5 275.4 208.8 274.1 C 207.7 274.4 207.0 275.5 207.4 276.6 C 207.8 279.0 208.3 281.5 208.6 283.9 C 206.8 284.0 205.0 284.0 203.2 284.1 C 201.4 286.6 198.5 287.2 195.6 287.6 C 195.5 288.1 195.1 289.0 194.9 289.5 C 196.2 289.4 197.5 289.2 198.8 289.2 C 199.8 292.8 194.8 293.7 192.1 293.6 C 190.6 295.3 189.0 297.0 188.2 299.2 C 188.2 300.9 188.4 302.6 188.3 304.2 C 188.1 306.0 186.3 307.1 186.2 308.9 C 186.8 310.2 187.5 311.5 188.1 312.9 C 184.9 316.6 183.0 321.4 183.0 326.4 C 183.5 326.4 184.5 326.6 185.0 326.6 C 185.1 327.7 185.0 328.7 184.8 329.7 C 182.9 332.8 181.1 336.8 176.8 336.7 C 177.8 334.9 180.8 333.6 179.7 331.3 C 176.2 330.2 175.7 335.7 173.0 337.2 C 168.6 334.4 167.3 328.9 164.1 325.0 C 163.8 325.2 163.1 325.8 162.7 326.0 C 157.7 317.5 154.6 308.1 151.3 298.8 C 149.2 291.6 147.8 284.1 146.1 276.7 C 145.1 272.6 144.8 268.4 144.5 264.2 C 144.7 263.4 145.1 261.8 145.3 261.0 C 146.2 261.8 146.2 263.1 146.4 264.2 C 146.7 268.8 147.8 273.3 148.1 277.9 C 147.9 280.0 150.3 280.7 150.5 282.6 C 151.4 286.7 152.7 290.8 154.2 294.8 C 157.7 294.3 156.8 289.9 159.1 288.1 C 161.9 285.7 163.4 282.3 165.2 279.1 C 167.1 275.8 171.1 273.6 171.7 269.5 C 173.1 267.2 175.6 265.3 175.5 262.4 C 175.4 260.1 178.3 259.9 179.6 258.6 C 181.3 256.5 181.6 253.5 183.7 251.7 C 184.4 250.7 186.0 249.8 185.5 248.4 C 184.9 245.6 185.2 242.8 185.5 240.0 C 183.5 233.5 183.3 226.2 185.8 219.8 C 186.5 217.6 186.5 215.1 188.0 213.2 Z" />
<path fill="#faf6ea" stroke="#faf6ea" stroke-width="0.09375" opacity="1.00" d=" M 323.1 216.3 L 323.9 216.2 C 324.8 220.9 322.9 226.9 327.1 230.3 C 327.8 239.4 328.2 248.7 329.5 257.8 C 331.9 274.0 335.6 290.0 340.6 305.6 C 341.2 308.1 343.1 310.8 341.3 313.3 C 332.1 332.1 320.3 350.7 302.8 362.8 C 291.1 370.7 277.9 376.6 263.9 378.9 C 243.8 383.5 222.3 379.5 204.6 369.4 C 193.7 363.0 183.5 355.2 175.8 345.2 C 179.8 345.8 181.8 349.9 185.1 351.9 C 189.9 357.4 196.4 360.8 203.0 363.8 C 202.5 362.6 202.0 361.5 201.5 360.3 C 203.3 358.0 203.8 355.3 204.6 352.6 C 206.1 351.1 207.7 349.7 208.9 347.9 C 211.0 345.3 211.9 341.7 214.8 339.8 C 216.1 337.2 218.4 335.2 219.4 332.4 C 220.6 328.3 224.4 325.9 227.7 323.7 C 230.3 320.4 232.4 316.8 232.4 312.5 C 234.1 311.6 236.0 310.8 237.5 309.5 C 239.5 307.8 239.6 304.9 240.5 302.6 C 246.4 300.4 247.8 293.1 253.7 290.7 C 253.5 289.4 253.4 288.0 253.5 286.6 C 255.2 286.3 256.9 285.9 258.6 285.6 C 258.7 282.9 260.6 281.2 262.5 279.5 C 265.0 274.5 270.5 272.1 273.6 267.5 C 275.0 265.3 277.9 264.7 279.5 262.5 C 280.7 260.9 282.4 260.0 284.2 259.2 C 285.2 257.2 285.6 254.8 287.4 253.4 C 292.0 250.2 295.0 245.2 300.6 243.6 C 304.6 238.1 310.4 234.4 316.4 231.4 C 319.2 230.2 320.1 227.1 321.7 224.8 C 323.7 222.4 322.8 219.1 323.1 216.3 Z" />
<path fill="#fefcf0" stroke="#fefcf0" stroke-width="0.09375" opacity="1.00" d=" M 397.7 219.7 C 399.7 218.3 402.2 218.0 404.6 218.4 C 407.5 220.3 408.2 224.0 408.6 227.2 C 409.3 240.5 407.5 253.7 407.7 267.0 C 408.0 280.3 408.1 294.4 414.5 306.6 C 418.6 313.8 426.4 319.5 435.0 319.3 C 443.0 319.6 450.4 315.4 456.3 310.3 C 467.7 300.2 475.9 287.0 482.5 273.4 C 483.6 272.2 484.9 273.5 486.0 274.1 C 490.2 276.8 495.0 278.7 500.0 279.3 L 500.0 361.6 C 498.4 362.6 496.7 363.5 495.1 364.6 C 488.0 369.5 481.0 374.5 474.1 379.7 C 458.4 391.3 443.4 403.9 429.0 417.0 C 415.9 429.0 402.4 440.6 388.8 452.1 C 374.5 463.9 360.1 475.6 345.2 486.8 C 339.4 491.3 333.2 495.3 327.5 500.0 L 238.6 500.0 C 241.9 496.6 243.0 492.0 244.8 487.7 C 247.7 482.2 238.8 478.9 240.6 473.3 C 238.9 471.8 236.7 470.5 235.8 468.2 C 235.1 466.1 234.6 463.8 233.4 461.9 C 234.0 459.0 234.3 455.8 236.8 454.0 C 236.3 453.1 235.9 452.2 235.4 451.4 C 236.9 450.7 238.8 450.2 239.8 448.8 C 242.1 444.5 243.8 439.9 245.3 435.3 C 247.5 432.9 249.1 430.0 251.8 428.0 C 251.6 427.1 251.4 426.1 251.2 425.2 C 252.1 424.0 253.8 422.4 252.3 421.0 C 251.5 421.6 250.7 422.2 249.9 422.8 C 247.8 422.5 246.0 421.4 244.5 420.0 C 251.4 417.3 258.7 415.6 265.4 412.4 C 288.3 402.8 309.2 388.3 325.9 369.9 C 335.7 359.4 343.8 347.3 351.0 334.9 C 353.8 338.6 355.1 343.0 356.9 347.2 C 358.0 348.4 359.3 347.0 360.4 346.5 C 369.4 340.6 378.7 335.2 387.4 329.0 C 386.0 321.1 382.2 314.0 380.5 306.2 C 379.0 301.5 377.4 296.7 376.4 291.8 C 374.2 281.9 370.7 272.1 370.7 262.0 C 374.2 251.6 379.6 241.8 385.8 232.8 C 389.1 227.9 392.8 223.0 397.7 219.7 Z" />
<path fill="#ece6d2" stroke="#ece6d2" stroke-width="0.09375" opacity="1.00" d=" M 78.9 273.8 C 80.4 269.5 79.1 264.1 83.0 260.9 C 82.4 271.9 83.0 283.0 83.5 294.0 C 85.7 311.1 89.0 328.1 94.9 344.3 C 96.2 348.5 98.3 352.4 99.4 356.7 C 98.5 359.7 101.0 362.1 101.5 365.0 C 101.7 366.4 102.4 367.6 103.3 368.7 C 104.9 370.7 104.9 373.4 105.5 375.7 C 103.2 379.4 99.5 383.2 100.4 387.8 C 94.7 390.9 97.4 399.2 92.3 403.0 C 92.3 404.1 93.0 405.3 92.4 406.3 C 90.5 409.4 89.9 413.0 88.1 416.2 C 87.0 418.1 88.1 420.6 86.2 422.2 C 84.2 424.0 84.7 426.9 83.0 428.9 C 81.0 431.0 81.2 434.8 78.1 435.8 C 79.4 440.7 76.4 445.2 76.0 450.0 C 76.9 450.7 77.7 451.4 78.5 452.1 C 77.4 453.9 76.8 456.0 75.9 457.9 C 75.0 459.0 73.6 459.8 73.0 461.2 C 72.6 462.5 73.8 463.6 74.4 464.7 C 71.3 466.0 72.1 469.0 72.6 471.6 C 69.7 473.6 69.3 477.3 68.4 480.4 C 67.7 482.2 68.3 484.2 68.6 486.0 C 65.9 490.2 67.2 495.3 67.0 500.0 L 6.9 500.0 C 8.2 498.2 9.9 496.3 10.0 494.0 C 10.3 488.1 9.7 482.1 10.2 476.2 C 10.8 475.2 11.7 474.5 12.5 473.8 C 12.2 473.0 11.8 472.2 11.7 471.3 C 12.8 468.1 13.6 464.5 16.7 462.7 C 15.9 461.5 14.8 460.4 14.4 459.1 C 14.6 456.5 15.1 454.1 15.4 451.5 C 19.2 450.9 17.8 446.7 18.0 444.0 C 17.8 440.2 20.5 436.8 19.2 433.1 C 23.8 428.4 24.7 421.7 26.9 415.8 C 28.3 412.1 32.7 408.5 30.7 404.3 C 31.5 402.9 32.0 401.3 31.5 399.6 C 30.4 395.8 31.5 391.9 32.1 388.1 C 32.4 386.3 34.2 385.0 34.1 383.1 C 33.5 381.5 32.3 380.1 31.9 378.4 C 32.9 378.8 34.0 379.2 35.0 379.6 C 34.7 377.9 34.1 376.1 34.3 374.4 C 35.1 373.4 36.4 373.1 37.5 372.5 C 38.2 369.5 39.5 366.8 41.6 364.6 C 41.4 362.9 41.2 360.9 42.4 359.4 C 44.6 356.1 46.7 352.7 47.8 348.8 C 48.8 348.3 49.9 347.8 50.8 347.1 C 49.4 343.6 50.4 339.9 51.4 336.4 C 52.4 334.0 50.1 331.2 52.1 329.2 C 53.8 327.4 54.2 325.1 54.2 322.8 C 57.0 321.4 60.7 320.3 61.9 317.2 C 60.5 316.5 59.2 315.8 57.9 314.9 C 58.8 311.7 60.2 308.7 61.8 305.8 C 63.8 304.5 66.6 305.2 68.9 304.9 C 68.0 303.8 67.1 302.9 66.1 301.9 C 66.5 299.7 66.7 297.5 67.5 295.5 C 70.6 292.1 73.1 288.0 74.6 283.6 C 75.0 283.3 76.0 282.8 76.4 282.5 C 76.7 279.4 77.9 276.7 78.9 273.8 Z" />
<path fill="#f3eddb" stroke="#f3eddb" stroke-width="0.09375" opacity="1.00" d=" M 99.4 356.7 C 103.9 364.9 108.6 372.9 114.0 380.6 C 112.2 383.6 116.2 386.0 117.8 388.2 C 121.0 390.7 119.7 395.3 119.5 398.8 C 118.6 403.3 120.0 407.8 119.8 412.3 C 119.4 412.4 118.5 412.5 118.1 412.6 C 118.0 414.5 118.0 416.4 118.1 418.4 C 118.6 418.5 119.5 418.6 120.0 418.7 C 119.5 420.1 118.5 421.3 118.3 422.8 C 119.7 424.8 120.0 427.3 120.0 429.7 C 119.4 429.3 118.8 428.8 118.2 428.3 C 117.4 432.2 116.9 436.0 117.9 439.9 C 117.0 441.7 115.4 443.1 114.2 444.7 C 115.4 445.1 117.1 444.6 117.9 445.8 C 116.4 446.0 114.8 446.1 113.3 446.3 C 111.9 452.4 113.5 458.8 113.0 465.0 C 113.6 469.6 110.6 473.5 109.9 477.9 C 109.4 481.9 106.5 485.2 106.3 489.2 C 106.3 493.0 103.5 496.1 103.9 500.0 L 67.0 500.0 C 67.2 495.3 65.9 490.2 68.6 486.0 C 68.3 484.2 67.7 482.2 68.4 480.4 C 69.3 477.3 69.7 473.6 72.6 471.6 C 72.1 469.0 71.3 466.0 74.4 464.7 C 73.8 463.6 72.6 462.5 73.0 461.2 C 73.6 459.8 75.0 459.0 75.9 457.9 C 76.8 456.0 77.4 453.9 78.5 452.1 C 77.7 451.4 76.9 450.7 76.0 450.0 C 76.4 445.2 79.4 440.7 78.1 435.8 C 81.2 434.8 81.0 431.0 83.0 428.9 C 84.7 426.9 84.2 424.0 86.2 422.2 C 88.1 420.6 87.0 418.1 88.1 416.2 C 89.9 413.0 90.5 409.4 92.4 406.3 C 93.0 405.3 92.3 404.1 92.3 403.0 C 97.4 399.2 94.7 390.9 100.4 387.8 C 99.5 383.2 103.2 379.4 105.5 375.7 C 104.9 373.4 104.9 370.7 103.3 368.7 C 102.4 367.6 101.7 366.4 101.5 365.0 C 101.0 362.1 98.5 359.7 99.4 356.7 Z" />
<path fill="#8a7d5f" stroke="#8a7d5f" stroke-width="0.09375" opacity="1.00" d=" M 495.1 364.6 C 496.7 363.5 498.4 362.6 500.0 361.6 L 500.0 375.8 C 498.7 376.9 497.3 377.9 495.9 379.0 C 495.5 374.2 497.3 368.9 495.1 364.6 Z" />
<path fill="#6e5f46" stroke="#6e5f46" stroke-width="0.09375" opacity="1.00" d=" M 474.1 379.7 C 481.0 374.5 488.0 369.5 495.1 364.6 C 497.3 368.9 495.5 374.2 495.9 379.0 C 489.2 384.5 482.8 390.4 476.1 396.0 C 475.0 390.6 475.2 385.1 474.1 379.7 Z" />
<path fill="#fef8e6" stroke="#fef8e6" stroke-width="0.09375" opacity="1.00" d=" M 495.9 379.0 C 497.3 377.9 498.7 376.9 500.0 375.8 L 500.0 438.5 C 498.3 431.4 498.4 424.0 497.4 416.8 C 496.5 404.2 496.3 391.6 495.9 379.0 Z" />
<path fill="#cec1ac" stroke="#cec1ac" stroke-width="0.09375" opacity="1.00" d=" M 476.1 396.0 C 482.8 390.4 489.2 384.5 495.9 379.0 C 496.3 391.6 496.5 404.2 497.4 416.8 C 495.9 419.8 494.9 423.0 496.0 426.3 C 495.6 426.4 494.8 426.6 494.3 426.6 C 494.5 427.9 494.7 429.8 492.9 429.9 C 490.2 430.4 487.5 431.0 485.3 432.8 C 484.4 427.8 482.7 422.9 481.0 418.1 C 480.6 418.4 479.8 419.0 479.3 419.2 C 477.6 411.6 477.3 403.7 476.1 396.0 Z" />
<path fill="#231a10" stroke="#231a10" stroke-width="0.09375" opacity="1.00" d=" M 429.0 417.0 C 443.4 403.9 458.4 391.3 474.1 379.7 C 475.2 385.1 475.0 390.6 476.1 396.0 C 471.4 401.3 466.3 406.3 460.8 410.8 C 455.8 415.4 451.2 420.5 446.1 425.1 C 440.1 429.7 435.4 435.7 429.3 440.3 C 423.1 446.3 416.5 452.0 409.9 457.5 C 405.4 461.4 400.9 465.1 396.7 469.2 C 393.8 463.7 391.0 458.0 388.8 452.1 C 402.4 440.6 415.9 429.0 429.0 417.0 Z" />
<path fill="#f6f3e2" stroke="#f6f3e2" stroke-width="0.09375" opacity="1.00" d=" M 117.8 388.2 C 116.2 386.0 112.2 383.6 114.0 380.6 C 116.3 383.9 120.0 386.5 121.6 390.2 C 121.8 410.1 121.6 430.1 121.7 450.0 C 121.6 453.1 122.3 456.3 124.4 458.6 C 128.4 464.2 137.8 464.5 142.4 459.4 C 144.0 457.6 145.7 455.5 145.7 453.0 C 145.9 438.4 145.3 423.7 145.9 409.1 C 147.3 409.7 148.6 410.3 149.8 411.0 C 149.3 430.3 149.8 449.7 149.6 469.0 C 149.7 479.3 149.4 489.7 149.8 500.0 L 103.9 500.0 C 103.5 496.1 106.3 493.0 106.3 489.2 C 106.5 485.2 109.4 481.9 109.9 477.9 C 110.6 473.5 113.6 469.6 113.0 465.0 C 113.5 458.8 111.9 452.4 113.3 446.3 C 114.8 446.1 116.4 446.0 117.9 445.8 C 117.1 444.6 115.4 445.1 114.2 444.7 C 115.4 443.1 117.0 441.7 117.9 439.9 C 116.9 436.0 117.4 432.2 118.2 428.3 C 118.8 428.8 119.4 429.3 120.0 429.7 C 120.0 427.3 119.7 424.8 118.3 422.8 C 118.5 421.3 119.5 420.1 120.0 418.7 C 119.5 418.6 118.6 418.5 118.1 418.4 C 118.0 416.4 118.0 414.5 118.1 412.6 C 118.5 412.5 119.4 412.4 119.8 412.3 C 120.0 407.8 118.6 403.3 119.5 398.8 C 119.7 395.3 121.0 390.7 117.8 388.2 Z" />
<path fill="#413421" stroke="#413421" stroke-width="0.09375" opacity="1.00" d=" M 460.8 410.8 C 466.3 406.3 471.4 401.3 476.1 396.0 C 477.3 403.7 477.6 411.6 479.3 419.2 C 482.6 441.8 487.8 464.0 494.2 485.8 C 495.5 490.5 497.2 495.2 498.3 500.0 L 429.3 500.0 C 423.2 487.3 417.6 474.5 412.6 461.4 C 412.1 459.9 411.0 458.7 409.9 457.5 C 416.5 452.0 423.1 446.3 429.3 440.3 C 435.4 435.7 440.1 429.7 446.1 425.1 C 451.2 420.5 455.8 415.4 460.8 410.8 Z" />
<path fill="#221501" stroke="#221501" stroke-width="0.09375" opacity="1.00" d=" M 149.8 411.0 L 150.6 411.4 C 150.8 412.6 150.9 413.8 150.9 415.0 C 150.9 443.3 150.9 471.7 150.9 500.0 L 149.8 500.0 C 149.4 489.7 149.7 479.3 149.6 469.0 C 149.8 449.7 149.3 430.3 149.8 411.0 Z" />
<path fill="#d4c7b2" stroke="#d4c7b2" stroke-width="0.09375" opacity="1.00" d=" M 497.4 416.8 C 498.4 424.0 498.3 431.4 500.0 438.5 L 500.0 500.0 L 498.3 500.0 C 497.2 495.2 495.5 490.5 494.2 485.8 C 487.8 464.0 482.6 441.8 479.3 419.2 C 479.8 419.0 480.6 418.4 481.0 418.1 C 482.7 422.9 484.4 427.8 485.3 432.8 C 487.5 431.0 490.2 430.4 492.9 429.9 C 494.7 429.8 494.5 427.9 494.3 426.6 C 494.8 426.6 495.6 426.4 496.0 426.3 C 494.9 423.0 495.9 419.8 497.4 416.8 Z" />
<path fill="#fbf7eb" stroke="#fbf7eb" stroke-width="0.09375" opacity="1.00" d=" M 218.0 425.0 C 227.0 424.6 235.7 421.9 244.5 420.0 C 246.0 421.4 247.8 422.5 249.9 422.8 C 250.7 422.2 251.5 421.6 252.3 421.0 C 253.8 422.4 252.1 424.0 251.2 425.2 C 251.4 426.1 251.6 427.1 251.8 428.0 C 249.1 430.0 247.5 432.9 245.3 435.3 C 243.8 439.9 242.1 444.5 239.8 448.8 C 238.8 450.2 236.9 450.7 235.4 451.4 C 235.9 452.2 236.3 453.1 236.8 454.0 C 234.3 455.8 234.0 459.0 233.4 461.9 C 234.6 463.8 235.1 466.1 235.8 468.2 C 236.7 470.5 238.9 471.8 240.6 473.3 C 238.8 478.9 247.7 482.2 244.8 487.7 C 243.0 492.0 241.9 496.6 238.6 500.0 L 197.8 500.0 C 197.6 475.3 197.5 450.5 197.8 425.8 C 204.5 425.4 211.3 426.0 218.0 425.0 Z" />
<path fill="#8b7e60" stroke="#8b7e60" stroke-width="0.09375" opacity="1.00" d=" M 345.2 486.8 C 360.1 475.6 374.5 463.9 388.8 452.1 C 391.0 458.0 393.8 463.7 396.7 469.2 L 396.9 469.8 C 395.7 470.3 394.6 470.8 393.7 471.7 C 382.6 481.4 371.1 490.6 359.8 500.0 L 353.4 500.0 C 351.5 495.6 349.0 491.5 346.5 487.5 C 346.1 487.3 345.5 487.0 345.2 486.8 Z" />
<path fill="#4f4329" stroke="#4f4329" stroke-width="0.09375" opacity="1.00" d=" M 396.7 469.2 C 400.9 465.1 405.4 461.4 409.9 457.5 C 411.0 458.7 412.1 459.9 412.6 461.4 C 417.6 474.5 423.2 487.3 429.3 500.0 L 412.3 500.0 C 407.1 490.0 401.4 480.2 396.9 469.8 L 396.7 469.2 Z" />
<path fill="#fef8e6" stroke="#fef8e6" stroke-width="0.09375" opacity="1.00" d=" M 393.7 471.7 C 394.6 470.8 395.7 470.3 396.9 469.8 C 401.4 480.2 407.1 490.0 412.3 500.0 L 359.8 500.0 C 371.1 490.6 382.6 481.4 393.7 471.7 Z" />
<path fill="#6d5f45" stroke="#6d5f45" stroke-width="0.09375" opacity="1.00" d=" M 327.5 500.0 C 333.2 495.3 339.4 491.3 345.2 486.8 C 345.5 487.0 346.1 487.3 346.5 487.5 C 349.0 491.5 351.5 495.6 353.4 500.0 L 327.5 500.0 Z" />
</svg>
