<?xml version="1.0" encoding="UTF-8" ?>
<!DOCTYPE svg PUBLIC "-//W3C//DTD SVG 1.1//EN" "http://www.w3.org/Graphics/SVG/1.1/DTD/svg11.dtd">
<svg width="470pt" height="470pt" viewBox="0 0 470 470" version="1.1" xmlns="http://www.w3.org/2000/svg">
<path fill="#90688d" stroke="#90688d" stroke-width="0.09375" opacity="1.00" d=" M 227.4 0.0 L 242.6 0.0 C 245.9 1.2 249.5 0.3 252.9 0.7 C 305.1 4.4 355.7 26.4 394.0 61.9 C 393.8 62.4 393.5 63.4 393.3 63.9 C 394.6 64.9 396.3 65.4 397.1 67.0 C 396.1 69.0 393.7 67.0 392.1 67.0 C 388.6 68.7 390.6 73.4 387.0 74.9 C 386.1 74.3 385.1 73.7 384.1 73.3 C 384.0 74.4 383.9 75.6 383.9 76.7 C 382.9 76.2 381.9 75.7 381.0 75.1 C 378.3 75.8 377.8 78.6 377.9 81.0 C 365.5 70.1 352.5 59.9 338.0 52.0 C 312.9 37.9 284.9 28.9 256.3 26.1 C 255.2 27.0 255.3 28.6 254.7 29.8 C 252.5 36.6 246.0 41.8 238.9 42.7 C 231.1 44.0 222.8 40.0 218.8 33.2 C 217.3 31.0 217.1 28.3 215.9 26.0 C 175.2 29.3 135.8 45.4 104.0 71.0 C 62.1 104.2 33.7 153.9 26.9 207.0 C 26.6 209.5 26.1 212.1 26.3 214.6 C 34.6 216.2 41.2 223.6 41.9 232.0 C 43.1 241.7 36.0 251.8 26.3 253.3 C 25.8 261.5 28.4 269.6 29.1 277.7 C 27.2 278.0 25.2 278.2 23.3 277.8 C 23.3 276.9 23.4 275.9 23.5 275.0 C 22.5 275.4 21.5 275.5 20.6 276.2 C 20.6 276.6 20.4 277.5 20.4 278.0 C 19.0 278.0 17.6 276.9 16.3 277.4 C 14.9 278.8 15.7 280.7 15.3 282.4 C 14.4 283.0 13.5 283.6 12.7 284.3 C 12.6 284.7 12.5 285.5 12.4 285.9 C 11.1 285.7 10.7 284.2 9.8 283.3 C 8.6 284.3 7.4 285.2 5.8 285.3 C 2.7 274.8 1.5 263.8 0.7 252.9 C 0.3 249.8 1.2 246.5 0.0 243.6 L 0.0 227.4 C 1.2 224.1 0.2 220.5 0.7 217.1 C 3.3 180.4 14.9 144.4 34.0 112.9 C 36.7 109.5 38.3 105.4 41.0 102.0 C 44.0 98.0 46.9 93.9 50.0 90.0 C 69.6 64.9 94.5 43.9 122.4 28.5 C 151.6 12.8 184.0 3.0 217.1 0.7 C 220.5 0.3 224.1 1.2 227.4 0.0 Z" />
<path fill="#e5efd1" stroke="#e5efd1" stroke-width="0.09375" opacity="1.00" d=" M 104.0 71.0 C 135.8 45.4 175.2 29.3 215.9 26.0 C 217.1 28.3 217.3 31.0 218.8 33.2 C 222.8 40.0 231.1 44.0 238.9 42.7 C 246.0 41.8 252.5 36.6 254.7 29.8 C 255.3 28.6 255.2 27.0 256.3 26.1 C 284.9 28.9 312.9 37.9 338.0 52.0 C 352.5 59.9 365.5 70.1 377.9 81.0 C 387.3 90.3 396.5 100.0 404.3 110.8 C 425.9 140.0 439.6 175.0 443.6 211.2 C 443.6 211.7 443.5 212.8 443.4 213.4 C 434.8 215.8 427.6 223.8 428.0 233.0 C 427.6 239.4 431.3 245.0 435.7 249.2 C 436.7 252.4 441.2 254.1 440.7 257.7 C 438.2 258.1 435.7 258.7 433.2 258.5 C 433.3 259.3 433.4 260.0 433.5 260.7 C 431.2 261.7 428.7 262.1 426.3 262.7 C 425.9 263.5 425.6 264.4 425.3 265.2 C 424.0 265.4 422.9 266.0 421.9 266.9 C 420.6 265.8 420.9 263.4 419.0 262.9 C 416.6 265.5 415.1 268.8 412.7 271.3 C 411.7 271.4 410.7 271.2 409.9 271.8 C 408.1 273.3 404.7 270.8 404.0 273.9 C 404.4 274.3 405.0 275.0 405.4 275.3 C 404.5 276.8 403.8 279.1 402.1 279.9 C 401.7 279.6 401.0 278.9 400.6 278.6 C 398.3 279.6 394.8 279.3 394.7 282.6 C 393.1 281.0 391.1 281.9 389.3 282.5 C 388.5 282.0 387.7 281.5 387.0 281.0 C 385.4 282.2 386.3 285.1 384.2 286.3 C 381.8 287.7 382.3 290.7 380.9 292.8 C 380.3 292.2 379.6 291.6 378.9 291.1 C 377.5 291.3 376.7 292.5 375.7 293.4 C 375.1 293.2 374.5 292.8 374.1 292.3 C 372.8 294.9 370.5 296.7 368.0 298.0 C 367.3 297.2 366.8 296.4 366.5 295.4 C 366.0 295.3 365.0 295.1 364.5 295.0 C 364.6 295.9 364.6 296.8 364.7 297.7 C 363.8 298.4 362.8 299.0 362.3 300.0 C 362.3 300.5 362.5 301.5 362.5 302.0 C 362.1 301.8 361.2 301.5 360.8 301.4 C 360.3 300.4 360.9 298.1 359.2 298.3 C 356.6 300.7 356.3 304.4 354.1 307.0 C 353.1 306.5 352.5 304.8 351.2 305.0 C 349.3 306.6 347.3 308.4 344.8 308.8 C 342.4 309.2 340.5 311.0 338.0 311.0 C 336.9 311.0 336.2 312.1 335.2 312.6 C 334.5 312.1 333.8 311.5 333.1 310.9 C 332.7 303.9 328.3 298.1 323.2 293.8 C 300.5 271.2 277.7 248.6 255.2 225.8 C 254.7 204.9 255.2 183.9 254.9 163.0 C 255.1 137.6 254.9 112.3 255.0 87.0 C 255.1 82.5 254.4 77.9 251.8 74.2 C 247.4 67.3 238.5 63.6 230.5 65.6 C 221.7 67.5 214.8 75.9 215.1 84.9 C 215.1 116.2 214.9 147.5 215.1 178.8 C 214.9 198.9 215.1 219.0 215.0 239.1 C 215.1 240.4 214.7 242.1 215.9 243.2 C 244.0 271.4 272.3 299.5 300.4 327.8 C 301.0 329.8 301.0 331.9 299.9 333.7 C 299.2 333.3 298.7 332.8 298.2 332.3 C 297.9 334.9 296.8 337.4 295.9 339.7 C 293.9 339.3 292.9 337.3 291.2 336.4 C 290.2 339.7 287.1 341.7 284.0 343.0 C 283.3 342.3 282.8 341.4 282.7 340.4 C 281.6 340.4 280.6 341.0 279.9 342.0 C 280.4 343.3 282.1 343.6 282.6 344.8 C 279.6 346.1 275.9 345.8 273.3 348.2 C 270.4 349.3 269.3 353.1 265.9 353.0 C 263.2 353.7 261.3 349.6 258.7 351.6 C 258.5 352.7 258.3 353.9 258.1 355.1 C 256.6 356.5 254.2 356.1 252.2 356.6 C 251.0 357.8 251.4 359.4 251.5 360.9 C 250.2 361.1 248.7 360.8 247.5 361.4 C 246.9 362.9 246.0 364.9 244.0 364.6 C 241.3 364.4 239.4 366.7 237.8 368.6 C 236.3 366.9 233.2 366.8 231.8 368.6 C 231.5 369.9 231.4 371.3 230.9 372.5 C 230.3 372.3 229.7 371.9 229.3 371.4 C 228.5 373.1 227.5 374.8 226.7 376.6 C 226.0 376.1 225.4 375.6 224.9 375.0 C 222.6 374.7 222.0 377.4 220.9 378.8 C 219.7 377.9 218.8 376.5 217.3 376.4 C 216.6 378.4 215.9 380.6 214.1 381.8 C 212.5 381.4 211.0 380.8 209.4 381.0 C 209.5 382.4 210.4 384.0 209.3 385.3 C 208.6 386.8 206.9 386.3 205.6 386.7 C 204.3 387.0 204.2 388.6 203.5 389.5 C 201.4 390.3 199.2 390.8 197.0 391.1 C 195.2 391.3 193.3 389.4 191.7 390.7 C 190.4 391.4 190.6 393.1 190.3 394.3 C 189.6 394.4 188.9 394.5 188.3 394.7 C 187.9 395.6 187.6 396.4 187.3 397.3 C 184.8 398.2 182.1 398.7 179.5 399.3 C 178.5 399.8 177.8 398.8 177.1 398.4 C 175.4 399.5 175.0 401.7 173.7 403.3 C 170.2 404.1 167.1 407.2 163.3 406.2 C 164.1 407.6 165.1 409.0 165.0 410.7 C 164.2 410.0 163.1 410.0 162.3 409.4 C 161.6 410.9 161.4 413.6 159.2 413.6 C 159.1 413.1 158.9 411.9 158.8 411.4 C 157.5 413.4 155.6 411.6 154.0 411.1 C 152.3 412.9 151.3 416.6 148.2 415.9 C 147.5 415.3 146.8 414.8 145.9 414.3 C 147.0 416.6 147.2 421.2 143.3 419.7 C 143.2 418.6 143.0 417.5 142.8 416.3 C 141.4 416.3 142.2 418.7 141.7 419.7 C 140.1 420.6 138.9 419.0 137.5 418.5 C 136.2 417.5 134.4 418.2 132.9 418.1 C 124.9 414.5 117.9 409.3 110.8 404.2 C 73.6 377.0 45.7 337.2 33.1 292.9 C 31.4 287.9 30.8 282.7 29.1 277.7 C 28.4 269.6 25.8 261.5 26.3 253.3 C 36.0 251.8 43.1 241.7 41.9 232.0 C 41.2 223.6 34.6 216.2 26.3 214.6 C 26.1 212.1 26.6 209.5 26.9 207.0 C 33.7 153.9 62.1 104.2 104.0 71.0 Z" />
<path fill="#8c6684" stroke="#8c6684" stroke-width="0.09375" opacity="1.00" d=" M 394.0 61.9 C 420.4 86.1 441.2 116.3 454.2 149.7 C 456.4 155.0 457.5 160.7 459.9 165.9 C 461.8 172.9 464.0 179.8 465.0 187.0 C 467.8 200.0 470.1 213.3 469.1 226.7 C 465.4 229.2 469.9 233.3 467.7 236.3 C 467.4 237.5 468.0 238.9 467.1 240.0 C 466.4 241.0 464.7 240.8 464.2 242.0 C 464.6 242.9 464.8 243.8 464.6 244.8 C 464.1 244.8 463.0 244.9 462.5 245.0 C 462.6 244.1 462.7 243.1 462.7 242.2 C 460.8 241.6 458.7 242.1 458.0 244.0 C 456.7 246.6 453.6 247.3 451.1 246.4 C 451.2 247.5 452.1 248.6 451.6 249.7 C 450.3 250.5 448.8 250.8 447.4 251.5 C 447.0 253.8 446.3 256.0 444.0 257.2 C 444.0 255.6 444.2 253.9 443.7 252.3 C 440.8 251.9 438.3 250.5 435.7 249.2 C 431.3 245.0 427.6 239.4 428.0 233.0 C 427.6 223.8 434.8 215.8 443.4 213.4 C 443.5 212.8 443.6 211.7 443.6 211.2 C 439.6 175.0 425.9 140.0 404.3 110.8 C 396.5 100.0 387.3 90.3 377.9 81.0 C 377.8 78.6 378.3 75.8 381.0 75.1 C 381.9 75.7 382.9 76.2 383.9 76.7 C 383.9 75.6 384.0 74.4 384.1 73.3 C 385.1 73.7 386.1 74.3 387.0 74.9 C 390.6 73.4 388.6 68.7 392.1 67.0 C 393.7 67.0 396.1 69.0 397.1 67.0 C 396.3 65.4 394.6 64.9 393.3 63.9 C 393.5 63.4 393.8 62.4 394.0 61.9 Z" />
<path fill="#8f688a" stroke="#8f688a" stroke-width="0.09375" opacity="1.00" d=" M 230.5 65.6 C 238.5 63.6 247.4 67.3 251.8 74.2 C 254.4 77.9 255.1 82.5 255.0 87.0 C 254.9 112.3 255.1 137.6 254.9 163.0 C 253.7 162.9 252.4 163.0 251.2 163.1 C 250.4 163.7 249.6 164.3 248.8 165.0 C 246.9 165.5 245.1 164.0 243.3 164.4 C 242.7 165.4 244.3 166.1 244.8 166.9 C 243.6 168.7 240.9 165.8 240.2 168.1 C 239.4 171.3 235.8 170.8 233.4 171.3 C 232.7 172.0 232.1 172.7 231.7 173.6 C 230.5 173.2 229.4 172.8 228.2 172.3 C 228.8 174.3 227.2 175.8 227.6 177.7 C 226.5 177.9 225.4 177.0 224.3 177.4 C 224.1 178.5 224.0 179.6 223.8 180.7 C 222.9 180.1 221.9 179.7 221.0 179.2 C 218.9 180.4 216.8 180.9 215.1 178.8 C 214.9 147.5 215.1 116.2 215.1 84.9 C 214.8 75.9 221.7 67.5 230.5 65.6 Z" />
<path fill="#8d6684" stroke="#8d6684" stroke-width="0.09375" opacity="1.00" d=" M 248.8 165.0 C 249.6 164.3 250.4 163.7 251.2 163.1 C 252.4 163.0 253.7 162.9 254.9 163.0 C 255.2 183.9 254.7 204.9 255.2 225.8 C 277.7 248.6 300.5 271.2 323.2 293.8 C 328.3 298.1 332.7 303.9 333.1 310.9 C 333.2 317.9 329.9 325.0 323.8 328.8 C 316.8 333.5 307.1 332.7 300.4 327.8 C 272.3 299.5 244.0 271.4 215.9 243.2 C 214.7 242.1 215.1 240.4 215.0 239.1 C 215.1 219.0 214.9 198.9 215.1 178.8 C 216.8 180.9 218.9 180.4 221.0 179.2 C 221.9 179.7 222.9 180.1 223.8 180.7 C 224.0 179.6 224.1 178.5 224.3 177.4 C 225.4 177.0 226.5 177.9 227.6 177.7 C 227.2 175.8 228.8 174.3 228.2 172.3 C 229.4 172.8 230.5 173.2 231.7 173.6 C 232.1 172.7 232.7 172.0 233.4 171.3 C 235.8 170.8 239.4 171.3 240.2 168.1 C 240.9 165.8 243.6 168.7 244.8 166.9 C 244.3 166.1 242.7 165.4 243.3 164.4 C 245.1 164.0 246.9 165.5 248.8 165.0 Z" />
<path fill="#89647f" stroke="#89647f" stroke-width="0.09375" opacity="1.00" d=" M 467.7 236.3 C 469.9 233.3 465.4 229.2 469.1 226.7 C 469.3 227.1 469.8 227.9 470.0 228.3 L 470.0 242.6 C 469.8 243.2 469.5 244.4 469.3 245.1 C 469.7 262.9 466.1 280.6 461.6 297.8 C 459.4 303.2 458.0 308.9 456.4 314.5 C 450.2 331.1 442.6 347.2 432.8 361.9 C 430.9 366.0 427.8 369.4 425.1 373.1 C 410.4 393.5 392.4 411.4 372.0 426.0 C 368.4 428.8 364.7 431.6 360.5 433.5 C 357.5 436.0 354.0 437.6 350.9 439.8 C 340.8 444.9 330.9 450.3 320.2 454.1 C 313.3 457.3 305.6 458.5 298.5 461.4 C 283.3 465.6 267.7 468.6 252.0 469.4 C 249.2 469.6 246.2 468.7 243.6 470.0 L 227.5 470.0 C 224.5 468.6 221.2 469.6 218.1 469.4 C 212.5 469.0 207.0 468.8 201.6 467.5 C 194.2 466.7 186.9 465.4 179.8 463.4 C 173.2 462.1 166.6 460.3 160.4 457.7 C 145.9 453.6 132.4 446.7 119.1 439.8 C 116.8 438.0 114.0 437.0 111.8 435.0 C 113.4 434.5 115.0 434.0 116.6 433.5 C 116.7 433.0 117.1 431.9 117.3 431.3 C 118.6 432.1 118.8 433.9 120.2 434.6 C 121.3 434.5 122.0 433.5 123.0 433.0 C 124.8 431.6 127.4 432.4 129.4 431.3 C 129.9 430.2 129.5 428.8 129.6 427.6 C 130.1 425.8 132.1 426.2 133.4 425.8 C 133.4 425.3 133.5 424.4 133.5 424.0 C 134.5 424.4 135.2 425.2 136.0 425.9 C 137.0 425.3 138.0 424.7 139.0 424.1 C 141.8 424.5 144.4 427.5 147.3 426.0 C 169.0 435.5 192.1 442.3 215.9 444.0 C 217.4 439.8 218.8 435.4 222.4 432.4 C 228.5 426.7 238.2 425.3 245.5 429.5 C 250.8 432.2 254.5 437.5 255.7 443.3 C 256.1 443.4 256.8 443.7 257.1 443.8 C 295.1 439.9 331.8 425.3 362.1 402.1 C 394.2 377.7 419.2 343.8 432.7 305.7 C 438.6 290.1 441.7 273.6 444.0 257.2 C 446.3 256.0 447.0 253.8 447.4 251.5 C 448.8 250.8 450.3 250.5 451.6 249.7 C 452.1 248.6 451.2 247.5 451.1 246.4 C 453.6 247.3 456.7 246.6 458.0 244.0 C 458.7 242.1 460.8 241.6 462.7 242.2 C 462.7 243.1 462.6 244.1 462.5 245.0 C 463.0 244.9 464.1 244.8 464.6 244.8 C 464.8 243.8 464.6 242.9 464.2 242.0 C 464.7 240.8 466.4 241.0 467.1 240.0 C 468.0 238.9 467.4 237.5 467.7 236.3 Z" />
<path fill="#e2edcc" stroke="#e2edcc" stroke-width="0.09375" opacity="1.00" d=" M 435.7 249.2 C 438.3 250.5 440.8 251.9 443.7 252.3 C 444.2 253.9 444.0 255.6 444.0 257.2 C 441.7 273.6 438.6 290.1 432.7 305.7 C 419.2 343.8 394.2 377.7 362.1 402.1 C 331.8 425.3 295.1 439.9 257.1 443.8 C 256.8 443.7 256.1 443.4 255.7 443.3 C 254.5 437.5 250.8 432.2 245.5 429.5 C 238.2 425.3 228.5 426.7 222.4 432.4 C 218.8 435.4 217.4 439.8 215.9 444.0 C 192.1 442.3 169.0 435.5 147.3 426.0 C 142.5 423.3 137.3 421.3 132.9 418.1 C 134.4 418.2 136.2 417.5 137.5 418.5 C 138.9 419.0 140.1 420.6 141.7 419.7 C 142.2 418.7 141.4 416.3 142.8 416.3 C 143.0 417.5 143.2 418.6 143.3 419.7 C 147.2 421.2 147.0 416.6 145.9 414.3 C 146.8 414.8 147.5 415.3 148.2 415.9 C 151.3 416.6 152.3 412.9 154.0 411.1 C 155.6 411.6 157.5 413.4 158.8 411.4 C 158.9 411.9 159.1 413.1 159.2 413.6 C 161.4 413.6 161.6 410.9 162.3 409.4 C 163.1 410.0 164.2 410.0 165.0 410.7 C 165.1 409.0 164.1 407.6 163.3 406.2 C 167.1 407.2 170.2 404.1 173.7 403.3 C 175.0 401.7 175.4 399.5 177.1 398.4 C 177.8 398.8 178.5 399.8 179.5 399.3 C 182.1 398.7 184.8 398.2 187.3 397.3 C 187.6 396.4 187.9 395.6 188.3 394.7 C 188.9 394.5 189.6 394.4 190.3 394.3 C 190.6 393.1 190.4 391.4 191.7 390.7 C 193.3 389.4 195.2 391.3 197.0 391.1 C 199.2 390.8 201.4 390.3 203.5 389.5 C 204.2 388.6 204.3 387.0 205.6 386.7 C 206.9 386.3 208.6 386.8 209.3 385.3 C 210.4 384.0 209.5 382.4 209.4 381.0 C 211.0 380.8 212.5 381.4 214.1 381.8 C 215.9 380.6 216.6 378.4 217.3 376.4 C 218.8 376.5 219.7 377.9 220.9 378.8 C 222.0 377.4 222.6 374.7 224.9 375.0 C 225.4 375.6 226.0 376.1 226.7 376.6 C 227.5 374.8 228.5 373.1 229.3 371.4 C 229.7 371.9 230.3 372.3 230.9 372.5 C 231.4 371.3 231.5 369.9 231.8 368.6 C 233.2 366.8 236.3 366.9 237.8 368.6 C 239.4 366.7 241.3 364.4 244.0 364.6 C 246.0 364.9 246.9 362.9 247.5 361.4 C 248.7 360.8 250.2 361.1 251.5 360.9 C 251.4 359.4 251.0 357.8 252.2 356.6 C 254.2 356.1 256.6 356.5 258.1 355.1 C 258.3 353.9 258.5 352.7 258.7 351.6 C 261.3 349.6 263.2 353.7 265.9 353.0 C 269.3 353.1 270.4 349.3 273.3 348.2 C 275.9 345.8 279.6 346.1 282.6 344.8 C 282.1 343.6 280.4 343.3 279.9 342.0 C 280.6 341.0 281.6 340.4 282.7 340.4 C 282.8 341.4 283.3 342.3 284.0 343.0 C 287.1 341.7 290.2 339.7 291.2 336.4 C 292.9 337.3 293.9 339.3 295.9 339.7 C 296.8 337.4 297.9 334.9 298.2 332.3 C 298.7 332.8 299.2 333.3 299.9 333.7 C 301.0 331.9 301.0 329.8 300.4 327.8 C 307.1 332.7 316.8 333.5 323.8 328.8 C 329.9 325.0 333.2 317.9 333.1 310.9 C 333.8 311.5 334.5 312.1 335.2 312.6 C 336.2 312.1 336.9 311.0 338.0 311.0 C 340.5 311.0 342.4 309.2 344.8 308.8 C 347.3 308.4 349.3 306.6 351.2 305.0 C 352.5 304.8 353.1 306.5 354.1 307.0 C 356.3 304.4 356.6 300.7 359.2 298.3 C 360.9 298.1 360.3 300.4 360.8 301.4 C 361.2 301.5 362.1 301.8 362.5 302.0 C 362.5 301.5 362.3 300.5 362.3 300.0 C 362.8 299.0 363.8 298.4 364.7 297.7 C 364.6 296.8 364.6 295.9 364.5 295.0 C 365.0 295.1 366.0 295.3 366.5 295.4 C 366.8 296.4 367.3 297.2 368.0 298.0 C 370.5 296.7 372.8 294.9 374.1 292.3 C 374.5 292.8 375.1 293.2 375.7 293.4 C 376.7 292.5 377.5 291.3 378.9 291.1 C 379.6 291.6 380.3 292.2 380.9 292.8 C 382.3 290.7 381.8 287.7 384.2 286.3 C 386.3 285.1 385.4 282.2 387.0 281.0 C 387.7 281.5 388.5 282.0 389.3 282.5 C 391.1 281.9 393.1 281.0 394.7 282.6 C 394.8 279.3 398.3 279.6 400.6 278.6 C 401.0 278.9 401.7 279.6 402.1 279.9 C 403.8 279.1 404.5 276.8 405.4 275.3 C 405.0 275.0 404.4 274.3 404.0 273.9 C 404.7 270.8 408.1 273.3 409.9 271.8 C 410.7 271.2 411.7 271.4 412.7 271.3 C 415.1 268.8 416.6 265.5 419.0 262.9 C 420.9 263.4 420.6 265.8 421.9 266.9 C 422.9 266.0 424.0 265.4 425.3 265.2 C 425.6 264.4 425.9 263.5 426.3 262.7 C 428.7 262.1 431.2 261.7 433.5 260.7 C 433.4 260.0 433.3 259.3 433.2 258.5 C 435.7 258.7 438.2 258.1 440.7 257.7 C 441.2 254.1 436.7 252.4 435.7 249.2 Z" />
<path fill="#8d6684" stroke="#8d6684" stroke-width="0.09375" opacity="1.00" d=" M 20.6 276.2 C 21.5 275.5 22.5 275.4 23.5 275.0 C 23.4 275.9 23.3 276.9 23.3 277.8 C 25.2 278.2 27.2 278.0 29.1 277.7 C 30.8 282.7 31.4 287.9 33.1 292.9 C 45.7 337.2 73.6 377.0 110.8 404.2 C 117.9 409.3 124.9 414.5 132.9 418.1 C 137.3 421.3 142.5 423.3 147.3 426.0 C 144.4 427.5 141.8 424.5 139.0 424.1 C 138.0 424.7 137.0 425.3 136.0 425.9 C 135.2 425.2 134.5 424.4 133.5 424.0 C 133.5 424.4 133.4 425.3 133.4 425.8 C 132.1 426.2 130.1 425.8 129.6 427.6 C 129.5 428.8 129.9 430.2 129.4 431.3 C 127.4 432.4 124.8 431.6 123.0 433.0 C 122.0 433.5 121.3 434.5 120.2 434.6 C 118.8 433.9 118.6 432.1 117.3 431.3 C 117.1 431.9 116.7 433.0 116.6 433.5 C 115.0 434.0 113.4 434.5 111.8 435.0 C 106.6 432.5 102.2 428.8 97.4 425.6 C 74.1 408.9 54.2 387.7 38.3 363.9 C 37.5 362.5 36.8 361.2 36.0 359.9 C 29.6 350.9 25.1 340.8 20.2 330.9 C 17.4 323.9 14.2 317.0 12.2 309.6 C 9.9 301.6 6.6 293.8 5.8 285.3 C 7.4 285.2 8.6 284.3 9.8 283.3 C 10.7 284.2 11.1 285.7 12.4 285.9 C 12.5 285.5 12.6 284.7 12.7 284.3 C 13.5 283.6 14.4 283.0 15.3 282.4 C 15.7 280.7 14.9 278.8 16.3 277.4 C 17.6 276.9 19.0 278.0 20.4 278.0 C 20.4 277.5 20.6 276.6 20.6 276.2 Z" />
</svg>
