<?xml version="1.0" encoding="UTF-8" ?>
<!DOCTYPE svg PUBLIC "-//W3C//DTD SVG 1.1//EN" "http://www.w3.org/Graphics/SVG/1.1/DTD/svg11.dtd">
<svg width="404pt" height="488pt" viewBox="0 0 404 488" version="1.1" xmlns="http://www.w3.org/2000/svg">
<path fill="#162e46" stroke="#162e46" stroke-width="0.09375" opacity="1.00" d=" M 180.4 24.4 C 188.7 22.0 197.4 21.7 206.0 21.1 C 209.3 20.9 212.7 21.0 216.0 21.3 C 258.8 22.9 299.5 48.4 320.4 85.6 C 327.4 97.8 332.2 111.2 334.9 124.9 C 335.1 128.2 335.6 131.5 336.4 134.7 C 337.6 148.3 336.5 162.1 337.2 175.8 C 357.1 210.5 377.3 245.1 397.2 279.8 C 402.9 289.6 404.7 301.5 402.6 312.7 C 400.1 325.5 392.2 337.3 381.0 344.1 C 370.7 350.9 357.6 352.9 345.6 350.4 C 332.6 347.7 320.8 339.4 314.2 327.8 C 313.5 326.8 313.1 325.5 311.9 325.0 C 311.3 332.7 313.0 340.3 312.7 348.0 C 312.9 367.3 314.4 386.6 314.4 405.9 C 313.8 418.6 307.7 430.8 298.1 439.1 C 288.4 447.6 275.2 452.1 262.3 450.6 C 243.9 449.4 227.1 436.1 221.3 418.7 C 219.2 412.0 217.8 405.0 218.3 398.0 C 217.2 367.3 216.1 336.7 214.9 306.0 C 207.7 306.3 200.5 305.2 193.3 305.3 C 193.2 324.2 191.6 343.1 191.6 362.0 C 191.0 371.3 190.1 380.6 190.3 390.0 C 189.7 407.2 188.8 424.5 188.6 441.8 C 187.7 449.0 186.2 456.3 182.7 462.7 C 176.1 475.1 163.7 484.2 149.9 486.9 C 148.2 487.3 146.2 487.1 144.6 488.0 L 139.4 488.0 C 137.1 486.7 134.4 487.7 132.0 487.1 C 114.4 484.3 99.1 470.6 94.4 453.4 C 91.9 446.6 92.8 439.2 92.7 432.0 C 94.3 386.7 96.2 341.4 97.6 296.0 C 83.6 302.2 71.6 313.2 56.1 315.9 C 38.3 318.7 19.2 310.9 9.1 295.9 C 1.4 285.0 -1.2 270.8 1.7 257.8 C 4.6 245.1 12.9 233.7 24.2 227.2 C 43.1 216.0 62.3 205.2 81.2 194.2 C 83.1 193.2 82.2 190.7 82.4 189.1 C 81.8 181.1 82.1 173.0 81.9 165.0 C 69.1 171.3 54.6 175.3 40.3 172.7 C 35.3 171.7 29.6 169.2 27.9 163.9 C 26.6 158.5 30.1 153.4 33.9 149.9 C 40.1 144.2 47.8 140.2 55.9 137.8 C 55.8 137.5 55.6 136.8 55.5 136.4 C 50.7 131.7 47.1 126.1 43.7 120.3 C 39.9 112.9 36.5 104.6 38.2 96.1 C 39.1 91.7 43.4 88.1 48.0 88.6 C 54.3 88.2 59.7 91.9 64.6 95.4 C 72.9 101.8 79.5 110.3 84.3 119.7 C 84.6 119.6 85.1 119.4 85.3 119.3 C 88.6 105.6 94.1 92.5 101.6 80.6 C 119.2 52.6 148.2 31.9 180.4 24.4 M 155.3 97.4 C 143.0 99.0 131.6 106.5 125.2 117.2 C 117.1 130.0 116.9 147.2 124.8 160.2 C 131.1 171.2 142.6 178.8 155.1 180.6 C 161.1 181.2 167.0 181.0 173.0 181.0 C 201.3 181.0 229.7 181.0 258.0 181.0 C 269.5 181.1 280.9 176.1 288.7 167.6 C 296.2 159.8 300.2 148.8 300.0 138.0 C 299.9 120.9 287.9 104.7 271.7 99.3 C 265.4 97.0 258.6 96.9 252.0 97.0 C 222.0 97.0 192.0 97.0 162.0 97.0 C 159.8 97.0 157.5 97.2 155.3 97.4 Z" />
<path fill="#a7c0d0" stroke="#a7c0d0" stroke-width="0.09375" opacity="1.00" d=" M 155.3 97.4 C 157.5 97.2 159.8 97.0 162.0 97.0 C 192.0 97.0 222.0 97.0 252.0 97.0 C 258.6 96.9 265.4 97.0 271.7 99.3 C 287.9 104.7 299.9 120.9 300.0 138.0 C 300.2 148.8 296.2 159.8 288.7 167.6 C 280.9 176.1 269.5 181.1 258.0 181.0 C 229.7 181.0 201.3 181.0 173.0 181.0 C 167.0 181.0 161.1 181.2 155.1 180.6 C 142.6 178.8 131.1 171.2 124.8 160.2 C 116.9 147.2 117.1 130.0 125.2 117.2 C 131.6 106.5 143.0 99.0 155.3 97.4 M 158.3 119.4 C 152.3 120.8 147.7 126.8 148.0 133.0 C 148.1 137.9 147.2 143.5 150.2 147.9 C 153.4 153.1 160.4 155.3 166.1 153.2 C 171.6 151.4 175.2 145.7 175.0 140.0 C 174.9 134.9 175.9 128.9 172.4 124.6 C 169.3 120.1 163.5 118.2 158.3 119.4 M 255.3 119.4 C 249.3 120.8 244.7 126.8 245.0 133.0 C 245.1 137.9 244.2 143.5 247.2 147.9 C 250.9 154.0 260.0 155.8 265.9 151.8 C 269.8 149.4 272.1 144.6 272.0 140.0 C 271.9 134.9 272.9 128.9 269.4 124.6 C 266.4 120.1 260.5 118.2 255.3 119.4 Z" />
<path fill="#162e46" stroke="#162e46" stroke-width="0.09375" opacity="1.00" d=" M 158.3 119.4 C 163.5 118.2 169.3 120.1 172.4 124.6 C 175.9 128.9 174.9 134.9 175.0 140.0 C 175.2 145.7 171.6 151.4 166.1 153.2 C 160.4 155.3 153.4 153.1 150.2 147.9 C 147.2 143.5 148.1 137.9 148.0 133.0 C 147.7 126.8 152.3 120.8 158.3 119.4 Z" />
<path fill="#162e46" stroke="#162e46" stroke-width="0.09375" opacity="1.00" d=" M 255.3 119.4 C 260.5 118.2 266.4 120.1 269.4 124.6 C 272.9 128.9 271.9 134.9 272.0 140.0 C 272.1 144.6 269.8 149.4 265.9 151.8 C 260.0 155.8 250.9 154.0 247.2 147.9 C 244.2 143.5 245.1 137.9 245.0 133.0 C 244.7 126.8 249.3 120.8 255.3 119.4 Z" />
</svg>
