<?xml version="1.0" encoding="UTF-8" ?>
<!DOCTYPE svg PUBLIC "-//W3C//DTD SVG 1.1//EN" "http://www.w3.org/Graphics/SVG/1.1/DTD/svg11.dtd">
<svg width="200pt" height="195pt" viewBox="0 0 200 195" version="1.1" xmlns="http://www.w3.org/2000/svg">
<path fill="#95a5a6" stroke="#95a5a6" stroke-width="0.09375" opacity="1.00" d=" M 0.7 111.9 C 7.1 111.1 14.6 112.9 18.2 118.7 C 20.8 123.7 20.4 129.6 18.8 134.8 C 17.7 138.3 16.9 142.0 17.4 145.7 C 18.2 147.9 20.6 148.7 22.6 149.3 C 22.6 151.1 22.6 152.9 22.7 154.7 C 20.6 155.2 18.1 156.0 17.4 158.3 C 16.3 166.4 22.2 174.2 19.2 182.1 C 16.8 189.7 7.8 192.1 0.7 191.2 C 0.7 189.0 -0.2 186.3 1.2 184.3 C 3.1 183.6 5.7 183.9 6.9 181.9 C 10.0 177.6 9.3 172.0 9.4 167.0 C 9.7 165.1 8.2 163.7 7.7 162.0 C 7.3 158.0 9.5 153.6 13.5 152.5 C 14.4 151.3 12.2 151.0 11.6 150.4 C 8.5 148.5 7.2 144.5 7.9 141.1 C 10.2 135.8 9.7 129.8 8.5 124.4 C 7.7 120.9 4.5 118.8 1.0 118.9 C 0.2 116.6 0.5 114.2 0.7 111.9 Z" />
<path fill="#95a5a6" stroke="#95a5a6" stroke-width="0.09375" opacity="1.00" d=" M 30.8 155.0 C 30.0 139.5 34.7 123.9 44.0 111.6 C 46.5 112.9 51.6 114.1 50.1 117.9 C 42.3 132.2 39.7 149.3 42.7 165.3 C 44.5 172.2 46.8 178.9 50.1 185.1 C 51.6 189.1 46.4 190.0 44.2 191.8 C 36.3 181.2 31.4 168.2 30.8 155.0 Z" />
<path fill="#95a5a6" stroke="#95a5a6" stroke-width="0.09375" opacity="1.00" d=" M 64.4 115.5 C 68.9 113.8 74.6 116.9 74.4 122.0 C 74.4 127.8 66.4 130.5 62.4 126.6 C 58.6 123.6 60.0 117.3 64.4 115.5 Z" />
<path fill="#95a5a6" stroke="#95a5a6" stroke-width="0.09375" opacity="1.00" d=" M 94.1 124.1 C 107.0 113.0 128.6 113.1 140.9 125.1 C 154.0 138.1 152.4 162.6 137.1 173.2 C 140.4 177.4 144.5 181.0 148.1 184.9 C 149.5 186.6 151.8 187.9 152.3 190.2 C 147.4 190.1 141.8 191.5 137.3 188.7 C 133.6 185.4 130.5 181.4 126.8 178.0 C 116.1 180.0 103.9 179.0 95.2 171.8 C 81.0 160.4 80.6 136.2 94.1 124.1 M 110.4 126.6 C 104.5 128.4 99.5 133.1 97.9 139.0 C 95.8 145.7 96.2 153.3 99.4 159.6 C 105.9 171.7 125.6 172.5 133.5 161.5 C 138.0 155.0 138.3 146.4 136.2 139.0 C 135.0 134.7 132.1 131.0 128.4 128.7 C 123.0 125.4 116.3 125.1 110.4 126.6 Z" />
<path fill="#95a5a6" stroke="#95a5a6" stroke-width="0.09375" opacity="1.00" d=" M 160.2 134.3 C 163.7 134.4 167.3 134.4 170.8 134.3 C 171.7 144.7 170.5 155.2 171.4 165.6 C 172.7 170.8 179.4 171.9 183.5 169.7 C 185.4 168.4 188.7 167.6 188.7 164.9 C 188.8 154.8 188.4 144.8 188.8 134.8 C 192.6 134.5 196.3 134.5 200.0 134.8 L 200.0 178.2 C 197.0 178.3 194.0 178.6 191.1 178.1 C 189.1 177.8 189.4 175.3 188.8 173.9 C 185.9 175.2 183.6 177.7 180.4 178.3 C 175.3 179.4 169.4 179.4 165.3 175.7 C 160.0 171.5 159.7 164.2 159.8 158.0 C 160.0 150.1 159.3 142.1 160.2 134.3 Z" />
<path fill="#95a5a6" stroke="#95a5a6" stroke-width="0.09375" opacity="1.00" d=" M 61.8 134.8 C 65.5 134.7 69.2 134.1 72.8 135.0 C 72.6 150.3 72.8 165.7 72.7 181.0 C 72.7 184.8 71.1 188.7 68.0 190.9 C 63.7 194.3 57.9 193.6 52.8 193.1 C 52.6 190.8 52.3 188.4 53.1 186.2 C 54.4 184.9 56.4 185.6 57.9 185.3 C 60.2 185.3 61.6 182.9 61.6 180.9 C 61.8 165.5 61.4 150.1 61.8 134.8 Z" />
</svg>
