<?xml version="1.0" encoding="UTF-8" ?>
<!DOCTYPE svg PUBLIC "-//W3C//DTD SVG 1.1//EN" "http://www.w3.org/Graphics/SVG/1.1/DTD/svg11.dtd">
<svg width="818pt" height="272pt" viewBox="0 0 818 272" version="1.1" xmlns="http://www.w3.org/2000/svg">
<path fill="#e9f0f5" stroke="#e9f0f5" stroke-width="0.09375" opacity="1.00" d=" M 275.0 1.9 C 299.6 -2.8 326.8 4.4 344.0 23.0 C 355.3 35.8 361.7 52.9 361.6 70.0 C 361.6 85.0 361.6 100.0 361.6 115.0 C 361.7 118.4 361.3 121.8 361.0 125.2 C 357.8 126.7 354.2 125.4 351.3 123.7 C 349.5 121.9 349.0 119.2 348.2 116.8 C 347.4 113.4 344.8 110.9 342.3 108.7 C 338.9 105.5 333.6 108.6 330.1 105.9 C 328.5 103.7 327.3 101.2 326.1 98.8 C 326.2 90.9 325.9 82.9 326.0 75.0 C 325.9 70.0 326.1 64.8 323.9 60.2 C 322.4 57.1 322.7 53.3 320.7 50.4 C 318.1 47.7 315.5 45.0 313.0 42.2 C 308.4 44.4 306.8 50.4 301.7 51.6 C 295.7 53.5 289.6 49.4 286.6 44.4 C 284.6 41.0 280.9 39.2 277.6 37.4 C 275.8 36.3 274.0 37.7 272.3 38.4 C 265.9 41.9 259.8 47.0 257.1 54.1 C 255.2 58.7 254.6 63.8 253.8 68.7 C 252.7 73.4 254.3 78.5 251.8 82.8 C 249.9 86.7 246.0 89.0 243.5 92.4 C 240.6 96.0 238.6 100.2 235.6 103.7 C 233.0 105.6 229.2 105.2 226.7 103.2 C 223.2 100.5 219.2 96.9 219.3 92.0 C 218.8 82.6 219.4 73.3 219.0 64.0 C 219.4 51.5 223.8 39.2 231.0 29.0 C 241.1 14.4 257.8 5.1 275.0 1.9 Z" />
<path fill="#e9f0f5" stroke="#e9f0f5" stroke-width="0.09375" opacity="1.00" d=" M 731.4 2.5 C 745.8 -0.6 761.2 -0.0 775.1 5.0 C 785.8 8.8 794.9 16.1 802.4 24.5 C 808.8 33.1 813.8 42.9 816.6 53.3 C 817.6 62.9 818.1 72.7 817.5 82.3 C 815.6 81.0 813.1 79.7 812.8 77.2 C 811.0 69.6 809.0 61.9 804.5 55.4 C 802.4 53.7 799.7 52.8 797.0 52.3 C 793.7 53.5 791.0 56.1 788.4 58.4 C 785.7 60.5 786.6 64.9 783.7 66.7 C 781.3 68.2 778.3 69.7 775.4 68.6 C 771.6 65.3 772.5 59.5 772.0 55.0 C 772.2 49.8 769.1 45.5 767.4 40.9 C 767.1 40.5 766.5 39.6 766.2 39.2 C 756.9 40.1 750.4 47.5 742.8 52.1 C 740.3 53.3 737.6 51.6 735.1 50.9 C 732.4 50.1 730.3 48.2 727.9 46.8 C 724.9 46.9 721.3 48.2 720.2 51.2 C 717.6 56.0 717.0 61.5 715.9 66.7 C 714.4 74.0 711.5 81.0 707.1 87.1 C 705.2 89.5 704.1 94.4 700.2 93.7 C 697.1 91.9 694.5 89.1 691.0 88.0 C 686.7 86.6 683.5 83.3 680.8 79.8 C 680.4 68.3 681.1 56.8 683.7 45.6 C 686.9 39.0 690.0 32.3 694.3 26.3 C 703.3 14.4 716.9 6.0 731.4 2.5 Z" />
<path fill="#e9f0f5" stroke="#e9f0f5" stroke-width="0.09375" opacity="1.00" d=" M 147.3 25.3 C 149.9 22.2 152.8 18.7 157.1 18.2 C 163.4 17.3 170.5 16.5 176.4 19.6 C 181.4 22.3 182.5 28.6 181.9 33.8 C 181.5 35.2 181.1 36.5 180.7 37.9 C 175.9 35.8 170.1 34.4 165.2 37.2 C 162.1 38.4 162.5 42.3 160.4 44.4 C 158.7 45.8 156.8 47.7 154.4 47.6 C 151.3 45.6 149.8 41.9 148.1 38.8 C 146.0 34.7 147.7 29.8 147.3 25.3 Z" />
<path fill="#aac7d9" stroke="#aac7d9" stroke-width="0.09375" opacity="1.00" d=" M 180.7 37.9 C 181.1 36.5 181.5 35.2 181.9 33.8 C 181.9 38.2 182.1 42.6 181.8 47.0 C 181.2 52.8 175.9 57.6 170.0 57.4 C 163.7 57.1 156.0 58.9 151.2 53.8 C 147.1 49.9 148.0 43.9 148.1 38.8 C 149.8 41.9 151.3 45.6 154.4 47.6 C 156.8 47.7 158.7 45.8 160.4 44.4 C 162.5 42.3 162.1 38.4 165.2 37.2 C 170.1 34.4 175.9 35.8 180.7 37.9 Z" />
<path fill="#84aac2" stroke="#84aac2" stroke-width="0.09375" opacity="1.00" d=" M 767.4 40.9 C 769.1 45.5 772.2 49.8 772.0 55.0 C 772.5 59.5 771.6 65.3 775.4 68.6 C 778.3 69.7 781.3 68.2 783.7 66.7 C 786.6 64.9 785.7 60.5 788.4 58.4 C 791.0 56.1 793.7 53.5 797.0 52.3 C 799.7 52.8 802.4 53.7 804.5 55.4 C 809.0 61.9 811.0 69.6 812.8 77.2 C 813.1 79.7 815.6 81.0 817.5 82.3 C 817.5 102.2 817.4 122.1 817.5 142.0 C 817.4 157.8 812.0 173.6 801.7 185.7 C 792.0 197.4 777.9 205.0 763.0 207.7 C 746.9 210.2 729.7 208.8 715.3 200.8 C 699.3 192.5 687.6 177.0 683.3 159.7 C 679.9 147.7 680.9 135.2 680.7 123.0 C 680.8 108.6 680.6 94.2 680.8 79.8 C 683.5 83.3 686.7 86.6 691.0 88.0 C 694.5 89.1 697.1 91.9 700.2 93.7 C 704.1 94.4 705.2 89.5 707.1 87.1 C 711.5 81.0 714.4 74.0 715.9 66.7 C 716.3 88.5 715.7 110.4 716.2 132.2 C 717.2 131.2 718.2 130.1 718.9 128.9 C 734.7 101.3 750.5 73.8 766.4 46.4 C 767.5 44.7 767.7 42.8 767.4 40.9 M 778.6 82.6 C 763.2 109.2 747.8 135.8 732.4 162.4 C 730.8 165.1 729.4 169.3 732.6 171.5 C 738.5 174.7 745.4 175.3 752.0 175.0 C 761.7 174.7 771.3 169.7 776.5 161.4 C 780.9 154.5 782.5 146.1 782.3 138.0 C 782.1 117.9 782.5 97.8 782.1 77.7 C 780.4 78.9 779.6 80.9 778.6 82.6 Z" />
<path fill="#aac7d9" stroke="#aac7d9" stroke-width="0.09375" opacity="1.00" d=" M 218.5 70.0 C 218.7 68.0 218.0 65.8 219.0 64.0 C 219.4 73.3 218.8 82.6 219.3 92.0 C 219.2 96.9 223.2 100.5 226.7 103.2 C 229.2 105.2 233.0 105.6 235.6 103.7 C 238.6 100.2 240.6 96.0 243.5 92.4 C 246.0 89.0 249.9 86.7 251.8 82.8 C 254.3 78.5 252.7 73.4 253.8 68.7 C 254.1 83.5 253.9 98.3 253.8 113.0 C 245.2 113.2 236.4 112.6 227.8 113.6 C 224.9 113.8 221.9 114.2 219.0 113.9 L 218.4 113.9 C 218.8 99.2 218.4 84.6 218.5 70.0 Z" />
<path fill="#aac7d9" stroke="#aac7d9" stroke-width="0.09375" opacity="1.00" d=" M 441.1 67.2 C 453.6 65.2 467.2 66.3 478.4 72.4 C 477.0 73.0 475.7 73.8 474.2 74.2 C 453.8 79.1 433.9 86.9 416.0 97.9 C 413.3 99.7 410.1 98.4 407.2 97.9 C 405.2 97.3 402.6 97.2 401.6 95.1 C 409.5 80.4 424.5 69.8 441.1 67.2 Z" />
<path fill="#84aac2" stroke="#84aac2" stroke-width="0.09375" opacity="1.00" d=" M 582.4 67.2 C 595.2 65.7 608.9 66.2 620.7 72.3 C 634.2 78.9 644.4 91.7 647.8 106.4 C 650.3 116.1 649.6 126.1 649.7 136.0 C 649.8 140.7 648.9 146.0 644.6 148.7 C 640.7 151.6 635.6 150.6 631.0 150.7 C 611.9 150.8 592.9 150.6 573.8 150.8 C 573.3 158.0 574.7 165.8 579.9 171.1 C 584.3 175.7 591.0 176.6 597.0 176.5 C 603.1 176.6 609.4 175.2 614.2 171.2 C 618.7 168.3 621.9 162.4 628.0 162.5 C 633.9 161.8 637.8 166.8 641.8 170.2 C 644.4 172.4 646.4 175.5 646.3 179.0 C 646.6 183.6 643.9 187.7 640.8 190.8 C 629.4 202.4 613.3 209.3 597.0 208.8 C 584.3 209.2 571.3 205.6 561.1 197.9 C 548.0 188.3 540.1 172.2 540.3 156.0 C 540.3 143.7 540.3 131.3 540.3 119.0 C 540.3 104.9 545.7 90.7 555.8 80.8 C 559.9 76.9 564.7 74.0 569.6 71.3 C 570.5 73.3 573.0 73.2 574.8 72.9 C 577.7 72.0 580.2 70.1 582.0 67.7 L 582.4 67.2 M 580.6 102.6 C 575.6 107.3 573.9 114.5 573.8 121.2 C 587.9 121.3 601.9 121.4 616.0 121.2 C 616.0 112.6 612.0 102.4 603.0 99.9 C 595.7 98.1 586.9 97.8 580.6 102.6 Z" />
<path fill="#a8c5d8" stroke="#a8c5d8" stroke-width="0.09375" opacity="1.00" d=" M 569.6 71.3 C 573.6 69.6 577.6 67.8 582.0 67.7 C 580.2 70.1 577.7 72.0 574.8 72.9 C 573.0 73.2 570.5 73.3 569.6 71.3 Z" />
<path fill="#aac7d9" stroke="#aac7d9" stroke-width="0.09375" opacity="1.00" d=" M 0.2 80.0 C 0.3 74.0 6.0 69.1 11.9 69.1 C 28.0 69.0 44.0 69.1 60.0 69.1 C 72.8 69.1 85.8 73.0 95.8 81.2 C 106.4 89.5 112.5 102.6 113.9 115.9 C 114.1 123.2 114.0 130.5 114.0 137.8 C 102.3 139.5 91.4 143.9 80.2 147.2 C 79.9 137.8 80.3 128.4 80.0 119.0 C 79.1 109.6 70.4 101.9 61.0 101.8 C 52.0 101.6 43.0 101.7 34.0 101.8 C 33.9 123.8 34.1 145.8 34.0 167.9 C 22.3 169.7 11.7 175.2 1.7 181.1 L 0.4 181.7 C 0.1 179.1 0.2 176.6 0.2 174.0 C 0.2 142.7 0.1 111.4 0.2 80.0 Z" />
<path fill="#aac7d9" stroke="#aac7d9" stroke-width="0.09375" opacity="1.00" d=" M 148.0 80.9 C 147.7 74.5 153.6 69.0 159.9 69.1 C 164.2 69.1 168.4 68.8 172.6 69.5 C 177.9 70.5 181.9 75.6 181.9 80.9 C 181.9 94.6 182.1 108.2 181.8 121.8 C 175.6 123.3 169.6 125.5 163.7 127.7 C 158.5 129.5 153.7 132.7 148.0 133.3 C 148.0 115.8 148.0 98.4 148.0 80.9 Z" />
<path fill="#84aac2" stroke="#84aac2" stroke-width="0.09375" opacity="1.00" d=" M 478.4 72.4 C 496.9 80.8 508.8 100.8 509.0 121.0 C 509.0 145.3 509.0 169.7 508.9 194.1 C 509.1 200.1 504.2 205.7 498.1 205.9 C 493.4 206.0 488.7 206.3 484.1 205.6 C 478.9 204.5 475.1 199.3 475.3 194.0 C 475.3 170.0 475.3 146.0 475.3 122.0 C 475.3 114.3 471.8 106.2 465.2 101.9 C 459.0 98.2 451.2 98.2 444.4 99.6 C 436.5 101.3 431.1 108.5 429.4 116.1 C 428.5 121.0 428.8 126.0 428.7 131.0 C 428.7 152.3 428.8 173.7 428.7 195.0 C 428.6 200.6 423.7 205.6 418.1 205.9 C 414.0 206.1 410.0 206.1 405.9 205.9 C 400.3 205.6 395.3 200.7 395.3 195.1 C 395.3 169.7 395.3 144.3 395.3 119.0 C 395.2 110.6 398.3 102.7 401.6 95.1 C 402.6 97.2 405.2 97.3 407.2 97.9 C 410.1 98.4 413.3 99.7 416.0 97.9 C 433.9 86.9 453.8 79.1 474.2 74.2 C 475.7 73.8 477.0 73.0 478.4 72.4 Z" />
<path fill="#84aac2" stroke="#84aac2" stroke-width="0.09375" opacity="1.00" d=" M 326.1 98.8 C 327.3 101.2 328.5 103.7 330.1 105.9 C 333.6 108.6 338.9 105.5 342.3 108.7 C 344.8 110.9 347.4 113.4 348.2 116.8 C 349.0 119.2 349.5 121.9 351.3 123.7 C 354.2 125.4 357.8 126.7 361.0 125.2 C 360.8 136.6 361.8 148.3 358.5 159.4 C 353.9 177.0 341.7 192.4 325.4 200.4 C 311.0 208.2 294.1 210.1 278.0 208.0 C 259.5 205.5 241.6 195.7 230.9 180.1 C 222.1 167.7 218.2 152.2 218.7 137.0 C 218.9 129.3 218.4 121.6 219.0 113.9 C 221.9 114.2 224.9 113.8 227.8 113.6 C 236.4 112.6 245.2 113.2 253.8 113.0 C 253.6 120.4 253.8 127.7 253.7 135.0 C 253.6 142.0 254.2 149.3 257.1 155.8 C 260.2 162.6 265.4 168.6 272.3 171.7 C 279.6 175.0 287.9 175.6 295.9 174.8 C 302.3 174.1 308.7 172.0 313.7 167.8 C 321.5 161.2 325.7 151.1 325.9 141.1 C 326.2 127.0 325.8 112.9 326.1 98.8 Z" />
<path fill="#84aac2" stroke="#84aac2" stroke-width="0.09375" opacity="1.00" d=" M 163.7 127.7 C 169.6 125.5 175.6 123.3 181.8 121.8 C 181.6 146.2 181.8 170.6 181.7 195.0 C 181.5 201.0 176.0 206.0 170.1 206.0 C 164.9 205.8 159.3 206.9 154.4 204.7 C 149.9 202.7 147.8 197.7 148.0 193.0 C 148.0 173.1 147.9 153.2 148.0 133.3 C 153.7 132.7 158.5 129.5 163.7 127.7 Z" />
<path fill="#84aac2" stroke="#84aac2" stroke-width="0.09375" opacity="1.00" d=" M 80.2 147.2 C 91.4 143.9 102.3 139.5 114.0 137.8 C 113.9 147.4 114.7 157.2 112.5 166.6 C 109.9 177.1 104.2 186.9 95.9 193.8 C 86.7 201.5 74.9 205.6 63.0 206.0 C 53.4 206.1 43.7 205.9 34.0 206.0 C 33.9 223.7 34.1 241.4 33.9 259.1 C 34.1 263.2 32.3 267.4 28.8 269.8 C 23.8 272.9 17.6 271.3 12.0 271.6 C 6.1 272.0 0.4 267.0 0.4 261.0 C 0.3 234.6 0.4 208.2 0.3 181.9 C 0.7 181.7 1.4 181.3 1.7 181.1 C 11.7 175.2 22.3 169.7 34.0 167.9 C 33.9 169.8 34.1 171.8 34.1 173.8 C 43.1 173.6 52.1 173.8 61.0 173.7 C 67.6 173.6 74.2 170.3 77.5 164.5 C 80.7 159.3 80.4 153.0 80.2 147.2 Z" />
</svg>
