<?xml version="1.0" encoding="UTF-8" ?>
<!DOCTYPE svg PUBLIC "-//W3C//DTD SVG 1.1//EN" "http://www.w3.org/Graphics/SVG/1.1/DTD/svg11.dtd">
<svg width="478pt" height="476pt" viewBox="0 0 478 476" version="1.1" xmlns="http://www.w3.org/2000/svg">
<path fill="#0e1e2f" stroke="#0e1e2f" stroke-width="0.09375" opacity="0.67" d=" M 65.3 0.0 L 71.1 0.0 C 69.7 0.5 67.0 1.4 65.7 1.9 L 64.9 1.0 L 65.3 0.0 Z" />
<path fill="#162d46" stroke="#162d46" stroke-width="0.09375" opacity="1.00" d=" M 71.1 0.0 L 411.6 0.0 C 427.0 3.0 442.4 9.1 453.7 20.3 C 465.9 31.3 473.1 46.9 476.2 62.8 C 475.5 64.3 475.8 66.0 477.0 67.1 C 477.3 69.2 477.7 71.2 478.0 73.3 C 477.4 85.2 476.9 97.1 477.0 109.0 C 477.0 195.7 477.0 282.3 477.0 369.0 C 476.9 380.4 477.3 391.8 477.8 403.2 C 477.4 405.2 476.9 407.1 476.3 409.0 C 475.6 410.3 475.9 411.9 476.7 413.2 C 473.6 426.0 468.8 438.9 460.0 449.0 C 448.2 464.0 430.1 472.9 411.5 476.0 L 71.1 476.0 C 69.7 475.5 67.0 474.6 65.7 474.1 L 64.9 475.0 C 48.3 473.1 32.7 465.0 21.2 452.8 C 10.7 441.9 4.6 427.7 1.3 413.1 C 2.1 411.9 2.5 410.3 1.7 409.0 C 1.1 406.9 0.5 404.9 0.0 402.8 C 0.6 389.2 1.1 375.6 1.1 362.0 C 0.9 292.0 1.1 222.0 1.0 152.0 C 0.9 125.6 1.6 99.2 0.1 72.8 C 0.4 70.9 0.7 69.0 1.0 67.1 C 2.2 66.0 2.5 64.3 1.8 62.8 C 4.9 48.3 10.6 33.9 21.2 23.2 C 32.6 11.0 48.4 3.1 64.9 1.0 L 65.7 1.9 C 67.0 1.4 69.7 0.5 71.1 0.0 M 59.0 58.0 C 59.0 98.0 59.0 138.0 59.0 178.0 C 59.0 218.0 59.0 258.0 59.0 298.0 C 59.0 338.0 59.0 378.0 59.0 418.0 C 99.0 418.0 139.0 418.0 179.0 418.0 C 219.0 418.0 259.0 418.0 299.0 418.0 C 339.0 418.0 379.0 418.0 419.0 418.0 C 419.0 378.0 419.0 338.0 419.0 298.0 C 419.0 258.0 419.0 218.0 419.0 178.0 C 419.0 138.0 419.0 98.0 419.0 58.0 C 379.0 58.0 339.0 58.0 299.0 58.0 C 259.0 58.0 219.0 58.0 179.0 58.0 C 139.0 58.0 99.0 58.0 59.0 58.0 Z" />
<path fill="#d25400" stroke="#d25400" stroke-width="0.09375" opacity="1.00" d=" M 59.0 58.0 C 99.0 58.0 139.0 58.0 179.0 58.0 C 179.0 98.0 179.0 138.0 179.0 178.0 C 139.0 178.0 99.0 178.0 59.0 178.0 C 59.0 138.0 59.0 98.0 59.0 58.0 Z" />
<path fill="#e67e21" stroke="#e67e21" stroke-width="0.09375" opacity="1.00" d=" M 179.0 58.0 C 219.0 58.0 259.0 58.0 299.0 58.0 C 299.0 98.0 299.0 138.0 299.0 178.0 C 259.0 178.0 219.0 178.0 179.0 178.0 C 179.0 138.0 179.0 98.0 179.0 58.0 Z" />
<path fill="#f1c30f" stroke="#f1c30f" stroke-width="0.09375" opacity="1.00" d=" M 299.0 58.0 C 339.0 58.0 379.0 58.0 419.0 58.0 C 419.0 98.0 419.0 138.0 419.0 178.0 C 379.0 178.0 339.0 178.0 299.0 178.0 C 299.0 138.0 299.0 98.0 299.0 58.0 Z" />
<path fill="#0a1621" stroke="#0a1621" stroke-width="0.09375" opacity="0.49" d=" M 1.0 67.1 C 0.4 65.6 0.7 64.0 1.8 62.8 C 2.5 64.3 2.2 66.0 1.0 67.1 Z" />
<path fill="#0a1621" stroke="#0a1621" stroke-width="0.09375" opacity="0.49" d=" M 476.2 62.8 C 477.3 64.0 477.6 65.7 477.0 67.1 C 475.8 66.0 475.5 64.3 476.2 62.8 Z" />
<path fill="#010407" stroke="#010407" stroke-width="0.09375" opacity="0.11" d=" M 0.0 73.8 L 0.1 72.8 C 1.6 99.2 0.9 125.6 1.0 152.0 C 1.1 222.0 0.9 292.0 1.1 362.0 C 1.1 375.6 0.6 389.2 0.0 402.8 L 0.0 403.6 L 0.0 73.8 Z" />
<path fill="#010407" stroke="#010407" stroke-width="0.09375" opacity="0.11" d=" M 478.0 73.3 L 478.0 72.4 L 478.0 402.2 L 477.8 403.2 C 477.3 391.8 476.9 380.4 477.0 369.0 C 477.0 282.3 477.0 195.7 477.0 109.0 C 476.9 97.1 477.4 85.2 478.0 73.3 Z" />
<path fill="#297fb9" stroke="#297fb9" stroke-width="0.09375" opacity="1.00" d=" M 59.0 178.0 C 99.0 178.0 139.0 178.0 179.0 178.0 C 179.0 218.0 179.0 258.0 179.0 298.0 C 139.0 298.0 99.0 298.0 59.0 298.0 C 59.0 258.0 59.0 218.0 59.0 178.0 Z" />
<path fill="#3398da" stroke="#3398da" stroke-width="0.09375" opacity="1.00" d=" M 179.0 178.0 C 219.0 178.0 259.0 178.0 299.0 178.0 C 299.0 218.0 299.0 258.0 299.0 298.0 C 259.0 298.0 219.0 298.0 179.0 298.0 C 179.0 258.0 179.0 218.0 179.0 178.0 Z" />
<path fill="#19bc9c" stroke="#19bc9c" stroke-width="0.09375" opacity="1.00" d=" M 299.0 178.0 C 339.0 178.0 379.0 178.0 419.0 178.0 C 419.0 218.0 419.0 258.0 419.0 298.0 C 379.0 298.0 339.0 298.0 299.0 298.0 C 299.0 258.0 299.0 218.0 299.0 178.0 Z" />
<path fill="#2c3e50" stroke="#2c3e50" stroke-width="0.09375" opacity="1.00" d=" M 59.0 298.0 C 99.0 298.0 139.0 298.0 179.0 298.0 C 179.0 338.0 179.0 378.0 179.0 418.0 C 139.0 418.0 99.0 418.0 59.0 418.0 C 59.0 378.0 59.0 338.0 59.0 298.0 Z" />
<path fill="#33495e" stroke="#33495e" stroke-width="0.09375" opacity="1.00" d=" M 179.0 298.0 C 219.0 298.0 259.0 298.0 299.0 298.0 C 299.0 338.0 299.0 378.0 299.0 418.0 C 259.0 418.0 219.0 418.0 179.0 418.0 C 179.0 378.0 179.0 338.0 179.0 298.0 Z" />
<path fill="#7f8b8c" stroke="#7f8b8c" stroke-width="0.09375" opacity="1.00" d=" M 299.0 298.0 C 339.0 298.0 379.0 298.0 419.0 298.0 C 419.0 338.0 419.0 378.0 419.0 418.0 C 379.0 418.0 339.0 418.0 299.0 418.0 C 299.0 378.0 299.0 338.0 299.0 298.0 Z" />
<path fill="#0a1621" stroke="#0a1621" stroke-width="0.09375" opacity="0.49" d=" M 1.7 409.0 C 2.5 410.3 2.1 411.9 1.3 413.1 C 0.5 411.8 0.2 409.9 1.7 409.0 Z" />
<path fill="#0a1621" stroke="#0a1621" stroke-width="0.09375" opacity="0.49" d=" M 476.7 413.2 C 475.9 411.9 475.6 410.3 476.3 409.0 C 477.8 409.9 477.5 411.9 476.7 413.2 Z" />
<path fill="#0e1e2f" stroke="#0e1e2f" stroke-width="0.09375" opacity="0.68" d=" M 64.9 475.0 L 65.7 474.1 C 67.0 474.6 69.7 475.5 71.1 476.0 L 65.3 476.0 L 64.9 475.0 Z" />
</svg>
