<?xml version="1.0" encoding="UTF-8" ?>
<!DOCTYPE svg PUBLIC "-//W3C//DTD SVG 1.1//EN" "http://www.w3.org/Graphics/SVG/1.1/DTD/svg11.dtd">
<svg width="542pt" height="356pt" viewBox="0 0 542 356" version="1.1" xmlns="http://www.w3.org/2000/svg">
<path fill="#6b9cd1" stroke="#6b9cd1" stroke-width="0.09375" opacity="1.00" d=" M 432.5 2.6 C 444.0 2.2 455.5 0.9 467.0 2.2 C 470.8 2.8 474.9 1.5 478.4 3.5 C 483.2 3.7 487.9 4.6 492.6 5.6 C 495.9 7.3 499.8 7.1 503.1 8.9 C 510.3 11.4 517.1 15.2 523.1 19.8 C 533.8 28.2 540.7 41.4 540.9 55.0 C 541.5 64.7 539.7 74.3 536.6 83.4 C 531.2 100.0 522.2 115.0 512.2 129.2 C 489.0 161.2 459.8 188.3 428.9 212.9 C 428.2 213.5 427.5 214.2 426.8 214.8 C 414.8 223.5 403.1 232.6 390.8 240.8 C 356.4 264.2 320.1 284.9 282.3 302.3 C 259.0 313.0 235.3 323.0 210.9 330.8 C 191.1 337.8 170.7 343.6 150.0 347.4 C 138.0 350.8 125.3 351.4 113.0 353.6 C 109.9 353.5 106.8 353.7 103.8 354.5 C 87.5 354.8 70.9 355.1 54.9 352.1 C 46.5 349.8 37.8 348.0 30.1 343.9 C 16.2 337.2 4.6 324.5 1.9 309.0 C 1.6 304.6 0.1 300.1 1.5 295.8 C 1.1 280.0 7.8 265.3 14.5 251.4 C 27.4 228.1 44.4 207.2 62.9 188.3 C 55.7 199.5 50.4 212.0 47.4 225.0 C 45.7 231.8 46.3 238.9 46.5 245.8 C 47.8 250.3 48.5 255.0 50.9 259.1 C 56.6 270.8 68.0 278.9 80.1 283.0 C 89.2 287.1 99.3 287.8 109.0 289.3 C 119.9 290.1 130.9 289.6 141.8 289.5 C 147.4 287.8 153.6 288.2 159.2 286.9 C 201.5 279.9 242.2 265.2 280.6 246.5 C 314.6 229.7 347.1 209.5 376.7 185.7 C 392.2 173.4 406.7 159.9 420.0 145.3 C 436.3 127.2 450.6 106.9 458.7 83.8 C 462.1 73.9 463.3 63.3 461.8 52.9 C 460.1 40.6 452.3 29.7 442.0 23.0 C 428.6 14.5 412.7 10.7 397.0 10.0 C 395.0 10.2 392.0 8.6 390.7 10.6 C 389.9 9.7 388.9 10.0 388.0 10.6 C 388.5 8.9 390.5 8.6 392.0 8.5 C 401.3 7.1 410.6 4.9 420.0 4.2 C 424.0 2.9 428.4 3.7 432.5 2.6 Z" />
<path fill="#2f64ae" stroke="#2f64ae" stroke-width="0.09375" opacity="1.00" d=" M 223.4 56.3 C 249.1 46.0 277.7 43.2 304.9 48.2 C 328.3 52.5 350.5 62.4 369.4 76.6 C 390.4 92.7 407.2 114.4 417.0 139.0 C 418.1 141.0 418.7 143.3 420.0 145.3 C 406.7 159.9 392.2 173.4 376.7 185.7 C 347.1 209.5 314.6 229.7 280.6 246.5 C 242.2 265.2 201.5 279.9 159.2 286.9 C 151.4 276.6 144.5 265.4 139.8 253.2 C 135.4 242.4 131.6 231.2 130.4 219.5 C 127.9 207.8 128.3 195.9 128.4 184.0 C 130.1 172.8 131.7 161.4 135.5 150.6 C 148.4 108.0 182.0 72.4 223.4 56.3 Z" />
<path fill="#2f64ae" stroke="#2f64ae" stroke-width="0.09375" opacity="1.00" d=" M 390.8 240.8 C 403.1 232.6 414.8 223.5 426.8 214.8 C 426.5 221.0 425.3 227.2 423.4 233.2 C 412.4 278.4 378.5 317.2 335.4 334.5 C 323.0 339.5 309.8 343.4 296.4 344.5 C 295.6 345.0 294.7 345.3 293.8 345.5 C 281.1 345.8 268.3 346.0 255.7 344.3 C 247.2 342.4 238.5 340.9 230.4 337.8 C 223.7 335.9 217.6 332.3 210.9 330.8 C 235.3 323.0 259.0 313.0 282.3 302.3 C 320.1 284.9 356.4 264.2 390.8 240.8 Z" />
</svg>
