<?xml version="1.0" encoding="UTF-8" ?>
<!DOCTYPE svg PUBLIC "-//W3C//DTD SVG 1.1//EN" "http://www.w3.org/Graphics/SVG/1.1/DTD/svg11.dtd">
<svg width="3000pt" height="340pt" viewBox="0 0 3000 340" version="1.1" xmlns="http://www.w3.org/2000/svg">
<path fill="#162e46" stroke="#162e46" stroke-width="0.09375" opacity="1.00" d=" M 0.0 0.0 L 3000.0 0.0 L 3000.0 261.1 C 2995.1 260.3 2990.3 258.8 2985.4 258.5 C 2979.2 258.3 2974.3 254.3 2968.7 252.2 C 2964.1 249.6 2958.4 248.4 2955.2 243.9 C 2952.4 241.3 2950.5 237.1 2946.4 236.5 C 2939.4 235.0 2932.3 233.8 2925.2 232.7 C 2919.2 232.1 2914.3 228.4 2909.0 226.0 C 2900.7 222.4 2894.0 216.3 2886.6 211.4 C 2873.8 204.5 2860.5 198.4 2847.0 193.0 C 2837.4 187.8 2826.1 189.2 2815.9 186.1 C 2812.2 185.0 2808.5 184.2 2804.9 183.1 C 2799.8 180.8 2794.9 184.8 2790.1 186.1 C 2782.6 189.7 2774.1 188.2 2766.1 189.3 C 2762.8 189.9 2759.4 189.5 2756.0 189.8 C 2740.7 190.7 2725.4 193.7 2710.0 192.7 C 2698.0 192.9 2686.0 192.2 2674.0 192.3 C 2667.7 192.3 2661.4 192.4 2655.2 191.7 C 2647.0 189.5 2639.0 187.3 2630.9 185.1 C 2629.2 184.5 2627.3 184.3 2625.9 183.1 C 2616.2 174.4 2606.8 165.2 2595.9 158.1 C 2585.7 154.5 2574.9 153.6 2564.3 152.2 C 2561.6 153.9 2560.6 157.5 2557.4 158.4 C 2550.7 160.3 2544.1 162.8 2537.1 162.8 C 2529.1 163.0 2521.1 163.1 2513.2 164.1 C 2507.0 168.1 2501.4 173.1 2495.4 177.4 C 2492.1 180.4 2488.0 182.6 2485.2 186.2 C 2482.7 190.6 2477.0 190.0 2472.8 191.8 C 2468.3 193.7 2463.6 191.8 2459.0 192.2 C 2454.8 192.3 2450.6 192.3 2446.6 193.6 C 2440.1 196.4 2433.6 199.3 2427.0 202.1 C 2422.7 203.6 2422.3 209.6 2417.9 210.9 C 2412.7 212.6 2407.7 215.7 2402.0 215.0 C 2395.2 215.5 2388.8 212.9 2382.1 212.2 C 2377.3 213.5 2372.6 215.2 2368.0 217.1 C 2363.0 220.7 2358.8 225.4 2353.2 228.2 C 2347.0 231.5 2341.5 236.5 2334.2 237.3 C 2325.2 238.4 2317.2 242.8 2308.7 245.6 C 2300.2 247.2 2291.5 246.3 2283.0 247.1 C 2272.3 248.0 2261.6 247.5 2250.9 248.6 C 2243.6 248.6 2236.2 248.7 2229.0 250.1 C 2203.6 254.1 2178.4 258.9 2153.0 263.0 C 2148.7 264.0 2144.4 263.9 2140.1 263.6 C 2128.4 262.5 2116.6 261.9 2104.9 260.8 C 2094.7 261.0 2085.0 257.1 2075.2 254.8 C 2064.7 252.3 2054.4 249.2 2044.0 246.9 C 2022.0 244.3 2000.1 241.0 1978.1 239.3 C 1967.7 238.5 1957.2 236.9 1946.8 237.2 C 1936.1 236.1 1925.6 233.9 1915.1 231.9 C 1910.1 231.3 1906.1 228.2 1901.7 226.2 C 1896.5 223.1 1890.7 221.0 1886.0 217.0 C 1879.7 213.0 1874.2 207.7 1867.3 204.8 C 1861.6 202.1 1856.0 199.3 1850.4 196.6 C 1849.0 195.8 1847.6 196.8 1846.4 197.4 C 1843.6 199.0 1840.8 200.5 1837.9 201.9 C 1834.2 203.8 1832.8 208.2 1829.1 210.1 C 1825.7 211.8 1822.8 214.2 1819.1 215.3 C 1811.5 213.5 1804.7 209.4 1797.4 206.5 C 1784.6 200.6 1771.7 195.0 1758.9 189.2 C 1756.7 188.2 1754.5 186.8 1752.1 187.3 C 1742.9 188.3 1733.8 189.9 1724.6 190.6 C 1714.8 193.8 1705.9 199.3 1695.8 201.8 C 1691.5 202.8 1687.3 204.2 1683.0 205.1 C 1672.4 206.5 1661.6 207.5 1650.9 206.4 C 1637.5 204.9 1624.3 202.7 1611.0 201.0 C 1600.4 199.6 1589.8 197.3 1579.1 197.6 C 1571.7 196.8 1564.3 197.0 1556.9 197.0 C 1554.7 197.0 1552.7 197.9 1550.6 198.6 C 1544.6 200.7 1538.6 202.6 1532.7 204.7 C 1515.5 213.0 1498.7 222.2 1481.6 230.6 C 1472.1 232.9 1462.4 233.9 1452.8 235.7 C 1444.9 236.9 1437.0 238.8 1429.0 238.9 C 1418.6 241.2 1408.4 244.6 1397.9 246.9 C 1387.0 248.2 1376.0 248.0 1365.1 248.9 C 1358.1 247.4 1351.0 246.0 1344.2 243.8 C 1338.1 238.6 1333.7 231.6 1327.0 227.0 C 1321.7 223.3 1316.7 219.2 1311.3 215.8 C 1300.9 212.5 1290.7 209.1 1280.4 205.7 C 1277.4 204.5 1274.4 206.0 1271.6 206.6 C 1265.8 208.2 1259.8 209.2 1254.2 211.2 C 1254.0 212.4 1253.9 213.6 1253.8 214.8 C 1245.9 217.8 1237.8 220.2 1229.8 222.8 C 1220.1 224.7 1210.3 225.9 1200.6 227.6 C 1196.1 228.7 1192.5 224.6 1188.1 225.3 C 1183.0 225.8 1178.0 226.8 1173.0 227.1 C 1170.7 227.4 1168.5 227.4 1166.4 226.6 C 1156.5 223.4 1146.6 220.4 1136.8 217.2 C 1135.0 216.8 1132.7 215.6 1131.2 217.2 C 1123.9 222.3 1116.7 227.4 1109.5 232.5 C 1107.7 233.7 1106.9 235.9 1104.9 236.8 C 1098.1 239.4 1091.2 241.8 1084.4 244.4 C 1078.2 246.9 1071.5 246.9 1065.0 248.1 C 1059.0 248.7 1053.1 250.2 1047.0 250.0 C 1039.0 250.0 1031.0 250.0 1023.0 250.0 C 1014.2 250.3 1005.7 247.5 997.0 247.7 C 985.2 247.9 973.6 246.0 961.8 246.3 C 954.9 244.2 948.4 240.9 941.6 238.4 C 939.7 237.7 937.7 238.4 935.7 238.7 C 924.2 240.9 912.7 243.3 901.2 245.0 C 894.4 244.9 887.8 246.4 881.0 246.9 C 873.4 248.2 865.7 247.9 858.0 249.1 C 851.6 250.0 845.4 247.6 839.1 246.9 C 836.0 246.6 833.5 244.5 830.9 243.1 C 819.2 236.2 807.4 229.3 795.6 222.4 C 793.4 220.8 790.5 220.6 787.9 220.2 C 778.9 219.0 770.0 217.1 761.0 216.3 C 759.7 216.0 758.6 216.9 757.5 217.5 C 750.9 221.7 744.1 225.4 737.5 229.5 C 732.9 233.2 728.9 237.6 724.6 241.6 C 717.4 242.0 710.2 240.6 703.1 240.3 C 689.7 238.9 676.4 238.2 663.0 237.1 C 658.3 232.7 653.8 228.1 649.2 223.7 C 647.9 222.5 646.0 222.2 644.4 221.6 C 632.5 218.1 620.8 214.5 608.9 211.1 C 606.4 210.4 603.9 209.1 601.3 209.1 C 596.5 213.8 593.0 219.7 588.1 224.2 C 572.3 220.3 556.1 217.7 540.0 215.8 C 532.6 217.1 525.3 218.5 518.0 220.0 C 510.8 222.3 503.2 220.7 495.9 221.6 C 479.0 222.9 462.1 222.1 445.2 222.4 C 443.9 222.3 442.8 223.2 441.8 223.8 C 436.8 226.9 431.8 229.8 426.7 232.8 C 423.2 235.0 418.9 234.5 415.0 235.2 C 411.0 235.3 407.0 236.7 403.1 236.1 C 399.1 233.0 396.3 228.6 392.1 225.9 C 383.9 223.0 375.4 220.8 367.1 218.0 C 363.9 216.6 360.3 217.5 357.0 218.1 C 347.6 219.4 338.2 220.7 328.8 221.8 C 314.5 224.5 299.8 224.0 285.4 225.5 C 280.8 227.5 276.5 230.1 271.9 232.2 C 268.3 231.3 267.5 226.3 264.0 224.9 C 258.3 222.6 253.1 219.2 247.7 216.2 C 240.9 213.4 233.9 210.8 227.0 208.0 C 223.0 206.0 218.4 206.8 214.0 206.6 C 196.0 207.8 179.4 215.3 162.7 221.7 C 151.1 226.7 138.3 228.0 126.2 231.3 C 123.4 232.5 120.7 230.8 118.1 229.9 C 110.1 227.1 102.1 223.9 94.0 221.3 C 75.6 225.9 57.3 231.2 38.9 236.1 C 33.6 232.9 28.8 228.8 23.6 225.4 C 21.9 224.5 20.6 226.5 19.3 227.3 C 12.9 231.9 6.6 236.8 0.0 241.2 L 0.0 0.0 Z" />
<path fill="#4b657c" stroke="#4b657c" stroke-width="0.09375" opacity="1.00" d=" M 552.3 12.8 C 550.6 10.3 554.2 7.7 555.9 10.2 C 555.9 10.9 555.8 12.2 555.7 12.8 C 554.6 13.4 553.4 13.4 552.3 12.8 Z" />
<path fill="#213a52" stroke="#213a52" stroke-width="0.09375" opacity="1.00" d=" M 2323.3 10.3 C 2330.2 7.9 2338.6 13.6 2338.1 21.0 C 2338.4 24.1 2336.7 26.7 2335.3 29.3 C 2331.7 31.9 2327.4 32.6 2323.1 31.9 C 2319.4 30.4 2316.4 27.2 2315.8 23.2 C 2314.2 17.7 2318.3 12.2 2323.3 10.3 Z" />
<path fill="#415b72" stroke="#415b72" stroke-width="0.09375" opacity="1.00" d=" M 2325.3 15.4 C 2330.1 13.8 2334.5 19.3 2332.7 23.7 C 2331.5 25.2 2330.1 27.2 2328.0 27.2 C 2324.4 28.0 2320.5 24.7 2321.0 21.0 C 2321.0 18.5 2322.8 16.0 2325.3 15.4 Z" />
<path fill="#7f9cb1" stroke="#7f9cb1" stroke-width="0.09375" opacity="1.00" d=" M 2326.3 18.3 C 2328.2 17.9 2330.4 19.8 2329.8 21.9 C 2329.6 24.7 2324.3 24.8 2324.2 21.9 C 2323.6 20.3 2324.9 18.9 2326.3 18.3 Z" />
<path fill="#284158" stroke="#284158" stroke-width="0.09375" opacity="1.00" d=" M 234.4 24.3 C 239.5 22.3 244.6 29.8 240.8 33.8 C 238.8 36.8 234.0 37.1 231.7 34.3 C 228.2 31.5 230.2 25.3 234.4 24.3 Z" />
<path fill="#a3c2d6" stroke="#a3c2d6" stroke-width="0.09375" opacity="1.00" d=" M 37.1 29.2 C 37.9 27.9 40.1 27.9 40.9 29.2 C 40.9 29.8 40.8 31.1 40.7 31.8 C 39.6 32.4 38.4 32.4 37.3 31.8 C 37.2 31.1 37.1 29.8 37.1 29.2 Z" />
<path fill="#354e66" stroke="#354e66" stroke-width="0.09375" opacity="1.00" d=" M 264.1 31.9 C 263.6 30.3 263.9 28.1 266.0 28.1 C 268.1 28.1 268.3 30.3 267.9 31.9 C 266.6 32.3 265.4 32.3 264.1 31.9 Z" />
<path fill="#415c72" stroke="#415c72" stroke-width="0.09375" opacity="1.00" d=" M 2200.3 33.8 C 2199.4 32.3 2200.1 30.0 2202.0 30.0 C 2203.9 30.0 2204.5 32.3 2203.7 33.8 C 2202.6 34.4 2201.4 34.4 2200.3 33.8 Z" />
<path fill="#304961" stroke="#304961" stroke-width="0.09375" opacity="1.00" d=" M 2943.3 31.3 C 2948.0 29.5 2952.9 35.4 2950.8 39.7 C 2949.2 44.3 2941.7 44.7 2939.6 40.4 C 2937.4 37.1 2939.6 32.3 2943.3 31.3 Z" />
<path fill="#4b657c" stroke="#4b657c" stroke-width="0.09375" opacity="1.00" d=" M 1514.1 35.2 C 1515.0 33.8 1517.0 33.8 1517.9 35.2 C 1517.9 35.9 1517.8 37.2 1517.7 37.8 C 1516.6 38.4 1515.4 38.4 1514.3 37.8 C 1514.2 37.2 1514.1 35.9 1514.1 35.2 Z" />
<path fill="#557086" stroke="#557086" stroke-width="0.09375" opacity="1.00" d=" M 2944.3 34.3 C 2947.2 33.6 2949.5 38.2 2946.7 39.8 C 2945.0 40.3 2942.1 40.2 2942.1 37.9 C 2941.6 36.2 2943.0 35.0 2944.3 34.3 Z" />
<path fill="#304961" stroke="#304961" stroke-width="0.09375" opacity="1.00" d=" M 2155.3 39.3 C 2160.0 37.5 2164.9 43.4 2162.8 47.7 C 2161.2 52.3 2153.8 52.7 2151.6 48.4 C 2149.4 45.2 2151.6 40.3 2155.3 39.3 Z" />
<path fill="#68849a" stroke="#68849a" stroke-width="0.09375" opacity="1.00" d=" M 655.0 42.1 C 655.9 40.9 658.1 40.8 659.0 42.1 C 658.9 42.8 658.8 44.1 658.7 44.8 C 657.6 45.4 656.4 45.4 655.3 44.8 C 655.2 44.1 655.1 42.8 655.0 42.1 Z" />
<path fill="#4b657c" stroke="#4b657c" stroke-width="0.09375" opacity="1.00" d=" M 791.3 44.8 C 790.6 43.3 791.0 41.1 793.0 41.1 C 795.0 41.1 795.4 43.3 794.7 44.8 C 793.6 45.4 792.4 45.4 791.3 44.8 Z" />
<path fill="#4b657c" stroke="#4b657c" stroke-width="0.09375" opacity="1.00" d=" M 1302.3 44.8 C 1300.6 42.3 1304.2 39.7 1305.9 42.2 C 1305.9 42.8 1305.8 44.2 1305.7 44.8 C 1304.6 45.4 1303.4 45.4 1302.3 44.8 Z" />
<path fill="#557086" stroke="#557086" stroke-width="0.09375" opacity="1.00" d=" M 2156.3 42.3 C 2159.2 41.6 2161.5 46.2 2158.7 47.8 C 2157.0 48.3 2154.1 48.2 2154.1 45.9 C 2153.6 44.2 2155.0 43.0 2156.3 42.3 Z" />
<path fill="#375168" stroke="#375168" stroke-width="0.09375" opacity="1.00" d=" M 485.3 43.2 C 490.0 41.5 495.0 47.3 492.8 51.8 C 491.4 53.6 489.6 55.8 487.0 55.4 C 484.4 55.8 482.6 53.6 481.2 51.8 C 479.7 48.5 481.8 44.1 485.3 43.2 Z" />
<path fill="#708da2" stroke="#708da2" stroke-width="0.09375" opacity="1.00" d=" M 1736.0 46.1 C 1736.9 44.9 1739.0 44.9 1740.0 46.1 C 1739.9 46.8 1739.8 48.1 1739.7 48.8 C 1738.5 49.4 1737.4 49.4 1736.3 48.8 C 1736.2 48.1 1736.1 46.8 1736.0 46.1 Z" />
<path fill="#344d65" stroke="#344d65" stroke-width="0.09375" opacity="1.00" d=" M 95.2 49.9 C 94.7 48.3 95.0 46.1 97.0 46.1 C 99.0 46.2 99.3 48.3 98.8 49.9 C 97.6 50.3 96.4 50.3 95.2 49.9 Z" />
<path fill="#658197" stroke="#658197" stroke-width="0.09375" opacity="1.00" d=" M 486.3 46.3 C 489.3 45.5 491.3 50.1 488.7 51.8 C 487.0 52.3 484.2 52.2 484.1 49.8 C 483.6 48.2 485.0 47.0 486.3 46.3 Z" />
<path fill="#4b657c" stroke="#4b657c" stroke-width="0.09375" opacity="1.00" d=" M 1102.3 49.8 C 1101.5 48.3 1102.0 46.1 1104.0 46.1 C 1106.0 46.1 1106.4 48.3 1105.7 49.8 C 1104.6 50.4 1103.4 50.4 1102.3 49.8 Z" />
<path fill="#415c72" stroke="#415c72" stroke-width="0.09375" opacity="1.00" d=" M 1973.3 51.8 C 1972.4 50.3 1973.1 48.0 1975.0 48.0 C 1976.9 48.0 1977.5 50.3 1976.7 51.8 C 1975.6 52.4 1974.4 52.4 1973.3 51.8 Z" />
<path fill="#4b657c" stroke="#4b657c" stroke-width="0.09375" opacity="1.00" d=" M 418.3 52.8 C 417.6 51.3 418.0 49.1 420.0 49.1 C 422.0 49.1 422.5 51.3 421.7 52.8 C 420.6 53.4 419.4 53.4 418.3 52.8 Z" />
<path fill="#415c72" stroke="#415c72" stroke-width="0.09375" opacity="1.00" d=" M 2539.3 53.8 C 2538.4 52.3 2539.1 50.0 2541.0 50.0 C 2542.9 50.0 2543.5 52.3 2542.7 53.8 C 2541.5 54.4 2540.4 54.4 2539.3 53.8 Z" />
<path fill="#6b879d" stroke="#6b879d" stroke-width="0.09375" opacity="1.00" d=" M 2663.0 62.1 C 2663.9 60.9 2666.0 60.9 2667.0 62.2 C 2666.9 62.8 2666.8 64.1 2666.7 64.8 C 2665.5 65.4 2664.4 65.4 2663.3 64.8 C 2663.2 64.1 2663.1 62.8 2663.0 62.1 Z" />
<path fill="#415c72" stroke="#415c72" stroke-width="0.09375" opacity="1.00" d=" M 2883.3 69.8 C 2882.4 68.3 2883.1 66.0 2885.0 66.0 C 2886.9 66.0 2887.5 68.3 2886.7 69.8 C 2885.5 70.4 2884.4 70.4 2883.3 69.8 Z" />
<path fill="#284158" stroke="#284158" stroke-width="0.09375" opacity="1.00" d=" M 1599.4 67.3 C 1604.5 65.3 1609.6 72.8 1605.8 76.8 C 1603.8 79.8 1598.9 80.1 1596.7 77.3 C 1593.2 74.5 1595.2 68.3 1599.4 67.3 Z" />
<path fill="#6387a3" stroke="#6387a3" stroke-width="0.09375" opacity="1.00" d=" M 212.3 72.3 C 216.1 72.6 220.6 71.2 223.6 74.3 C 226.0 82.0 218.2 87.1 213.0 91.2 C 207.1 95.4 200.5 98.2 193.8 100.9 C 188.4 102.0 182.9 103.5 177.4 102.5 C 175.3 101.9 173.4 100.3 173.3 98.0 C 173.8 94.5 176.0 91.3 178.9 89.2 C 178.4 91.1 177.4 93.4 179.0 95.1 C 181.2 97.6 185.1 97.1 188.1 96.8 C 196.9 95.3 205.8 91.5 212.2 85.1 C 215.1 82.9 218.5 78.6 216.1 74.9 C 215.3 73.0 211.5 74.9 212.3 72.3 Z" />
<path fill="#3a678b" stroke="#3a678b" stroke-width="0.09375" opacity="1.00" d=" M 190.2 79.2 C 196.7 72.3 210.3 75.6 212.2 85.1 C 205.8 91.5 196.9 95.3 188.1 96.8 C 184.8 91.3 185.2 83.5 190.2 79.2 Z" />
<path fill="#243c54" stroke="#243c54" stroke-width="0.09375" opacity="1.00" d=" M 682.3 89.4 C 689.6 86.7 698.2 93.3 697.1 101.0 C 697.2 104.7 694.4 107.6 691.7 109.7 C 687.6 112.2 682.2 111.3 678.4 108.6 C 674.8 105.7 674.1 100.6 675.3 96.3 C 676.6 93.3 679.2 90.6 682.3 89.4 Z" />
<path fill="#3a678b" stroke="#3a678b" stroke-width="0.09375" opacity="1.00" d=" M 193.8 100.9 C 200.5 98.2 207.1 95.4 213.0 91.2 C 211.7 98.1 204.8 103.8 197.6 102.4 C 196.4 101.9 194.5 102.3 193.8 100.9 Z" />
<path fill="#4b657c" stroke="#4b657c" stroke-width="0.09375" opacity="1.00" d=" M 1201.1 93.2 C 1202.8 90.7 1206.4 93.3 1204.7 95.8 C 1203.6 96.4 1202.4 96.4 1201.2 95.8 C 1201.2 95.2 1201.1 93.8 1201.1 93.2 Z" />
<path fill="#49637a" stroke="#49637a" stroke-width="0.09375" opacity="1.00" d=" M 684.4 94.4 C 688.0 93.2 692.0 96.2 692.0 100.0 C 692.8 105.3 684.9 108.6 681.6 104.4 C 678.2 101.6 680.2 95.3 684.4 94.4 Z" />
<path fill="#354e66" stroke="#354e66" stroke-width="0.09375" opacity="1.00" d=" M 911.2 98.9 C 910.6 97.3 910.9 95.1 913.0 95.1 C 915.0 95.1 915.4 97.3 914.9 98.9 C 913.6 99.3 912.4 99.3 911.2 98.9 Z" />
<path fill="#90aec3" stroke="#90aec3" stroke-width="0.09375" opacity="1.00" d=" M 685.3 97.3 C 687.2 96.9 689.5 98.8 688.8 100.9 C 688.6 103.7 683.4 103.7 683.2 100.8 C 682.6 99.2 683.9 97.9 685.3 97.3 Z" />
<path fill="#213a51" stroke="#213a51" stroke-width="0.09375" opacity="1.00" d=" M 1878.4 98.4 C 1883.5 96.3 1888.5 103.8 1884.8 107.8 C 1882.8 110.7 1877.9 111.0 1875.7 108.3 C 1872.3 105.5 1874.2 99.3 1878.4 98.4 Z" />
<path fill="#243d55" stroke="#243d55" stroke-width="0.09375" opacity="1.00" d=" M 49.3 99.3 C 56.2 96.9 64.6 102.6 64.1 110.0 C 64.4 113.1 62.8 115.7 61.2 118.2 C 57.8 120.9 53.4 121.6 49.1 120.9 C 42.9 118.6 39.4 110.7 42.8 104.8 C 44.2 102.2 46.7 100.5 49.3 99.3 Z" />
<path fill="#638095" stroke="#638095" stroke-width="0.09375" opacity="1.00" d=" M 2226.0 101.1 C 2226.9 99.9 2229.0 99.9 2230.0 101.1 C 2229.9 101.8 2229.8 103.1 2229.7 103.8 C 2228.5 104.4 2227.4 104.4 2226.3 103.8 C 2226.2 103.1 2226.1 101.8 2226.0 101.1 Z" />
<path fill="#4b667c" stroke="#4b667c" stroke-width="0.09375" opacity="1.00" d=" M 51.3 104.4 C 55.3 103.0 59.7 106.9 59.0 111.0 C 58.9 115.8 51.6 118.3 48.6 114.4 C 45.2 111.6 47.2 105.4 51.3 104.4 Z" />
<path fill="#213a52" stroke="#213a52" stroke-width="0.09375" opacity="1.00" d=" M 1128.3 104.4 C 1135.6 101.7 1144.3 108.3 1143.1 116.0 C 1143.2 117.7 1142.4 119.2 1141.7 120.7 C 1139.6 125.8 1133.0 126.6 1128.1 125.9 C 1124.5 124.4 1121.4 121.2 1120.8 117.2 C 1119.2 111.7 1123.3 106.2 1128.3 104.4 Z" />
<path fill="#354e66" stroke="#354e66" stroke-width="0.09375" opacity="1.00" d=" M 787.1 108.9 C 786.6 107.3 787.0 105.1 789.0 105.1 C 791.1 105.1 791.3 107.3 790.9 108.9 C 789.6 109.3 788.4 109.3 787.1 108.9 Z" />
<path fill="#5d798f" stroke="#5d798f" stroke-width="0.09375" opacity="1.00" d=" M 1653.0 106.1 C 1653.9 104.9 1656.0 104.9 1657.0 106.1 C 1656.9 106.8 1656.8 108.1 1656.7 108.8 C 1655.5 109.4 1654.4 109.4 1653.3 108.8 C 1653.2 108.1 1653.1 106.8 1653.0 106.1 Z" />
<path fill="#213a51" stroke="#213a51" stroke-width="0.09375" opacity="1.00" d=" M 1365.4 106.4 C 1370.5 104.3 1375.5 111.8 1371.8 115.8 C 1369.8 118.7 1364.9 119.0 1362.7 116.3 C 1359.3 113.5 1361.2 107.3 1365.4 106.4 Z" />
<path fill="#97b6ca" stroke="#97b6ca" stroke-width="0.09375" opacity="1.00" d=" M 52.3 107.3 C 54.2 106.9 56.5 108.8 55.8 110.9 C 55.6 113.7 50.4 113.7 50.2 110.8 C 49.6 109.2 50.9 107.9 52.3 107.3 Z" />
<path fill="#415b72" stroke="#415b72" stroke-width="0.09375" opacity="1.00" d=" M 1130.3 109.3 C 1135.2 107.8 1139.5 113.2 1137.7 117.7 C 1136.5 119.2 1135.1 121.2 1133.0 121.2 C 1129.4 122.0 1125.5 118.7 1126.0 115.0 C 1126.0 112.5 1127.8 110.0 1130.3 109.3 Z" />
<path fill="#213a51" stroke="#213a51" stroke-width="0.09375" opacity="1.00" d=" M 2485.4 110.4 C 2490.5 108.3 2495.5 115.8 2491.8 119.8 C 2489.8 122.7 2484.9 123.0 2482.7 120.3 C 2479.3 117.5 2481.2 111.3 2485.4 110.4 Z" />
<path fill="#7f9cb1" stroke="#7f9cb1" stroke-width="0.09375" opacity="1.00" d=" M 1131.3 112.3 C 1133.2 111.9 1135.5 113.8 1134.8 115.8 C 1134.6 118.8 1129.3 118.8 1129.2 115.8 C 1128.7 114.3 1129.9 112.9 1131.3 112.3 Z" />
<path fill="#5b778d" stroke="#5b778d" stroke-width="0.09375" opacity="1.00" d=" M 1462.0 118.1 C 1462.9 116.9 1465.0 116.9 1466.0 118.1 C 1465.9 118.8 1465.8 120.1 1465.7 120.8 C 1464.5 121.4 1463.4 121.4 1462.3 120.8 C 1462.2 120.1 1462.1 118.8 1462.0 118.1 Z" />
<path fill="#3c566d" stroke="#3c566d" stroke-width="0.09375" opacity="1.00" d=" M 403.1 130.9 C 402.6 129.3 403.0 127.1 405.0 127.0 C 407.0 127.1 407.3 129.4 406.9 130.9 C 405.6 131.3 404.4 131.3 403.1 130.9 Z" />
<path fill="#4b657c" stroke="#4b657c" stroke-width="0.09375" opacity="1.00" d=" M 1019.3 134.8 C 1018.5 133.3 1019.0 131.1 1021.0 131.2 C 1023.0 131.1 1023.4 133.3 1022.8 134.8 C 1021.6 135.4 1020.4 135.4 1019.3 134.8 Z" />
<path fill="#4b657c" stroke="#4b657c" stroke-width="0.09375" opacity="1.00" d=" M 1447.3 144.8 C 1445.6 142.3 1449.2 139.7 1450.9 142.2 C 1450.9 142.8 1450.8 144.2 1450.7 144.8 C 1449.6 145.4 1448.4 145.4 1447.3 144.8 Z" />
<path fill="#4b657c" stroke="#4b657c" stroke-width="0.09375" opacity="1.00" d=" M 1281.2 147.8 C 1280.6 146.3 1281.0 144.1 1283.0 144.1 C 1285.0 144.1 1285.4 146.3 1284.7 147.8 C 1283.6 148.4 1282.4 148.4 1281.2 147.8 Z" />
<path fill="#304961" stroke="#304961" stroke-width="0.09375" opacity="1.00" d=" M 1695.3 150.3 C 1700.0 148.5 1704.9 154.3 1702.8 158.7 C 1701.2 163.3 1693.8 163.7 1691.6 159.4 C 1689.4 156.2 1691.6 151.3 1695.3 150.3 Z" />
<path fill="#83a6bc" stroke="#83a6bc" stroke-width="0.09375" opacity="1.00" d=" M 2564.3 152.2 C 2574.9 153.6 2585.7 154.5 2595.9 158.1 C 2606.8 165.2 2616.2 174.4 2625.9 183.1 C 2627.3 184.3 2629.2 184.5 2630.9 185.1 C 2639.0 187.3 2647.0 189.5 2655.2 191.7 C 2661.4 192.4 2667.7 192.3 2674.0 192.3 C 2686.0 192.2 2698.0 192.9 2710.0 192.7 C 2725.4 193.7 2740.7 190.7 2756.0 189.8 C 2759.4 189.5 2762.8 189.9 2766.1 189.3 C 2774.1 188.2 2782.6 189.7 2790.1 186.1 C 2794.9 184.8 2799.8 180.8 2804.9 183.1 C 2808.5 184.2 2812.2 185.0 2815.9 186.1 C 2826.1 189.2 2837.4 187.8 2847.0 193.0 C 2860.5 198.4 2873.8 204.5 2886.6 211.4 C 2894.0 216.3 2900.7 222.4 2909.0 226.0 C 2914.3 228.4 2919.2 232.1 2925.2 232.7 C 2932.3 233.8 2939.4 235.0 2946.4 236.5 C 2950.5 237.1 2952.4 241.3 2955.2 243.9 C 2958.4 248.4 2964.1 249.6 2968.7 252.2 C 2974.3 254.3 2979.2 258.3 2985.4 258.5 C 2990.3 258.8 2995.1 260.3 3000.0 261.1 L 3000.0 293.2 C 2996.3 292.1 2993.5 289.2 2989.8 288.2 C 2982.9 286.0 2976.0 284.0 2969.1 281.9 C 2963.9 280.9 2961.1 275.9 2957.0 273.0 C 2954.0 271.1 2952.1 267.4 2948.4 266.6 C 2938.6 264.5 2928.9 262.1 2919.1 259.9 C 2913.9 259.0 2909.1 256.6 2904.1 254.9 C 2899.1 252.4 2893.4 252.5 2888.0 251.8 C 2873.2 250.0 2858.2 251.2 2843.4 252.5 C 2834.3 253.0 2825.6 255.9 2816.8 257.8 C 2804.9 260.6 2793.1 263.5 2781.2 266.2 C 2775.4 267.2 2771.2 271.8 2765.9 273.9 C 2758.9 274.8 2751.9 274.9 2745.0 275.7 C 2740.0 276.2 2735.0 275.8 2730.0 275.3 C 2700.6 273.4 2671.3 271.3 2642.0 269.3 C 2637.4 269.5 2633.3 267.7 2629.3 265.7 C 2624.5 263.3 2619.0 263.3 2613.8 262.3 C 2607.1 261.4 2600.5 260.2 2593.8 259.3 C 2588.8 258.5 2585.3 253.7 2580.0 253.7 C 2570.7 252.8 2561.4 252.0 2552.0 251.1 C 2549.4 250.8 2547.0 251.9 2544.6 252.6 C 2530.3 256.9 2515.9 261.0 2501.6 265.6 C 2490.5 269.4 2479.0 271.0 2467.6 273.6 C 2459.5 275.5 2451.2 274.9 2443.0 275.0 C 2438.3 275.3 2434.6 272.0 2430.4 270.6 C 2424.5 267.0 2417.5 267.1 2411.0 266.1 C 2404.0 266.9 2397.1 269.0 2390.1 269.9 C 2380.4 270.3 2370.7 270.3 2361.1 270.4 C 2355.5 271.2 2349.8 270.6 2344.2 271.2 C 2332.8 273.4 2321.6 276.0 2310.3 278.3 C 2306.6 278.8 2303.1 280.4 2299.4 279.6 C 2289.5 277.9 2279.5 276.2 2269.6 274.4 C 2265.5 273.7 2261.2 273.5 2257.5 271.5 C 2254.1 270.1 2251.0 267.9 2247.2 267.7 C 2234.8 266.2 2222.4 264.7 2210.0 263.1 C 2200.3 263.9 2190.8 266.1 2181.2 267.3 C 2166.2 269.8 2151.3 273.3 2136.1 275.0 C 2126.7 275.0 2117.3 275.1 2107.9 274.9 C 2095.0 273.5 2082.0 272.5 2069.1 271.1 C 2056.0 267.6 2044.0 260.1 2030.4 258.6 C 2025.1 257.5 2019.6 257.0 2014.4 255.7 C 2004.4 252.0 1994.6 248.0 1984.6 244.3 C 1972.1 241.6 1959.2 240.2 1946.8 237.2 C 1957.2 236.9 1967.7 238.5 1978.1 239.3 C 2000.1 241.0 2022.0 244.3 2044.0 246.9 C 2054.4 249.2 2064.7 252.3 2075.2 254.8 C 2085.0 257.1 2094.7 261.0 2104.9 260.8 C 2116.6 261.9 2128.4 262.5 2140.1 263.6 C 2144.4 263.9 2148.7 264.0 2153.0 263.0 C 2178.4 258.9 2203.6 254.1 2229.0 250.1 C 2236.2 248.7 2243.6 248.6 2250.9 248.6 C 2261.6 247.5 2272.3 248.0 2283.0 247.1 C 2291.5 246.3 2300.2 247.2 2308.7 245.6 C 2317.2 242.8 2325.2 238.4 2334.2 237.3 C 2341.5 236.5 2347.0 231.5 2353.2 228.2 C 2358.8 225.4 2363.0 220.7 2368.0 217.1 C 2372.6 215.2 2377.3 213.5 2382.1 212.2 C 2388.8 212.9 2395.2 215.5 2402.0 215.0 C 2407.7 215.7 2412.7 212.6 2417.9 210.9 C 2422.3 209.6 2422.7 203.6 2427.0 202.1 C 2433.6 199.3 2440.1 196.4 2446.6 193.6 C 2450.6 192.3 2454.8 192.3 2459.0 192.2 C 2463.6 191.8 2468.3 193.7 2472.8 191.8 C 2477.0 190.0 2482.7 190.6 2485.2 186.2 C 2488.0 182.6 2492.1 180.4 2495.4 177.4 C 2501.4 173.1 2507.0 168.1 2513.2 164.1 C 2521.1 163.1 2529.1 163.0 2537.1 162.8 C 2544.1 162.8 2550.7 160.3 2557.4 158.4 C 2560.6 157.5 2561.6 153.9 2564.3 152.2 Z" />
<path fill="#557086" stroke="#557086" stroke-width="0.09375" opacity="1.00" d=" M 1696.3 153.3 C 1698.9 152.7 1701.2 156.3 1699.3 158.3 C 1697.8 159.6 1694.2 159.4 1694.1 156.9 C 1693.6 155.2 1695.0 154.0 1696.3 153.3 Z" />
<path fill="#415c72" stroke="#415c72" stroke-width="0.09375" opacity="1.00" d=" M 2747.3 156.8 C 2746.4 155.3 2747.1 153.0 2749.0 153.0 C 2750.9 153.0 2751.5 155.3 2750.7 156.8 C 2749.5 157.4 2748.4 157.4 2747.3 156.8 Z" />
<path fill="#415c72" stroke="#415c72" stroke-width="0.09375" opacity="1.00" d=" M 2929.3 159.8 C 2928.4 158.3 2929.1 156.0 2931.0 156.0 C 2932.8 156.0 2933.5 158.3 2932.7 159.8 C 2931.5 160.4 2930.4 160.4 2929.3 159.8 Z" />
<path fill="#4b657c" stroke="#4b657c" stroke-width="0.09375" opacity="1.00" d=" M 2178.1 159.2 C 2179.8 156.7 2183.3 159.3 2181.7 161.8 C 2180.6 162.4 2179.4 162.4 2178.3 161.8 C 2178.2 161.2 2178.1 159.8 2178.1 159.2 Z" />
<path fill="#4b657c" stroke="#4b657c" stroke-width="0.09375" opacity="1.00" d=" M 640.3 163.8 C 638.6 161.3 642.2 158.6 643.9 161.2 C 643.9 161.8 643.8 163.2 643.7 163.8 C 642.6 164.4 641.4 164.4 640.3 163.8 Z" />
<path fill="#3f5970" stroke="#3f5970" stroke-width="0.09375" opacity="1.00" d=" M 169.3 168.8 C 168.5 167.3 169.1 165.0 171.0 165.0 C 172.9 165.0 173.5 167.3 172.7 168.8 C 171.6 169.4 170.4 169.4 169.3 168.8 Z" />
<path fill="#213a51" stroke="#213a51" stroke-width="0.09375" opacity="1.00" d=" M 274.4 171.4 C 279.5 169.3 284.5 176.8 280.8 180.8 C 278.8 183.7 273.9 184.0 271.7 181.3 C 268.3 178.5 270.3 172.3 274.4 171.4 Z" />
<path fill="#304961" stroke="#304961" stroke-width="0.09375" opacity="1.00" d=" M 901.3 171.3 C 906.0 169.5 910.9 175.3 908.8 179.7 C 907.2 184.3 899.8 184.7 897.6 180.4 C 895.4 177.2 897.6 172.2 901.3 171.3 Z" />
<path fill="#557086" stroke="#557086" stroke-width="0.09375" opacity="1.00" d=" M 902.3 174.3 C 905.2 173.6 907.5 178.2 904.7 179.8 C 903.0 180.3 900.1 180.2 900.1 177.9 C 899.6 176.2 901.0 175.0 902.3 174.3 Z" />
<path fill="#213a52" stroke="#213a52" stroke-width="0.09375" opacity="1.00" d=" M 1947.3 180.4 C 1954.6 177.7 1963.2 184.3 1962.1 192.0 C 1961.8 195.4 1960.2 199.5 1956.7 200.7 C 1951.6 203.6 1944.0 202.4 1941.2 196.8 C 1937.0 190.9 1940.7 182.5 1947.3 180.4 Z" />
<path fill="#415b72" stroke="#415b72" stroke-width="0.09375" opacity="1.00" d=" M 1949.3 185.3 C 1953.4 184.0 1957.6 187.9 1957.0 192.0 C 1956.8 196.8 1949.6 199.3 1946.6 195.3 C 1943.2 192.5 1945.2 186.3 1949.3 185.3 Z" />
<path fill="#4b657c" stroke="#4b657c" stroke-width="0.09375" opacity="1.00" d=" M 2257.1 187.2 C 2258.8 184.7 2262.4 187.3 2260.7 189.8 C 2259.5 190.4 2258.4 190.4 2257.3 189.8 C 2257.2 189.2 2257.1 187.9 2257.1 187.2 Z" />
<path fill="#83a6bc" stroke="#83a6bc" stroke-width="0.09375" opacity="1.00" d=" M 1724.6 190.6 C 1733.8 189.9 1742.9 188.3 1752.1 187.3 C 1754.5 186.8 1756.7 188.2 1758.9 189.2 C 1771.7 195.0 1784.6 200.6 1797.4 206.5 C 1804.7 209.4 1811.5 213.5 1819.1 215.3 C 1816.5 217.7 1813.0 219.2 1809.9 221.0 C 1801.0 223.1 1792.2 226.1 1783.0 226.7 C 1775.0 227.3 1767.0 228.1 1759.1 228.8 C 1756.0 229.1 1753.2 230.4 1750.4 231.4 C 1743.8 233.8 1737.1 236.0 1730.5 238.5 C 1724.3 240.9 1721.6 248.8 1714.8 249.8 C 1704.1 252.0 1693.5 254.6 1682.8 256.8 C 1672.3 257.9 1661.7 258.1 1651.1 259.1 C 1645.6 261.1 1641.3 266.8 1635.0 266.0 C 1626.3 266.1 1617.6 265.8 1608.9 266.2 C 1597.6 267.7 1586.3 269.3 1575.0 270.9 C 1571.4 271.4 1567.7 272.3 1564.0 271.7 C 1552.4 270.3 1540.7 269.4 1529.1 267.9 C 1518.3 265.9 1507.7 263.1 1497.0 261.1 C 1482.5 260.0 1468.1 259.4 1453.6 258.5 C 1444.3 257.2 1435.2 259.9 1426.0 260.9 C 1406.8 264.0 1387.5 265.6 1368.2 267.4 C 1365.5 267.7 1362.8 268.2 1360.2 267.7 C 1346.1 264.7 1332.0 262.0 1317.9 259.1 C 1309.0 257.2 1299.9 256.0 1291.3 252.8 C 1279.3 249.1 1267.4 245.3 1255.4 241.6 C 1252.7 240.8 1249.8 241.7 1247.1 241.7 C 1237.2 242.0 1227.7 245.2 1218.0 246.7 C 1213.2 244.9 1209.0 241.8 1204.4 239.5 C 1199.6 236.3 1193.8 235.5 1188.5 233.5 C 1183.1 231.9 1177.8 229.9 1172.3 228.8 C 1172.5 228.3 1172.8 227.5 1173.0 227.1 C 1178.0 226.8 1183.0 225.8 1188.1 225.3 C 1192.5 224.6 1196.1 228.7 1200.6 227.6 C 1210.3 225.9 1220.1 224.7 1229.8 222.8 C 1237.8 220.2 1245.9 217.8 1253.8 214.8 C 1253.9 213.6 1254.0 212.4 1254.2 211.2 C 1259.8 209.2 1265.8 208.2 1271.6 206.6 C 1274.4 206.0 1277.4 204.5 1280.4 205.7 C 1290.7 209.1 1300.9 212.5 1311.3 215.8 C 1316.7 219.2 1321.7 223.3 1327.0 227.0 C 1333.7 231.6 1338.1 238.6 1344.2 243.8 C 1351.0 246.0 1358.1 247.4 1365.1 248.9 C 1376.0 248.0 1387.0 248.2 1397.9 246.9 C 1408.4 244.6 1418.6 241.2 1429.0 238.9 C 1437.0 238.8 1444.9 236.9 1452.8 235.7 C 1462.4 233.9 1472.1 232.9 1481.6 230.6 C 1498.7 222.2 1515.5 213.0 1532.7 204.7 C 1538.6 202.6 1544.6 200.7 1550.6 198.6 C 1552.7 197.9 1554.7 197.0 1556.9 197.0 C 1564.3 197.0 1571.7 196.8 1579.1 197.6 C 1589.8 197.3 1600.4 199.6 1611.0 201.0 C 1624.3 202.7 1637.5 204.9 1650.9 206.4 C 1661.6 207.5 1672.4 206.5 1683.0 205.1 C 1687.3 204.2 1691.5 202.8 1695.8 201.8 C 1705.9 199.3 1714.8 193.8 1724.6 190.6 Z" />
<path fill="#7f9cb1" stroke="#7f9cb1" stroke-width="0.09375" opacity="1.00" d=" M 1950.3 188.3 C 1952.2 187.9 1954.5 189.8 1953.8 191.8 C 1953.6 194.7 1948.3 194.7 1948.2 191.8 C 1947.6 190.2 1948.9 188.9 1950.3 188.3 Z" />
<path fill="#415c72" stroke="#415c72" stroke-width="0.09375" opacity="1.00" d=" M 2037.3 192.8 C 2036.4 191.3 2037.1 189.0 2039.0 189.0 C 2040.9 189.0 2041.5 191.3 2040.7 192.8 C 2039.5 193.4 2038.4 193.4 2037.3 192.8 Z" />
<path fill="#2980b9" stroke="#2980b9" stroke-width="0.09375" opacity="1.00" d=" M 1846.4 197.4 C 1847.6 196.8 1849.0 195.8 1850.4 196.6 C 1856.0 199.3 1861.6 202.1 1867.3 204.8 C 1874.2 207.7 1879.7 213.0 1886.0 217.0 C 1890.7 221.0 1896.5 223.1 1901.7 226.2 C 1906.1 228.2 1910.1 231.3 1915.1 231.9 C 1925.6 233.9 1936.1 236.1 1946.8 237.2 C 1959.2 240.2 1972.1 241.6 1984.6 244.3 C 1994.6 248.0 2004.4 252.0 2014.4 255.7 C 2019.6 257.0 2025.1 257.5 2030.4 258.6 C 2044.0 260.1 2056.0 267.6 2069.1 271.1 C 2082.0 272.5 2095.0 273.5 2107.9 274.9 C 2117.3 275.1 2126.7 275.0 2136.1 275.0 C 2151.3 273.3 2166.2 269.8 2181.2 267.3 C 2190.8 266.1 2200.3 263.9 2210.0 263.1 C 2222.4 264.7 2234.8 266.2 2247.2 267.7 C 2251.0 267.9 2254.1 270.1 2257.5 271.5 C 2261.2 273.5 2265.5 273.7 2269.6 274.4 C 2279.5 276.2 2289.5 277.9 2299.4 279.6 C 2303.1 280.4 2306.6 278.8 2310.3 278.3 C 2321.6 276.0 2332.8 273.4 2344.2 271.2 C 2349.8 270.6 2355.5 271.2 2361.1 270.4 C 2370.7 270.3 2380.4 270.3 2390.1 269.9 C 2397.1 269.0 2404.0 266.9 2411.0 266.1 C 2417.5 267.1 2424.5 267.0 2430.4 270.6 C 2434.6 272.0 2438.3 275.3 2443.0 275.0 C 2451.2 274.9 2459.5 275.5 2467.6 273.6 C 2479.0 271.0 2490.5 269.4 2501.6 265.6 C 2515.9 261.0 2530.3 256.9 2544.6 252.6 C 2547.0 251.9 2549.4 250.8 2552.0 251.1 C 2561.4 252.0 2570.7 252.8 2580.0 253.7 C 2585.3 253.7 2588.8 258.5 2593.8 259.3 C 2600.5 260.2 2607.1 261.4 2613.8 262.3 C 2619.0 263.3 2624.5 263.3 2629.3 265.7 C 2633.3 267.7 2637.4 269.5 2642.0 269.3 C 2671.3 271.3 2700.6 273.4 2730.0 275.3 C 2735.0 275.8 2740.0 276.2 2745.0 275.7 C 2751.9 274.9 2758.9 274.8 2765.9 273.9 C 2771.2 271.8 2775.4 267.2 2781.2 266.2 C 2793.1 263.5 2804.9 260.6 2816.8 257.8 C 2825.6 255.9 2834.3 253.0 2843.4 252.5 C 2858.2 251.2 2873.2 250.0 2888.0 251.8 C 2893.4 252.5 2899.1 252.4 2904.1 254.9 C 2909.1 256.6 2913.9 259.0 2919.1 259.9 C 2928.9 262.1 2938.6 264.5 2948.4 266.6 C 2952.1 267.4 2954.0 271.1 2957.0 273.0 C 2961.1 275.9 2963.9 280.9 2969.1 281.9 C 2976.0 284.0 2982.9 286.0 2989.8 288.2 C 2993.5 289.2 2996.3 292.1 3000.0 293.2 L 3000.0 317.0 C 2988.1 316.6 2976.2 314.7 2964.4 313.6 C 2923.1 309.1 2881.9 305.5 2840.6 301.5 C 2826.5 299.6 2812.2 300.2 2798.0 300.1 C 2785.3 300.2 2772.6 299.9 2760.0 300.0 C 2756.8 299.9 2753.8 301.1 2750.8 301.8 C 2738.7 305.1 2726.7 308.4 2714.6 311.7 C 2710.4 312.9 2706.0 314.5 2701.6 313.5 C 2693.1 312.9 2684.5 313.1 2676.0 312.9 C 2670.6 313.0 2665.3 312.0 2660.0 312.2 C 2650.3 311.8 2640.6 312.3 2631.0 311.2 C 2625.0 310.9 2618.8 311.7 2612.9 310.1 C 2583.4 303.8 2553.6 298.8 2523.9 293.1 C 2518.6 292.3 2513.5 294.0 2508.2 294.4 C 2499.5 295.9 2490.5 295.9 2482.2 299.2 C 2475.4 301.3 2468.6 303.7 2461.8 305.8 C 2456.3 307.2 2451.1 309.7 2445.4 310.5 C 2437.6 311.5 2429.8 312.6 2422.0 313.6 C 2405.7 310.8 2389.3 308.1 2373.0 305.1 C 2361.6 301.5 2350.4 297.6 2339.1 293.9 C 2333.8 292.3 2328.7 289.5 2323.0 289.9 C 2316.6 290.2 2310.4 288.9 2304.0 289.1 C 2294.0 289.1 2284.0 287.8 2274.0 287.9 C 2265.8 288.2 2256.9 284.9 2249.4 289.4 C 2244.0 291.4 2239.0 294.6 2233.2 295.3 C 2215.8 298.6 2198.3 301.5 2180.9 304.9 C 2176.5 305.4 2172.4 306.9 2168.0 307.0 C 2148.9 304.6 2129.7 301.9 2110.6 299.4 C 2089.5 296.8 2068.4 293.5 2047.2 291.7 C 2039.1 290.7 2031.1 290.1 2023.1 289.1 C 2011.7 288.5 2000.3 289.0 1989.1 289.9 C 1978.3 289.8 1967.7 291.1 1957.0 291.1 C 1949.6 290.9 1942.5 292.7 1935.2 293.3 C 1930.1 294.5 1924.8 293.8 1919.6 294.6 C 1915.1 295.1 1910.5 294.9 1906.0 295.1 C 1893.6 295.8 1881.4 293.4 1869.0 292.8 C 1863.2 291.7 1857.1 292.3 1851.4 290.7 C 1844.6 286.5 1838.8 280.9 1831.7 277.4 C 1807.2 273.8 1782.6 270.3 1758.1 267.0 C 1735.7 267.0 1713.3 267.0 1691.0 267.0 C 1686.9 267.7 1682.1 267.7 1679.3 271.3 C 1674.3 275.3 1669.7 279.8 1664.7 283.8 C 1660.8 284.5 1656.9 283.9 1653.0 284.3 C 1643.1 285.6 1632.9 284.5 1623.0 285.7 C 1616.3 286.0 1609.6 286.0 1602.9 286.2 C 1590.3 287.5 1577.6 286.3 1565.0 287.0 C 1555.2 288.8 1545.5 290.9 1535.7 292.7 C 1531.4 293.1 1528.1 296.3 1524.4 298.4 C 1516.8 303.0 1509.4 308.2 1501.6 312.6 C 1490.9 312.8 1480.0 313.9 1469.4 311.6 C 1467.5 310.3 1466.0 308.3 1464.0 307.0 C 1459.2 303.5 1455.8 298.1 1450.9 295.0 C 1433.6 294.7 1416.3 295.0 1399.0 294.9 C 1394.5 294.6 1390.4 296.3 1386.1 297.1 C 1375.4 299.3 1364.9 302.7 1354.0 303.0 C 1345.0 304.1 1336.0 304.8 1327.0 305.9 C 1316.0 306.1 1305.0 306.0 1293.9 306.1 C 1285.3 305.1 1276.8 302.1 1268.0 303.0 C 1254.6 302.7 1241.6 305.7 1228.4 307.4 C 1218.7 308.8 1209.0 310.6 1199.3 311.6 C 1187.4 305.6 1176.3 297.9 1164.6 291.4 C 1143.9 284.4 1123.1 277.6 1102.4 270.6 C 1100.5 270.0 1098.6 269.1 1096.6 269.5 C 1082.9 270.8 1069.1 272.0 1055.3 273.4 C 1044.5 276.9 1033.8 280.6 1022.9 283.8 C 1020.8 284.1 1018.7 283.8 1016.6 283.5 C 1007.1 282.5 997.6 282.3 988.2 280.8 C 982.7 278.0 977.2 275.1 971.7 272.3 C 967.7 270.3 964.0 267.7 959.8 266.1 C 955.8 265.8 951.9 267.4 947.9 267.8 C 937.4 269.4 926.9 271.7 916.3 272.8 C 912.5 269.2 908.8 265.5 905.7 261.3 C 892.3 259.6 878.6 260.7 865.4 257.6 C 861.5 256.8 857.3 256.6 853.6 255.1 C 854.9 254.3 856.3 254.0 857.8 253.7 C 871.8 251.1 885.7 248.3 899.7 245.6 C 900.1 245.5 900.8 245.1 901.2 245.0 C 912.7 243.3 924.2 240.9 935.7 238.7 C 937.7 238.4 939.7 237.7 941.6 238.4 C 948.4 240.9 954.9 244.2 961.8 246.3 C 968.0 249.7 974.9 251.7 981.4 254.6 C 985.8 257.0 991.1 255.7 996.0 256.2 C 1005.0 256.7 1014.0 255.8 1023.0 256.8 C 1035.0 256.9 1046.9 257.2 1058.9 257.4 C 1061.7 257.4 1064.6 258.2 1067.4 257.3 C 1078.4 253.2 1089.7 249.9 1100.7 245.7 C 1102.5 243.0 1104.7 240.2 1105.5 237.1 L 1104.9 236.8 C 1106.9 235.9 1107.7 233.7 1109.5 232.5 C 1116.7 227.4 1123.9 222.3 1131.2 217.2 C 1132.7 215.6 1135.0 216.8 1136.8 217.2 C 1146.6 220.4 1156.5 223.4 1166.4 226.6 C 1168.5 227.4 1170.7 227.4 1173.0 227.1 C 1172.8 227.5 1172.5 228.3 1172.3 228.8 C 1177.8 229.9 1183.1 231.9 1188.5 233.5 C 1193.8 235.5 1199.6 236.3 1204.4 239.5 C 1209.0 241.8 1213.2 244.9 1218.0 246.7 C 1227.7 245.2 1237.2 242.0 1247.1 241.7 C 1249.8 241.7 1252.7 240.8 1255.4 241.6 C 1267.4 245.3 1279.3 249.1 1291.3 252.8 C 1299.9 256.0 1309.0 257.2 1317.9 259.1 C 1332.0 262.0 1346.1 264.7 1360.2 267.7 C 1362.8 268.2 1365.5 267.7 1368.2 267.4 C 1387.5 265.6 1406.8 264.0 1426.0 260.9 C 1435.2 259.9 1444.3 257.2 1453.6 258.5 C 1468.1 259.4 1482.5 260.0 1497.0 261.1 C 1507.7 263.1 1518.3 265.9 1529.1 267.9 C 1540.7 269.4 1552.4 270.3 1564.0 271.7 C 1567.7 272.3 1571.4 271.4 1575.0 270.9 C 1586.3 269.3 1597.6 267.7 1608.9 266.2 C 1617.6 265.8 1626.3 266.1 1635.0 266.0 C 1641.3 266.8 1645.6 261.1 1651.1 259.1 C 1661.7 258.1 1672.3 257.9 1682.8 256.8 C 1693.5 254.6 1704.1 252.0 1714.8 249.8 C 1721.6 248.8 1724.3 240.9 1730.5 238.5 C 1737.1 236.0 1743.8 233.8 1750.4 231.4 C 1753.2 230.4 1756.0 229.1 1759.1 228.8 C 1767.0 228.1 1775.0 227.3 1783.0 226.7 C 1792.2 226.1 1801.0 223.1 1809.9 221.0 C 1813.0 219.2 1816.5 217.7 1819.1 215.3 C 1822.8 214.2 1825.7 211.8 1829.1 210.1 C 1832.8 208.2 1834.2 203.8 1837.9 201.9 C 1840.8 200.5 1843.6 199.0 1846.4 197.4 Z" />
<path fill="#304a61" stroke="#304a61" stroke-width="0.09375" opacity="1.00" d=" M 319.3 197.3 C 323.4 195.8 327.6 199.9 327.3 204.0 C 326.6 208.7 319.8 211.6 316.6 207.4 C 312.9 204.6 315.2 198.3 319.3 197.3 Z" />
<path fill="#557086" stroke="#557086" stroke-width="0.09375" opacity="1.00" d=" M 320.3 200.3 C 324.2 199.3 325.5 206.6 321.0 206.0 C 317.3 206.6 317.2 201.2 320.3 200.3 Z" />
<path fill="#4c677d" stroke="#4c677d" stroke-width="0.09375" opacity="1.00" d=" M 471.3 203.8 C 469.6 201.3 473.2 198.6 474.9 201.2 C 474.9 201.8 474.8 203.2 474.7 203.8 C 473.6 204.4 472.4 204.4 471.3 203.8 Z" />
<path fill="#284158" stroke="#284158" stroke-width="0.09375" opacity="1.00" d=" M 2114.4 202.3 C 2119.5 200.3 2124.6 207.8 2120.8 211.8 C 2118.8 214.7 2113.9 215.1 2111.7 212.3 C 2108.2 209.5 2110.2 203.3 2114.4 202.3 Z" />
<path fill="#4b657c" stroke="#4b657c" stroke-width="0.09375" opacity="1.00" d=" M 682.2 208.8 C 681.6 207.3 682.0 205.1 684.0 205.1 C 686.0 205.1 686.4 207.3 685.7 208.8 C 684.6 209.4 683.4 209.4 682.2 208.8 Z" />
<path fill="#83a6bc" stroke="#83a6bc" stroke-width="0.09375" opacity="1.00" d=" M 162.7 221.7 C 179.4 215.3 196.0 207.8 214.0 206.6 C 218.4 206.8 223.0 206.0 227.0 208.0 C 233.9 210.8 240.9 213.4 247.7 216.2 C 253.1 219.2 258.3 222.6 264.0 224.9 C 267.5 226.3 268.3 231.3 271.9 232.2 C 276.5 230.1 280.8 227.5 285.4 225.5 C 299.8 224.0 314.5 224.5 328.8 221.8 C 338.2 220.7 347.6 219.4 357.0 218.1 C 360.3 217.5 363.9 216.6 367.1 218.0 C 375.4 220.8 383.9 223.0 392.1 225.9 C 396.3 228.6 399.1 233.0 403.1 236.1 C 407.0 236.7 411.0 235.3 415.0 235.2 C 418.9 234.5 423.2 235.0 426.7 232.8 C 431.8 229.8 436.8 226.9 441.8 223.8 C 442.8 223.2 443.9 222.3 445.2 222.4 C 462.1 222.1 479.0 222.9 495.9 221.6 C 503.2 220.7 510.8 222.3 518.0 220.0 C 525.3 218.5 532.6 217.1 540.0 215.8 C 556.1 217.7 572.3 220.3 588.1 224.2 C 584.1 227.6 581.5 232.3 577.6 235.7 C 554.7 242.0 531.8 248.1 508.8 254.3 C 502.4 252.4 496.2 249.1 489.4 248.5 C 475.0 246.9 460.7 244.4 446.2 243.1 C 440.2 248.5 435.1 254.9 429.1 260.3 C 409.2 253.6 389.6 246.1 369.9 239.1 C 367.1 238.3 364.2 236.4 361.2 237.3 C 339.9 243.0 318.6 248.5 297.2 254.2 C 293.6 255.5 289.7 254.4 286.0 253.9 C 242.1 248.1 198.2 242.4 154.4 236.6 C 151.3 236.2 148.2 235.3 145.1 236.0 C 127.2 244.1 109.1 252.0 91.2 260.2 C 90.0 260.7 88.8 260.9 87.6 260.5 C 80.0 258.4 72.6 256.0 65.1 253.9 C 63.7 253.4 62.1 253.1 60.9 252.2 C 53.7 246.6 46.1 241.7 38.9 236.1 C 57.3 231.2 75.6 225.9 94.0 221.3 C 102.1 223.9 110.1 227.1 118.1 229.9 C 120.7 230.8 123.4 232.5 126.2 231.3 C 138.3 228.0 151.1 226.7 162.7 221.7 Z" />
<path fill="#2980b9" stroke="#2980b9" stroke-width="0.09375" opacity="1.00" d=" M 601.3 209.1 C 603.9 209.1 606.4 210.4 608.9 211.1 C 620.8 214.5 632.5 218.1 644.4 221.6 C 646.0 222.2 647.9 222.5 649.2 223.7 C 653.8 228.1 658.3 232.7 663.0 237.1 C 665.9 240.5 669.6 243.0 672.6 246.4 C 674.3 247.8 675.5 250.3 678.0 250.1 C 700.0 250.2 722.0 250.1 744.1 250.2 C 760.6 251.5 777.1 252.8 793.6 254.2 L 794.2 254.8 C 778.6 256.8 763.0 258.6 747.3 260.4 C 740.2 261.8 734.0 266.1 727.0 267.9 C 710.6 268.2 694.3 267.9 678.0 267.9 C 674.4 267.9 671.4 265.9 668.1 264.9 C 658.7 261.8 649.4 258.1 639.9 255.0 C 623.4 252.1 606.8 249.5 590.2 246.7 C 584.9 245.6 579.4 246.2 574.0 246.2 C 569.5 246.4 565.0 245.8 560.6 246.6 C 545.2 249.5 529.9 252.5 514.6 255.6 C 512.6 256.1 510.7 254.8 508.8 254.3 C 531.8 248.1 554.7 242.0 577.6 235.7 C 581.5 232.3 584.1 227.6 588.1 224.2 C 593.0 219.7 596.5 213.8 601.3 209.1 Z" />
<path fill="#83a6bc" stroke="#83a6bc" stroke-width="0.09375" opacity="1.00" d=" M 757.5 217.5 C 758.6 216.9 759.7 216.0 761.0 216.3 C 770.0 217.1 778.9 219.0 787.9 220.2 C 790.5 220.6 793.4 220.8 795.6 222.4 C 807.4 229.3 819.2 236.2 830.9 243.1 C 833.5 244.5 836.0 246.6 839.1 246.9 C 845.4 247.6 851.6 250.0 858.0 249.1 C 865.7 247.9 873.4 248.2 881.0 246.9 C 887.8 246.4 894.4 244.9 901.2 245.0 C 900.8 245.1 900.1 245.5 899.7 245.6 C 885.7 248.3 871.8 251.1 857.8 253.7 C 856.3 254.0 854.9 254.3 853.6 255.1 C 845.3 254.7 837.2 252.9 829.0 251.9 C 824.0 250.8 818.9 252.2 813.8 252.6 C 807.3 253.2 800.8 254.3 794.2 254.8 L 793.6 254.2 C 777.1 252.8 760.6 251.5 744.1 250.2 C 722.0 250.1 700.0 250.2 678.0 250.1 C 675.5 250.3 674.3 247.8 672.6 246.4 C 669.6 243.0 665.9 240.5 663.0 237.1 C 676.4 238.2 689.7 238.9 703.1 240.3 C 710.2 240.6 717.4 242.0 724.6 241.6 C 728.9 237.6 732.9 233.2 737.5 229.5 C 744.1 225.4 750.9 221.7 757.5 217.5 Z" />
<path fill="#2980b9" stroke="#2980b9" stroke-width="0.09375" opacity="1.00" d=" M 19.3 227.3 C 20.6 226.5 21.9 224.5 23.6 225.4 C 28.8 228.8 33.6 232.9 38.9 236.1 C 46.1 241.7 53.7 246.6 60.9 252.2 C 62.1 253.1 63.7 253.4 65.1 253.9 C 72.6 256.0 80.0 258.4 87.6 260.5 C 88.8 260.9 90.0 260.7 91.2 260.2 C 109.1 252.0 127.2 244.1 145.1 236.0 C 148.2 235.3 151.3 236.2 154.4 236.6 C 198.2 242.4 242.1 248.1 286.0 253.9 C 289.7 254.4 293.6 255.5 297.2 254.2 C 318.6 248.5 339.9 243.0 361.2 237.3 C 364.2 236.4 367.1 238.3 369.9 239.1 C 389.6 246.1 409.2 253.6 429.1 260.3 C 427.0 262.5 425.4 265.2 422.6 266.6 C 420.2 267.8 418.9 270.3 416.6 271.6 C 406.9 275.1 397.4 279.2 387.7 282.7 C 379.6 283.8 371.5 285.3 363.4 285.7 C 358.7 281.0 353.3 277.1 348.7 272.3 C 347.7 270.9 345.8 270.9 344.3 271.2 C 333.8 273.2 323.2 274.7 312.8 276.7 C 310.2 277.1 307.6 277.9 305.0 277.2 C 279.7 271.0 254.4 265.0 229.1 258.9 C 223.9 258.1 218.9 255.4 213.6 256.5 C 205.6 257.3 197.4 256.7 189.4 257.5 C 181.4 259.2 173.7 261.8 165.8 263.9 C 163.8 264.2 162.2 265.6 161.7 267.7 C 159.4 275.9 156.4 283.9 154.1 292.1 C 153.2 294.4 153.1 297.4 150.6 298.6 C 147.0 300.9 143.3 303.2 139.6 305.5 C 138.5 306.5 137.5 304.9 136.7 304.3 C 133.9 301.1 130.1 298.9 127.3 295.7 C 124.8 293.6 122.8 290.6 119.7 289.3 C 104.6 287.9 89.3 288.2 74.2 286.9 C 50.4 280.9 26.6 275.3 3.0 269.1 C 2.2 269.0 0.7 268.9 0.0 268.9 L 0.0 241.2 C 6.6 236.8 12.9 231.9 19.3 227.3 Z" />
<path fill="#83a6bc" stroke="#83a6bc" stroke-width="0.09375" opacity="1.00" d=" M 1084.4 244.4 C 1091.2 241.8 1098.1 239.4 1104.9 236.8 L 1105.5 237.1 C 1104.7 240.2 1102.5 243.0 1100.7 245.7 C 1089.7 249.9 1078.4 253.2 1067.4 257.3 C 1064.6 258.2 1061.7 257.4 1058.9 257.4 C 1046.9 257.2 1035.0 256.9 1023.0 256.8 C 1014.0 255.8 1005.0 256.7 996.0 256.2 C 991.1 255.7 985.8 257.0 981.4 254.6 C 974.9 251.7 968.0 249.7 961.8 246.3 C 973.6 246.0 985.2 247.9 997.0 247.7 C 1005.7 247.5 1014.2 250.3 1023.0 250.0 C 1031.0 250.0 1039.0 250.0 1047.0 250.0 C 1053.1 250.2 1059.0 248.7 1065.0 248.1 C 1071.5 246.9 1078.2 246.9 1084.4 244.4 Z" />
<path fill="#21628d" stroke="#21628d" stroke-width="0.09375" opacity="1.00" d=" M 446.2 243.1 C 460.7 244.4 475.0 246.9 489.4 248.5 C 496.2 249.1 502.4 252.4 508.8 254.3 C 510.7 254.8 512.6 256.1 514.6 255.6 C 529.9 252.5 545.2 249.5 560.6 246.6 C 565.0 245.8 569.5 246.4 574.0 246.2 C 579.4 246.2 584.9 245.6 590.2 246.7 C 606.8 249.5 623.4 252.1 639.9 255.0 C 649.4 258.1 658.7 261.8 668.1 264.9 C 671.4 265.9 674.4 267.9 678.0 267.9 C 694.3 267.9 710.6 268.2 727.0 267.9 C 734.0 266.1 740.2 261.8 747.3 260.4 C 763.0 258.6 778.6 256.8 794.2 254.8 C 800.8 254.3 807.3 253.2 813.8 252.6 C 818.9 252.2 824.0 250.8 829.0 251.9 C 837.2 252.9 845.3 254.7 853.6 255.1 C 857.3 256.6 861.5 256.8 865.4 257.6 C 878.6 260.7 892.3 259.6 905.7 261.3 C 908.8 265.5 912.5 269.2 916.3 272.8 C 926.9 271.7 937.4 269.4 947.9 267.8 C 951.9 267.4 955.8 265.8 959.8 266.1 C 964.0 267.7 967.7 270.3 971.7 272.3 C 977.2 275.1 982.7 278.0 988.2 280.8 C 997.6 282.3 1007.1 282.5 1016.6 283.5 C 1018.7 283.8 1020.8 284.1 1022.9 283.8 C 1033.8 280.6 1044.5 276.9 1055.3 273.4 C 1069.1 272.0 1082.9 270.8 1096.6 269.5 C 1098.6 269.1 1100.5 270.0 1102.4 270.6 C 1123.1 277.6 1143.9 284.4 1164.6 291.4 C 1176.3 297.9 1187.4 305.6 1199.3 311.6 C 1209.0 310.6 1218.7 308.8 1228.4 307.4 C 1241.6 305.7 1254.6 302.7 1268.0 303.0 C 1276.8 302.1 1285.3 305.1 1293.9 306.1 C 1305.0 306.0 1316.0 306.1 1327.0 305.9 C 1336.0 304.8 1345.0 304.1 1354.0 303.0 C 1364.9 302.7 1375.4 299.3 1386.1 297.1 C 1390.4 296.3 1394.5 294.6 1399.0 294.9 C 1416.3 295.0 1433.6 294.7 1450.9 295.0 C 1455.8 298.1 1459.2 303.5 1464.0 307.0 C 1466.0 308.3 1467.5 310.3 1469.4 311.6 C 1480.0 313.9 1490.9 312.8 1501.6 312.6 C 1509.4 308.2 1516.8 303.0 1524.4 298.4 C 1528.1 296.3 1531.4 293.1 1535.7 292.7 C 1545.5 290.9 1555.2 288.8 1565.0 287.0 C 1577.6 286.3 1590.3 287.5 1602.9 286.2 C 1609.6 286.0 1616.3 286.0 1623.0 285.7 C 1632.9 284.5 1643.1 285.6 1653.0 284.3 C 1656.9 283.9 1660.8 284.5 1664.7 283.8 C 1669.7 279.8 1674.3 275.3 1679.3 271.3 C 1682.1 267.7 1686.9 267.7 1691.0 267.0 C 1713.3 267.0 1735.7 267.0 1758.1 267.0 C 1782.6 270.3 1807.2 273.8 1831.7 277.4 C 1838.8 280.9 1844.6 286.5 1851.4 290.7 C 1857.1 292.3 1863.2 291.7 1869.0 292.8 C 1881.4 293.4 1893.6 295.8 1906.0 295.1 C 1910.5 294.9 1915.1 295.1 1919.6 294.6 C 1924.8 293.8 1930.1 294.5 1935.2 293.3 C 1942.5 292.7 1949.6 290.9 1957.0 291.1 C 1967.7 291.1 1978.3 289.8 1989.1 289.9 C 2000.3 289.0 2011.7 288.5 2023.1 289.1 C 2031.1 290.1 2039.1 290.7 2047.2 291.7 C 2068.4 293.5 2089.5 296.8 2110.6 299.4 C 2129.7 301.9 2148.9 304.6 2168.0 307.0 C 2172.4 306.9 2176.5 305.4 2180.9 304.9 C 2198.3 301.5 2215.8 298.6 2233.2 295.3 C 2239.0 294.6 2244.0 291.4 2249.4 289.4 C 2256.9 284.9 2265.8 288.2 2274.0 287.9 C 2284.0 287.8 2294.0 289.1 2304.0 289.1 C 2310.4 288.9 2316.6 290.2 2323.0 289.9 C 2328.7 289.5 2333.8 292.3 2339.1 293.9 C 2350.4 297.6 2361.6 301.5 2373.0 305.1 C 2389.3 308.1 2405.7 310.8 2422.0 313.6 C 2429.8 312.6 2437.6 311.5 2445.4 310.5 C 2451.1 309.7 2456.3 307.2 2461.8 305.8 C 2468.6 303.7 2475.4 301.3 2482.2 299.2 C 2490.5 295.9 2499.5 295.9 2508.2 294.4 C 2513.5 294.0 2518.6 292.3 2523.9 293.1 C 2553.6 298.8 2583.4 303.8 2612.9 310.1 C 2618.8 311.7 2625.0 310.9 2631.0 311.2 C 2640.6 312.3 2650.3 311.8 2660.0 312.2 C 2665.3 312.0 2670.6 313.0 2676.0 312.9 C 2684.5 313.1 2693.1 312.9 2701.6 313.5 C 2706.0 314.5 2710.4 312.9 2714.6 311.7 C 2726.7 308.4 2738.7 305.1 2750.8 301.8 C 2753.8 301.1 2756.8 299.9 2760.0 300.0 C 2772.6 299.9 2785.3 300.2 2798.0 300.1 C 2812.2 300.2 2826.5 299.6 2840.6 301.5 C 2881.9 305.5 2923.1 309.1 2964.4 313.6 C 2976.2 314.7 2988.1 316.6 3000.0 317.0 L 3000.0 340.0 L 0.0 340.0 L 0.0 268.9 C 0.7 268.9 2.2 269.0 3.0 269.1 C 26.6 275.3 50.4 280.9 74.2 286.9 C 89.3 288.2 104.6 287.9 119.7 289.3 C 122.8 290.6 124.8 293.6 127.3 295.7 C 130.1 298.9 133.9 301.1 136.7 304.3 C 137.5 304.9 138.5 306.5 139.6 305.5 C 143.3 303.2 147.0 300.9 150.6 298.6 C 153.1 297.4 153.2 294.4 154.1 292.1 C 156.4 283.9 159.4 275.9 161.7 267.7 C 162.2 265.6 163.8 264.2 165.8 263.9 C 173.7 261.8 181.4 259.2 189.4 257.5 C 197.4 256.7 205.6 257.3 213.6 256.5 C 218.9 255.4 223.9 258.1 229.1 258.9 C 254.4 265.0 279.7 271.0 305.0 277.2 C 307.6 277.9 310.2 277.1 312.8 276.7 C 323.2 274.7 333.8 273.2 344.3 271.2 C 345.8 270.9 347.7 270.9 348.7 272.3 C 353.3 277.1 358.7 281.0 363.4 285.7 C 371.5 285.3 379.6 283.8 387.7 282.7 C 397.4 279.2 406.9 275.1 416.6 271.6 C 418.9 270.3 420.2 267.8 422.6 266.6 C 425.4 265.2 427.0 262.5 429.1 260.3 C 435.1 254.9 440.2 248.5 446.2 243.1 Z" />
</svg>
