<?xml version="1.0" encoding="UTF-8" ?>
<!DOCTYPE svg PUBLIC "-//W3C//DTD SVG 1.1//EN" "http://www.w3.org/Graphics/SVG/1.1/DTD/svg11.dtd">
<svg width="3000pt" height="340pt" viewBox="0 0 3000 340" version="1.1" xmlns="http://www.w3.org/2000/svg">
<path fill="#162e46" stroke="#162e46" stroke-width="0.09375" opacity="1.00" d=" M 0.0 0.0 L 3000.0 0.0 L 3000.0 261.1 C 2995.1 260.1 2990.3 258.9 2985.4 258.5 C 2979.5 258.3 2974.7 254.6 2969.4 252.5 C 2964.6 249.8 2958.7 248.5 2955.1 243.9 C 2952.4 241.3 2950.5 237.1 2946.4 236.5 C 2939.1 235.0 2931.7 233.8 2924.4 232.6 C 2920.5 232.1 2917.1 230.1 2913.7 228.3 C 2908.7 225.7 2903.3 223.6 2898.9 220.1 C 2892.5 215.7 2886.5 210.7 2879.3 207.7 C 2868.6 202.0 2857.5 197.3 2846.3 192.7 C 2837.1 188.0 2826.4 189.1 2816.6 186.3 C 2811.4 185.1 2806.4 183.1 2801.1 182.3 C 2796.5 183.2 2792.3 185.5 2787.9 186.9 C 2780.7 189.6 2772.8 188.2 2765.3 189.4 C 2752.5 189.7 2739.8 191.7 2727.0 192.4 C 2719.4 193.6 2711.7 192.5 2704.0 192.7 C 2694.6 192.9 2685.3 192.2 2676.0 192.3 C 2667.8 192.2 2659.5 192.7 2651.4 191.1 C 2645.5 189.6 2639.9 187.5 2634.0 186.0 C 2630.8 185.1 2627.4 184.5 2624.9 182.1 C 2615.7 173.9 2607.0 165.1 2596.6 158.4 C 2593.4 156.9 2590.2 155.4 2586.8 154.3 C 2582.5 153.4 2578.1 153.9 2573.8 153.3 C 2570.0 152.9 2566.2 151.7 2562.4 152.4 C 2561.0 154.1 2560.4 156.5 2558.2 157.3 C 2551.9 160.3 2545.2 163.0 2538.1 162.8 C 2530.2 163.2 2522.3 162.8 2514.4 163.5 C 2505.6 166.1 2500.1 173.8 2493.3 179.3 C 2490.4 182.1 2486.5 183.7 2484.1 187.0 C 2483.1 188.5 2481.6 189.5 2480.1 190.2 C 2475.2 190.5 2470.6 193.3 2465.6 192.5 C 2459.8 191.8 2453.9 192.6 2448.1 193.2 C 2441.0 195.7 2434.1 199.2 2427.0 202.1 C 2423.3 203.5 2422.4 208.2 2419.2 210.2 C 2412.8 213.0 2406.1 216.0 2398.9 215.0 C 2391.7 215.3 2384.6 210.3 2377.6 213.6 C 2373.1 215.3 2368.1 216.1 2364.7 219.7 C 2358.0 226.1 2349.7 230.2 2341.9 234.9 C 2337.5 237.3 2332.4 237.3 2327.6 238.7 C 2321.1 240.4 2315.1 243.6 2308.7 245.6 C 2299.9 247.3 2290.8 246.2 2281.9 247.1 C 2273.3 248.0 2264.6 247.4 2255.9 248.3 C 2248.2 249.1 2240.3 248.2 2232.6 249.5 C 2204.9 253.8 2177.3 259.1 2149.6 263.6 C 2145.1 264.2 2140.5 263.7 2136.0 263.2 C 2122.7 262.1 2109.3 261.3 2096.0 260.1 C 2079.2 256.2 2062.6 251.4 2045.8 247.3 C 2020.2 243.8 1994.7 240.6 1969.0 238.4 C 1961.5 238.1 1954.2 236.7 1946.7 237.3 C 1935.3 235.9 1923.9 233.7 1912.6 231.3 C 1906.1 229.0 1900.2 225.1 1893.9 222.1 C 1884.0 217.0 1876.3 208.4 1866.0 204.1 C 1861.4 201.9 1856.8 199.8 1852.4 197.5 C 1850.9 196.9 1849.2 195.7 1847.7 196.8 C 1844.4 198.4 1841.2 200.2 1837.9 201.9 C 1834.5 203.7 1832.9 207.7 1829.7 209.7 C 1826.3 211.8 1822.8 213.7 1819.3 215.4 C 1806.5 211.5 1794.9 204.7 1782.4 200.0 C 1775.6 196.0 1768.1 193.4 1761.0 190.0 C 1757.5 188.6 1754.0 186.0 1750.0 187.1 C 1741.1 187.7 1732.4 190.0 1723.4 190.6 C 1715.2 193.9 1707.4 198.4 1698.9 201.0 C 1691.3 202.7 1683.9 205.7 1676.1 205.9 C 1664.7 207.5 1653.1 206.9 1641.8 205.3 C 1626.0 203.0 1610.2 200.9 1594.4 198.6 C 1590.6 198.0 1586.8 197.7 1582.9 197.7 C 1577.3 197.7 1571.7 196.8 1566.0 197.0 C 1561.1 197.1 1556.0 196.3 1551.3 198.3 C 1543.1 201.4 1534.4 203.4 1526.7 207.7 C 1512.3 214.8 1498.0 222.3 1483.7 229.7 C 1479.7 231.7 1475.1 231.9 1470.8 232.7 C 1458.8 234.6 1446.8 236.9 1434.8 238.5 C 1427.0 238.4 1419.7 241.5 1412.2 243.2 C 1406.4 244.5 1400.9 246.8 1395.0 247.2 C 1385.0 247.8 1375.0 248.3 1365.1 248.8 C 1360.1 248.1 1355.3 246.6 1350.4 245.6 C 1347.7 244.8 1344.6 244.7 1342.6 242.4 C 1336.9 236.7 1332.1 230.1 1325.3 225.7 C 1320.4 222.6 1316.2 218.4 1310.9 215.9 C 1301.2 212.2 1291.1 209.4 1281.3 205.8 C 1276.6 204.0 1271.5 205.7 1266.9 207.0 C 1262.9 208.4 1258.8 209.4 1254.9 210.9 C 1253.2 211.4 1253.4 213.5 1252.9 214.9 C 1248.5 217.4 1243.4 218.2 1238.7 220.0 C 1228.6 223.7 1217.9 224.7 1207.4 226.5 C 1204.3 226.9 1201.3 227.7 1198.2 227.7 C 1194.7 227.3 1191.6 224.9 1188.1 225.3 C 1183.0 225.8 1178.0 226.8 1173.0 227.2 C 1167.2 227.9 1162.0 224.8 1156.6 223.5 C 1148.7 221.3 1141.0 218.1 1133.0 216.3 C 1127.9 218.7 1123.7 222.8 1118.9 225.9 C 1114.0 229.3 1109.1 232.6 1104.9 236.9 C 1097.8 239.4 1090.7 242.0 1083.7 244.7 C 1078.0 246.8 1071.9 247.0 1066.0 247.9 C 1059.7 248.7 1053.4 250.1 1047.0 250.0 C 1039.0 250.0 1031.0 250.0 1023.0 250.0 C 1014.2 250.3 1005.7 247.5 997.0 247.7 C 985.2 247.9 973.5 246.0 961.8 246.3 C 955.1 244.2 948.8 241.2 942.3 238.7 C 940.8 238.0 939.0 238.0 937.4 238.4 C 925.3 240.7 913.3 243.2 901.2 245.0 C 889.7 245.3 878.4 247.8 866.9 248.2 C 861.6 248.3 856.3 249.9 851.0 249.0 C 847.0 248.3 843.1 247.5 839.1 246.9 C 835.5 246.4 832.7 244.0 829.7 242.3 C 818.3 235.7 807.0 229.1 795.6 222.4 C 792.5 220.4 788.6 220.4 785.1 219.8 C 777.0 218.7 769.1 216.9 761.0 216.3 C 759.2 216.2 757.8 217.5 756.3 218.3 C 750.1 222.2 743.6 225.5 737.5 229.5 C 732.9 233.2 728.8 237.5 724.6 241.7 C 712.7 241.6 700.9 239.7 689.0 239.1 C 680.4 238.1 671.6 237.9 663.0 237.1 C 658.6 232.8 654.2 228.5 649.7 224.2 C 648.1 222.6 645.8 222.0 643.6 221.3 C 629.5 217.3 615.4 212.7 601.2 208.9 C 596.7 213.9 592.9 219.5 588.1 224.2 C 573.0 220.4 557.5 218.0 542.0 215.9 C 539.3 215.6 536.6 216.3 533.9 216.9 C 528.1 218.1 522.2 219.0 516.4 220.4 C 510.2 222.0 503.8 221.0 497.5 221.5 C 480.4 222.9 463.2 222.1 446.1 222.3 C 444.2 222.2 442.7 223.3 441.2 224.1 C 436.6 227.0 432.0 229.6 427.4 232.4 C 423.2 235.2 417.9 234.6 413.2 235.4 C 409.8 235.6 406.4 236.7 403.1 236.0 C 399.1 233.1 396.4 228.5 392.1 225.9 C 385.1 223.3 377.9 221.6 370.8 219.2 C 367.8 218.2 364.6 216.8 361.3 217.4 C 347.6 219.6 333.7 221.0 320.0 223.1 C 308.5 224.6 296.9 224.0 285.4 225.6 C 280.4 227.3 276.2 230.9 271.1 232.2 C 268.0 229.6 266.4 225.4 262.4 224.0 C 256.2 220.6 250.3 216.8 243.5 214.6 C 233.8 211.4 224.7 205.2 214.1 206.2 C 201.3 207.9 188.9 211.4 176.9 216.0 C 169.3 219.1 161.7 222.3 153.9 224.9 C 145.3 227.1 136.5 228.8 127.8 230.9 C 125.8 231.3 123.7 232.1 121.7 231.2 C 115.1 228.8 108.5 226.3 101.9 224.0 C 98.4 222.9 94.8 220.4 91.0 221.9 C 73.7 226.8 56.2 231.3 38.9 236.2 C 33.7 232.8 28.8 228.8 23.6 225.4 C 22.5 224.6 21.3 225.9 20.4 226.4 C 13.7 231.4 6.9 236.4 0.0 241.3 L 0.0 0.0 Z" />
<path fill="#4b657c" stroke="#4b657c" stroke-width="0.09375" opacity="1.00" d=" M 552.1 13.0 C 551.0 10.2 553.8 7.9 556.0 10.1 C 556.0 10.8 555.9 12.2 555.8 13.0 C 554.6 13.2 553.3 13.2 552.1 13.0 Z" />
<path fill="#213a52" stroke="#213a52" stroke-width="0.09375" opacity="1.00" d=" M 2323.3 10.4 C 2331.0 7.6 2339.8 14.9 2338.0 23.0 C 2337.3 31.9 2324.7 35.2 2318.9 29.1 C 2316.1 26.2 2314.6 21.9 2315.9 18.0 C 2316.8 14.3 2320.0 11.8 2323.3 10.4 Z" />
<path fill="#415b72" stroke="#415b72" stroke-width="0.09375" opacity="1.00" d=" M 2325.4 15.4 C 2330.6 13.5 2335.5 20.8 2331.8 24.9 C 2329.8 27.9 2324.9 28.2 2322.6 25.4 C 2319.3 22.5 2321.2 16.3 2325.4 15.4 Z" />
<path fill="#7f9cb1" stroke="#7f9cb1" stroke-width="0.09375" opacity="1.00" d=" M 2326.3 18.3 C 2328.2 17.9 2330.4 19.8 2329.8 21.9 C 2329.6 24.7 2324.3 24.8 2324.2 21.9 C 2323.6 20.3 2324.9 18.9 2326.3 18.3 Z" />
<path fill="#284158" stroke="#284158" stroke-width="0.09375" opacity="1.00" d=" M 234.4 24.3 C 238.4 22.9 242.5 26.9 242.1 31.0 C 241.7 35.7 234.8 38.2 231.7 34.3 C 228.2 31.5 230.2 25.3 234.4 24.3 Z" />
<path fill="#a3c2d6" stroke="#a3c2d6" stroke-width="0.09375" opacity="1.00" d=" M 37.0 29.0 C 38.2 28.1 39.8 28.1 41.1 29.0 C 41.0 29.7 40.8 31.2 40.7 31.9 C 39.6 32.2 38.4 32.2 37.3 31.9 C 37.2 31.2 37.0 29.7 37.0 29.0 Z" />
<path fill="#354e66" stroke="#354e66" stroke-width="0.09375" opacity="1.00" d=" M 264.0 32.0 C 263.9 30.4 263.8 28.1 266.0 28.1 C 268.2 28.1 268.1 30.4 268.0 32.0 C 266.7 32.1 265.3 32.1 264.0 32.0 Z" />
<path fill="#415c72" stroke="#415c72" stroke-width="0.09375" opacity="1.00" d=" M 2200.1 33.9 C 2199.8 32.4 2199.9 30.0 2202.0 30.1 C 2204.1 30.0 2204.1 32.4 2203.9 33.9 C 2202.6 34.1 2201.3 34.1 2200.1 33.9 Z" />
<path fill="#304961" stroke="#304961" stroke-width="0.09375" opacity="1.00" d=" M 2943.3 31.3 C 2948.0 29.5 2952.9 35.3 2950.8 39.7 C 2949.2 44.3 2941.8 44.7 2939.6 40.4 C 2937.5 37.1 2939.6 32.3 2943.3 31.3 Z" />
<path fill="#4b657c" stroke="#4b657c" stroke-width="0.09375" opacity="1.00" d=" M 1514.0 35.1 C 1515.2 34.0 1516.7 34.0 1518.0 35.1 C 1518.0 35.8 1517.9 37.2 1517.8 38.0 C 1516.6 38.2 1515.4 38.2 1514.2 38.0 C 1514.1 37.2 1514.0 35.8 1514.0 35.1 Z" />
<path fill="#557086" stroke="#557086" stroke-width="0.09375" opacity="1.00" d=" M 2944.3 34.3 C 2948.2 33.3 2949.5 40.6 2945.0 40.0 C 2941.3 40.6 2941.2 35.1 2944.3 34.3 Z" />
<path fill="#304961" stroke="#304961" stroke-width="0.09375" opacity="1.00" d=" M 2155.3 39.3 C 2160.0 37.5 2164.8 43.3 2162.8 47.7 C 2161.2 52.3 2153.8 52.7 2151.6 48.4 C 2149.4 45.1 2151.6 40.3 2155.3 39.3 Z" />
<path fill="#68849a" stroke="#68849a" stroke-width="0.09375" opacity="1.00" d=" M 654.9 42.0 C 656.2 41.0 657.8 41.0 659.1 42.0 C 659.0 42.7 658.8 44.2 658.8 44.9 C 657.6 45.2 656.4 45.2 655.3 44.9 C 655.2 44.2 655.0 42.7 654.9 42.0 Z" />
<path fill="#4b657c" stroke="#4b657c" stroke-width="0.09375" opacity="1.00" d=" M 791.0 42.1 C 792.2 41.0 793.7 41.0 795.0 42.0 C 795.0 42.8 794.9 44.2 794.8 45.0 C 793.6 45.2 792.4 45.2 791.2 45.0 C 791.1 44.2 791.0 42.8 791.0 42.1 Z" />
<path fill="#4b657c" stroke="#4b657c" stroke-width="0.09375" opacity="1.00" d=" M 1302.0 42.0 C 1303.2 41.0 1304.7 41.0 1306.0 42.0 C 1306.0 42.8 1305.9 44.2 1305.8 45.0 C 1304.6 45.2 1303.4 45.2 1302.2 45.0 C 1302.1 44.2 1302.0 42.8 1302.0 42.0 Z" />
<path fill="#557086" stroke="#557086" stroke-width="0.09375" opacity="1.00" d=" M 2156.3 42.3 C 2160.2 41.3 2161.5 48.7 2157.0 48.0 C 2153.3 48.6 2153.2 43.1 2156.3 42.3 Z" />
<path fill="#375168" stroke="#375168" stroke-width="0.09375" opacity="1.00" d=" M 485.3 43.2 C 489.4 41.7 493.7 45.9 493.3 50.0 C 492.8 54.8 485.8 57.6 482.6 53.4 C 478.9 50.6 481.1 44.3 485.3 43.2 Z" />
<path fill="#708da2" stroke="#708da2" stroke-width="0.09375" opacity="1.00" d=" M 1735.9 46.0 C 1737.2 45.0 1738.8 45.0 1740.1 46.0 C 1740.0 46.7 1739.8 48.2 1739.7 48.9 C 1738.6 49.2 1737.4 49.2 1736.3 48.9 C 1736.2 48.2 1736.0 46.7 1735.9 46.0 Z" />
<path fill="#344d65" stroke="#344d65" stroke-width="0.09375" opacity="1.00" d=" M 95.0 50.0 C 94.9 48.4 94.8 46.1 97.0 46.1 C 99.2 46.2 99.1 48.4 99.0 50.0 C 97.7 50.1 96.3 50.1 95.0 50.0 Z" />
<path fill="#658197" stroke="#658197" stroke-width="0.09375" opacity="1.00" d=" M 486.3 46.3 C 489.3 45.5 491.3 50.1 488.7 51.8 C 487.0 52.3 484.2 52.2 484.1 49.8 C 483.6 48.2 485.0 47.0 486.3 46.3 Z" />
<path fill="#4b657c" stroke="#4b657c" stroke-width="0.09375" opacity="1.00" d=" M 1102.0 47.0 C 1103.2 46.0 1104.7 46.0 1106.0 47.1 C 1106.0 47.8 1105.9 49.2 1105.8 50.0 C 1104.6 50.2 1103.4 50.2 1102.2 50.0 C 1102.1 49.2 1102.0 47.8 1102.0 47.0 Z" />
<path fill="#415c72" stroke="#415c72" stroke-width="0.09375" opacity="1.00" d=" M 1973.1 51.9 C 1972.8 50.4 1972.8 48.0 1975.0 48.1 C 1977.1 48.0 1977.1 50.4 1976.9 51.9 C 1975.6 52.1 1974.4 52.1 1973.1 51.9 Z" />
<path fill="#4b657c" stroke="#4b657c" stroke-width="0.09375" opacity="1.00" d=" M 418.0 50.0 C 419.2 49.0 420.8 49.0 422.0 50.1 C 422.0 50.8 421.9 52.2 421.8 53.0 C 420.6 53.2 419.4 53.2 418.2 53.0 C 418.1 52.2 418.0 50.8 418.0 50.0 Z" />
<path fill="#415c72" stroke="#415c72" stroke-width="0.09375" opacity="1.00" d=" M 2539.1 53.9 C 2538.8 52.4 2538.9 50.0 2541.0 50.1 C 2543.1 50.0 2543.1 52.4 2542.9 53.9 C 2541.6 54.1 2540.3 54.1 2539.1 53.9 Z" />
<path fill="#6b879d" stroke="#6b879d" stroke-width="0.09375" opacity="1.00" d=" M 2662.9 62.0 C 2664.2 61.0 2665.8 61.0 2667.1 62.0 C 2667.0 62.7 2666.8 64.2 2666.7 65.0 C 2665.5 65.2 2664.4 65.2 2663.3 64.9 C 2663.2 64.2 2663.0 62.7 2662.9 62.0 Z" />
<path fill="#415c72" stroke="#415c72" stroke-width="0.09375" opacity="1.00" d=" M 2883.1 69.9 C 2882.8 68.4 2882.8 66.0 2885.0 66.0 C 2887.1 66.0 2887.1 68.4 2886.9 69.9 C 2885.6 70.1 2884.3 70.1 2883.1 69.9 Z" />
<path fill="#284158" stroke="#284158" stroke-width="0.09375" opacity="1.00" d=" M 1599.4 67.3 C 1603.4 65.9 1607.5 69.9 1607.1 74.0 C 1606.7 78.7 1599.8 81.2 1596.7 77.3 C 1593.2 74.5 1595.2 68.3 1599.4 67.3 Z" />
<path fill="#50718c" stroke="#50718c" stroke-width="0.09375" opacity="1.00" d=" M 209.0 76.2 C 211.2 76.1 213.5 76.0 215.7 76.3 C 218.5 77.3 218.4 81.0 217.1 83.1 C 214.9 86.2 211.9 88.6 208.9 90.9 C 204.4 93.7 199.7 96.2 194.7 97.7 C 190.9 98.8 186.9 99.2 183.0 98.9 C 180.7 99.0 178.5 96.6 179.5 94.4 C 180.2 92.6 181.1 90.7 182.9 89.8 C 183.0 90.6 183.1 92.1 183.1 92.8 C 184.9 94.7 187.6 95.0 190.0 94.7 C 197.4 93.5 204.2 90.0 209.8 85.1 C 211.4 83.3 213.2 80.7 212.0 78.2 C 211.1 77.4 210.0 76.8 209.0 76.2 Z" />
<path fill="#32597b" stroke="#32597b" stroke-width="0.09375" opacity="1.00" d=" M 191.2 82.2 C 194.0 78.5 199.5 77.3 203.6 79.4 C 206.5 80.3 207.6 83.4 209.8 85.1 C 204.2 90.0 197.4 93.5 190.0 94.7 C 189.1 90.6 187.9 85.6 191.2 82.2 Z" />
<path fill="#243c54" stroke="#243c54" stroke-width="0.09375" opacity="1.00" d=" M 682.3 89.4 C 689.2 86.9 697.5 92.6 697.1 100.0 C 697.6 104.1 694.7 107.4 691.6 109.6 C 685.2 113.8 674.5 109.2 674.9 101.0 C 674.1 95.9 677.8 91.3 682.3 89.4 Z" />
<path fill="#31587a" stroke="#31587a" stroke-width="0.09375" opacity="1.00" d=" M 194.7 97.7 C 199.7 96.2 204.4 93.7 208.9 90.9 C 208.5 97.5 200.1 101.1 194.7 97.7 Z" />
<path fill="#4b657c" stroke="#4b657c" stroke-width="0.09375" opacity="1.00" d=" M 1201.1 96.0 C 1200.0 93.2 1202.8 90.9 1205.0 93.1 C 1205.0 93.8 1204.9 95.2 1204.8 96.0 C 1203.6 96.2 1202.3 96.2 1201.1 96.0 Z" />
<path fill="#49637a" stroke="#49637a" stroke-width="0.09375" opacity="1.00" d=" M 684.4 94.4 C 688.4 93.0 692.6 96.9 692.0 101.0 C 691.9 105.8 684.7 108.2 681.6 104.4 C 678.2 101.6 680.2 95.3 684.4 94.4 Z" />
<path fill="#354e66" stroke="#354e66" stroke-width="0.09375" opacity="1.00" d=" M 911.0 99.0 C 910.9 97.4 910.8 95.1 913.0 95.1 C 915.2 95.1 915.1 97.4 915.0 99.0 C 913.6 99.1 912.3 99.1 911.0 99.0 Z" />
<path fill="#90aec3" stroke="#90aec3" stroke-width="0.09375" opacity="1.00" d=" M 685.3 97.3 C 687.2 96.9 689.5 98.8 688.8 100.8 C 688.6 103.7 683.4 103.7 683.2 100.9 C 682.6 99.2 683.9 97.9 685.3 97.3 Z" />
<path fill="#213a51" stroke="#213a51" stroke-width="0.09375" opacity="1.00" d=" M 1878.4 98.3 C 1883.5 96.3 1888.5 103.8 1884.8 107.8 C 1882.8 110.7 1877.9 111.0 1875.7 108.3 C 1872.3 105.5 1874.2 99.3 1878.4 98.3 Z" />
<path fill="#243d55" stroke="#243d55" stroke-width="0.09375" opacity="1.00" d=" M 49.3 99.4 C 57.0 96.6 65.8 103.9 64.0 112.0 C 63.3 120.9 50.7 124.2 44.9 118.1 C 42.2 115.2 40.6 110.9 41.9 107.0 C 42.8 103.3 46.0 100.8 49.3 99.4 Z" />
<path fill="#638095" stroke="#638095" stroke-width="0.09375" opacity="1.00" d=" M 2225.9 101.0 C 2227.2 100.0 2228.8 100.0 2230.1 101.0 C 2230.0 101.7 2229.8 103.2 2229.7 103.9 C 2228.6 104.2 2227.4 104.2 2226.3 103.9 C 2226.2 103.2 2226.0 101.7 2225.9 101.0 Z" />
<path fill="#4b667c" stroke="#4b667c" stroke-width="0.09375" opacity="1.00" d=" M 51.4 104.4 C 56.6 102.5 61.6 109.8 57.8 113.9 C 55.8 116.9 50.9 117.2 48.6 114.4 C 45.2 111.5 47.2 105.4 51.4 104.4 Z" />
<path fill="#213a52" stroke="#213a52" stroke-width="0.09375" opacity="1.00" d=" M 1128.3 104.4 C 1136.0 101.5 1144.8 108.9 1143.0 117.0 C 1142.2 127.1 1126.6 129.6 1122.2 120.9 C 1118.1 114.9 1121.7 106.5 1128.3 104.4 Z" />
<path fill="#354e66" stroke="#354e66" stroke-width="0.09375" opacity="1.00" d=" M 787.0 109.0 C 786.9 107.4 786.8 105.1 789.0 105.1 C 791.2 105.1 791.1 107.4 791.0 109.0 C 789.6 109.1 788.3 109.1 787.0 109.0 Z" />
<path fill="#5d798f" stroke="#5d798f" stroke-width="0.09375" opacity="1.00" d=" M 1652.9 106.0 C 1654.2 105.1 1655.8 105.0 1657.1 106.0 C 1657.0 106.7 1656.8 108.2 1656.7 109.0 C 1655.6 109.2 1654.4 109.2 1653.3 108.9 C 1653.2 108.2 1653.0 106.7 1652.9 106.0 Z" />
<path fill="#213a51" stroke="#213a51" stroke-width="0.09375" opacity="1.00" d=" M 1365.4 106.3 C 1370.5 104.4 1375.5 111.8 1371.8 115.8 C 1369.8 118.7 1365.0 119.0 1362.7 116.3 C 1359.3 113.5 1361.2 107.3 1365.4 106.3 Z" />
<path fill="#97b6ca" stroke="#97b6ca" stroke-width="0.09375" opacity="1.00" d=" M 52.3 107.3 C 55.8 106.3 57.5 112.2 53.8 112.9 C 50.1 114.2 48.6 108.2 52.3 107.3 Z" />
<path fill="#415b72" stroke="#415b72" stroke-width="0.09375" opacity="1.00" d=" M 1130.4 109.4 C 1135.6 107.5 1140.5 114.8 1136.8 118.9 C 1134.8 121.8 1129.9 122.2 1127.6 119.4 C 1124.3 116.5 1126.2 110.3 1130.4 109.4 Z" />
<path fill="#213a51" stroke="#213a51" stroke-width="0.09375" opacity="1.00" d=" M 2485.4 110.3 C 2490.5 108.3 2495.5 115.8 2491.8 119.8 C 2489.8 122.7 2484.9 123.0 2482.7 120.3 C 2479.3 117.5 2481.2 111.3 2485.4 110.3 Z" />
<path fill="#7f9cb1" stroke="#7f9cb1" stroke-width="0.09375" opacity="1.00" d=" M 1131.3 112.3 C 1135.3 111.2 1136.4 118.4 1132.0 118.0 C 1128.5 118.4 1128.1 113.0 1131.3 112.3 Z" />
<path fill="#5b778d" stroke="#5b778d" stroke-width="0.09375" opacity="1.00" d=" M 1461.9 118.0 C 1463.2 117.1 1464.8 117.1 1466.1 118.0 C 1466.0 118.7 1465.8 120.2 1465.8 120.9 C 1464.6 121.2 1463.4 121.2 1462.3 120.9 C 1462.2 120.2 1462.0 118.7 1461.9 118.0 Z" />
<path fill="#3c566d" stroke="#3c566d" stroke-width="0.09375" opacity="1.00" d=" M 403.0 131.0 C 402.9 129.5 402.8 127.0 405.0 127.1 C 407.1 127.0 407.1 129.5 407.0 131.0 C 405.7 131.1 404.3 131.1 403.0 131.0 Z" />
<path fill="#4b657c" stroke="#4b657c" stroke-width="0.09375" opacity="1.00" d=" M 1019.0 132.1 C 1020.2 131.0 1021.7 131.0 1023.0 132.0 C 1023.0 132.8 1022.9 134.2 1022.8 135.0 C 1021.6 135.2 1020.4 135.2 1019.2 135.0 C 1019.1 134.2 1019.0 132.8 1019.0 132.1 Z" />
<path fill="#4b657c" stroke="#4b657c" stroke-width="0.09375" opacity="1.00" d=" M 1447.0 142.1 C 1448.2 141.0 1449.7 141.0 1451.0 142.0 C 1451.0 142.8 1450.9 144.2 1450.8 145.0 C 1449.6 145.2 1448.4 145.2 1447.2 145.0 C 1447.1 144.2 1447.0 142.8 1447.0 142.1 Z" />
<path fill="#4b657c" stroke="#4b657c" stroke-width="0.09375" opacity="1.00" d=" M 1281.0 145.0 C 1282.2 144.0 1283.7 144.0 1285.0 145.1 C 1285.0 145.8 1284.9 147.2 1284.8 148.0 C 1283.6 148.2 1282.4 148.2 1281.2 148.0 C 1281.1 147.2 1281.0 145.8 1281.0 145.0 Z" />
<path fill="#304961" stroke="#304961" stroke-width="0.09375" opacity="1.00" d=" M 1695.3 150.2 C 1700.0 148.5 1704.9 154.3 1702.8 158.7 C 1701.2 163.3 1693.8 163.7 1691.6 159.4 C 1689.5 156.1 1691.6 151.3 1695.3 150.2 Z" />
<path fill="#c2d7e4" stroke="#c2d7e4" stroke-width="0.09375" opacity="1.00" d=" M 2562.4 152.4 C 2566.2 151.7 2570.0 152.9 2573.8 153.3 C 2578.1 153.9 2582.5 153.4 2586.8 154.3 C 2590.2 155.4 2593.4 156.9 2596.6 158.4 C 2607.0 165.1 2615.7 173.9 2624.9 182.1 C 2627.4 184.5 2630.8 185.1 2634.0 186.0 C 2639.9 187.5 2645.5 189.6 2651.4 191.1 C 2650.8 191.3 2649.6 191.7 2649.0 192.0 C 2638.9 191.4 2628.4 191.7 2618.8 188.1 C 2615.8 186.5 2613.7 189.5 2612.9 191.9 C 2611.4 196.5 2608.0 200.2 2606.9 204.9 C 2606.6 206.5 2605.0 208.1 2603.3 207.6 C 2599.2 207.2 2596.5 203.8 2593.2 201.8 C 2589.9 200.1 2589.2 195.9 2586.0 194.0 C 2583.3 192.1 2581.3 188.8 2577.9 188.0 C 2574.5 187.2 2572.9 190.9 2570.8 192.8 C 2568.4 195.3 2567.3 200.1 2563.1 199.8 C 2556.1 198.2 2554.6 189.4 2548.4 186.6 C 2545.5 185.3 2543.3 188.6 2540.8 189.6 C 2538.7 189.3 2536.9 187.8 2534.9 187.3 C 2531.0 187.2 2527.3 189.0 2524.4 191.5 C 2522.4 193.2 2519.9 194.7 2517.2 193.9 C 2514.4 192.0 2513.1 188.4 2509.8 187.1 C 2507.6 186.3 2505.9 188.2 2504.2 189.2 C 2501.6 191.1 2498.2 191.2 2495.2 192.2 C 2492.2 193.1 2489.6 194.8 2486.7 195.7 C 2483.4 196.0 2480.2 195.2 2477.0 194.8 C 2477.0 192.7 2478.3 191.1 2480.1 190.2 C 2481.6 189.5 2483.1 188.5 2484.1 187.0 C 2486.5 183.7 2490.4 182.1 2493.3 179.3 C 2500.1 173.8 2505.6 166.1 2514.4 163.5 C 2522.3 162.8 2530.2 163.2 2538.1 162.8 C 2545.2 163.0 2551.9 160.3 2558.2 157.3 C 2560.4 156.5 2561.0 154.1 2562.4 152.4 Z" />
<path fill="#557086" stroke="#557086" stroke-width="0.09375" opacity="1.00" d=" M 1696.3 153.3 C 1700.2 152.3 1701.5 159.6 1697.0 159.0 C 1693.3 159.6 1693.2 154.2 1696.3 153.3 Z" />
<path fill="#415c72" stroke="#415c72" stroke-width="0.09375" opacity="1.00" d=" M 2747.1 156.9 C 2746.8 155.4 2746.8 153.0 2749.0 153.1 C 2751.1 153.0 2751.1 155.4 2750.9 156.9 C 2749.6 157.1 2748.3 157.1 2747.1 156.9 Z" />
<path fill="#415c72" stroke="#415c72" stroke-width="0.09375" opacity="1.00" d=" M 2929.1 159.9 C 2928.8 158.4 2928.8 156.0 2931.0 156.0 C 2933.1 156.0 2933.1 158.4 2932.9 159.9 C 2931.6 160.1 2930.3 160.1 2929.1 159.9 Z" />
<path fill="#4b657c" stroke="#4b657c" stroke-width="0.09375" opacity="1.00" d=" M 2178.1 162.0 C 2177.0 159.2 2179.8 156.9 2182.0 159.0 C 2182.0 159.8 2181.9 161.2 2181.8 162.0 C 2180.6 162.2 2179.3 162.2 2178.1 162.0 Z" />
<path fill="#4b657c" stroke="#4b657c" stroke-width="0.09375" opacity="1.00" d=" M 640.0 161.1 C 642.2 158.9 645.0 161.2 643.9 164.0 C 642.6 164.2 641.4 164.2 640.2 164.0 C 640.1 163.2 640.0 161.8 640.0 161.1 Z" />
<path fill="#3f5970" stroke="#3f5970" stroke-width="0.09375" opacity="1.00" d=" M 169.1 168.9 C 168.9 167.4 168.9 165.0 171.0 165.1 C 173.1 165.0 173.1 167.4 172.9 168.9 C 171.6 169.1 170.4 169.1 169.1 168.9 Z" />
<path fill="#213a51" stroke="#213a51" stroke-width="0.09375" opacity="1.00" d=" M 274.4 171.4 C 279.6 169.3 284.5 176.8 280.8 180.8 C 278.8 183.7 274.0 184.0 271.7 181.3 C 268.3 178.5 270.2 172.3 274.4 171.4 Z" />
<path fill="#304961" stroke="#304961" stroke-width="0.09375" opacity="1.00" d=" M 901.3 171.3 C 906.0 169.5 910.9 175.3 908.8 179.7 C 907.2 184.3 899.8 184.7 897.6 180.4 C 895.5 177.1 897.6 172.3 901.3 171.3 Z" />
<path fill="#557086" stroke="#557086" stroke-width="0.09375" opacity="1.00" d=" M 902.3 174.3 C 906.2 173.3 907.5 180.6 903.0 180.0 C 899.3 180.6 899.2 175.1 902.3 174.3 Z" />
<path fill="#213a52" stroke="#213a52" stroke-width="0.09375" opacity="1.00" d=" M 1947.3 180.4 C 1955.0 177.6 1963.8 184.9 1962.0 193.0 C 1961.2 203.1 1945.7 205.6 1941.2 196.9 C 1937.1 190.9 1940.7 182.5 1947.3 180.4 Z" />
<path fill="#83a6bc" stroke="#83a6bc" stroke-width="0.09375" opacity="1.00" d=" M 2787.9 186.9 C 2792.3 185.5 2796.5 183.2 2801.1 182.3 C 2806.4 183.1 2811.4 185.1 2816.6 186.3 C 2826.4 189.1 2837.1 188.0 2846.3 192.7 C 2857.5 197.3 2868.6 202.0 2879.3 207.7 C 2886.5 210.7 2892.5 215.7 2898.9 220.1 C 2903.3 223.6 2908.7 225.7 2913.7 228.3 C 2917.1 230.1 2920.5 232.1 2924.4 232.6 C 2931.7 233.8 2939.1 235.0 2946.4 236.5 C 2950.5 237.1 2952.4 241.3 2955.1 243.9 C 2958.7 248.5 2964.6 249.8 2969.4 252.5 C 2974.7 254.6 2979.5 258.3 2985.4 258.5 C 2990.3 258.9 2995.1 260.1 3000.0 261.1 L 3000.0 293.3 C 2990.3 287.3 2979.1 285.0 2968.3 281.7 C 2963.8 280.4 2961.2 276.1 2957.5 273.5 C 2954.2 271.2 2951.8 267.2 2947.6 266.4 C 2938.1 264.3 2928.6 262.1 2919.1 259.9 C 2913.6 258.9 2908.6 256.5 2903.4 254.6 C 2897.5 252.1 2890.9 252.4 2884.6 251.4 C 2869.8 250.2 2854.8 251.5 2840.0 252.8 C 2833.8 253.4 2827.7 255.3 2821.6 256.6 C 2807.9 259.9 2794.2 263.2 2780.4 266.4 C 2776.0 267.4 2772.5 270.4 2768.6 272.6 C 2765.2 274.7 2760.9 274.2 2757.1 274.7 C 2750.7 275.0 2744.3 276.1 2737.9 275.9 C 2705.3 273.6 2672.7 271.5 2640.0 269.2 C 2633.7 269.0 2628.6 264.3 2622.4 263.6 C 2612.9 262.2 2603.3 260.7 2593.8 259.3 C 2588.8 258.4 2585.3 253.8 2580.1 253.7 C 2571.0 252.9 2562.0 252.0 2553.0 251.2 C 2549.0 250.7 2545.3 252.5 2541.6 253.5 C 2526.7 258.0 2511.7 262.3 2496.9 267.0 C 2491.2 269.0 2485.1 269.7 2479.2 271.2 C 2470.6 273.0 2461.9 275.3 2453.0 275.0 C 2448.7 274.9 2444.4 275.3 2440.1 274.8 C 2433.5 272.8 2427.8 268.0 2420.7 267.4 C 2416.6 267.0 2412.5 265.7 2408.4 266.4 C 2402.3 267.5 2396.2 269.1 2390.0 269.9 C 2377.7 270.6 2365.3 269.9 2353.0 270.9 C 2344.9 270.4 2337.1 272.8 2329.2 274.3 C 2320.1 276.2 2311.1 278.4 2301.9 279.8 C 2289.3 278.3 2276.9 275.5 2264.4 273.6 C 2257.9 272.9 2252.9 268.0 2246.4 267.5 C 2237.8 266.5 2229.2 265.5 2220.6 264.4 C 2215.6 264.0 2210.6 262.6 2205.6 263.5 C 2195.5 265.1 2185.3 266.7 2175.2 268.3 C 2162.6 270.8 2149.9 273.3 2137.1 274.9 C 2130.4 275.2 2123.7 274.9 2117.0 275.0 C 2106.0 275.3 2095.1 273.4 2084.2 272.6 C 2078.3 271.8 2072.3 271.9 2066.6 270.4 C 2057.5 267.2 2048.7 263.5 2039.6 260.3 C 2032.1 258.5 2024.4 257.8 2016.8 256.3 C 2002.2 252.3 1989.0 243.8 1973.8 242.3 C 1964.8 240.5 1955.6 239.4 1946.7 237.3 C 1954.2 236.7 1961.5 238.1 1969.0 238.4 C 1994.7 240.6 2020.2 243.8 2045.8 247.3 C 2062.6 251.4 2079.2 256.2 2096.0 260.1 C 2109.3 261.3 2122.7 262.1 2136.0 263.2 C 2140.5 263.7 2145.1 264.2 2149.6 263.6 C 2177.3 259.1 2204.9 253.8 2232.6 249.5 C 2240.3 248.2 2248.2 249.1 2255.9 248.3 C 2264.6 247.4 2273.3 248.0 2281.9 247.1 C 2290.8 246.2 2299.9 247.3 2308.7 245.6 C 2315.1 243.6 2321.1 240.4 2327.6 238.7 C 2332.4 237.3 2337.5 237.3 2341.9 234.9 C 2349.7 230.2 2358.0 226.1 2364.7 219.7 C 2368.1 216.1 2373.1 215.3 2377.6 213.6 C 2384.6 210.3 2391.7 215.3 2398.9 215.0 C 2406.1 216.0 2412.8 213.0 2419.2 210.2 C 2422.4 208.2 2423.3 203.5 2427.0 202.1 C 2434.1 199.2 2441.0 195.7 2448.1 193.2 C 2453.9 192.6 2459.8 191.8 2465.6 192.5 C 2470.6 193.3 2475.2 190.5 2480.1 190.2 C 2478.3 191.1 2477.0 192.7 2477.0 194.8 C 2480.2 195.2 2483.4 196.0 2486.7 195.7 C 2489.6 194.8 2492.2 193.1 2495.2 192.2 C 2498.2 191.2 2501.6 191.1 2504.2 189.2 C 2505.9 188.2 2507.6 186.3 2509.8 187.1 C 2513.1 188.4 2514.4 192.0 2517.2 193.9 C 2519.9 194.7 2522.4 193.2 2524.4 191.5 C 2527.3 189.0 2531.0 187.2 2534.9 187.3 C 2536.9 187.8 2538.7 189.3 2540.8 189.6 C 2543.3 188.6 2545.5 185.3 2548.4 186.6 C 2554.6 189.4 2556.1 198.2 2563.1 199.8 C 2567.3 200.1 2568.4 195.3 2570.8 192.8 C 2572.9 190.9 2574.5 187.2 2577.9 188.0 C 2581.3 188.8 2583.3 192.1 2586.0 194.0 C 2589.2 195.9 2589.9 200.1 2593.2 201.8 C 2596.5 203.8 2599.2 207.2 2603.3 207.6 C 2605.0 208.1 2606.6 206.5 2606.9 204.9 C 2608.0 200.2 2611.4 196.5 2612.9 191.9 C 2613.7 189.5 2615.8 186.5 2618.8 188.1 C 2628.4 191.7 2638.9 191.4 2649.0 192.0 C 2649.6 191.7 2650.8 191.3 2651.4 191.1 C 2659.5 192.7 2667.8 192.2 2676.0 192.3 C 2685.3 192.2 2694.6 192.9 2704.0 192.7 C 2711.7 192.5 2719.4 193.6 2727.0 192.4 C 2739.8 191.7 2752.5 189.7 2765.3 189.4 C 2772.8 188.2 2780.7 189.6 2787.9 186.9 Z" />
<path fill="#415b72" stroke="#415b72" stroke-width="0.09375" opacity="1.00" d=" M 1949.3 185.4 C 1954.6 183.5 1959.5 190.8 1955.8 194.9 C 1953.8 197.9 1948.9 198.2 1946.6 195.4 C 1943.3 192.5 1945.2 186.3 1949.3 185.4 Z" />
<path fill="#4b657c" stroke="#4b657c" stroke-width="0.09375" opacity="1.00" d=" M 2257.0 187.1 C 2259.2 184.9 2262.0 187.2 2260.9 190.0 C 2259.6 190.2 2258.4 190.2 2257.2 190.0 C 2257.1 189.2 2257.0 187.8 2257.0 187.1 Z" />
<path fill="#c2d7e4" stroke="#c2d7e4" stroke-width="0.09375" opacity="1.00" d=" M 1723.4 190.6 C 1732.4 190.0 1741.1 187.7 1750.0 187.1 C 1754.0 186.0 1757.5 188.6 1761.0 190.0 C 1768.1 193.4 1775.6 196.0 1782.4 200.0 C 1778.9 203.3 1774.2 200.9 1770.1 200.5 C 1766.3 200.8 1762.4 200.3 1758.6 200.5 C 1755.0 202.5 1752.5 205.9 1749.6 208.7 C 1749.0 208.7 1747.9 208.7 1747.4 208.7 C 1743.4 202.5 1735.1 201.0 1728.2 202.1 C 1727.1 203.6 1726.3 206.3 1724.0 206.0 C 1720.9 205.7 1718.1 204.2 1715.1 203.7 C 1712.4 204.5 1710.2 206.2 1707.5 206.5 C 1703.9 207.2 1700.4 206.7 1696.9 205.9 C 1697.3 204.1 1698.0 202.5 1698.9 201.0 C 1707.4 198.4 1715.2 193.9 1723.4 190.6 Z" />
<path fill="#7f9cb1" stroke="#7f9cb1" stroke-width="0.09375" opacity="1.00" d=" M 1950.3 188.3 C 1952.2 187.9 1954.4 189.8 1953.8 191.8 C 1953.6 194.7 1948.3 194.8 1948.2 191.8 C 1947.6 190.2 1948.9 188.9 1950.3 188.3 Z" />
<path fill="#415c72" stroke="#415c72" stroke-width="0.09375" opacity="1.00" d=" M 2037.1 192.9 C 2036.8 191.4 2036.9 189.0 2039.0 189.1 C 2041.1 189.0 2041.1 191.4 2040.9 192.9 C 2039.6 193.1 2038.3 193.1 2037.1 192.9 Z" />
<path fill="#2980b9" stroke="#2980b9" stroke-width="0.09375" opacity="1.00" d=" M 1847.7 196.8 C 1849.2 195.7 1850.9 196.9 1852.4 197.5 C 1856.8 199.8 1861.4 201.9 1866.0 204.1 C 1876.3 208.4 1884.0 217.0 1893.9 222.1 C 1900.2 225.1 1906.1 229.0 1912.6 231.3 C 1923.9 233.7 1935.3 235.9 1946.7 237.3 C 1955.6 239.4 1964.8 240.5 1973.8 242.3 C 1989.0 243.8 2002.2 252.3 2016.8 256.3 C 2024.4 257.8 2032.1 258.5 2039.6 260.3 C 2048.7 263.5 2057.5 267.2 2066.6 270.4 C 2072.3 271.9 2078.3 271.8 2084.2 272.6 C 2095.1 273.4 2106.0 275.3 2117.0 275.0 C 2123.7 274.9 2130.4 275.2 2137.1 274.9 C 2149.9 273.3 2162.6 270.8 2175.2 268.3 C 2185.3 266.7 2195.5 265.1 2205.6 263.5 C 2210.6 262.6 2215.6 264.0 2220.6 264.4 C 2229.2 265.5 2237.8 266.5 2246.4 267.5 C 2252.9 268.0 2257.9 272.9 2264.4 273.6 C 2276.9 275.5 2289.3 278.3 2301.9 279.8 C 2311.1 278.4 2320.1 276.2 2329.2 274.3 C 2337.1 272.8 2344.9 270.4 2353.0 270.9 C 2365.3 269.9 2377.7 270.6 2390.0 269.9 C 2396.2 269.1 2402.3 267.5 2408.4 266.4 C 2412.5 265.7 2416.6 267.0 2420.7 267.4 C 2427.8 268.0 2433.5 272.8 2440.1 274.8 C 2444.4 275.3 2448.7 274.9 2453.0 275.0 C 2461.9 275.3 2470.6 273.0 2479.2 271.2 C 2485.1 269.7 2491.2 269.0 2496.9 267.0 C 2511.7 262.3 2526.7 258.0 2541.6 253.5 C 2545.3 252.5 2549.0 250.7 2553.0 251.2 C 2562.0 252.0 2571.0 252.9 2580.1 253.7 C 2585.3 253.8 2588.8 258.4 2593.8 259.3 C 2603.3 260.7 2612.9 262.2 2622.4 263.6 C 2628.6 264.3 2633.7 269.0 2640.0 269.2 C 2672.7 271.5 2705.3 273.6 2737.9 275.9 C 2744.3 276.1 2750.7 275.0 2757.1 274.7 C 2760.9 274.2 2765.2 274.7 2768.6 272.6 C 2772.5 270.4 2776.0 267.4 2780.4 266.4 C 2794.2 263.2 2807.9 259.9 2821.6 256.6 C 2827.7 255.3 2833.8 253.4 2840.0 252.8 C 2854.8 251.5 2869.8 250.2 2884.6 251.4 C 2890.9 252.4 2897.5 252.1 2903.4 254.6 C 2908.6 256.5 2913.6 258.9 2919.1 259.9 C 2928.6 262.1 2938.1 264.3 2947.6 266.4 C 2951.8 267.2 2954.2 271.2 2957.5 273.5 C 2961.2 276.1 2963.8 280.4 2968.3 281.7 C 2979.1 285.0 2990.3 287.3 3000.0 293.3 L 3000.0 317.1 C 2990.6 316.7 2981.2 315.3 2971.8 314.4 C 2926.6 309.4 2881.3 305.5 2836.0 301.0 C 2825.7 299.7 2815.3 300.2 2805.0 300.1 C 2790.3 300.2 2775.6 300.0 2761.0 300.0 C 2756.6 299.9 2752.5 301.4 2748.4 302.5 C 2736.9 305.6 2725.4 308.7 2713.9 311.9 C 2710.7 312.7 2707.5 314.0 2704.1 313.7 C 2691.1 312.5 2678.0 313.5 2665.0 312.3 C 2653.7 311.8 2642.3 312.3 2631.0 311.3 C 2624.7 310.9 2618.3 311.6 2612.1 310.0 C 2583.4 303.8 2554.4 298.9 2525.6 293.4 C 2519.0 292.0 2512.4 294.2 2505.8 294.7 C 2498.2 296.0 2490.2 296.2 2482.9 298.9 C 2474.3 301.7 2465.8 304.6 2457.1 307.2 C 2446.1 311.5 2434.2 311.7 2422.7 313.5 C 2412.3 312.2 2401.9 310.0 2391.6 308.4 C 2383.6 306.7 2375.3 306.2 2367.6 303.4 C 2356.9 299.8 2346.1 296.2 2335.4 292.6 C 2332.0 291.5 2328.7 290.0 2325.1 290.0 C 2315.3 290.0 2305.7 288.7 2296.0 288.9 C 2287.6 288.2 2279.3 288.0 2270.9 287.8 C 2264.2 287.7 2257.0 285.5 2250.7 288.7 C 2247.2 290.3 2243.7 291.8 2240.3 293.3 C 2236.0 295.3 2231.2 295.6 2226.6 296.6 C 2207.4 299.9 2188.2 303.6 2169.0 307.0 C 2133.9 302.9 2098.9 297.7 2063.8 293.4 C 2049.9 291.9 2036.0 290.5 2022.1 289.0 C 2011.1 288.5 2000.0 289.0 1989.1 289.9 C 1983.2 290.1 1977.4 289.9 1971.6 290.5 C 1963.4 291.4 1955.1 290.6 1946.9 291.8 C 1930.1 294.4 1913.0 295.3 1896.0 295.1 C 1882.5 294.0 1869.0 292.6 1855.6 291.5 C 1850.1 291.2 1846.4 286.8 1842.0 284.1 C 1837.8 281.5 1834.2 277.3 1829.0 276.9 C 1805.4 273.6 1781.8 270.1 1758.1 267.1 C 1737.1 266.9 1716.0 267.1 1695.0 267.0 C 1690.6 266.9 1686.1 267.3 1682.0 269.0 C 1676.6 273.2 1671.7 278.0 1666.4 282.3 C 1663.3 285.3 1658.7 283.7 1654.9 284.2 C 1643.3 285.4 1631.6 284.7 1620.1 285.9 C 1607.7 285.8 1595.4 287.1 1583.0 286.8 C 1575.3 287.0 1567.5 286.0 1559.9 287.9 C 1550.8 289.9 1541.5 291.3 1532.5 293.5 C 1524.0 298.2 1516.1 303.8 1507.8 308.8 C 1505.0 310.5 1502.5 313.1 1499.0 312.8 C 1489.2 312.5 1479.1 314.0 1469.4 311.5 C 1463.2 306.9 1457.8 301.2 1452.3 295.7 C 1450.2 294.3 1447.4 295.1 1445.0 294.9 C 1428.7 295.0 1412.3 294.7 1396.0 295.0 C 1385.2 297.0 1374.7 300.0 1364.0 302.0 C 1352.0 303.4 1340.0 304.5 1328.0 305.7 C 1318.6 306.3 1309.3 305.8 1300.0 306.1 C 1289.2 306.9 1278.9 301.8 1268.0 302.9 C 1254.4 302.7 1241.0 305.8 1227.6 307.6 C 1218.1 308.8 1208.8 310.8 1199.3 311.6 C 1187.1 305.6 1176.0 297.4 1163.9 291.2 C 1142.9 284.1 1121.8 277.2 1100.9 270.1 C 1097.7 268.9 1094.2 270.0 1091.0 270.0 C 1079.1 271.3 1067.2 272.0 1055.4 273.5 C 1044.5 276.8 1033.8 280.7 1022.8 283.8 C 1017.6 284.0 1012.3 282.8 1007.0 282.7 C 1000.5 281.7 993.8 282.4 987.5 280.5 C 979.9 276.4 972.1 272.7 964.7 268.4 C 962.3 267.2 959.9 265.5 957.1 266.2 C 945.8 268.3 934.4 270.0 923.0 272.0 C 920.8 272.3 918.6 273.0 916.3 272.8 C 912.5 269.3 908.7 265.5 905.7 261.2 C 892.8 259.8 879.8 260.6 867.1 258.0 C 862.5 257.0 857.9 256.6 853.5 255.1 C 855.7 254.3 857.9 253.6 860.2 253.2 C 872.3 251.1 884.3 248.5 896.4 246.3 C 898.0 246.0 899.6 245.6 901.2 245.0 C 913.3 243.2 925.3 240.7 937.4 238.4 C 939.0 238.0 940.8 238.0 942.3 238.7 C 948.8 241.2 955.1 244.2 961.8 246.3 C 968.3 249.6 975.3 251.9 982.0 254.9 C 983.9 255.8 985.9 256.1 988.0 256.1 C 997.0 256.1 1006.0 256.4 1015.0 256.3 C 1030.2 257.3 1045.4 256.9 1060.6 257.5 C 1063.4 257.7 1066.2 257.9 1068.9 256.8 C 1079.4 252.9 1090.2 249.8 1100.6 245.7 C 1102.8 243.1 1104.4 240.1 1105.7 237.1 L 1104.9 236.9 C 1109.1 232.6 1114.0 229.3 1118.9 225.9 C 1123.7 222.8 1127.9 218.7 1133.0 216.3 C 1141.0 218.1 1148.7 221.3 1156.6 223.5 C 1162.0 224.8 1167.2 227.9 1173.0 227.2 C 1172.8 227.6 1172.4 228.3 1172.3 228.7 C 1180.1 230.6 1187.6 233.4 1195.3 235.7 C 1203.4 237.7 1209.8 243.2 1217.3 246.5 C 1218.5 246.8 1219.8 246.3 1221.0 246.1 C 1232.1 243.9 1243.2 241.0 1254.6 241.5 C 1274.3 246.9 1293.5 254.8 1313.8 258.3 C 1329.5 261.4 1345.3 264.6 1361.1 267.8 C 1371.4 267.5 1381.6 266.0 1391.9 265.1 C 1410.4 263.8 1428.6 260.0 1447.0 258.1 C 1463.3 259.0 1479.7 259.9 1496.0 261.0 C 1508.4 263.0 1520.4 266.8 1532.8 268.4 C 1544.2 269.5 1555.6 271.0 1567.0 271.9 C 1578.4 270.7 1589.7 268.7 1601.1 267.2 C 1613.6 264.9 1626.3 266.6 1638.9 265.8 C 1643.3 264.2 1646.7 260.8 1651.1 259.2 C 1662.2 257.9 1673.4 258.1 1684.5 256.5 C 1695.4 254.0 1706.3 251.7 1717.2 249.1 C 1722.6 246.6 1725.4 240.2 1731.3 238.2 C 1739.6 235.2 1747.9 232.1 1756.3 229.3 C 1767.1 227.7 1778.1 227.4 1789.0 226.0 C 1794.7 225.1 1800.3 223.3 1806.0 222.0 C 1811.0 221.1 1815.1 218.1 1819.3 215.4 C 1822.8 213.7 1826.3 211.8 1829.7 209.7 C 1832.9 207.7 1834.5 203.7 1837.9 201.9 C 1841.2 200.2 1844.4 198.4 1847.7 196.8 Z" />
<path fill="#304961" stroke="#304961" stroke-width="0.09375" opacity="1.00" d=" M 319.3 197.3 C 324.0 195.6 328.9 201.3 326.8 205.7 C 325.2 210.3 317.8 210.7 315.6 206.4 C 313.5 203.1 315.6 198.3 319.3 197.3 Z" />
<path fill="#83a6bc" stroke="#83a6bc" stroke-width="0.09375" opacity="1.00" d=" M 1551.3 198.3 C 1556.0 196.3 1561.1 197.1 1566.0 197.0 C 1571.7 196.8 1577.3 197.7 1582.9 197.7 C 1586.8 197.7 1590.6 198.0 1594.4 198.6 C 1610.2 200.9 1626.0 203.0 1641.8 205.3 C 1653.1 206.9 1664.7 207.5 1676.1 205.9 C 1683.9 205.7 1691.3 202.7 1698.9 201.0 C 1698.0 202.5 1697.3 204.1 1696.9 205.9 C 1700.4 206.7 1703.9 207.2 1707.5 206.5 C 1710.2 206.2 1712.4 204.5 1715.1 203.7 C 1718.1 204.2 1720.9 205.7 1724.0 206.0 C 1726.3 206.3 1727.1 203.6 1728.2 202.1 C 1735.1 201.0 1743.4 202.5 1747.4 208.7 C 1747.9 208.7 1749.0 208.7 1749.6 208.7 C 1752.5 205.9 1755.0 202.5 1758.6 200.5 C 1762.4 200.3 1766.3 200.8 1770.1 200.5 C 1774.2 200.9 1778.9 203.3 1782.4 200.0 C 1794.9 204.7 1806.5 211.5 1819.3 215.4 C 1815.1 218.1 1811.0 221.1 1806.0 222.0 C 1800.3 223.3 1794.7 225.1 1789.0 226.0 C 1778.1 227.4 1767.1 227.7 1756.3 229.3 C 1747.9 232.1 1739.6 235.2 1731.3 238.2 C 1725.4 240.2 1722.6 246.6 1717.2 249.1 C 1706.3 251.7 1695.4 254.0 1684.5 256.5 C 1673.4 258.1 1662.2 257.9 1651.1 259.2 C 1646.7 260.8 1643.3 264.2 1638.9 265.8 C 1626.3 266.6 1613.6 264.9 1601.1 267.2 C 1589.7 268.7 1578.4 270.7 1567.0 271.9 C 1555.6 271.0 1544.2 269.5 1532.8 268.4 C 1520.4 266.8 1508.4 263.0 1496.0 261.0 C 1479.7 259.9 1463.3 259.0 1447.0 258.1 C 1428.6 260.0 1410.4 263.8 1391.9 265.1 C 1381.6 266.0 1371.4 267.5 1361.1 267.8 C 1345.3 264.6 1329.5 261.4 1313.8 258.3 C 1293.5 254.8 1274.3 246.9 1254.6 241.5 C 1243.2 241.0 1232.1 243.9 1221.0 246.1 C 1219.8 246.3 1218.5 246.8 1217.3 246.5 C 1209.8 243.2 1203.4 237.7 1195.3 235.7 C 1187.6 233.4 1180.1 230.6 1172.3 228.7 C 1172.4 228.3 1172.8 227.6 1173.0 227.2 C 1178.0 226.8 1183.0 225.8 1188.1 225.3 C 1191.6 224.9 1194.7 227.3 1198.2 227.7 C 1201.3 227.7 1204.3 226.9 1207.4 226.5 C 1217.9 224.7 1228.6 223.7 1238.7 220.0 C 1241.0 223.4 1245.4 222.8 1249.0 222.9 C 1252.7 223.2 1256.3 221.8 1259.9 221.6 C 1264.5 221.6 1267.4 217.1 1271.9 216.8 C 1275.4 217.7 1275.4 224.1 1279.9 223.0 C 1282.8 221.7 1285.7 219.5 1286.3 216.1 C 1288.9 215.9 1291.6 215.7 1294.0 217.0 C 1296.8 218.8 1300.0 216.6 1303.0 216.9 C 1306.0 217.2 1309.0 217.7 1312.0 218.0 C 1311.7 217.5 1311.2 216.4 1310.9 215.9 C 1316.2 218.4 1320.4 222.6 1325.3 225.7 C 1332.1 230.1 1336.9 236.7 1342.6 242.4 C 1344.6 244.7 1347.7 244.8 1350.4 245.6 C 1355.3 246.6 1360.1 248.1 1365.1 248.8 C 1375.0 248.3 1385.0 247.8 1395.0 247.2 C 1400.9 246.8 1406.4 244.5 1412.2 243.2 C 1419.7 241.5 1427.0 238.4 1434.8 238.5 C 1446.8 236.9 1458.8 234.6 1470.8 232.7 C 1475.1 231.9 1479.7 231.7 1483.7 229.7 C 1498.0 222.3 1512.3 214.8 1526.7 207.7 C 1534.4 203.4 1543.1 201.4 1551.3 198.3 Z" />
<path fill="#557086" stroke="#557086" stroke-width="0.09375" opacity="1.00" d=" M 320.3 200.3 C 324.2 199.3 325.5 206.6 321.0 206.0 C 317.3 206.6 317.2 201.1 320.3 200.3 Z" />
<path fill="#4c677d" stroke="#4c677d" stroke-width="0.09375" opacity="1.00" d=" M 471.0 201.0 C 472.3 200.0 473.7 200.0 475.0 201.1 C 475.0 201.8 474.9 203.2 474.8 204.0 C 473.6 204.2 472.4 204.2 471.2 204.0 C 471.1 203.2 471.0 201.8 471.0 201.0 Z" />
<path fill="#284158" stroke="#284158" stroke-width="0.09375" opacity="1.00" d=" M 2114.4 202.3 C 2118.4 200.9 2122.5 204.9 2122.1 209.0 C 2121.7 213.7 2114.8 216.2 2111.7 212.3 C 2108.2 209.5 2110.2 203.3 2114.4 202.3 Z" />
<path fill="#4b657c" stroke="#4b657c" stroke-width="0.09375" opacity="1.00" d=" M 682.0 206.0 C 683.3 205.0 684.7 205.0 686.0 206.0 C 686.0 206.8 685.9 208.2 685.8 209.0 C 684.6 209.2 683.4 209.2 682.2 209.0 C 682.1 208.2 682.0 206.8 682.0 206.0 Z" />
<path fill="#c2d7e4" stroke="#c2d7e4" stroke-width="0.09375" opacity="1.00" d=" M 1266.9 207.0 C 1271.5 205.7 1276.6 204.0 1281.3 205.8 C 1291.1 209.4 1301.2 212.2 1310.9 215.9 C 1311.2 216.4 1311.7 217.5 1312.0 218.0 C 1309.0 217.7 1306.0 217.2 1303.0 216.9 C 1300.0 216.6 1296.8 218.8 1294.0 217.0 C 1291.6 215.7 1288.9 215.9 1286.3 216.1 C 1285.7 219.5 1282.8 221.7 1279.9 223.0 C 1275.4 224.1 1275.4 217.7 1271.9 216.8 C 1267.4 217.1 1264.5 221.6 1259.9 221.6 C 1256.3 221.8 1252.7 223.2 1249.0 222.9 C 1245.4 222.8 1241.0 223.4 1238.7 220.0 C 1243.4 218.2 1248.5 217.4 1252.9 214.9 C 1253.4 213.5 1253.2 211.4 1254.9 210.9 C 1258.8 209.4 1262.9 208.4 1266.9 207.0 Z" />
<path fill="#c2d7e4" stroke="#c2d7e4" stroke-width="0.09375" opacity="1.00" d=" M 176.9 216.0 C 188.9 211.4 201.3 207.9 214.1 206.2 C 224.7 205.2 233.8 211.4 243.5 214.6 C 250.3 216.8 256.2 220.6 262.4 224.0 C 261.2 225.7 259.0 224.6 257.4 224.6 C 252.4 223.7 247.3 224.4 242.3 223.6 C 239.5 222.2 237.3 219.7 234.4 218.5 C 231.1 216.7 227.9 221.7 224.5 219.5 C 221.6 217.5 218.0 216.8 214.5 217.5 C 210.7 220.2 207.1 224.1 202.2 224.5 C 198.8 223.9 198.5 220.2 197.4 217.6 C 196.2 216.5 194.5 216.9 193.0 216.7 C 187.4 217.0 181.7 216.4 176.2 217.8 C 176.4 217.4 176.7 216.5 176.9 216.0 Z" />
<path fill="#2980b9" stroke="#2980b9" stroke-width="0.09375" opacity="1.00" d=" M 601.2 208.9 C 615.4 212.7 629.5 217.3 643.6 221.3 C 645.8 222.0 648.1 222.6 649.7 224.2 C 654.2 228.5 658.6 232.8 663.0 237.1 C 666.1 240.3 669.5 243.1 672.6 246.4 C 674.4 248.2 676.1 250.6 679.0 250.2 C 694.6 250.1 710.3 250.1 726.0 250.1 C 734.0 250.3 742.0 249.8 750.0 250.7 C 763.3 251.7 776.7 252.8 790.0 253.8 C 791.4 253.9 792.9 254.1 794.3 254.7 C 779.6 256.8 764.8 258.3 750.0 260.1 C 743.1 260.5 737.1 264.3 730.7 266.7 C 726.8 268.7 722.2 267.9 718.0 268.0 C 705.0 268.1 692.0 267.9 678.9 267.9 C 674.8 268.0 671.2 265.9 667.4 264.6 C 658.2 261.6 649.2 257.9 639.9 255.1 C 627.1 252.7 614.2 250.8 601.4 248.6 C 594.3 247.5 587.2 245.6 580.0 246.1 C 572.1 246.6 564.1 245.4 556.4 247.4 C 542.7 250.0 529.0 252.7 515.4 255.4 C 513.1 256.1 510.9 255.0 508.8 254.3 C 529.7 248.6 550.6 243.1 571.4 237.4 C 574.1 236.6 577.3 236.5 579.2 234.2 C 582.2 230.9 584.8 227.2 588.1 224.2 C 592.9 219.5 596.7 213.9 601.2 208.9 Z" />
<path fill="#83a6bc" stroke="#83a6bc" stroke-width="0.09375" opacity="1.00" d=" M 153.9 224.9 C 161.7 222.3 169.3 219.1 176.9 216.0 C 176.7 216.5 176.4 217.4 176.2 217.8 C 181.7 216.4 187.4 217.0 193.0 216.7 C 194.5 216.9 196.2 216.5 197.4 217.6 C 198.5 220.2 198.8 223.9 202.2 224.5 C 207.1 224.1 210.7 220.2 214.5 217.5 C 218.0 216.8 221.6 217.5 224.5 219.5 C 227.9 221.7 231.1 216.7 234.4 218.5 C 237.3 219.7 239.5 222.2 242.3 223.6 C 247.3 224.4 252.4 223.7 257.4 224.6 C 259.0 224.6 261.2 225.7 262.4 224.0 C 266.4 225.4 268.0 229.6 271.1 232.2 C 276.2 230.9 280.4 227.3 285.4 225.6 C 296.9 224.0 308.5 224.6 320.0 223.1 C 333.7 221.0 347.6 219.6 361.3 217.4 C 364.6 216.8 367.8 218.2 370.8 219.2 C 377.9 221.6 385.1 223.3 392.1 225.9 C 396.4 228.5 399.1 233.1 403.1 236.0 C 406.4 236.7 409.8 235.6 413.2 235.4 C 417.9 234.6 423.2 235.2 427.4 232.4 C 432.0 229.6 436.6 227.0 441.2 224.1 C 442.7 223.3 444.2 222.2 446.1 222.3 C 463.2 222.1 480.4 222.9 497.5 221.5 C 503.8 221.0 510.2 222.0 516.4 220.4 C 522.2 219.0 528.1 218.1 533.9 216.9 C 536.6 216.3 539.3 215.6 542.0 215.9 C 557.5 218.0 573.0 220.4 588.1 224.2 C 584.8 227.2 582.2 230.9 579.2 234.2 C 577.3 236.5 574.1 236.6 571.4 237.4 C 550.6 243.1 529.7 248.6 508.8 254.3 C 502.4 252.3 496.2 249.2 489.4 248.5 C 475.0 246.8 460.6 244.5 446.2 243.0 C 440.4 248.7 434.9 254.7 429.1 260.4 C 409.5 253.7 390.1 246.4 370.6 239.4 C 367.6 238.5 364.5 236.4 361.2 237.3 C 339.9 243.0 318.6 248.6 297.2 254.2 C 293.2 255.4 289.1 254.3 285.1 253.8 C 241.5 248.0 197.9 242.3 154.4 236.6 C 150.8 236.2 147.0 234.9 143.6 236.6 C 126.4 244.5 109.1 252.0 91.9 259.9 C 90.5 260.5 89.0 261.0 87.6 260.5 C 79.8 258.3 72.1 255.9 64.3 253.6 C 61.2 252.8 58.8 250.5 56.3 248.7 C 50.5 244.5 44.6 240.4 38.9 236.2 C 56.2 231.3 73.7 226.8 91.0 221.9 C 94.8 220.4 98.4 222.9 101.9 224.0 C 108.5 226.3 115.1 228.8 121.7 231.2 C 123.7 232.1 125.8 231.3 127.8 230.9 C 136.5 228.8 145.3 227.1 153.9 224.9 Z" />
<path fill="#83a6bc" stroke="#83a6bc" stroke-width="0.09375" opacity="1.00" d=" M 756.3 218.3 C 757.8 217.5 759.2 216.2 761.0 216.3 C 769.1 216.9 777.0 218.7 785.1 219.8 C 788.6 220.4 792.5 220.4 795.6 222.4 C 807.0 229.1 818.3 235.7 829.7 242.3 C 832.7 244.0 835.5 246.4 839.1 246.9 C 843.1 247.5 847.0 248.3 851.0 249.0 C 856.3 249.9 861.6 248.3 866.9 248.2 C 878.4 247.8 889.7 245.3 901.2 245.0 C 899.6 245.6 898.0 246.0 896.4 246.3 C 884.3 248.5 872.3 251.1 860.2 253.2 C 857.9 253.6 855.7 254.3 853.5 255.1 C 843.9 254.6 834.5 252.3 825.0 251.5 C 814.7 252.2 804.6 254.1 794.3 254.7 C 792.9 254.1 791.4 253.9 790.0 253.8 C 776.7 252.8 763.3 251.7 750.0 250.7 C 742.0 249.8 734.0 250.3 726.0 250.1 C 710.3 250.1 694.6 250.1 679.0 250.2 C 676.1 250.6 674.4 248.2 672.6 246.4 C 669.5 243.1 666.1 240.3 663.0 237.1 C 671.6 237.9 680.4 238.1 689.0 239.1 C 700.9 239.7 712.7 241.6 724.6 241.7 C 728.8 237.5 732.9 233.2 737.5 229.5 C 743.6 225.5 750.1 222.2 756.3 218.3 Z" />
<path fill="#2980b9" stroke="#2980b9" stroke-width="0.09375" opacity="1.00" d=" M 20.4 226.4 C 21.3 225.9 22.5 224.6 23.6 225.4 C 28.8 228.8 33.7 232.8 38.9 236.2 C 44.6 240.4 50.5 244.5 56.3 248.7 C 58.8 250.5 61.2 252.8 64.3 253.6 C 72.1 255.9 79.8 258.3 87.6 260.5 C 89.0 261.0 90.5 260.5 91.9 259.9 C 109.1 252.0 126.4 244.5 143.6 236.6 C 147.0 234.9 150.8 236.2 154.4 236.6 C 197.9 242.3 241.5 248.0 285.1 253.8 C 289.1 254.3 293.2 255.4 297.2 254.2 C 318.6 248.6 339.9 243.0 361.2 237.3 C 364.5 236.4 367.6 238.5 370.6 239.4 C 390.1 246.4 409.5 253.7 429.1 260.4 C 425.9 264.8 421.1 267.5 417.2 271.1 C 409.6 274.4 401.8 277.2 394.1 280.2 C 385.5 284.3 375.8 284.0 366.6 285.6 C 362.2 287.0 360.2 281.9 357.1 279.9 C 353.3 277.4 350.7 273.3 346.8 271.1 C 334.2 272.6 321.7 275.3 309.2 277.3 C 305.5 277.8 302.0 276.4 298.4 275.6 C 275.3 270.0 252.2 264.5 229.1 258.9 C 224.2 258.1 219.5 255.8 214.4 256.4 C 206.1 257.4 197.7 256.6 189.4 257.5 C 181.4 259.2 173.7 261.8 165.9 263.9 C 161.1 264.7 161.3 270.3 159.8 273.9 C 157.1 281.6 155.2 289.6 152.2 297.2 C 148.2 300.6 143.4 303.0 139.0 305.8 C 136.6 304.9 135.2 302.4 133.1 300.9 C 129.1 297.9 125.8 294.2 122.1 290.8 C 119.5 288.1 115.3 289.2 111.9 288.8 C 99.1 287.6 86.1 288.3 73.3 286.7 C 52.0 281.3 30.5 276.2 9.2 270.7 C 6.2 269.8 3.1 269.0 0.0 268.8 L 0.0 241.3 C 6.9 236.4 13.7 231.4 20.4 226.4 Z" />
<path fill="#83a6bc" stroke="#83a6bc" stroke-width="0.09375" opacity="1.00" d=" M 1083.7 244.7 C 1090.7 242.0 1097.8 239.4 1104.9 236.9 L 1105.7 237.1 C 1104.4 240.1 1102.8 243.1 1100.6 245.7 C 1090.2 249.8 1079.4 252.9 1068.9 256.8 C 1066.2 257.9 1063.4 257.7 1060.6 257.5 C 1045.4 256.9 1030.2 257.3 1015.0 256.3 C 1006.0 256.4 997.0 256.1 988.0 256.1 C 985.9 256.1 983.9 255.8 982.0 254.9 C 975.3 251.9 968.3 249.6 961.8 246.3 C 973.5 246.0 985.2 247.9 997.0 247.7 C 1005.7 247.5 1014.2 250.3 1023.0 250.0 C 1031.0 250.0 1039.0 250.0 1047.0 250.0 C 1053.4 250.1 1059.7 248.7 1066.0 247.9 C 1071.9 247.0 1078.0 246.8 1083.7 244.7 Z" />
<path fill="#21628d" stroke="#21628d" stroke-width="0.09375" opacity="1.00" d=" M 446.2 243.0 C 460.6 244.5 475.0 246.8 489.4 248.5 C 496.2 249.2 502.4 252.3 508.8 254.3 C 510.9 255.0 513.1 256.1 515.4 255.4 C 529.0 252.7 542.7 250.0 556.4 247.4 C 564.1 245.4 572.1 246.6 580.0 246.1 C 587.2 245.6 594.3 247.5 601.4 248.6 C 614.2 250.8 627.1 252.7 639.9 255.1 C 649.2 257.9 658.2 261.6 667.4 264.6 C 671.2 265.9 674.8 268.0 678.9 267.9 C 692.0 267.9 705.0 268.1 718.0 268.0 C 722.2 267.9 726.8 268.7 730.7 266.7 C 737.1 264.3 743.1 260.5 750.0 260.1 C 764.8 258.3 779.6 256.8 794.3 254.7 C 804.6 254.1 814.7 252.2 825.0 251.5 C 834.5 252.3 843.9 254.6 853.5 255.1 C 857.9 256.6 862.5 257.0 867.1 258.0 C 879.8 260.6 892.8 259.8 905.7 261.2 C 908.7 265.5 912.5 269.3 916.3 272.8 C 918.6 273.0 920.8 272.3 923.0 272.0 C 934.4 270.0 945.8 268.3 957.1 266.2 C 959.9 265.5 962.3 267.2 964.7 268.4 C 972.1 272.7 979.9 276.4 987.5 280.5 C 993.8 282.4 1000.5 281.7 1007.0 282.7 C 1012.3 282.8 1017.6 284.0 1022.8 283.8 C 1033.8 280.7 1044.5 276.8 1055.4 273.5 C 1067.2 272.0 1079.1 271.3 1091.0 270.0 C 1094.2 270.0 1097.7 268.9 1100.9 270.1 C 1121.8 277.2 1142.9 284.1 1163.9 291.2 C 1176.0 297.4 1187.1 305.6 1199.3 311.6 C 1208.8 310.8 1218.1 308.8 1227.6 307.6 C 1241.0 305.8 1254.4 302.7 1268.0 302.9 C 1278.9 301.8 1289.2 306.9 1300.0 306.1 C 1309.3 305.8 1318.6 306.3 1328.0 305.7 C 1340.0 304.5 1352.0 303.4 1364.0 302.0 C 1374.7 300.0 1385.2 297.0 1396.0 295.0 C 1412.3 294.7 1428.7 295.0 1445.0 294.9 C 1447.4 295.1 1450.2 294.3 1452.3 295.7 C 1457.8 301.2 1463.2 306.9 1469.4 311.5 C 1479.1 314.0 1489.2 312.5 1499.0 312.8 C 1502.5 313.1 1505.0 310.5 1507.8 308.8 C 1516.1 303.8 1524.0 298.2 1532.5 293.5 C 1541.5 291.3 1550.8 289.9 1559.9 287.9 C 1567.5 286.0 1575.3 287.0 1583.0 286.8 C 1595.4 287.1 1607.7 285.8 1620.1 285.9 C 1631.6 284.7 1643.3 285.4 1654.9 284.2 C 1658.7 283.7 1663.3 285.3 1666.4 282.3 C 1671.7 278.0 1676.6 273.2 1682.0 269.0 C 1686.1 267.3 1690.6 266.9 1695.0 267.0 C 1716.0 267.1 1737.1 266.9 1758.1 267.1 C 1781.8 270.1 1805.4 273.6 1829.0 276.9 C 1834.2 277.3 1837.8 281.5 1842.0 284.1 C 1846.4 286.8 1850.1 291.2 1855.6 291.5 C 1869.0 292.6 1882.5 294.0 1896.0 295.1 C 1913.0 295.3 1930.1 294.4 1946.9 291.8 C 1955.1 290.6 1963.4 291.4 1971.6 290.5 C 1977.4 289.9 1983.2 290.1 1989.1 289.9 C 2000.0 289.0 2011.1 288.5 2022.1 289.0 C 2036.0 290.5 2049.9 291.9 2063.8 293.4 C 2098.9 297.7 2133.9 302.9 2169.0 307.0 C 2188.2 303.6 2207.4 299.9 2226.6 296.6 C 2231.2 295.6 2236.0 295.3 2240.3 293.3 C 2243.7 291.8 2247.2 290.3 2250.7 288.7 C 2257.0 285.5 2264.2 287.7 2270.9 287.8 C 2279.3 288.0 2287.6 288.2 2296.0 288.9 C 2305.7 288.7 2315.3 290.0 2325.1 290.0 C 2328.7 290.0 2332.0 291.5 2335.4 292.6 C 2346.1 296.2 2356.9 299.8 2367.6 303.4 C 2375.3 306.2 2383.6 306.7 2391.6 308.4 C 2401.9 310.0 2412.3 312.2 2422.7 313.5 C 2434.2 311.7 2446.1 311.5 2457.1 307.2 C 2465.8 304.6 2474.3 301.7 2482.9 298.9 C 2490.2 296.2 2498.2 296.0 2505.8 294.7 C 2512.4 294.2 2519.0 292.0 2525.6 293.4 C 2554.4 298.9 2583.4 303.8 2612.1 310.0 C 2618.3 311.6 2624.7 310.9 2631.0 311.3 C 2642.3 312.3 2653.7 311.8 2665.0 312.3 C 2678.0 313.5 2691.1 312.5 2704.1 313.7 C 2707.5 314.0 2710.7 312.7 2713.9 311.9 C 2725.4 308.7 2736.9 305.6 2748.4 302.5 C 2752.5 301.4 2756.6 299.9 2761.0 300.0 C 2775.6 300.0 2790.3 300.2 2805.0 300.1 C 2815.3 300.2 2825.7 299.7 2836.0 301.0 C 2881.3 305.5 2926.6 309.4 2971.8 314.4 C 2981.2 315.3 2990.6 316.7 3000.0 317.1 L 3000.0 340.0 L 0.0 340.0 L 0.0 268.8 C 3.1 269.0 6.2 269.8 9.2 270.7 C 30.5 276.2 52.0 281.3 73.3 286.7 C 86.1 288.3 99.1 287.6 111.9 288.8 C 115.3 289.2 119.5 288.1 122.1 290.8 C 125.8 294.2 129.1 297.9 133.1 300.9 C 135.2 302.4 136.6 304.9 139.0 305.8 C 143.4 303.0 148.2 300.6 152.2 297.2 C 155.2 289.6 157.1 281.6 159.8 273.9 C 161.3 270.3 161.1 264.7 165.9 263.9 C 173.7 261.8 181.4 259.2 189.4 257.5 C 197.7 256.6 206.1 257.4 214.4 256.4 C 219.5 255.8 224.2 258.1 229.1 258.9 C 252.2 264.5 275.3 270.0 298.4 275.6 C 302.0 276.4 305.5 277.8 309.2 277.3 C 321.7 275.3 334.2 272.6 346.8 271.1 C 350.7 273.3 353.3 277.4 357.1 279.9 C 360.2 281.9 362.2 287.0 366.6 285.6 C 375.8 284.0 385.5 284.3 394.1 280.2 C 401.8 277.2 409.6 274.4 417.2 271.1 C 421.1 267.5 425.9 264.8 429.1 260.4 C 434.9 254.7 440.4 248.7 446.2 243.0 Z" />
</svg>
