<?xml version="1.0" encoding="UTF-8" ?>
<!DOCTYPE svg PUBLIC "-//W3C//DTD SVG 1.1//EN" "http://www.w3.org/Graphics/SVG/1.1/DTD/svg11.dtd">
<svg width="3000pt" height="340pt" viewBox="0 0 3000 340" version="1.1" xmlns="http://www.w3.org/2000/svg">
<path fill="#162e46" stroke="#162e46" stroke-width="0.09375" opacity="1.00" d=" M 0.0 0.0 L 3000.0 0.0 L 3000.0 261.1 C 2995.1 260.2 2990.3 258.9 2985.4 258.5 C 2979.5 258.3 2974.7 254.6 2969.4 252.5 C 2964.6 249.8 2958.7 248.5 2955.1 243.9 C 2952.4 241.3 2950.5 237.1 2946.4 236.5 C 2939.1 235.0 2931.7 233.8 2924.4 232.6 C 2920.2 232.0 2916.6 229.8 2913.0 228.0 C 2908.6 225.7 2904.0 223.9 2900.0 220.9 C 2895.5 217.8 2891.1 214.5 2886.6 211.4 C 2873.8 204.5 2860.5 198.4 2847.0 193.0 C 2837.4 187.9 2826.1 189.2 2815.9 186.1 C 2810.9 184.9 2806.1 183.1 2801.1 182.3 C 2794.3 183.7 2788.3 187.8 2781.3 188.4 C 2776.3 188.8 2771.2 188.7 2766.1 189.4 C 2758.4 189.9 2750.6 189.8 2743.0 191.0 C 2736.9 192.0 2730.8 191.9 2724.7 192.6 C 2718.5 193.5 2712.2 192.5 2706.0 192.7 C 2695.7 192.9 2685.4 192.2 2675.0 192.3 C 2667.1 192.2 2659.2 192.6 2651.4 191.1 C 2645.3 189.5 2639.3 187.3 2633.2 185.8 C 2630.7 185.1 2628.1 184.6 2626.0 183.0 C 2618.2 176.5 2611.3 168.9 2603.0 163.0 C 2596.3 157.5 2587.8 153.2 2578.9 153.7 C 2573.9 153.8 2569.1 152.1 2564.1 152.2 C 2561.0 151.8 2561.3 156.1 2558.8 156.9 C 2554.0 159.5 2548.9 161.3 2543.6 162.5 C 2535.4 163.1 2527.1 162.9 2518.9 163.2 C 2512.6 162.8 2507.1 166.6 2502.7 170.7 C 2497.9 175.3 2493.1 180.0 2487.6 183.6 C 2484.7 185.4 2483.4 189.0 2480.1 190.2 C 2477.0 190.6 2474.1 191.3 2471.2 192.2 C 2467.2 193.5 2463.1 191.7 2459.0 192.3 C 2454.4 192.8 2449.5 192.1 2445.2 194.2 C 2439.2 196.8 2433.1 199.5 2427.0 202.1 C 2422.8 203.7 2422.2 209.5 2417.9 210.9 C 2412.4 212.9 2407.0 215.7 2401.0 215.1 C 2394.3 215.4 2388.0 212.4 2381.4 212.4 C 2375.2 214.5 2368.3 215.7 2363.6 220.6 C 2357.6 226.3 2350.1 229.8 2343.2 234.2 C 2338.3 237.3 2332.3 237.2 2326.9 238.9 C 2320.7 240.7 2314.9 243.7 2308.7 245.6 C 2299.9 247.3 2290.8 246.2 2281.9 247.1 C 2273.3 248.0 2264.6 247.4 2255.9 248.3 C 2248.2 249.1 2240.3 248.2 2232.6 249.5 C 2206.0 253.6 2179.6 258.6 2153.0 263.0 C 2146.7 264.4 2140.3 263.7 2134.1 263.0 C 2122.0 262.3 2109.9 261.1 2097.8 260.4 C 2087.7 258.6 2078.0 255.3 2068.0 253.0 C 2058.5 250.9 2049.2 247.3 2039.5 246.4 C 2015.1 243.2 1990.6 240.2 1966.1 238.2 C 1959.6 238.0 1953.2 236.6 1946.7 237.3 C 1935.3 235.9 1923.9 233.7 1912.6 231.3 C 1906.3 229.1 1900.6 225.4 1894.6 222.4 C 1884.4 217.4 1876.5 208.5 1866.0 204.1 C 1860.7 201.7 1855.6 199.0 1850.3 196.7 C 1849.0 195.9 1847.6 196.8 1846.4 197.4 C 1843.6 199.0 1840.7 200.4 1837.9 201.9 C 1834.5 203.7 1832.9 207.7 1829.7 209.7 C 1826.3 211.8 1822.8 213.7 1819.2 215.4 C 1806.5 211.6 1794.9 204.6 1782.4 200.0 C 1774.1 195.2 1764.8 192.1 1756.2 187.8 C 1753.3 186.0 1749.9 187.2 1746.8 187.5 C 1738.9 187.9 1731.3 190.3 1723.4 190.6 C 1715.2 193.9 1707.4 198.5 1698.9 201.0 C 1691.3 202.7 1683.9 205.7 1676.1 205.9 C 1665.0 207.5 1653.7 206.9 1642.6 205.4 C 1626.6 203.1 1610.4 200.9 1594.4 198.6 C 1590.6 198.0 1586.8 197.7 1582.9 197.7 C 1577.3 197.7 1571.7 196.8 1566.0 197.0 C 1561.1 197.1 1556.0 196.3 1551.3 198.3 C 1543.1 201.4 1534.4 203.4 1526.7 207.7 C 1512.3 214.8 1498.0 222.3 1483.7 229.7 C 1479.4 231.9 1474.5 231.9 1469.9 232.8 C 1458.2 234.7 1446.5 237.0 1434.8 238.5 C 1427.2 238.4 1420.2 241.3 1413.0 243.0 C 1406.2 244.6 1399.6 247.2 1392.5 247.5 C 1383.4 247.8 1374.2 248.4 1365.1 248.8 C 1360.1 248.1 1355.3 246.6 1350.4 245.6 C 1347.7 244.8 1344.6 244.7 1342.6 242.4 C 1338.6 238.4 1335.0 234.0 1330.9 230.1 C 1327.5 227.1 1323.7 224.6 1320.0 221.9 C 1317.0 219.9 1314.4 217.3 1311.0 215.9 C 1301.2 212.3 1291.1 209.4 1281.3 205.8 C 1275.8 203.8 1270.0 206.2 1264.7 207.7 C 1261.2 208.9 1257.6 209.7 1254.3 211.2 C 1253.1 212.5 1253.4 214.9 1251.6 215.6 C 1247.4 217.5 1242.9 218.4 1238.7 220.1 C 1228.3 223.8 1217.4 224.8 1206.6 226.6 C 1203.8 227.0 1201.0 227.7 1198.2 227.7 C 1194.7 227.3 1191.6 224.9 1188.1 225.3 C 1183.0 225.8 1178.0 226.8 1172.9 227.2 C 1167.7 227.8 1163.0 225.3 1158.1 223.9 C 1150.2 221.6 1142.4 218.8 1134.4 216.6 C 1132.0 215.7 1130.1 218.1 1128.2 219.2 C 1120.6 225.1 1112.0 229.8 1105.1 236.7 C 1097.0 239.7 1088.9 242.9 1080.6 245.6 C 1071.8 247.5 1062.7 248.2 1053.8 249.6 C 1043.9 250.4 1033.9 249.8 1024.0 250.0 C 1014.9 250.4 1006.1 247.6 997.0 247.7 C 985.2 247.9 973.5 246.0 961.8 246.3 C 955.1 244.2 948.8 241.2 942.3 238.7 C 940.8 238.0 939.0 238.0 937.4 238.4 C 925.3 240.7 913.3 243.2 901.2 245.0 C 890.7 245.2 880.4 247.4 870.0 248.0 C 866.0 248.2 862.0 248.5 858.0 249.0 C 851.9 250.0 846.0 247.8 840.0 247.0 C 835.8 246.7 832.5 243.9 829.1 242.0 C 817.9 235.5 806.8 228.9 795.6 222.4 C 792.5 220.4 788.6 220.4 785.1 219.8 C 777.0 218.7 769.1 216.9 761.0 216.3 C 759.5 216.1 758.2 217.2 756.9 217.9 C 750.7 221.8 744.3 225.3 738.1 229.1 C 733.1 232.7 729.2 237.6 724.6 241.6 C 722.5 242.0 720.4 241.7 718.4 241.6 C 699.9 239.9 681.5 238.3 663.0 237.1 C 658.5 232.8 654.2 228.5 649.7 224.2 C 647.7 222.2 644.7 221.7 642.1 220.9 C 628.5 217.1 615.0 212.5 601.2 209.0 C 596.6 213.8 593.0 219.6 588.1 224.2 C 573.0 220.4 557.5 218.0 542.0 215.9 C 539.3 215.6 536.6 216.3 533.9 216.9 C 528.1 218.1 522.2 219.0 516.4 220.4 C 510.2 222.0 503.8 221.0 497.5 221.5 C 480.4 222.9 463.2 222.1 446.0 222.3 C 444.5 222.2 443.1 223.0 441.8 223.8 C 436.6 227.0 431.3 230.1 426.1 233.1 C 422.4 235.3 418.0 234.6 414.0 235.3 C 410.4 235.5 406.7 236.7 403.1 236.0 C 399.1 233.1 396.4 228.5 392.1 225.9 C 385.6 223.5 378.9 221.8 372.4 219.7 C 368.5 218.5 364.6 216.6 360.5 217.5 C 347.4 219.7 334.1 220.9 321.0 223.0 C 310.7 224.5 300.3 224.0 289.9 225.1 C 282.8 224.7 277.6 230.6 271.1 232.3 C 268.1 229.6 266.4 225.4 262.4 224.0 C 256.3 220.6 250.2 216.8 243.5 214.6 C 233.8 211.4 224.7 205.2 214.0 206.2 C 201.3 207.9 188.8 211.4 176.9 216.1 C 169.5 219.0 162.1 222.0 154.7 224.7 C 145.8 227.1 136.7 228.7 127.8 230.9 C 125.8 231.3 123.7 232.1 121.7 231.2 C 113.2 228.1 104.6 225.1 96.1 221.9 C 93.9 220.9 91.6 221.8 89.4 222.4 C 72.6 227.1 55.7 231.4 38.9 236.2 C 33.7 232.8 28.8 228.8 23.6 225.4 C 22.5 224.6 21.4 225.9 20.4 226.4 C 13.7 231.4 6.9 236.4 0.0 241.3 L 0.0 0.0 Z" />
<path fill="#4b657c" stroke="#4b657c" stroke-width="0.09375" opacity="1.00" d=" M 552.0 10.2 C 553.1 8.8 554.9 8.9 556.0 10.2 C 555.9 10.8 555.9 12.2 555.8 12.9 C 554.6 13.3 553.4 13.3 552.2 12.9 C 552.2 12.2 552.1 10.8 552.0 10.2 Z" />
<path fill="#213a52" stroke="#213a52" stroke-width="0.09375" opacity="1.00" d=" M 2323.3 10.4 C 2331.0 7.6 2339.8 14.9 2338.0 23.0 C 2337.3 31.9 2324.7 35.2 2318.9 29.1 C 2316.1 26.2 2314.6 21.9 2315.9 18.0 C 2316.8 14.3 2320.0 11.8 2323.3 10.4 Z" />
<path fill="#415b72" stroke="#415b72" stroke-width="0.09375" opacity="1.00" d=" M 2325.3 15.4 C 2330.6 13.5 2335.5 20.8 2331.8 24.9 C 2329.8 27.8 2324.9 28.2 2322.6 25.4 C 2319.2 22.5 2321.2 16.3 2325.3 15.4 Z" />
<path fill="#50718c" stroke="#50718c" stroke-width="0.09375" opacity="1.00" d=" M 2045.1 16.2 C 2047.3 16.1 2049.5 16.0 2051.7 16.3 C 2054.5 17.3 2054.4 21.0 2053.1 23.1 C 2050.9 26.2 2047.9 28.6 2044.9 30.9 C 2040.4 33.7 2035.7 36.2 2030.7 37.7 C 2026.9 38.8 2022.9 39.2 2019.0 38.9 C 2016.7 39.0 2014.5 36.6 2015.5 34.4 C 2016.2 32.7 2017.0 30.6 2018.9 29.9 C 2018.2 34.0 2022.8 35.4 2026.0 34.7 C 2033.4 33.5 2040.3 30.0 2045.8 25.1 C 2047.4 23.3 2049.2 20.7 2048.0 18.2 C 2047.0 17.4 2046.0 16.9 2045.1 16.2 Z" />
<path fill="#32597b" stroke="#32597b" stroke-width="0.09375" opacity="1.00" d=" M 2027.2 22.2 C 2030.0 18.5 2035.5 17.3 2039.7 19.4 C 2042.5 20.3 2043.6 23.3 2045.8 25.1 C 2040.3 30.0 2033.4 33.5 2026.0 34.7 C 2025.0 30.6 2024.0 25.6 2027.2 22.2 Z" />
<path fill="#7f9cb1" stroke="#7f9cb1" stroke-width="0.09375" opacity="1.00" d=" M 2326.3 18.3 C 2330.3 17.2 2331.4 24.4 2327.0 24.0 C 2323.5 24.4 2323.1 19.0 2326.3 18.3 Z" />
<path fill="#284158" stroke="#284158" stroke-width="0.09375" opacity="1.00" d=" M 234.4 24.3 C 238.4 22.9 242.6 26.9 242.1 31.0 C 241.7 35.7 234.8 38.2 231.7 34.3 C 228.2 31.5 230.2 25.3 234.4 24.3 Z" />
<path fill="#6b879d" stroke="#6b879d" stroke-width="0.09375" opacity="1.00" d=" M 36.9 29.1 C 38.1 28.0 39.9 27.9 41.0 29.1 C 41.0 29.8 40.8 31.2 40.7 31.9 C 39.6 32.3 38.4 32.3 37.2 31.8 C 37.2 31.2 37.0 29.8 36.9 29.1 Z" />
<path fill="#354e66" stroke="#354e66" stroke-width="0.09375" opacity="1.00" d=" M 264.0 29.1 C 265.1 27.9 266.9 27.9 268.0 29.1 C 268.0 29.8 267.9 31.2 267.9 31.9 C 266.6 32.2 265.4 32.2 264.1 31.9 C 264.1 31.2 264.0 29.8 264.0 29.1 Z" />
<path fill="#415c72" stroke="#415c72" stroke-width="0.09375" opacity="1.00" d=" M 2200.2 33.8 C 2199.6 32.3 2200.0 30.0 2202.0 30.1 C 2204.0 30.0 2204.3 32.3 2203.8 33.8 C 2202.6 34.3 2201.4 34.3 2200.2 33.8 Z" />
<path fill="#31587a" stroke="#31587a" stroke-width="0.09375" opacity="1.00" d=" M 2030.7 37.7 C 2035.7 36.2 2040.4 33.7 2044.9 30.9 C 2044.5 37.5 2036.1 41.1 2030.7 37.7 Z" />
<path fill="#304961" stroke="#304961" stroke-width="0.09375" opacity="1.00" d=" M 2943.3 31.3 C 2948.0 29.5 2952.9 35.3 2950.8 39.7 C 2949.1 44.3 2941.8 44.7 2939.6 40.4 C 2937.4 37.1 2939.6 32.3 2943.3 31.3 Z" />
<path fill="#4b657c" stroke="#4b657c" stroke-width="0.09375" opacity="1.00" d=" M 1514.0 35.2 C 1515.1 33.9 1516.9 33.9 1518.0 35.2 C 1517.9 35.8 1517.8 37.2 1517.8 37.9 C 1516.6 38.3 1515.4 38.3 1514.2 37.9 C 1514.2 37.2 1514.1 35.8 1514.0 35.2 Z" />
<path fill="#557086" stroke="#557086" stroke-width="0.09375" opacity="1.00" d=" M 2944.3 34.3 C 2948.2 33.3 2949.5 40.7 2945.0 40.0 C 2941.3 40.6 2941.2 35.1 2944.3 34.3 Z" />
<path fill="#304961" stroke="#304961" stroke-width="0.09375" opacity="1.00" d=" M 2155.3 39.3 C 2160.0 37.5 2164.9 43.3 2162.8 47.7 C 2161.2 52.3 2153.8 52.7 2151.6 48.4 C 2149.4 45.1 2151.6 40.3 2155.3 39.3 Z" />
<path fill="#68849a" stroke="#68849a" stroke-width="0.09375" opacity="1.00" d=" M 655.0 42.1 C 656.1 40.9 657.9 40.9 659.0 42.1 C 659.0 42.8 658.8 44.2 658.7 44.9 C 657.6 45.3 656.4 45.3 655.2 44.8 C 655.2 44.2 655.0 42.8 655.0 42.1 Z" />
<path fill="#4b657c" stroke="#4b657c" stroke-width="0.09375" opacity="1.00" d=" M 791.0 42.2 C 792.1 40.9 793.9 40.9 795.0 42.2 C 794.9 42.8 794.8 44.2 794.8 44.9 C 793.6 45.3 792.4 45.3 791.2 44.9 C 791.2 44.2 791.1 42.8 791.0 42.2 Z" />
<path fill="#4b657c" stroke="#4b657c" stroke-width="0.09375" opacity="1.00" d=" M 1302.0 42.2 C 1303.1 40.9 1304.9 40.9 1306.0 42.2 C 1305.9 42.8 1305.9 44.2 1305.8 44.9 C 1304.6 45.3 1303.4 45.3 1302.2 44.9 C 1302.1 44.2 1302.1 42.8 1302.0 42.2 Z" />
<path fill="#557086" stroke="#557086" stroke-width="0.09375" opacity="1.00" d=" M 2156.3 42.3 C 2160.2 41.3 2161.5 48.6 2157.0 48.0 C 2153.3 48.6 2153.2 43.1 2156.3 42.3 Z" />
<path fill="#375168" stroke="#375168" stroke-width="0.09375" opacity="1.00" d=" M 485.3 43.2 C 489.4 41.7 493.7 45.9 493.3 50.0 C 492.8 54.8 485.7 57.5 482.6 53.4 C 478.9 50.6 481.1 44.2 485.3 43.2 Z" />
<path fill="#708da2" stroke="#708da2" stroke-width="0.09375" opacity="1.00" d=" M 1736.0 46.1 C 1737.1 44.9 1738.9 44.9 1740.0 46.1 C 1740.0 46.8 1739.8 48.2 1739.7 48.8 C 1738.6 49.3 1737.4 49.3 1736.3 48.8 C 1736.2 48.2 1736.0 46.8 1736.0 46.1 Z" />
<path fill="#344d65" stroke="#344d65" stroke-width="0.09375" opacity="1.00" d=" M 95.0 47.1 C 96.1 45.9 97.9 45.9 99.0 47.1 C 99.0 47.8 98.9 49.2 98.9 49.9 C 97.6 50.2 96.4 50.2 95.1 49.9 C 95.1 49.2 95.1 47.8 95.0 47.1 Z" />
<path fill="#658197" stroke="#658197" stroke-width="0.09375" opacity="1.00" d=" M 486.3 46.3 C 489.3 45.5 491.3 50.1 488.7 51.8 C 487.0 52.3 484.2 52.2 484.2 49.8 C 483.6 48.2 485.0 47.0 486.3 46.3 Z" />
<path fill="#4b657c" stroke="#4b657c" stroke-width="0.09375" opacity="1.00" d=" M 1102.0 47.2 C 1103.1 45.9 1104.9 45.9 1106.0 47.2 C 1105.9 47.8 1105.8 49.2 1105.8 49.9 C 1104.6 50.3 1103.4 50.3 1102.2 49.9 C 1102.2 49.2 1102.1 47.8 1102.0 47.2 Z" />
<path fill="#415c72" stroke="#415c72" stroke-width="0.09375" opacity="1.00" d=" M 1973.2 51.8 C 1972.6 50.3 1973.0 48.0 1975.0 48.1 C 1977.0 48.0 1977.4 50.3 1976.8 51.8 C 1975.6 52.3 1974.4 52.3 1973.2 51.8 Z" />
<path fill="#4b657c" stroke="#4b657c" stroke-width="0.09375" opacity="1.00" d=" M 418.0 50.2 C 419.1 48.9 420.9 48.9 422.0 50.2 C 421.9 50.8 421.8 52.2 421.8 52.9 C 420.6 53.3 419.4 53.3 418.2 52.9 C 418.2 52.2 418.1 50.8 418.0 50.2 Z" />
<path fill="#415c72" stroke="#415c72" stroke-width="0.09375" opacity="1.00" d=" M 2539.2 53.8 C 2538.6 52.3 2539.0 50.0 2541.0 50.1 C 2543.0 50.0 2543.3 52.3 2542.8 53.8 C 2541.6 54.3 2540.4 54.3 2539.2 53.8 Z" />
<path fill="#6b879d" stroke="#6b879d" stroke-width="0.09375" opacity="1.00" d=" M 2663.0 62.1 C 2664.1 60.9 2665.9 60.9 2667.0 62.1 C 2667.0 62.8 2666.8 64.2 2666.8 64.9 C 2665.6 65.3 2664.4 65.3 2663.2 64.8 C 2663.2 64.2 2663.0 62.8 2663.0 62.1 Z" />
<path fill="#415c72" stroke="#415c72" stroke-width="0.09375" opacity="1.00" d=" M 2883.2 69.8 C 2882.6 68.3 2883.0 66.0 2885.0 66.1 C 2887.0 66.0 2887.3 68.3 2886.8 69.8 C 2885.6 70.3 2884.4 70.3 2883.2 69.8 Z" />
<path fill="#284158" stroke="#284158" stroke-width="0.09375" opacity="1.00" d=" M 1599.4 67.3 C 1603.4 65.9 1607.5 69.9 1607.1 74.0 C 1606.7 78.7 1599.8 81.2 1596.7 77.3 C 1593.2 74.5 1595.2 68.3 1599.4 67.3 Z" />
<path fill="#243c54" stroke="#243c54" stroke-width="0.09375" opacity="1.00" d=" M 682.3 89.4 C 689.2 86.9 697.5 92.6 697.1 100.0 C 697.6 104.1 694.7 107.4 691.6 109.7 C 685.2 113.8 674.5 109.2 674.9 101.0 C 674.1 95.9 677.9 91.3 682.3 89.4 Z" />
<path fill="#4b657c" stroke="#4b657c" stroke-width="0.09375" opacity="1.00" d=" M 1201.0 93.2 C 1202.1 91.9 1203.9 91.9 1205.0 93.2 C 1204.9 93.8 1204.8 95.2 1204.8 95.9 C 1203.6 96.3 1202.4 96.3 1201.2 95.9 C 1201.2 95.2 1201.1 93.8 1201.0 93.2 Z" />
<path fill="#49637a" stroke="#49637a" stroke-width="0.09375" opacity="1.00" d=" M 684.3 94.4 C 688.3 93.0 692.6 96.9 692.0 101.0 C 691.9 105.8 684.7 108.2 681.6 104.4 C 678.2 101.6 680.2 95.3 684.3 94.4 Z" />
<path fill="#354e66" stroke="#354e66" stroke-width="0.09375" opacity="1.00" d=" M 911.0 96.1 C 912.1 94.9 913.9 94.9 915.0 96.1 C 915.0 96.8 914.9 98.2 914.9 98.9 C 913.6 99.2 912.4 99.2 911.1 98.9 C 911.1 98.2 911.0 96.8 911.0 96.1 Z" />
<path fill="#90aec3" stroke="#90aec3" stroke-width="0.09375" opacity="1.00" d=" M 685.3 97.3 C 687.2 96.8 689.5 98.8 688.8 100.9 C 688.6 103.7 683.4 103.7 683.2 100.9 C 682.6 99.3 683.9 97.9 685.3 97.3 Z" />
<path fill="#213a51" stroke="#213a51" stroke-width="0.09375" opacity="1.00" d=" M 1878.4 98.3 C 1883.5 96.3 1888.5 103.8 1884.8 107.8 C 1882.8 110.7 1877.9 111.0 1875.7 108.3 C 1872.3 105.5 1874.2 99.3 1878.4 98.3 Z" />
<path fill="#638095" stroke="#638095" stroke-width="0.09375" opacity="1.00" d=" M 2225.9 101.1 C 2227.1 99.9 2228.9 99.9 2230.0 101.1 C 2230.0 101.8 2229.8 103.2 2229.8 103.9 C 2228.6 104.3 2227.4 104.3 2226.3 103.8 C 2226.2 103.2 2226.0 101.8 2225.9 101.1 Z" />
<path fill="#213a52" stroke="#213a52" stroke-width="0.09375" opacity="1.00" d=" M 1128.3 104.4 C 1136.0 101.6 1144.8 108.9 1143.0 117.0 C 1142.3 125.9 1129.7 129.2 1123.9 123.1 C 1121.1 120.2 1119.6 115.9 1120.9 112.0 C 1121.8 108.3 1125.0 105.8 1128.3 104.4 Z" />
<path fill="#354e66" stroke="#354e66" stroke-width="0.09375" opacity="1.00" d=" M 787.0 106.1 C 788.1 104.9 789.9 104.9 791.0 106.1 C 791.0 106.8 790.9 108.2 790.9 108.9 C 789.6 109.2 788.4 109.2 787.1 108.9 C 787.1 108.2 787.0 106.8 787.0 106.1 Z" />
<path fill="#5d798f" stroke="#5d798f" stroke-width="0.09375" opacity="1.00" d=" M 1652.9 106.1 C 1654.1 105.0 1655.9 104.9 1657.0 106.1 C 1657.0 106.8 1656.8 108.2 1656.8 108.9 C 1655.6 109.3 1654.4 109.3 1653.3 108.8 C 1653.2 108.2 1653.0 106.8 1652.9 106.1 Z" />
<path fill="#213a51" stroke="#213a51" stroke-width="0.09375" opacity="1.00" d=" M 1365.4 106.3 C 1370.5 104.3 1375.5 111.8 1371.8 115.8 C 1369.8 118.7 1365.0 119.0 1362.7 116.3 C 1359.3 113.5 1361.2 107.3 1365.4 106.3 Z" />
<path fill="#415b72" stroke="#415b72" stroke-width="0.09375" opacity="1.00" d=" M 1130.3 109.4 C 1135.6 107.4 1140.5 114.8 1136.8 118.9 C 1134.8 121.8 1129.9 122.2 1127.6 119.4 C 1124.3 116.5 1126.2 110.3 1130.3 109.4 Z" />
<path fill="#213a51" stroke="#213a51" stroke-width="0.09375" opacity="1.00" d=" M 2485.4 110.3 C 2490.5 108.4 2495.5 115.8 2491.8 119.8 C 2489.8 122.7 2484.9 123.0 2482.7 120.3 C 2479.3 117.5 2481.2 111.3 2485.4 110.3 Z" />
<path fill="#7f9cb1" stroke="#7f9cb1" stroke-width="0.09375" opacity="1.00" d=" M 1131.3 112.3 C 1135.3 111.2 1136.4 118.4 1132.0 118.0 C 1128.5 118.4 1128.1 113.0 1131.3 112.3 Z" />
<path fill="#5b778d" stroke="#5b778d" stroke-width="0.09375" opacity="1.00" d=" M 1462.0 118.1 C 1463.1 116.9 1464.9 116.9 1466.1 118.1 C 1466.0 118.8 1465.8 120.2 1465.8 120.9 C 1464.6 121.3 1463.4 121.3 1462.2 120.8 C 1462.2 120.2 1462.0 118.8 1462.0 118.1 Z" />
<path fill="#3c566d" stroke="#3c566d" stroke-width="0.09375" opacity="1.00" d=" M 403.1 130.9 C 402.8 129.4 402.9 127.1 405.0 127.1 C 407.1 127.0 407.2 129.4 406.9 130.9 C 405.6 131.2 404.4 131.2 403.1 130.9 Z" />
<path fill="#4b657c" stroke="#4b657c" stroke-width="0.09375" opacity="1.00" d=" M 1019.0 132.2 C 1020.1 130.9 1021.9 130.9 1023.0 132.2 C 1022.9 132.8 1022.8 134.2 1022.8 134.9 C 1021.6 135.3 1020.4 135.3 1019.2 134.9 C 1019.2 134.2 1019.1 132.8 1019.0 132.2 Z" />
<path fill="#4b657c" stroke="#4b657c" stroke-width="0.09375" opacity="1.00" d=" M 1447.0 142.2 C 1448.1 140.9 1449.9 140.9 1451.0 142.2 C 1450.9 142.8 1450.8 144.2 1450.8 144.9 C 1449.6 145.3 1448.4 145.3 1447.2 144.9 C 1447.2 144.2 1447.1 142.8 1447.0 142.2 Z" />
<path fill="#4b657c" stroke="#4b657c" stroke-width="0.09375" opacity="1.00" d=" M 1281.0 145.1 C 1282.1 143.9 1283.9 143.9 1285.0 145.2 C 1284.9 145.8 1284.8 147.2 1284.8 147.9 C 1283.6 148.3 1282.4 148.3 1281.2 147.9 C 1281.2 147.2 1281.1 145.8 1281.0 145.1 Z" />
<path fill="#304a61" stroke="#304a61" stroke-width="0.09375" opacity="1.00" d=" M 1695.3 150.3 C 1700.8 148.1 1706.2 156.6 1701.4 160.4 C 1698.2 164.6 1691.4 161.7 1690.7 157.0 C 1690.6 154.1 1692.4 151.0 1695.3 150.3 Z" />
<path fill="#c2d7e4" stroke="#c2d7e4" stroke-width="0.09375" opacity="1.00" d=" M 2558.8 156.9 C 2561.3 156.1 2561.0 151.8 2564.1 152.2 C 2569.1 152.1 2573.9 153.8 2578.9 153.7 C 2587.8 153.2 2596.3 157.5 2603.0 163.0 C 2611.3 168.9 2618.2 176.5 2626.0 183.0 C 2628.1 184.6 2630.7 185.1 2633.2 185.8 C 2639.3 187.3 2645.3 189.5 2651.4 191.1 C 2648.0 193.0 2644.0 191.3 2640.4 191.5 C 2633.1 191.6 2625.7 190.5 2618.8 188.1 C 2617.5 187.7 2615.6 187.4 2614.8 188.7 C 2612.4 191.9 2611.7 196.1 2609.3 199.3 C 2607.1 201.8 2607.8 206.1 2604.6 207.6 C 2599.9 207.9 2596.8 204.0 2593.2 201.8 C 2589.8 200.1 2589.2 195.9 2586.0 194.0 C 2582.7 191.7 2580.0 186.9 2575.3 188.2 C 2572.2 190.9 2569.7 194.1 2567.5 197.5 C 2566.3 199.5 2563.7 200.4 2561.6 199.4 C 2556.0 196.8 2554.3 190.0 2549.1 186.9 C 2546.0 184.8 2543.5 188.4 2540.8 189.6 C 2538.2 189.4 2536.1 186.8 2533.4 187.4 C 2529.2 187.7 2525.9 190.3 2522.8 192.7 C 2520.7 194.3 2517.1 194.9 2515.5 192.5 C 2513.4 190.2 2511.1 186.0 2507.3 187.2 C 2504.4 189.3 2501.3 191.1 2497.6 191.6 C 2492.6 192.2 2488.6 196.4 2483.4 195.7 C 2481.3 195.5 2479.2 195.1 2477.1 194.8 C 2476.7 192.6 2478.4 191.1 2480.1 190.2 C 2483.4 189.0 2484.7 185.4 2487.6 183.6 C 2493.1 180.0 2497.9 175.3 2502.7 170.7 C 2507.1 166.6 2512.6 162.8 2518.9 163.2 C 2527.1 162.9 2535.4 163.1 2543.6 162.5 C 2548.9 161.3 2554.0 159.5 2558.8 156.9 Z" />
<path fill="#557086" stroke="#557086" stroke-width="0.09375" opacity="1.00" d=" M 1696.3 153.3 C 1700.2 152.3 1701.5 159.6 1697.0 159.0 C 1693.3 159.6 1693.2 154.1 1696.3 153.3 Z" />
<path fill="#415c72" stroke="#415c72" stroke-width="0.09375" opacity="1.00" d=" M 2747.2 156.8 C 2746.6 155.3 2747.0 153.0 2749.0 153.1 C 2751.0 153.0 2751.3 155.3 2750.8 156.8 C 2749.6 157.3 2748.4 157.3 2747.2 156.8 Z" />
<path fill="#415c72" stroke="#415c72" stroke-width="0.09375" opacity="1.00" d=" M 2929.2 159.8 C 2928.6 158.3 2929.0 156.0 2931.0 156.1 C 2933.0 156.0 2933.3 158.3 2932.8 159.8 C 2931.6 160.3 2930.4 160.3 2929.2 159.8 Z" />
<path fill="#4b657c" stroke="#4b657c" stroke-width="0.09375" opacity="1.00" d=" M 2178.0 159.2 C 2179.1 157.9 2180.9 157.9 2182.0 159.2 C 2181.9 159.8 2181.8 161.2 2181.8 161.9 C 2180.6 162.3 2179.4 162.3 2178.2 161.9 C 2178.2 161.2 2178.1 159.8 2178.0 159.2 Z" />
<path fill="#4b657c" stroke="#4b657c" stroke-width="0.09375" opacity="1.00" d=" M 640.0 161.2 C 641.1 159.9 642.9 159.9 644.0 161.2 C 643.9 161.8 643.8 163.2 643.8 163.9 C 642.6 164.3 641.4 164.3 640.2 163.9 C 640.2 163.2 640.1 161.8 640.0 161.2 Z" />
<path fill="#3f5970" stroke="#3f5970" stroke-width="0.09375" opacity="1.00" d=" M 169.2 168.8 C 168.7 167.3 169.0 165.0 171.0 165.1 C 173.0 165.0 173.3 167.3 172.8 168.8 C 171.6 169.3 170.4 169.3 169.2 168.8 Z" />
<path fill="#223b53" stroke="#223b53" stroke-width="0.09375" opacity="1.00" d=" M 107.3 169.4 C 115.0 166.6 123.8 173.9 122.0 182.0 C 121.3 190.9 108.7 194.2 102.9 188.1 C 100.1 185.2 98.6 180.9 99.9 177.0 C 100.8 173.3 104.0 170.8 107.3 169.4 Z" />
<path fill="#213a51" stroke="#213a51" stroke-width="0.09375" opacity="1.00" d=" M 274.4 171.3 C 279.6 169.3 284.5 176.8 280.8 180.8 C 278.8 183.7 274.0 184.0 271.7 181.3 C 268.3 178.5 270.2 172.3 274.4 171.3 Z" />
<path fill="#304961" stroke="#304961" stroke-width="0.09375" opacity="1.00" d=" M 901.3 171.3 C 906.0 169.5 910.9 175.3 908.8 179.7 C 907.1 184.3 899.8 184.7 897.6 180.5 C 895.5 177.2 897.6 172.3 901.3 171.3 Z" />
<path fill="#445e75" stroke="#445e75" stroke-width="0.09375" opacity="1.00" d=" M 109.4 174.4 C 113.8 172.9 118.1 177.6 117.0 181.9 C 116.0 186.7 108.8 187.7 106.0 184.0 C 103.6 180.8 105.4 175.3 109.4 174.4 Z" />
<path fill="#557086" stroke="#557086" stroke-width="0.09375" opacity="1.00" d=" M 902.3 174.3 C 906.2 173.3 907.5 180.6 903.0 180.0 C 899.3 180.6 899.2 175.1 902.3 174.3 Z" />
<path fill="#86a3b8" stroke="#86a3b8" stroke-width="0.09375" opacity="1.00" d=" M 110.3 177.3 C 112.2 176.9 114.5 178.8 113.8 180.9 C 113.6 183.8 108.3 183.8 108.2 180.9 C 107.7 179.3 108.9 177.9 110.3 177.3 Z" />
<path fill="#213a52" stroke="#213a52" stroke-width="0.09375" opacity="1.00" d=" M 1947.3 180.4 C 1955.0 177.5 1963.8 185.0 1962.0 193.0 C 1961.3 201.9 1948.7 205.2 1942.9 199.1 C 1940.1 196.2 1938.6 191.9 1939.9 188.0 C 1940.8 184.3 1944.0 181.8 1947.3 180.4 Z" />
<path fill="#83a6bc" stroke="#83a6bc" stroke-width="0.09375" opacity="1.00" d=" M 2781.3 188.4 C 2788.3 187.8 2794.3 183.7 2801.1 182.3 C 2806.1 183.1 2810.9 184.9 2815.9 186.1 C 2826.1 189.2 2837.4 187.9 2847.0 193.0 C 2860.5 198.4 2873.8 204.5 2886.6 211.4 C 2891.1 214.5 2895.5 217.8 2900.0 220.9 C 2904.0 223.9 2908.6 225.7 2913.0 228.0 C 2916.6 229.8 2920.2 232.0 2924.4 232.6 C 2931.7 233.8 2939.1 235.0 2946.4 236.5 C 2950.5 237.1 2952.4 241.3 2955.1 243.9 C 2958.7 248.5 2964.6 249.8 2969.4 252.5 C 2974.7 254.6 2979.5 258.3 2985.4 258.5 C 2990.3 258.9 2995.1 260.2 3000.0 261.1 L 3000.0 293.3 C 2990.3 287.3 2979.1 285.0 2968.3 281.7 C 2964.0 280.6 2961.5 276.5 2958.1 273.9 C 2955.2 271.8 2952.9 268.9 2949.9 267.1 C 2934.7 262.8 2918.7 261.2 2904.1 254.9 C 2898.0 252.1 2891.2 252.4 2884.6 251.4 C 2870.6 250.2 2856.6 251.3 2842.6 252.5 C 2834.6 253.0 2827.0 255.5 2819.2 257.2 C 2806.3 260.3 2793.4 263.4 2780.4 266.4 C 2775.0 267.6 2771.0 271.9 2765.8 273.8 C 2760.0 274.8 2754.0 274.8 2748.2 275.4 C 2737.7 276.8 2727.3 274.9 2716.8 274.4 C 2692.9 272.9 2669.1 271.1 2645.2 269.6 C 2640.4 269.3 2635.6 269.1 2631.3 266.7 C 2625.1 263.2 2617.9 263.1 2611.0 261.9 C 2605.3 261.0 2599.5 260.2 2593.8 259.3 C 2588.8 258.5 2585.3 253.8 2580.1 253.7 C 2572.4 253.0 2564.8 252.3 2557.2 251.6 C 2554.0 251.3 2550.7 250.7 2547.6 251.7 C 2532.5 256.3 2517.4 260.5 2502.4 265.3 C 2491.3 269.2 2479.8 270.9 2468.4 273.4 C 2459.4 275.6 2450.2 275.0 2441.0 274.9 C 2433.9 273.3 2428.1 267.9 2420.7 267.4 C 2416.8 267.0 2413.1 265.9 2409.2 266.3 C 2402.8 267.3 2396.5 269.1 2390.1 269.9 C 2377.7 270.6 2365.3 269.9 2353.0 270.9 C 2344.9 270.4 2337.1 272.8 2329.2 274.3 C 2321.0 276.1 2312.7 277.7 2304.4 279.5 C 2301.0 280.3 2297.6 279.2 2294.2 278.7 C 2284.0 277.0 2273.8 275.1 2263.6 273.5 C 2257.7 272.6 2253.1 268.3 2247.2 267.6 C 2235.7 266.2 2224.1 264.9 2212.6 263.4 C 2207.6 262.7 2202.7 264.1 2197.8 264.7 C 2188.3 266.4 2178.8 267.5 2169.4 269.4 C 2158.4 271.6 2147.3 273.7 2136.1 274.9 C 2123.7 274.9 2111.3 275.6 2099.0 274.0 C 2088.7 272.9 2078.4 272.3 2068.2 270.8 C 2058.5 267.8 2049.2 263.6 2039.6 260.3 C 2031.3 258.2 2022.7 257.8 2014.4 255.7 C 2005.6 252.5 1997.0 249.0 1988.3 245.7 C 1982.1 243.0 1975.2 242.8 1968.6 241.4 C 1961.3 239.9 1953.9 239.2 1946.7 237.3 C 1953.2 236.6 1959.6 238.0 1966.1 238.2 C 1990.6 240.2 2015.1 243.2 2039.5 246.4 C 2049.2 247.3 2058.5 250.9 2068.0 253.0 C 2078.0 255.3 2087.7 258.6 2097.8 260.4 C 2109.9 261.1 2122.0 262.3 2134.1 263.0 C 2140.3 263.7 2146.7 264.4 2153.0 263.0 C 2179.6 258.6 2206.0 253.6 2232.6 249.5 C 2240.3 248.2 2248.2 249.1 2255.9 248.3 C 2264.6 247.4 2273.3 248.0 2281.9 247.1 C 2290.8 246.2 2299.9 247.3 2308.7 245.6 C 2314.9 243.7 2320.7 240.7 2326.9 238.9 C 2332.3 237.2 2338.3 237.3 2343.2 234.2 C 2350.1 229.8 2357.6 226.3 2363.6 220.6 C 2368.3 215.7 2375.2 214.5 2381.4 212.4 C 2388.0 212.4 2394.3 215.4 2401.0 215.1 C 2407.0 215.7 2412.4 212.9 2417.9 210.9 C 2422.2 209.5 2422.8 203.7 2427.0 202.1 C 2433.1 199.5 2439.2 196.8 2445.2 194.2 C 2449.5 192.1 2454.4 192.8 2459.0 192.3 C 2463.1 191.7 2467.2 193.5 2471.2 192.2 C 2474.1 191.3 2477.0 190.6 2480.1 190.2 C 2478.4 191.1 2476.7 192.6 2477.1 194.8 C 2479.2 195.1 2481.3 195.5 2483.4 195.7 C 2488.6 196.4 2492.6 192.2 2497.6 191.6 C 2501.3 191.1 2504.4 189.3 2507.3 187.2 C 2511.1 186.0 2513.4 190.2 2515.5 192.5 C 2517.1 194.9 2520.7 194.3 2522.8 192.7 C 2525.9 190.3 2529.2 187.7 2533.4 187.4 C 2536.1 186.8 2538.2 189.4 2540.8 189.6 C 2543.5 188.4 2546.0 184.8 2549.1 186.9 C 2554.3 190.0 2556.0 196.8 2561.6 199.4 C 2563.7 200.4 2566.3 199.5 2567.5 197.5 C 2569.7 194.1 2572.2 190.9 2575.3 188.2 C 2580.0 186.9 2582.7 191.7 2586.0 194.0 C 2589.2 195.9 2589.8 200.1 2593.2 201.8 C 2596.8 204.0 2599.9 207.9 2604.6 207.6 C 2607.8 206.1 2607.1 201.8 2609.3 199.3 C 2611.7 196.1 2612.4 191.9 2614.8 188.7 C 2615.6 187.4 2617.5 187.7 2618.8 188.1 C 2625.7 190.5 2633.1 191.6 2640.4 191.5 C 2644.0 191.3 2648.0 193.0 2651.4 191.1 C 2659.2 192.6 2667.1 192.2 2675.0 192.3 C 2685.4 192.2 2695.7 192.9 2706.0 192.7 C 2712.2 192.5 2718.5 193.5 2724.7 192.6 C 2730.8 191.9 2736.9 192.0 2743.0 191.0 C 2750.6 189.8 2758.4 189.9 2766.1 189.4 C 2771.2 188.7 2776.3 188.8 2781.3 188.4 Z" />
<path fill="#415b72" stroke="#415b72" stroke-width="0.09375" opacity="1.00" d=" M 1949.3 185.4 C 1954.6 183.4 1959.5 190.8 1955.8 194.9 C 1953.8 197.9 1948.9 198.2 1946.6 195.3 C 1943.3 192.5 1945.2 186.3 1949.3 185.4 Z" />
<path fill="#4b657c" stroke="#4b657c" stroke-width="0.09375" opacity="1.00" d=" M 2257.0 187.2 C 2258.1 185.9 2259.9 185.9 2261.0 187.2 C 2260.9 187.8 2260.8 189.2 2260.8 189.9 C 2259.6 190.3 2258.4 190.3 2257.2 189.9 C 2257.2 189.2 2257.1 187.8 2257.0 187.2 Z" />
<path fill="#c2d7e4" stroke="#c2d7e4" stroke-width="0.09375" opacity="1.00" d=" M 1746.8 187.5 C 1749.9 187.2 1753.3 186.0 1756.2 187.8 C 1764.8 192.1 1774.1 195.2 1782.4 200.0 C 1778.8 203.3 1774.2 201.0 1770.1 200.5 C 1766.3 200.9 1762.4 200.3 1758.6 200.5 C 1755.2 202.3 1752.9 205.6 1750.1 208.1 C 1749.3 208.9 1747.6 209.1 1746.9 208.1 C 1742.7 202.5 1734.9 200.9 1728.3 202.2 C 1727.4 203.4 1726.5 204.6 1725.6 205.8 C 1721.2 207.2 1716.9 202.1 1712.7 204.6 C 1708.0 207.3 1702.2 207.4 1697.1 205.8 C 1697.0 204.0 1698.1 202.5 1698.9 201.0 C 1707.4 198.5 1715.2 193.9 1723.4 190.6 C 1731.3 190.3 1738.9 187.9 1746.8 187.5 Z" />
<path fill="#7f9cb1" stroke="#7f9cb1" stroke-width="0.09375" opacity="1.00" d=" M 1950.3 188.3 C 1952.2 187.9 1954.5 189.8 1953.8 191.9 C 1953.6 194.7 1948.4 194.8 1948.2 191.9 C 1947.6 190.3 1948.9 188.9 1950.3 188.3 Z" />
<path fill="#415c72" stroke="#415c72" stroke-width="0.09375" opacity="1.00" d=" M 2037.2 192.8 C 2036.6 191.3 2037.0 189.0 2039.0 189.0 C 2041.0 189.0 2041.4 191.3 2040.8 192.8 C 2039.6 193.3 2038.4 193.3 2037.2 192.8 Z" />
<path fill="#2980b9" stroke="#2980b9" stroke-width="0.09375" opacity="1.00" d=" M 1846.4 197.4 C 1847.6 196.8 1849.0 195.9 1850.3 196.7 C 1855.6 199.0 1860.7 201.7 1866.0 204.1 C 1876.5 208.5 1884.4 217.4 1894.6 222.4 C 1900.6 225.4 1906.3 229.1 1912.6 231.3 C 1923.9 233.7 1935.3 235.9 1946.7 237.3 C 1953.9 239.2 1961.3 239.9 1968.6 241.4 C 1975.2 242.8 1982.1 243.0 1988.3 245.7 C 1997.0 249.0 2005.6 252.5 2014.4 255.7 C 2022.7 257.8 2031.3 258.2 2039.6 260.3 C 2049.2 263.6 2058.5 267.8 2068.2 270.8 C 2078.4 272.3 2088.7 272.9 2099.0 274.0 C 2111.3 275.6 2123.7 274.9 2136.1 274.9 C 2147.3 273.7 2158.4 271.6 2169.4 269.4 C 2178.8 267.5 2188.3 266.4 2197.8 264.7 C 2202.7 264.1 2207.6 262.7 2212.6 263.4 C 2224.1 264.9 2235.7 266.2 2247.2 267.6 C 2253.1 268.3 2257.7 272.6 2263.6 273.5 C 2273.8 275.1 2284.0 277.0 2294.2 278.7 C 2297.6 279.2 2301.0 280.3 2304.4 279.5 C 2312.7 277.7 2321.0 276.1 2329.2 274.3 C 2337.1 272.8 2344.9 270.4 2353.0 270.9 C 2365.3 269.9 2377.7 270.6 2390.1 269.9 C 2396.5 269.1 2402.8 267.3 2409.2 266.3 C 2413.1 265.9 2416.8 267.0 2420.7 267.4 C 2428.1 267.9 2433.9 273.3 2441.0 274.9 C 2450.2 275.0 2459.4 275.6 2468.4 273.4 C 2479.8 270.9 2491.3 269.2 2502.4 265.3 C 2517.4 260.5 2532.5 256.3 2547.6 251.7 C 2550.7 250.7 2554.0 251.3 2557.2 251.6 C 2564.8 252.3 2572.4 253.0 2580.1 253.7 C 2585.3 253.8 2588.8 258.5 2593.8 259.3 C 2599.5 260.2 2605.3 261.0 2611.0 261.9 C 2617.9 263.1 2625.1 263.2 2631.3 266.7 C 2635.6 269.1 2640.4 269.3 2645.2 269.6 C 2669.1 271.1 2692.9 272.9 2716.8 274.4 C 2727.3 274.9 2737.7 276.8 2748.2 275.4 C 2754.0 274.8 2760.0 274.8 2765.8 273.8 C 2771.0 271.9 2775.0 267.6 2780.4 266.4 C 2793.4 263.4 2806.3 260.3 2819.2 257.2 C 2827.0 255.5 2834.6 253.0 2842.6 252.5 C 2856.6 251.3 2870.6 250.2 2884.6 251.4 C 2891.2 252.4 2898.0 252.1 2904.1 254.9 C 2918.7 261.2 2934.7 262.8 2949.9 267.1 C 2952.9 268.9 2955.2 271.8 2958.1 273.9 C 2961.5 276.5 2964.0 280.6 2968.3 281.7 C 2979.1 285.0 2990.3 287.3 3000.0 293.3 L 3000.0 317.1 C 2989.6 316.7 2979.3 315.1 2969.0 314.1 C 2924.7 309.2 2880.4 305.4 2836.0 301.0 C 2826.7 299.8 2817.3 300.2 2808.0 300.1 C 2792.3 300.2 2776.6 300.0 2761.0 300.0 C 2756.9 299.9 2753.0 301.2 2749.2 302.3 C 2735.9 305.9 2722.5 309.5 2709.2 313.2 C 2705.2 314.4 2701.1 313.2 2697.0 313.2 C 2688.7 313.0 2680.3 313.0 2671.9 312.8 C 2657.3 311.5 2642.6 312.4 2628.0 311.2 C 2615.5 311.9 2603.5 307.9 2591.4 305.7 C 2568.6 301.5 2545.8 297.1 2523.0 293.0 C 2514.6 292.9 2506.3 294.9 2497.9 295.8 C 2485.3 296.8 2473.8 302.4 2461.8 305.8 C 2455.5 307.5 2449.5 310.3 2442.9 310.8 C 2435.7 311.6 2428.6 313.1 2421.3 313.5 C 2405.5 310.8 2389.6 308.1 2373.8 305.2 C 2362.4 301.9 2351.2 297.8 2339.9 294.1 C 2335.3 292.8 2330.9 290.5 2326.0 290.0 C 2315.3 289.9 2304.7 288.8 2293.9 288.8 C 2284.3 287.7 2274.6 288.4 2265.0 287.3 C 2261.4 287.1 2257.8 286.7 2254.3 287.4 C 2246.9 289.8 2240.2 294.4 2232.4 295.5 C 2212.4 299.1 2192.4 302.6 2172.4 306.5 C 2170.3 306.9 2168.2 307.2 2166.1 306.8 C 2139.6 303.3 2113.2 299.8 2086.8 296.3 C 2065.3 293.1 2043.6 291.4 2022.1 289.0 C 2006.7 288.2 1991.3 290.1 1975.9 290.2 C 1965.4 291.5 1954.6 290.3 1944.1 292.2 C 1932.1 294.1 1920.0 294.7 1908.0 295.1 C 1894.4 295.9 1880.9 293.5 1867.4 292.6 C 1861.1 291.4 1853.7 293.0 1848.4 288.7 C 1843.9 285.4 1839.4 282.3 1835.0 279.1 C 1833.5 278.0 1831.7 277.3 1829.9 277.1 C 1808.3 274.0 1786.7 270.9 1765.0 267.9 C 1758.1 266.6 1751.0 267.1 1744.0 267.0 C 1727.0 267.0 1710.0 267.0 1693.0 267.0 C 1687.9 267.3 1682.2 267.6 1678.7 271.7 C 1673.6 275.6 1669.4 280.8 1663.9 283.9 C 1657.9 284.2 1652.0 284.3 1646.0 284.9 C 1632.0 284.8 1618.0 286.2 1603.9 286.2 C 1593.7 287.2 1583.3 286.7 1573.0 286.8 C 1563.4 286.2 1554.3 289.4 1544.9 290.9 C 1539.7 292.3 1533.9 292.1 1529.3 295.3 C 1521.7 300.1 1514.2 304.9 1506.6 309.6 C 1504.3 311.1 1502.0 313.1 1499.0 312.8 C 1489.2 312.5 1479.1 314.0 1469.4 311.5 C 1462.9 306.8 1457.5 300.7 1451.7 295.2 C 1439.2 294.4 1426.5 295.1 1414.0 294.9 C 1405.8 295.2 1397.4 293.9 1389.4 296.3 C 1380.9 298.2 1372.5 300.4 1364.0 302.0 C 1351.7 303.4 1339.4 304.6 1327.0 305.8 C 1317.4 306.2 1307.7 305.8 1298.0 306.1 C 1290.2 306.4 1282.8 303.6 1275.0 302.9 C 1264.7 302.7 1254.2 303.2 1244.0 305.1 C 1229.8 307.3 1215.6 309.4 1201.4 311.5 C 1198.9 312.1 1196.7 310.4 1194.7 309.3 C 1186.4 304.3 1178.0 299.4 1169.7 294.3 C 1163.7 290.2 1156.4 288.9 1149.6 286.4 C 1132.6 280.8 1115.7 274.8 1098.7 269.5 C 1085.4 270.3 1072.2 271.9 1059.0 273.0 C 1054.3 273.2 1050.0 275.3 1045.6 276.6 C 1038.6 279.0 1031.5 281.1 1024.4 283.4 C 1022.1 284.2 1019.7 283.9 1017.4 283.6 C 1007.7 282.4 997.8 282.5 988.2 280.7 C 979.9 276.6 971.5 272.3 963.4 267.7 C 961.7 266.9 959.9 265.8 958.0 266.1 C 944.1 268.3 930.3 271.1 916.3 272.9 C 912.5 269.3 908.9 265.4 905.6 261.3 C 898.4 260.6 891.2 260.0 884.0 260.0 C 873.7 259.5 863.5 257.6 853.5 255.1 C 855.7 254.2 857.9 253.6 860.2 253.2 C 872.6 251.1 884.9 248.4 897.2 246.2 C 898.6 245.9 899.9 245.4 901.2 245.0 C 913.3 243.2 925.3 240.7 937.4 238.4 C 939.0 238.0 940.8 238.0 942.3 238.7 C 948.8 241.2 955.1 244.2 961.8 246.3 C 968.3 249.6 975.3 251.9 982.0 254.9 C 983.9 255.8 985.9 256.1 988.0 256.1 C 997.3 256.2 1006.7 256.4 1016.0 256.3 C 1031.7 257.5 1047.4 256.8 1063.1 257.6 C 1066.6 258.1 1069.9 256.3 1073.1 255.2 C 1082.1 252.2 1091.1 249.2 1100.0 246.0 C 1102.6 244.0 1103.9 240.6 1105.5 237.8 C 1105.4 237.5 1105.2 237.0 1105.1 236.7 C 1112.0 229.8 1120.6 225.1 1128.2 219.2 C 1130.1 218.1 1132.0 215.7 1134.4 216.6 C 1142.4 218.8 1150.2 221.6 1158.1 223.9 C 1163.0 225.3 1167.7 227.8 1172.9 227.2 C 1172.8 227.6 1172.5 228.3 1172.4 228.7 C 1179.9 230.6 1187.2 233.2 1194.6 235.4 C 1202.7 237.4 1209.3 242.7 1216.7 246.2 C 1218.1 247.0 1219.6 246.3 1221.0 246.1 C 1232.1 243.9 1243.2 241.0 1254.6 241.5 C 1270.8 246.1 1286.6 251.8 1302.9 256.1 C 1322.0 260.0 1341.1 263.7 1360.2 267.7 C 1361.4 267.9 1362.7 267.9 1364.0 267.8 C 1376.7 266.6 1389.3 265.4 1402.0 264.2 C 1414.7 262.7 1427.3 260.6 1440.0 258.9 C 1448.6 257.1 1457.4 259.2 1466.1 259.1 C 1479.6 260.5 1493.5 259.6 1506.8 263.2 C 1518.9 265.8 1531.0 268.8 1543.4 269.5 C 1553.9 270.1 1564.5 273.2 1575.0 270.9 C 1586.0 269.4 1597.0 267.8 1608.0 266.3 C 1618.3 265.5 1628.6 266.4 1638.9 265.8 C 1643.3 264.2 1646.7 260.8 1651.1 259.2 C 1661.9 257.9 1672.9 258.0 1683.7 256.6 C 1694.1 254.4 1704.4 251.9 1714.8 249.8 C 1721.9 248.6 1724.6 240.3 1731.3 238.2 C 1739.6 235.2 1747.9 232.1 1756.3 229.3 C 1767.1 227.7 1778.1 227.4 1789.0 226.0 C 1794.7 225.1 1800.3 223.3 1806.0 222.0 C 1810.9 221.1 1815.1 218.2 1819.2 215.4 C 1822.8 213.7 1826.3 211.8 1829.7 209.7 C 1832.9 207.7 1834.5 203.7 1837.9 201.9 C 1840.7 200.4 1843.6 199.0 1846.4 197.4 Z" />
<path fill="#304961" stroke="#304961" stroke-width="0.09375" opacity="1.00" d=" M 319.3 197.3 C 324.0 195.5 328.9 201.3 326.8 205.7 C 325.2 210.3 317.8 210.7 315.6 206.4 C 313.5 203.1 315.6 198.3 319.3 197.3 Z" />
<path fill="#83a6bc" stroke="#83a6bc" stroke-width="0.09375" opacity="1.00" d=" M 1551.3 198.3 C 1556.0 196.3 1561.1 197.1 1566.0 197.0 C 1571.7 196.8 1577.3 197.7 1582.9 197.7 C 1586.8 197.7 1590.6 198.0 1594.4 198.6 C 1610.4 200.9 1626.6 203.1 1642.6 205.4 C 1653.7 206.9 1665.0 207.5 1676.1 205.9 C 1683.9 205.7 1691.3 202.7 1698.9 201.0 C 1698.1 202.5 1697.0 204.0 1697.1 205.8 C 1702.2 207.4 1708.0 207.3 1712.7 204.6 C 1716.9 202.1 1721.2 207.2 1725.6 205.8 C 1726.5 204.6 1727.4 203.4 1728.3 202.2 C 1734.9 200.9 1742.7 202.5 1746.9 208.1 C 1747.6 209.1 1749.3 208.9 1750.1 208.1 C 1752.9 205.6 1755.2 202.3 1758.6 200.5 C 1762.4 200.3 1766.3 200.9 1770.1 200.5 C 1774.2 201.0 1778.8 203.3 1782.4 200.0 C 1794.9 204.6 1806.5 211.6 1819.2 215.4 C 1815.1 218.2 1810.9 221.1 1806.0 222.0 C 1800.3 223.3 1794.7 225.1 1789.0 226.0 C 1778.1 227.4 1767.1 227.7 1756.3 229.3 C 1747.9 232.1 1739.6 235.2 1731.3 238.2 C 1724.6 240.3 1721.9 248.6 1714.8 249.8 C 1704.4 251.9 1694.1 254.4 1683.7 256.6 C 1672.9 258.0 1661.9 257.9 1651.1 259.2 C 1646.7 260.8 1643.3 264.2 1638.9 265.8 C 1628.6 266.4 1618.3 265.5 1608.0 266.3 C 1597.0 267.8 1586.0 269.4 1575.0 270.9 C 1564.5 273.2 1553.9 270.1 1543.4 269.5 C 1531.0 268.8 1518.9 265.8 1506.8 263.2 C 1493.5 259.6 1479.6 260.5 1466.1 259.1 C 1457.4 259.2 1448.6 257.1 1440.0 258.9 C 1427.3 260.6 1414.7 262.7 1402.0 264.2 C 1389.3 265.4 1376.7 266.6 1364.0 267.8 C 1362.7 267.9 1361.4 267.9 1360.2 267.7 C 1341.1 263.7 1322.0 260.0 1302.9 256.1 C 1286.6 251.8 1270.8 246.1 1254.6 241.5 C 1243.2 241.0 1232.1 243.9 1221.0 246.1 C 1219.6 246.3 1218.1 247.0 1216.7 246.2 C 1209.3 242.7 1202.7 237.4 1194.6 235.4 C 1187.2 233.2 1179.9 230.6 1172.4 228.7 C 1172.5 228.3 1172.8 227.6 1172.9 227.2 C 1178.0 226.8 1183.0 225.8 1188.1 225.3 C 1191.6 224.9 1194.7 227.3 1198.2 227.7 C 1201.0 227.7 1203.8 227.0 1206.6 226.6 C 1217.4 224.8 1228.3 223.8 1238.7 220.1 C 1241.3 223.6 1246.1 222.7 1250.0 222.9 C 1253.4 223.0 1256.6 221.7 1259.9 221.6 C 1264.5 221.6 1267.4 217.1 1271.9 216.8 C 1274.7 217.6 1275.1 221.2 1277.3 222.8 C 1281.4 223.8 1285.2 219.9 1286.4 216.2 C 1289.7 215.3 1293.0 216.4 1296.1 217.8 C 1301.3 216.4 1306.6 217.3 1311.9 218.0 C 1311.7 217.5 1311.2 216.4 1311.0 215.9 C 1314.4 217.3 1317.0 219.9 1320.0 221.9 C 1323.7 224.6 1327.5 227.1 1330.9 230.1 C 1335.0 234.0 1338.6 238.4 1342.6 242.4 C 1344.6 244.7 1347.7 244.8 1350.4 245.6 C 1355.3 246.6 1360.1 248.1 1365.1 248.8 C 1374.2 248.4 1383.4 247.8 1392.5 247.5 C 1399.6 247.2 1406.2 244.6 1413.0 243.0 C 1420.2 241.3 1427.2 238.4 1434.8 238.5 C 1446.5 237.0 1458.2 234.7 1469.9 232.8 C 1474.5 231.9 1479.4 231.9 1483.7 229.7 C 1498.0 222.3 1512.3 214.8 1526.7 207.7 C 1534.4 203.4 1543.1 201.4 1551.3 198.3 Z" />
<path fill="#557086" stroke="#557086" stroke-width="0.09375" opacity="1.00" d=" M 320.3 200.3 C 324.2 199.3 325.5 206.6 321.0 206.0 C 317.3 206.6 317.2 201.1 320.3 200.3 Z" />
<path fill="#4c677d" stroke="#4c677d" stroke-width="0.09375" opacity="1.00" d=" M 471.0 201.2 C 472.1 199.9 473.9 199.9 475.0 201.2 C 474.9 201.8 474.8 203.2 474.8 203.9 C 473.6 204.3 472.4 204.3 471.2 203.9 C 471.2 203.2 471.1 201.8 471.0 201.2 Z" />
<path fill="#284158" stroke="#284158" stroke-width="0.09375" opacity="1.00" d=" M 2114.4 202.3 C 2118.4 200.9 2122.5 204.9 2122.1 209.0 C 2121.7 213.7 2114.8 216.2 2111.7 212.3 C 2108.2 209.5 2110.2 203.3 2114.4 202.3 Z" />
<path fill="#4b657c" stroke="#4b657c" stroke-width="0.09375" opacity="1.00" d=" M 682.0 206.2 C 683.1 204.9 684.9 204.9 686.0 206.1 C 685.9 206.8 685.9 208.2 685.8 208.9 C 684.6 209.3 683.4 209.3 682.2 208.9 C 682.2 208.2 682.1 206.8 682.0 206.2 Z" />
<path fill="#c2d7e4" stroke="#c2d7e4" stroke-width="0.09375" opacity="1.00" d=" M 1264.7 207.7 C 1270.0 206.2 1275.8 203.8 1281.3 205.8 C 1291.1 209.4 1301.2 212.3 1311.0 215.9 C 1311.2 216.4 1311.7 217.5 1311.9 218.0 C 1306.6 217.3 1301.3 216.4 1296.1 217.8 C 1293.0 216.4 1289.7 215.3 1286.4 216.2 C 1285.2 219.9 1281.4 223.8 1277.3 222.8 C 1275.1 221.2 1274.7 217.6 1271.9 216.8 C 1267.4 217.1 1264.5 221.6 1259.9 221.6 C 1256.6 221.7 1253.4 223.0 1250.0 222.9 C 1246.1 222.7 1241.3 223.6 1238.7 220.1 C 1242.9 218.4 1247.4 217.5 1251.6 215.6 C 1253.4 214.9 1253.1 212.5 1254.3 211.2 C 1257.6 209.7 1261.2 208.9 1264.7 207.7 Z" />
<path fill="#c2d7e4" stroke="#c2d7e4" stroke-width="0.09375" opacity="1.00" d=" M 176.9 216.1 C 188.8 211.4 201.3 207.9 214.0 206.2 C 224.7 205.2 233.8 211.4 243.5 214.6 C 250.2 216.8 256.3 220.6 262.4 224.0 C 261.4 225.5 259.6 224.7 258.2 224.7 C 253.0 223.7 247.5 224.4 242.3 223.6 C 239.5 222.2 237.3 219.7 234.4 218.5 C 231.5 216.8 229.0 220.6 226.1 219.9 C 223.3 219.3 221.0 216.9 217.9 217.3 C 213.7 216.3 211.5 220.5 208.2 222.2 C 205.9 223.4 202.9 225.7 200.4 223.7 C 197.6 222.1 199.1 216.5 195.0 216.8 C 188.7 216.9 182.4 216.4 176.2 217.8 C 176.4 217.3 176.7 216.5 176.9 216.1 Z" />
<path fill="#2980b9" stroke="#2980b9" stroke-width="0.09375" opacity="1.00" d=" M 601.2 209.0 C 615.0 212.5 628.5 217.1 642.1 220.9 C 644.7 221.7 647.7 222.2 649.7 224.2 C 654.2 228.5 658.5 232.8 663.0 237.1 C 666.0 240.3 669.5 243.1 672.6 246.4 C 674.4 248.2 676.1 250.6 679.0 250.2 C 697.3 250.1 715.7 250.2 734.0 250.1 C 746.7 249.8 759.2 251.6 771.8 252.4 C 779.3 253.3 787.0 253.0 794.3 254.7 C 778.7 257.0 763.0 258.5 747.3 260.4 C 738.5 261.8 731.2 268.9 722.0 268.0 C 710.3 268.0 698.7 268.0 687.0 267.9 C 682.9 267.7 678.6 268.4 674.6 267.3 C 663.9 263.4 653.1 259.6 642.3 255.7 C 639.9 254.9 637.4 254.5 634.9 254.1 C 618.9 251.6 603.0 248.7 586.9 246.2 C 578.7 246.0 570.4 246.2 562.2 246.4 C 546.5 249.1 531.0 252.3 515.4 255.4 C 513.1 256.1 510.9 255.0 508.8 254.3 C 529.7 248.6 550.6 243.1 571.4 237.4 C 574.1 236.6 577.3 236.5 579.2 234.2 C 582.2 230.9 584.8 227.2 588.1 224.2 C 593.0 219.6 596.6 213.8 601.2 209.0 Z" />
<path fill="#83a6bc" stroke="#83a6bc" stroke-width="0.09375" opacity="1.00" d=" M 154.7 224.7 C 162.1 222.0 169.5 219.0 176.9 216.1 C 176.7 216.5 176.4 217.3 176.2 217.8 C 182.4 216.4 188.7 216.9 195.0 216.8 C 199.1 216.5 197.6 222.1 200.4 223.7 C 202.9 225.7 205.9 223.4 208.2 222.2 C 211.5 220.5 213.7 216.3 217.9 217.3 C 221.0 216.9 223.3 219.3 226.1 219.9 C 229.0 220.6 231.5 216.8 234.4 218.5 C 237.3 219.7 239.5 222.2 242.3 223.6 C 247.5 224.4 253.0 223.7 258.2 224.7 C 259.6 224.7 261.4 225.5 262.4 224.0 C 266.4 225.4 268.1 229.6 271.1 232.3 C 277.6 230.6 282.8 224.7 289.9 225.1 C 300.3 224.0 310.7 224.5 321.0 223.0 C 334.1 220.9 347.4 219.7 360.5 217.5 C 364.6 216.6 368.5 218.5 372.4 219.7 C 378.9 221.8 385.6 223.5 392.1 225.9 C 396.4 228.5 399.1 233.1 403.1 236.0 C 406.7 236.7 410.4 235.5 414.0 235.3 C 418.0 234.6 422.4 235.3 426.1 233.1 C 431.3 230.1 436.6 227.0 441.8 223.8 C 443.1 223.0 444.5 222.2 446.0 222.3 C 463.2 222.1 480.4 222.9 497.5 221.5 C 503.8 221.0 510.2 222.0 516.4 220.4 C 522.2 219.0 528.1 218.1 533.9 216.9 C 536.6 216.3 539.3 215.6 542.0 215.9 C 557.5 218.0 573.0 220.4 588.1 224.2 C 584.8 227.2 582.2 230.9 579.2 234.2 C 577.3 236.5 574.1 236.6 571.4 237.4 C 550.6 243.1 529.7 248.6 508.8 254.3 C 502.4 252.3 496.2 249.2 489.4 248.5 C 475.0 246.9 460.7 244.4 446.2 243.1 C 440.2 248.6 435.0 254.8 429.1 260.4 C 407.8 253.1 386.7 245.1 365.4 237.5 C 362.5 236.3 359.4 237.8 356.6 238.5 C 338.1 243.4 319.6 248.2 301.2 253.2 C 298.2 253.9 295.2 255.1 292.1 254.7 C 251.2 249.3 210.3 244.0 169.4 238.6 C 161.6 237.8 153.8 236.0 146.0 235.8 C 129.7 242.7 113.6 250.2 97.3 257.4 C 94.6 258.5 92.0 260.2 89.0 260.7 C 82.5 259.3 76.2 257.0 69.8 255.2 C 66.6 254.2 63.1 253.7 60.3 251.7 C 53.3 246.4 45.9 241.5 38.9 236.2 C 55.7 231.4 72.6 227.1 89.4 222.4 C 91.6 221.8 93.9 220.9 96.1 221.9 C 104.6 225.1 113.2 228.1 121.7 231.2 C 123.7 232.1 125.8 231.3 127.8 230.9 C 136.7 228.7 145.8 227.1 154.7 224.7 Z" />
<path fill="#83a6bc" stroke="#83a6bc" stroke-width="0.09375" opacity="1.00" d=" M 756.9 217.9 C 758.2 217.2 759.5 216.1 761.0 216.3 C 769.1 216.9 777.0 218.7 785.1 219.8 C 788.6 220.4 792.5 220.4 795.6 222.4 C 806.8 228.9 817.9 235.5 829.1 242.0 C 832.5 243.9 835.8 246.7 840.0 247.0 C 846.0 247.8 851.9 250.0 858.0 249.0 C 862.0 248.5 866.0 248.2 870.0 248.0 C 880.4 247.4 890.7 245.2 901.2 245.0 C 899.9 245.4 898.6 245.9 897.2 246.2 C 884.9 248.4 872.6 251.1 860.2 253.2 C 857.9 253.6 855.7 254.2 853.5 255.1 C 843.9 254.6 834.5 252.3 825.0 251.5 C 814.7 252.1 804.6 254.2 794.3 254.7 C 787.0 253.0 779.3 253.3 771.8 252.4 C 759.2 251.6 746.7 249.8 734.0 250.1 C 715.7 250.2 697.3 250.1 679.0 250.2 C 676.1 250.6 674.4 248.2 672.6 246.4 C 669.5 243.1 666.0 240.3 663.0 237.1 C 681.5 238.3 699.9 239.9 718.4 241.6 C 720.4 241.7 722.5 242.0 724.6 241.6 C 729.2 237.6 733.1 232.7 738.1 229.1 C 744.3 225.3 750.7 221.8 756.9 217.9 Z" />
<path fill="#2980b9" stroke="#2980b9" stroke-width="0.09375" opacity="1.00" d=" M 20.4 226.4 C 21.4 225.9 22.5 224.6 23.6 225.4 C 28.8 228.8 33.7 232.8 38.9 236.2 C 45.9 241.5 53.3 246.4 60.3 251.7 C 63.1 253.7 66.6 254.2 69.8 255.2 C 76.2 257.0 82.5 259.3 89.0 260.7 C 92.0 260.2 94.6 258.5 97.3 257.4 C 113.6 250.2 129.7 242.7 146.0 235.8 C 153.8 236.0 161.6 237.8 169.4 238.6 C 210.3 244.0 251.2 249.3 292.1 254.7 C 295.2 255.1 298.2 253.9 301.2 253.2 C 319.6 248.2 338.1 243.4 356.6 238.5 C 359.4 237.8 362.5 236.3 365.4 237.5 C 386.7 245.1 407.8 253.1 429.1 260.4 C 425.7 264.9 420.8 267.9 416.5 271.5 C 407.2 275.1 397.9 278.9 388.4 282.4 C 381.0 284.0 373.3 284.6 365.8 285.7 C 362.1 286.5 360.4 282.1 357.6 280.3 C 353.7 277.7 350.9 273.5 346.8 271.1 C 337.6 272.0 328.5 274.1 319.4 275.5 C 314.3 276.1 309.2 278.2 304.1 277.0 C 276.2 270.2 248.2 263.5 220.2 256.8 C 218.1 256.2 215.8 256.2 213.6 256.5 C 205.3 257.4 196.9 256.5 188.6 257.6 C 180.7 259.5 172.9 262.0 165.1 264.1 C 162.6 264.6 161.8 267.1 161.2 269.2 C 159.1 276.6 156.4 283.9 154.3 291.3 C 153.4 294.1 153.0 297.6 150.0 299.0 C 146.3 301.2 142.8 303.7 139.0 305.8 C 135.4 303.7 132.7 300.2 129.3 297.7 C 125.2 294.5 122.1 288.3 116.0 288.9 C 102.1 287.9 88.1 288.2 74.2 286.8 C 52.5 281.5 30.8 276.2 9.2 270.7 C 6.2 269.8 3.1 269.0 0.0 268.8 L 0.0 241.3 C 6.9 236.4 13.7 231.4 20.4 226.4 Z" />
<path fill="#83a6bc" stroke="#83a6bc" stroke-width="0.09375" opacity="1.00" d=" M 1080.6 245.6 C 1088.9 242.9 1097.0 239.7 1105.1 236.7 C 1105.2 237.0 1105.4 237.5 1105.5 237.8 C 1103.9 240.6 1102.6 244.0 1100.0 246.0 C 1091.1 249.2 1082.1 252.2 1073.1 255.2 C 1069.9 256.3 1066.6 258.1 1063.1 257.6 C 1047.4 256.8 1031.7 257.5 1016.0 256.3 C 1006.7 256.4 997.3 256.2 988.0 256.1 C 985.9 256.1 983.9 255.8 982.0 254.9 C 975.3 251.9 968.3 249.6 961.8 246.3 C 973.5 246.0 985.2 247.9 997.0 247.7 C 1006.1 247.6 1014.9 250.4 1024.0 250.0 C 1033.9 249.8 1043.9 250.4 1053.8 249.6 C 1062.7 248.2 1071.8 247.5 1080.6 245.6 Z" />
<path fill="#21628d" stroke="#21628d" stroke-width="0.09375" opacity="1.00" d=" M 446.2 243.1 C 460.7 244.4 475.0 246.9 489.4 248.5 C 496.2 249.2 502.4 252.3 508.8 254.3 C 510.9 255.0 513.1 256.1 515.4 255.4 C 531.0 252.3 546.5 249.1 562.2 246.4 C 570.4 246.2 578.7 246.0 586.9 246.2 C 603.0 248.7 618.9 251.6 634.9 254.1 C 637.4 254.5 639.9 254.9 642.3 255.7 C 653.1 259.6 663.9 263.4 674.6 267.3 C 678.6 268.4 682.9 267.7 687.0 267.9 C 698.7 268.0 710.3 268.0 722.0 268.0 C 731.2 268.9 738.5 261.8 747.3 260.4 C 763.0 258.5 778.7 257.0 794.3 254.7 C 804.6 254.2 814.7 252.1 825.0 251.5 C 834.5 252.3 843.9 254.6 853.5 255.1 C 863.5 257.6 873.7 259.5 884.0 260.0 C 891.2 260.0 898.4 260.6 905.6 261.3 C 908.9 265.4 912.5 269.3 916.3 272.9 C 930.3 271.1 944.1 268.3 958.0 266.1 C 959.9 265.8 961.7 266.9 963.4 267.7 C 971.5 272.3 979.9 276.6 988.2 280.7 C 997.8 282.5 1007.7 282.4 1017.4 283.6 C 1019.7 283.9 1022.1 284.2 1024.4 283.4 C 1031.5 281.1 1038.6 279.0 1045.6 276.6 C 1050.0 275.3 1054.3 273.2 1059.0 273.0 C 1072.2 271.9 1085.4 270.3 1098.7 269.5 C 1115.7 274.8 1132.6 280.8 1149.6 286.4 C 1156.4 288.9 1163.7 290.2 1169.7 294.3 C 1178.0 299.4 1186.4 304.3 1194.7 309.3 C 1196.7 310.4 1198.9 312.1 1201.4 311.5 C 1215.6 309.4 1229.8 307.3 1244.0 305.1 C 1254.2 303.2 1264.7 302.7 1275.0 302.9 C 1282.8 303.6 1290.2 306.4 1298.0 306.1 C 1307.7 305.8 1317.4 306.2 1327.0 305.8 C 1339.4 304.6 1351.7 303.4 1364.0 302.0 C 1372.5 300.4 1380.9 298.2 1389.4 296.3 C 1397.4 293.9 1405.8 295.2 1414.0 294.9 C 1426.5 295.1 1439.2 294.4 1451.7 295.2 C 1457.5 300.7 1462.9 306.8 1469.4 311.5 C 1479.1 314.0 1489.2 312.5 1499.0 312.8 C 1502.0 313.1 1504.3 311.1 1506.6 309.6 C 1514.2 304.9 1521.7 300.1 1529.3 295.3 C 1533.9 292.1 1539.7 292.3 1544.9 290.9 C 1554.3 289.4 1563.4 286.2 1573.0 286.8 C 1583.3 286.7 1593.7 287.2 1603.9 286.2 C 1618.0 286.2 1632.0 284.8 1646.0 284.9 C 1652.0 284.3 1657.9 284.2 1663.9 283.9 C 1669.4 280.8 1673.6 275.6 1678.7 271.7 C 1682.2 267.6 1687.9 267.3 1693.0 267.0 C 1710.0 267.0 1727.0 267.0 1744.0 267.0 C 1751.0 267.1 1758.1 266.6 1765.0 267.9 C 1786.7 270.9 1808.3 274.0 1829.9 277.1 C 1831.7 277.3 1833.5 278.0 1835.0 279.1 C 1839.4 282.3 1843.9 285.4 1848.4 288.7 C 1853.7 293.0 1861.1 291.4 1867.4 292.6 C 1880.9 293.5 1894.4 295.9 1908.0 295.1 C 1920.0 294.7 1932.1 294.1 1944.1 292.2 C 1954.6 290.3 1965.4 291.5 1975.9 290.2 C 1991.3 290.1 2006.7 288.2 2022.1 289.0 C 2043.6 291.4 2065.3 293.1 2086.8 296.3 C 2113.2 299.8 2139.6 303.3 2166.1 306.8 C 2168.2 307.2 2170.3 306.9 2172.4 306.5 C 2192.4 302.6 2212.4 299.1 2232.4 295.5 C 2240.2 294.4 2246.9 289.8 2254.3 287.4 C 2257.8 286.7 2261.4 287.1 2265.0 287.3 C 2274.6 288.4 2284.3 287.7 2293.9 288.8 C 2304.7 288.8 2315.3 289.9 2326.0 290.0 C 2330.9 290.5 2335.3 292.8 2339.9 294.1 C 2351.2 297.8 2362.4 301.9 2373.8 305.2 C 2389.6 308.1 2405.5 310.8 2421.3 313.5 C 2428.6 313.1 2435.7 311.6 2442.9 310.8 C 2449.5 310.3 2455.5 307.5 2461.8 305.8 C 2473.8 302.4 2485.3 296.8 2497.9 295.8 C 2506.3 294.9 2514.6 292.9 2523.0 293.0 C 2545.8 297.1 2568.6 301.5 2591.4 305.7 C 2603.5 307.9 2615.5 311.9 2628.0 311.2 C 2642.6 312.4 2657.3 311.5 2671.9 312.8 C 2680.3 313.0 2688.7 313.0 2697.0 313.2 C 2701.1 313.2 2705.2 314.4 2709.2 313.2 C 2722.5 309.5 2735.9 305.9 2749.2 302.3 C 2753.0 301.2 2756.9 299.9 2761.0 300.0 C 2776.6 300.0 2792.3 300.2 2808.0 300.1 C 2817.3 300.2 2826.7 299.8 2836.0 301.0 C 2880.4 305.4 2924.7 309.2 2969.0 314.1 C 2979.3 315.1 2989.6 316.7 3000.0 317.1 L 3000.0 340.0 L 0.0 340.0 L 0.0 268.8 C 3.1 269.0 6.2 269.8 9.2 270.7 C 30.8 276.2 52.5 281.5 74.2 286.8 C 88.1 288.2 102.1 287.9 116.0 288.9 C 122.1 288.3 125.2 294.5 129.3 297.7 C 132.7 300.2 135.4 303.7 139.0 305.8 C 142.8 303.7 146.3 301.2 150.0 299.0 C 153.0 297.6 153.4 294.1 154.3 291.3 C 156.4 283.9 159.1 276.6 161.2 269.2 C 161.8 267.1 162.6 264.6 165.1 264.1 C 172.9 262.0 180.7 259.5 188.6 257.6 C 196.9 256.5 205.3 257.4 213.6 256.5 C 215.8 256.2 218.1 256.2 220.2 256.8 C 248.2 263.5 276.2 270.2 304.1 277.0 C 309.2 278.2 314.3 276.1 319.4 275.5 C 328.5 274.1 337.6 272.0 346.8 271.1 C 350.9 273.5 353.7 277.7 357.6 280.3 C 360.4 282.1 362.1 286.5 365.8 285.7 C 373.3 284.6 381.0 284.0 388.4 282.4 C 397.9 278.9 407.2 275.1 416.5 271.5 C 420.8 267.9 425.7 264.9 429.1 260.4 C 435.0 254.8 440.2 248.6 446.2 243.1 Z" />
</svg>
