<?xml version="1.0" encoding="UTF-8" ?>
<!DOCTYPE svg PUBLIC "-//W3C//DTD SVG 1.1//EN" "http://www.w3.org/Graphics/SVG/1.1/DTD/svg11.dtd">
<svg width="37pt" height="36pt" viewBox="0 0 37 36" version="1.1" xmlns="http://www.w3.org/2000/svg">
<path fill="#95a5a6" stroke="#95a5a6" stroke-width="0.09375" opacity="1.00" d=" M 7.3 0.0 L 34.3 0.0 C 34.1 1.4 35.6 2.9 37.0 2.7 L 37.0 28.8 C 35.1 32.9 28.8 33.8 26.5 29.6 C 25.9 26.0 26.3 22.3 26.0 18.6 C 19.8 23.9 14.6 30.3 8.7 36.0 L 3.0 36.0 C 1.5 34.4 -0.3 32.4 0.4 30.0 C 1.2 27.6 3.4 25.9 5.1 24.1 C 9.4 19.7 14.0 15.5 18.1 10.9 C 13.8 10.2 7.9 12.4 5.1 7.8 C 3.1 5.1 5.5 2.1 7.3 0.0 Z" />
</svg>
