<?xml version="1.0" standalone="no"?>
<!DOCTYPE svg PUBLIC "-//W3C//DTD SVG 20010904//EN"
 "http://www.w3.org/TR/2001/REC-SVG-20010904/DTD/svg10.dtd">
<svg version="1.0" xmlns="http://www.w3.org/2000/svg"
 width="760.000000pt" height="760.000000pt" viewBox="0 0 760.000000 760.000000"
 preserveAspectRatio="xMidYMid meet">
<metadata>
Created by potrace 1.11, written by Peter Selinger 2001-2013
</metadata>
<g transform="translate(0.000000,760.000000) scale(0.100000,-0.100000)"
fill="#000000" stroke="none">
<path d="M3589 7496 c-2 -2 -51 -7 -108 -11 -58 -3 -107 -8 -110 -9 -3 -2 -33
-6 -66 -10 -159 -17 -443 -80 -637 -142 -325 -104 -700 -290 -977 -486 -57
-40 -113 -80 -125 -88 -11 -8 -59 -46 -106 -84 -622 -512 -1061 -1205 -1251
-1974 -33 -136 -35 -142 -43 -193 -3 -19 -12 -74 -20 -124 -32 -190 -41 -319
-41 -575 0 -280 8 -383 51 -640 69 -417 246 -892 468 -1259 172 -282 348 -505
582 -736 132 -131 135 -134 262 -236 48 -39 96 -78 107 -86 44 -36 267 -184
359 -238 224 -131 524 -264 756 -334 58 -18 125 -39 150 -46 25 -8 61 -17 80
-20 19 -3 53 -11 75 -17 22 -5 51 -12 65 -14 14 -3 36 -7 50 -9 37 -8 58 -11
255 -40 186 -26 721 -27 860 -1 11 2 47 7 80 10 33 4 67 9 75 11 8 2 31 6 50
9 19 3 46 8 60 10 14 3 36 7 50 10 76 13 332 83 448 122 209 70 385 149 627
279 83 45 366 231 422 277 22 18 55 44 73 58 128 97 348 308 480 461 127 148
165 196 262 339 253 372 429 762 539 1198 16 63 32 129 34 146 3 17 10 54 15
81 12 62 18 98 25 155 3 25 7 63 10 85 21 170 27 545 12 732 -22 283 -83 580
-175 858 -230 692 -664 1306 -1244 1758 -252 195 -507 345 -843 493 -122 53
-461 164 -550 180 -16 3 -55 11 -85 18 -30 8 -71 17 -90 20 -19 3 -45 8 -56
10 -37 7 -86 15 -179 26 -49 6 -103 13 -120 16 -36 6 -551 15 -556 10z"/>
</g>
</svg>
