<?xml version="1.0" standalone="no"?>
<!DOCTYPE svg PUBLIC "-//W3C//DTD SVG 20010904//EN"
 "http://www.w3.org/TR/2001/REC-SVG-20010904/DTD/svg10.dtd">
<svg version="1.0" xmlns="http://www.w3.org/2000/svg"
 width="1500.000000pt" height="1500.000000pt" viewBox="0 0 1500.000000 1500.000000"
 preserveAspectRatio="xMidYMid meet">
<metadata>
Created by potrace 1.11, written by Peter Selinger 2001-2013
</metadata>
<g transform="translate(0.000000,1500.000000) scale(0.100000,-0.100000)"
fill="#000000" stroke="none">
<path d="M7288 14995 c-2 -1 -56 -6 -120 -9 -64 -4 -132 -9 -150 -11 -18 -2
-64 -6 -103 -10 -38 -3 -83 -8 -100 -10 -16 -2 -52 -7 -80 -10 -90 -11 -153
-21 -382 -60 -207 -35 -580 -129 -818 -205 -55 -18 -100 -32 -100 -30 0 2 -14
-4 -100 -36 -11 -4 -24 -8 -30 -9 -20 -5 -302 -114 -397 -154 -502 -210 -997
-484 -1438 -795 -93 -65 -398 -293 -416 -310 -6 -6 -30 -27 -54 -46 -52 -41
-181 -150 -264 -223 -137 -121 -212 -193 -411 -392 -206 -206 -275 -278 -385
-405 -30 -34 -59 -68 -65 -74 -63 -70 -238 -284 -287 -351 -4 -5 -26 -34 -48
-63 -107 -139 -370 -515 -370 -529 0 -3 -13 -23 -29 -46 -43 -63 -126 -203
-226 -382 -171 -303 -375 -760 -503 -1126 -101 -286 -223 -722 -257 -917 -3
-18 -12 -63 -19 -100 -8 -37 -17 -85 -20 -107 -4 -22 -11 -65 -16 -95 -5 -30
-12 -75 -15 -100 -3 -25 -8 -56 -10 -70 -2 -14 -6 -47 -10 -75 -3 -27 -7 -65
-10 -84 -2 -18 -7 -67 -10 -110 -4 -42 -8 -92 -10 -111 -21 -209 -21 -788 -1
-1005 2 -16 7 -66 11 -110 6 -77 10 -111 20 -185 2 -19 7 -60 11 -90 3 -30 7
-57 9 -60 2 -3 6 -34 10 -70 4 -36 8 -67 10 -70 2 -3 6 -24 9 -46 4 -22 8 -51
11 -64 19 -97 25 -127 29 -145 2 -11 12 -54 21 -95 9 -41 18 -82 20 -90 2 -8
11 -44 20 -80 9 -36 18 -75 20 -87 25 -113 167 -550 250 -768 92 -242 278
-641 390 -840 24 -44 48 -87 52 -95 10 -21 101 -179 128 -220 83 -132 252
-387 262 -398 7 -8 18 -23 24 -34 6 -11 17 -27 24 -36 8 -9 57 -75 111 -147
82 -111 266 -340 341 -425 12 -14 30 -34 40 -46 251 -290 554 -591 923 -918
327 -290 874 -678 1256 -892 27 -15 76 -43 109 -61 222 -124 568 -284 840
-388 224 -86 615 -214 730 -240 11 -2 56 -14 100 -25 100 -27 82 -23 260 -59
179 -38 182 -38 265 -51 36 -6 76 -13 90 -15 33 -6 237 -32 320 -41 36 -4 76
-8 90 -10 14 -1 72 -6 130 -9 58 -4 130 -8 160 -10 63 -5 514 -5 605 0 119 5
300 19 395 30 111 13 251 31 305 40 17 3 41 7 55 9 37 6 301 55 328 61 12 3
30 7 40 9 9 2 59 14 111 26 52 11 97 23 101 25 4 2 20 7 36 10 69 12 321 88
514 154 629 214 1187 490 1765 874 66 44 130 87 141 96 12 9 32 23 44 31 60
40 377 283 475 364 469 387 949 875 1313 1334 26 33 61 76 77 97 184 231 498
704 650 980 12 22 37 67 55 100 159 287 348 709 457 1020 102 290 212 680 259
920 2 11 8 43 14 70 15 75 19 92 36 195 17 104 18 111 33 220 12 89 18 143 26
225 3 33 8 80 10 105 27 275 27 908 -1 1165 -2 22 -6 65 -9 95 -8 89 -38 307
-61 445 -3 17 -7 44 -10 60 -3 17 -7 37 -9 45 -2 8 -7 30 -10 48 -3 18 -12 65
-21 105 -8 39 -17 79 -19 87 -38 181 -185 678 -230 785 -7 17 -25 64 -41 105
-80 218 -168 419 -298 680 -99 198 -132 259 -219 410 -11 19 -31 55 -45 80
-13 25 -31 52 -38 61 -8 8 -14 19 -14 22 0 21 -257 400 -404 597 -83 112 -293
375 -331 416 -5 6 -35 39 -65 74 -135 157 -272 301 -480 505 -174 171 -185
181 -301 285 -40 36 -77 70 -83 75 -6 6 -38 33 -71 60 -33 28 -66 56 -74 64
-8 7 -58 48 -111 90 -52 42 -97 78 -100 81 -6 6 -166 125 -255 191 -206 150
-587 390 -810 509 -286 153 -617 304 -865 394 -41 15 -84 32 -95 37 -71 33
-616 200 -730 224 -11 2 -81 18 -155 35 -74 17 -173 37 -220 45 -47 9 -92 17
-100 20 -8 2 -35 6 -60 9 -25 4 -58 8 -75 11 -79 13 -93 15 -135 20 -25 3 -65
8 -90 11 -64 8 -102 12 -210 19 -52 4 -104 9 -115 12 -21 5 -722 13 -727 8z"/>
</g>
</svg>
